G04 #@! TF.GenerationSoftware,KiCad,Pcbnew,(5.1.5)-1*
G04 #@! TF.CreationDate,2021-04-16T13:39:06-04:00*
G04 #@! TF.ProjectId,intro-pcb,696e7472-6f2d-4706-9362-2e6b69636164,rev?*
G04 #@! TF.SameCoordinates,Original*
G04 #@! TF.FileFunction,Legend,Bot*
G04 #@! TF.FilePolarity,Positive*
%FSLAX46Y46*%
G04 Gerber Fmt 4.6, Leading zero omitted, Abs format (unit mm)*
G04 Created by KiCad (PCBNEW (5.1.5)-1) date 2021-04-16 13:39:06*
%MOMM*%
%LPD*%
G04 APERTURE LIST*
%ADD10C,0.120000*%
%ADD11C,0.150000*%
%ADD12R,1.502000X1.302000*%
%ADD13O,1.802000X2.802000*%
%ADD14R,0.602000X2.352000*%
%ADD15R,0.652000X1.602000*%
%ADD16R,1.602000X0.652000*%
%ADD17R,1.902000X1.202000*%
%ADD18C,0.100000*%
%ADD19C,1.852000*%
%ADD20C,2.352000*%
%ADD21C,4.089800*%
%ADD22C,2.352000*%
%ADD23R,1.302000X1.002000*%
G04 APERTURE END LIST*
D10*
X-371718000Y-36106000D02*
X-375718000Y-36106000D01*
X-371718000Y-32806000D02*
X-371718000Y-36106000D01*
D11*
X-401518750Y-31750000D02*
X-401518750Y-37200000D01*
X-393818750Y-31750000D02*
X-393818750Y-37200000D01*
X-401518750Y-37200000D02*
X-393818750Y-37200000D01*
X-379031250Y-54606250D02*
X-380306250Y-54606250D01*
X-368681250Y-55181250D02*
X-369356250Y-55181250D01*
X-368681250Y-44831250D02*
X-369356250Y-44831250D01*
X-379031250Y-44831250D02*
X-378356250Y-44831250D01*
X-379031250Y-55181250D02*
X-378356250Y-55181250D01*
X-379031250Y-44831250D02*
X-379031250Y-45506250D01*
X-368681250Y-44831250D02*
X-368681250Y-45506250D01*
X-368681250Y-55181250D02*
X-368681250Y-54506250D01*
X-379031250Y-55181250D02*
X-379031250Y-54606250D01*
X-398243750Y-60900000D02*
X-403443750Y-60900000D01*
X-403443750Y-60900000D02*
X-403443750Y-66100000D01*
X-403443750Y-66100000D02*
X-398243750Y-66100000D01*
X-398243750Y-66100000D02*
X-398243750Y-60900000D01*
X-399843750Y-63500000D02*
G75*
G03X-399843750Y-63500000I-1000000J0D01*
G01*
D10*
X-365200000Y-55201078D02*
X-365200000Y-54683922D01*
X-363780000Y-55201078D02*
X-363780000Y-54683922D01*
X-385878000Y-41397422D02*
X-385878000Y-41914578D01*
X-387298000Y-41397422D02*
X-387298000Y-41914578D01*
X-395680000Y-42168578D02*
X-395680000Y-41651422D01*
X-394260000Y-42168578D02*
X-394260000Y-41651422D01*
X-400760000Y-42168578D02*
X-400760000Y-41651422D01*
X-399340000Y-42168578D02*
X-399340000Y-41651422D01*
X-404770000Y-48992064D02*
X-404770000Y-47787936D01*
X-402950000Y-48992064D02*
X-402950000Y-47787936D01*
X-322850000Y-60987500D02*
X-322850000Y-57087500D01*
X-324850000Y-60987500D02*
X-324850000Y-57087500D01*
X-322850000Y-60987500D02*
X-324850000Y-60987500D01*
X-322850000Y-41875000D02*
X-322850000Y-37975000D01*
X-324850000Y-41875000D02*
X-324850000Y-37975000D01*
X-322850000Y-41875000D02*
X-324850000Y-41875000D01*
X-341900000Y-60987500D02*
X-341900000Y-57087500D01*
X-343900000Y-60987500D02*
X-343900000Y-57087500D01*
X-341900000Y-60987500D02*
X-343900000Y-60987500D01*
X-341900000Y-41875000D02*
X-341900000Y-37975000D01*
X-343900000Y-41875000D02*
X-343900000Y-37975000D01*
X-341900000Y-41875000D02*
X-343900000Y-41875000D01*
X-385360172Y-49922500D02*
X-385877328Y-49922500D01*
X-385360172Y-48502500D02*
X-385877328Y-48502500D01*
X-378916000Y-34627078D02*
X-378916000Y-34109922D01*
X-377496000Y-34627078D02*
X-377496000Y-34109922D01*
X-368352000Y-34109922D02*
X-368352000Y-34627078D01*
X-369772000Y-34109922D02*
X-369772000Y-34627078D01*
X-365200000Y-45295078D02*
X-365200000Y-44777922D01*
X-363780000Y-45295078D02*
X-363780000Y-44777922D01*
X-368978922Y-61035000D02*
X-369496078Y-61035000D01*
X-368978922Y-59615000D02*
X-369496078Y-59615000D01*
X-383742000Y-41914578D02*
X-383742000Y-41397422D01*
X-382322000Y-41914578D02*
X-382322000Y-41397422D01*
X-378227328Y-59615000D02*
X-377710172Y-59615000D01*
X-378227328Y-61035000D02*
X-377710172Y-61035000D01*
D11*
X-373241809Y-31982190D02*
X-373241809Y-32458380D01*
X-372908476Y-31458380D02*
X-373241809Y-31982190D01*
X-373575142Y-31458380D01*
X-374432285Y-32458380D02*
X-373860857Y-32458380D01*
X-374146571Y-32458380D02*
X-374146571Y-31458380D01*
X-374051333Y-31601238D01*
X-373956095Y-31696476D01*
X-373860857Y-31744095D01*
X-395930654Y-33234380D02*
X-395930654Y-34043904D01*
X-395978273Y-34139142D01*
X-396025892Y-34186761D01*
X-396121130Y-34234380D01*
X-396311607Y-34234380D01*
X-396406845Y-34186761D01*
X-396454464Y-34139142D01*
X-396502083Y-34043904D01*
X-396502083Y-33234380D01*
X-396930654Y-34186761D02*
X-397073511Y-34234380D01*
X-397311607Y-34234380D01*
X-397406845Y-34186761D01*
X-397454464Y-34139142D01*
X-397502083Y-34043904D01*
X-397502083Y-33948666D01*
X-397454464Y-33853428D01*
X-397406845Y-33805809D01*
X-397311607Y-33758190D01*
X-397121130Y-33710571D01*
X-397025892Y-33662952D01*
X-396978273Y-33615333D01*
X-396930654Y-33520095D01*
X-396930654Y-33424857D01*
X-396978273Y-33329619D01*
X-397025892Y-33282000D01*
X-397121130Y-33234380D01*
X-397359226Y-33234380D01*
X-397502083Y-33282000D01*
X-398263988Y-33710571D02*
X-398406845Y-33758190D01*
X-398454464Y-33805809D01*
X-398502083Y-33901047D01*
X-398502083Y-34043904D01*
X-398454464Y-34139142D01*
X-398406845Y-34186761D01*
X-398311607Y-34234380D01*
X-397930654Y-34234380D01*
X-397930654Y-33234380D01*
X-398263988Y-33234380D01*
X-398359226Y-33282000D01*
X-398406845Y-33329619D01*
X-398454464Y-33424857D01*
X-398454464Y-33520095D01*
X-398406845Y-33615333D01*
X-398359226Y-33662952D01*
X-398263988Y-33710571D01*
X-397930654Y-33710571D01*
X-399454464Y-34234380D02*
X-398883035Y-34234380D01*
X-399168750Y-34234380D02*
X-399168750Y-33234380D01*
X-399073511Y-33377238D01*
X-398978273Y-33472476D01*
X-398883035Y-33520095D01*
X-373094345Y-56908630D02*
X-373094345Y-57718154D01*
X-373141964Y-57813392D01*
X-373189583Y-57861011D01*
X-373284821Y-57908630D01*
X-373475297Y-57908630D01*
X-373570535Y-57861011D01*
X-373618154Y-57813392D01*
X-373665773Y-57718154D01*
X-373665773Y-56908630D01*
X-374665773Y-57908630D02*
X-374094345Y-57908630D01*
X-374380059Y-57908630D02*
X-374380059Y-56908630D01*
X-374284821Y-57051488D01*
X-374189583Y-57146726D01*
X-374094345Y-57194345D01*
X-399510416Y-67968761D02*
X-399653273Y-68016380D01*
X-399891369Y-68016380D01*
X-399986607Y-67968761D01*
X-400034226Y-67921142D01*
X-400081845Y-67825904D01*
X-400081845Y-67730666D01*
X-400034226Y-67635428D01*
X-399986607Y-67587809D01*
X-399891369Y-67540190D01*
X-399700892Y-67492571D01*
X-399605654Y-67444952D01*
X-399558035Y-67397333D01*
X-399510416Y-67302095D01*
X-399510416Y-67206857D01*
X-399558035Y-67111619D01*
X-399605654Y-67064000D01*
X-399700892Y-67016380D01*
X-399938988Y-67016380D01*
X-400081845Y-67064000D01*
X-400415178Y-67016380D02*
X-400653273Y-68016380D01*
X-400843750Y-67302095D01*
X-401034226Y-68016380D01*
X-401272321Y-67016380D01*
X-402177083Y-68016380D02*
X-401605654Y-68016380D01*
X-401891369Y-68016380D02*
X-401891369Y-67016380D01*
X-401796130Y-67159238D01*
X-401700892Y-67254476D01*
X-401605654Y-67302095D01*
X-362387619Y-54775833D02*
X-362863809Y-54442500D01*
X-362387619Y-54204404D02*
X-363387619Y-54204404D01*
X-363387619Y-54585357D01*
X-363340000Y-54680595D01*
X-363292380Y-54728214D01*
X-363197142Y-54775833D01*
X-363054285Y-54775833D01*
X-362959047Y-54728214D01*
X-362911428Y-54680595D01*
X-362863809Y-54585357D01*
X-362863809Y-54204404D01*
X-363054285Y-55632976D02*
X-362387619Y-55632976D01*
X-363435238Y-55394880D02*
X-362720952Y-55156785D01*
X-362720952Y-55775833D01*
X-387785619Y-41489333D02*
X-388261809Y-41156000D01*
X-387785619Y-40917904D02*
X-388785619Y-40917904D01*
X-388785619Y-41298857D01*
X-388738000Y-41394095D01*
X-388690380Y-41441714D01*
X-388595142Y-41489333D01*
X-388452285Y-41489333D01*
X-388357047Y-41441714D01*
X-388309428Y-41394095D01*
X-388261809Y-41298857D01*
X-388261809Y-40917904D01*
X-388785619Y-41822666D02*
X-388785619Y-42441714D01*
X-388404666Y-42108380D01*
X-388404666Y-42251238D01*
X-388357047Y-42346476D01*
X-388309428Y-42394095D01*
X-388214190Y-42441714D01*
X-387976095Y-42441714D01*
X-387880857Y-42394095D01*
X-387833238Y-42346476D01*
X-387785619Y-42251238D01*
X-387785619Y-41965523D01*
X-387833238Y-41870285D01*
X-387880857Y-41822666D01*
X-392867619Y-41743333D02*
X-393343809Y-41410000D01*
X-392867619Y-41171904D02*
X-393867619Y-41171904D01*
X-393867619Y-41552857D01*
X-393820000Y-41648095D01*
X-393772380Y-41695714D01*
X-393677142Y-41743333D01*
X-393534285Y-41743333D01*
X-393439047Y-41695714D01*
X-393391428Y-41648095D01*
X-393343809Y-41552857D01*
X-393343809Y-41171904D01*
X-393772380Y-42124285D02*
X-393820000Y-42171904D01*
X-393867619Y-42267142D01*
X-393867619Y-42505238D01*
X-393820000Y-42600476D01*
X-393772380Y-42648095D01*
X-393677142Y-42695714D01*
X-393581904Y-42695714D01*
X-393439047Y-42648095D01*
X-392867619Y-42076666D01*
X-392867619Y-42695714D01*
X-397947619Y-41743333D02*
X-398423809Y-41410000D01*
X-397947619Y-41171904D02*
X-398947619Y-41171904D01*
X-398947619Y-41552857D01*
X-398900000Y-41648095D01*
X-398852380Y-41695714D01*
X-398757142Y-41743333D01*
X-398614285Y-41743333D01*
X-398519047Y-41695714D01*
X-398471428Y-41648095D01*
X-398423809Y-41552857D01*
X-398423809Y-41171904D01*
X-397947619Y-42695714D02*
X-397947619Y-42124285D01*
X-397947619Y-42410000D02*
X-398947619Y-42410000D01*
X-398804761Y-42314761D01*
X-398709523Y-42219523D01*
X-398661904Y-42124285D01*
X-402111428Y-48056666D02*
X-402111428Y-47723333D01*
X-401587619Y-47723333D02*
X-402587619Y-47723333D01*
X-402587619Y-48199523D01*
X-401587619Y-49104285D02*
X-401587619Y-48532857D01*
X-401587619Y-48818571D02*
X-402587619Y-48818571D01*
X-402444761Y-48723333D01*
X-402349523Y-48628095D01*
X-402301904Y-48532857D01*
X-321397619Y-57999404D02*
X-322397619Y-57999404D01*
X-322397619Y-58237500D01*
X-322350000Y-58380357D01*
X-322254761Y-58475595D01*
X-322159523Y-58523214D01*
X-321969047Y-58570833D01*
X-321826190Y-58570833D01*
X-321635714Y-58523214D01*
X-321540476Y-58475595D01*
X-321445238Y-58380357D01*
X-321397619Y-58237500D01*
X-321397619Y-57999404D01*
X-322064285Y-59427976D02*
X-321397619Y-59427976D01*
X-322445238Y-59189880D02*
X-321730952Y-58951785D01*
X-321730952Y-59570833D01*
X-321397619Y-38886904D02*
X-322397619Y-38886904D01*
X-322397619Y-39125000D01*
X-322350000Y-39267857D01*
X-322254761Y-39363095D01*
X-322159523Y-39410714D01*
X-321969047Y-39458333D01*
X-321826190Y-39458333D01*
X-321635714Y-39410714D01*
X-321540476Y-39363095D01*
X-321445238Y-39267857D01*
X-321397619Y-39125000D01*
X-321397619Y-38886904D01*
X-322397619Y-39791666D02*
X-322397619Y-40410714D01*
X-322016666Y-40077380D01*
X-322016666Y-40220238D01*
X-321969047Y-40315476D01*
X-321921428Y-40363095D01*
X-321826190Y-40410714D01*
X-321588095Y-40410714D01*
X-321492857Y-40363095D01*
X-321445238Y-40315476D01*
X-321397619Y-40220238D01*
X-321397619Y-39934523D01*
X-321445238Y-39839285D01*
X-321492857Y-39791666D01*
X-340447619Y-57999404D02*
X-341447619Y-57999404D01*
X-341447619Y-58237500D01*
X-341400000Y-58380357D01*
X-341304761Y-58475595D01*
X-341209523Y-58523214D01*
X-341019047Y-58570833D01*
X-340876190Y-58570833D01*
X-340685714Y-58523214D01*
X-340590476Y-58475595D01*
X-340495238Y-58380357D01*
X-340447619Y-58237500D01*
X-340447619Y-57999404D01*
X-341352380Y-58951785D02*
X-341400000Y-58999404D01*
X-341447619Y-59094642D01*
X-341447619Y-59332738D01*
X-341400000Y-59427976D01*
X-341352380Y-59475595D01*
X-341257142Y-59523214D01*
X-341161904Y-59523214D01*
X-341019047Y-59475595D01*
X-340447619Y-58904166D01*
X-340447619Y-59523214D01*
X-340447619Y-38886904D02*
X-341447619Y-38886904D01*
X-341447619Y-39125000D01*
X-341400000Y-39267857D01*
X-341304761Y-39363095D01*
X-341209523Y-39410714D01*
X-341019047Y-39458333D01*
X-340876190Y-39458333D01*
X-340685714Y-39410714D01*
X-340590476Y-39363095D01*
X-340495238Y-39267857D01*
X-340447619Y-39125000D01*
X-340447619Y-38886904D01*
X-340447619Y-40410714D02*
X-340447619Y-39839285D01*
X-340447619Y-40125000D02*
X-341447619Y-40125000D01*
X-341304761Y-40029761D01*
X-341209523Y-39934523D01*
X-341161904Y-39839285D01*
X-385452083Y-47919642D02*
X-385404464Y-47967261D01*
X-385261607Y-48014880D01*
X-385166369Y-48014880D01*
X-385023511Y-47967261D01*
X-384928273Y-47872023D01*
X-384880654Y-47776785D01*
X-384833035Y-47586309D01*
X-384833035Y-47443452D01*
X-384880654Y-47252976D01*
X-384928273Y-47157738D01*
X-385023511Y-47062500D01*
X-385166369Y-47014880D01*
X-385261607Y-47014880D01*
X-385404464Y-47062500D01*
X-385452083Y-47110119D01*
X-385785416Y-47014880D02*
X-386452083Y-47014880D01*
X-386023511Y-48014880D01*
X-376198857Y-34201833D02*
X-376151238Y-34154214D01*
X-376103619Y-34011357D01*
X-376103619Y-33916119D01*
X-376151238Y-33773261D01*
X-376246476Y-33678023D01*
X-376341714Y-33630404D01*
X-376532190Y-33582785D01*
X-376675047Y-33582785D01*
X-376865523Y-33630404D01*
X-376960761Y-33678023D01*
X-377056000Y-33773261D01*
X-377103619Y-33916119D01*
X-377103619Y-34011357D01*
X-377056000Y-34154214D01*
X-377008380Y-34201833D01*
X-377103619Y-35058976D02*
X-377103619Y-34868500D01*
X-377056000Y-34773261D01*
X-377008380Y-34725642D01*
X-376865523Y-34630404D01*
X-376675047Y-34582785D01*
X-376294095Y-34582785D01*
X-376198857Y-34630404D01*
X-376151238Y-34678023D01*
X-376103619Y-34773261D01*
X-376103619Y-34963738D01*
X-376151238Y-35058976D01*
X-376198857Y-35106595D01*
X-376294095Y-35154214D01*
X-376532190Y-35154214D01*
X-376627428Y-35106595D01*
X-376675047Y-35058976D01*
X-376722666Y-34963738D01*
X-376722666Y-34773261D01*
X-376675047Y-34678023D01*
X-376627428Y-34630404D01*
X-376532190Y-34582785D01*
X-370354857Y-34201833D02*
X-370307238Y-34154214D01*
X-370259619Y-34011357D01*
X-370259619Y-33916119D01*
X-370307238Y-33773261D01*
X-370402476Y-33678023D01*
X-370497714Y-33630404D01*
X-370688190Y-33582785D01*
X-370831047Y-33582785D01*
X-371021523Y-33630404D01*
X-371116761Y-33678023D01*
X-371212000Y-33773261D01*
X-371259619Y-33916119D01*
X-371259619Y-34011357D01*
X-371212000Y-34154214D01*
X-371164380Y-34201833D01*
X-371259619Y-35106595D02*
X-371259619Y-34630404D01*
X-370783428Y-34582785D01*
X-370831047Y-34630404D01*
X-370878666Y-34725642D01*
X-370878666Y-34963738D01*
X-370831047Y-35058976D01*
X-370783428Y-35106595D01*
X-370688190Y-35154214D01*
X-370450095Y-35154214D01*
X-370354857Y-35106595D01*
X-370307238Y-35058976D01*
X-370259619Y-34963738D01*
X-370259619Y-34725642D01*
X-370307238Y-34630404D01*
X-370354857Y-34582785D01*
X-362482857Y-44869833D02*
X-362435238Y-44822214D01*
X-362387619Y-44679357D01*
X-362387619Y-44584119D01*
X-362435238Y-44441261D01*
X-362530476Y-44346023D01*
X-362625714Y-44298404D01*
X-362816190Y-44250785D01*
X-362959047Y-44250785D01*
X-363149523Y-44298404D01*
X-363244761Y-44346023D01*
X-363340000Y-44441261D01*
X-363387619Y-44584119D01*
X-363387619Y-44679357D01*
X-363340000Y-44822214D01*
X-363292380Y-44869833D01*
X-363054285Y-45726976D02*
X-362387619Y-45726976D01*
X-363435238Y-45488880D02*
X-362720952Y-45250785D01*
X-362720952Y-45869833D01*
X-369070833Y-59032142D02*
X-369023214Y-59079761D01*
X-368880357Y-59127380D01*
X-368785119Y-59127380D01*
X-368642261Y-59079761D01*
X-368547023Y-58984523D01*
X-368499404Y-58889285D01*
X-368451785Y-58698809D01*
X-368451785Y-58555952D01*
X-368499404Y-58365476D01*
X-368547023Y-58270238D01*
X-368642261Y-58175000D01*
X-368785119Y-58127380D01*
X-368880357Y-58127380D01*
X-369023214Y-58175000D01*
X-369070833Y-58222619D01*
X-369404166Y-58127380D02*
X-370023214Y-58127380D01*
X-369689880Y-58508333D01*
X-369832738Y-58508333D01*
X-369927976Y-58555952D01*
X-369975595Y-58603571D01*
X-370023214Y-58698809D01*
X-370023214Y-58936904D01*
X-369975595Y-59032142D01*
X-369927976Y-59079761D01*
X-369832738Y-59127380D01*
X-369547023Y-59127380D01*
X-369451785Y-59079761D01*
X-369404166Y-59032142D01*
X-381024857Y-41489333D02*
X-380977238Y-41441714D01*
X-380929619Y-41298857D01*
X-380929619Y-41203619D01*
X-380977238Y-41060761D01*
X-381072476Y-40965523D01*
X-381167714Y-40917904D01*
X-381358190Y-40870285D01*
X-381501047Y-40870285D01*
X-381691523Y-40917904D01*
X-381786761Y-40965523D01*
X-381882000Y-41060761D01*
X-381929619Y-41203619D01*
X-381929619Y-41298857D01*
X-381882000Y-41441714D01*
X-381834380Y-41489333D01*
X-381834380Y-41870285D02*
X-381882000Y-41917904D01*
X-381929619Y-42013142D01*
X-381929619Y-42251238D01*
X-381882000Y-42346476D01*
X-381834380Y-42394095D01*
X-381739142Y-42441714D01*
X-381643904Y-42441714D01*
X-381501047Y-42394095D01*
X-380929619Y-41822666D01*
X-380929619Y-42441714D01*
X-377802083Y-62332142D02*
X-377754464Y-62379761D01*
X-377611607Y-62427380D01*
X-377516369Y-62427380D01*
X-377373511Y-62379761D01*
X-377278273Y-62284523D01*
X-377230654Y-62189285D01*
X-377183035Y-61998809D01*
X-377183035Y-61855952D01*
X-377230654Y-61665476D01*
X-377278273Y-61570238D01*
X-377373511Y-61475000D01*
X-377516369Y-61427380D01*
X-377611607Y-61427380D01*
X-377754464Y-61475000D01*
X-377802083Y-61522619D01*
X-378754464Y-62427380D02*
X-378183035Y-62427380D01*
X-378468750Y-62427380D02*
X-378468750Y-61427380D01*
X-378373511Y-61570238D01*
X-378278273Y-61665476D01*
X-378183035Y-61713095D01*
%LPC*%
D12*
X-372618000Y-33606000D03*
X-374818000Y-33606000D03*
X-374818000Y-35306000D03*
X-372618000Y-35306000D03*
D13*
X-401318750Y-31750000D03*
X-394018750Y-31750000D03*
X-394018750Y-36250000D03*
X-401318750Y-36250000D03*
D14*
X-399268750Y-36250000D03*
X-398468750Y-36250000D03*
X-397668750Y-36250000D03*
X-396868750Y-36250000D03*
X-396068750Y-36250000D03*
D15*
X-377856250Y-55706250D03*
X-377056250Y-55706250D03*
X-376256250Y-55706250D03*
X-375456250Y-55706250D03*
X-374656250Y-55706250D03*
X-373856250Y-55706250D03*
X-373056250Y-55706250D03*
X-372256250Y-55706250D03*
X-371456250Y-55706250D03*
X-370656250Y-55706250D03*
X-369856250Y-55706250D03*
D16*
X-368156250Y-54006250D03*
X-368156250Y-53206250D03*
X-368156250Y-52406250D03*
X-368156250Y-51606250D03*
X-368156250Y-50806250D03*
X-368156250Y-50006250D03*
X-368156250Y-49206250D03*
X-368156250Y-48406250D03*
X-368156250Y-47606250D03*
X-368156250Y-46806250D03*
X-368156250Y-46006250D03*
D15*
X-369856250Y-44306250D03*
X-370656250Y-44306250D03*
X-371456250Y-44306250D03*
X-372256250Y-44306250D03*
X-373056250Y-44306250D03*
X-373856250Y-44306250D03*
X-374656250Y-44306250D03*
X-375456250Y-44306250D03*
X-376256250Y-44306250D03*
X-377056250Y-44306250D03*
X-377856250Y-44306250D03*
D16*
X-379556250Y-46006250D03*
X-379556250Y-46806250D03*
X-379556250Y-47606250D03*
X-379556250Y-48406250D03*
X-379556250Y-49206250D03*
X-379556250Y-50006250D03*
X-379556250Y-50806250D03*
X-379556250Y-51606250D03*
X-379556250Y-52406250D03*
X-379556250Y-53206250D03*
X-379556250Y-54006250D03*
D17*
X-397743750Y-65350000D03*
X-403943750Y-61650000D03*
X-397743750Y-61650000D03*
X-403943750Y-65350000D03*
D18*
G36*
X-363981859Y-53467797D02*
G01*
X-363955722Y-53471674D01*
X-363930091Y-53478094D01*
X-363905212Y-53486995D01*
X-363881326Y-53498293D01*
X-363858663Y-53511877D01*
X-363837440Y-53527617D01*
X-363817861Y-53545361D01*
X-363800117Y-53564940D01*
X-363784377Y-53586163D01*
X-363770793Y-53608826D01*
X-363759495Y-53632712D01*
X-363750594Y-53657591D01*
X-363744174Y-53683222D01*
X-363740297Y-53709359D01*
X-363739000Y-53735750D01*
X-363739000Y-54274250D01*
X-363740297Y-54300641D01*
X-363744174Y-54326778D01*
X-363750594Y-54352409D01*
X-363759495Y-54377288D01*
X-363770793Y-54401174D01*
X-363784377Y-54423837D01*
X-363800117Y-54445060D01*
X-363817861Y-54464639D01*
X-363837440Y-54482383D01*
X-363858663Y-54498123D01*
X-363881326Y-54511707D01*
X-363905212Y-54523005D01*
X-363930091Y-54531906D01*
X-363955722Y-54538326D01*
X-363981859Y-54542203D01*
X-364008250Y-54543500D01*
X-364971750Y-54543500D01*
X-364998141Y-54542203D01*
X-365024278Y-54538326D01*
X-365049909Y-54531906D01*
X-365074788Y-54523005D01*
X-365098674Y-54511707D01*
X-365121337Y-54498123D01*
X-365142560Y-54482383D01*
X-365162139Y-54464639D01*
X-365179883Y-54445060D01*
X-365195623Y-54423837D01*
X-365209207Y-54401174D01*
X-365220505Y-54377288D01*
X-365229406Y-54352409D01*
X-365235826Y-54326778D01*
X-365239703Y-54300641D01*
X-365241000Y-54274250D01*
X-365241000Y-53735750D01*
X-365239703Y-53709359D01*
X-365235826Y-53683222D01*
X-365229406Y-53657591D01*
X-365220505Y-53632712D01*
X-365209207Y-53608826D01*
X-365195623Y-53586163D01*
X-365179883Y-53564940D01*
X-365162139Y-53545361D01*
X-365142560Y-53527617D01*
X-365121337Y-53511877D01*
X-365098674Y-53498293D01*
X-365074788Y-53486995D01*
X-365049909Y-53478094D01*
X-365024278Y-53471674D01*
X-364998141Y-53467797D01*
X-364971750Y-53466500D01*
X-364008250Y-53466500D01*
X-363981859Y-53467797D01*
G37*
G36*
X-363981859Y-55342797D02*
G01*
X-363955722Y-55346674D01*
X-363930091Y-55353094D01*
X-363905212Y-55361995D01*
X-363881326Y-55373293D01*
X-363858663Y-55386877D01*
X-363837440Y-55402617D01*
X-363817861Y-55420361D01*
X-363800117Y-55439940D01*
X-363784377Y-55461163D01*
X-363770793Y-55483826D01*
X-363759495Y-55507712D01*
X-363750594Y-55532591D01*
X-363744174Y-55558222D01*
X-363740297Y-55584359D01*
X-363739000Y-55610750D01*
X-363739000Y-56149250D01*
X-363740297Y-56175641D01*
X-363744174Y-56201778D01*
X-363750594Y-56227409D01*
X-363759495Y-56252288D01*
X-363770793Y-56276174D01*
X-363784377Y-56298837D01*
X-363800117Y-56320060D01*
X-363817861Y-56339639D01*
X-363837440Y-56357383D01*
X-363858663Y-56373123D01*
X-363881326Y-56386707D01*
X-363905212Y-56398005D01*
X-363930091Y-56406906D01*
X-363955722Y-56413326D01*
X-363981859Y-56417203D01*
X-364008250Y-56418500D01*
X-364971750Y-56418500D01*
X-364998141Y-56417203D01*
X-365024278Y-56413326D01*
X-365049909Y-56406906D01*
X-365074788Y-56398005D01*
X-365098674Y-56386707D01*
X-365121337Y-56373123D01*
X-365142560Y-56357383D01*
X-365162139Y-56339639D01*
X-365179883Y-56320060D01*
X-365195623Y-56298837D01*
X-365209207Y-56276174D01*
X-365220505Y-56252288D01*
X-365229406Y-56227409D01*
X-365235826Y-56201778D01*
X-365239703Y-56175641D01*
X-365241000Y-56149250D01*
X-365241000Y-55610750D01*
X-365239703Y-55584359D01*
X-365235826Y-55558222D01*
X-365229406Y-55532591D01*
X-365220505Y-55507712D01*
X-365209207Y-55483826D01*
X-365195623Y-55461163D01*
X-365179883Y-55439940D01*
X-365162139Y-55420361D01*
X-365142560Y-55402617D01*
X-365121337Y-55386877D01*
X-365098674Y-55373293D01*
X-365074788Y-55361995D01*
X-365049909Y-55353094D01*
X-365024278Y-55346674D01*
X-364998141Y-55342797D01*
X-364971750Y-55341500D01*
X-364008250Y-55341500D01*
X-363981859Y-55342797D01*
G37*
G36*
X-386079859Y-42056297D02*
G01*
X-386053722Y-42060174D01*
X-386028091Y-42066594D01*
X-386003212Y-42075495D01*
X-385979326Y-42086793D01*
X-385956663Y-42100377D01*
X-385935440Y-42116117D01*
X-385915861Y-42133861D01*
X-385898117Y-42153440D01*
X-385882377Y-42174663D01*
X-385868793Y-42197326D01*
X-385857495Y-42221212D01*
X-385848594Y-42246091D01*
X-385842174Y-42271722D01*
X-385838297Y-42297859D01*
X-385837000Y-42324250D01*
X-385837000Y-42862750D01*
X-385838297Y-42889141D01*
X-385842174Y-42915278D01*
X-385848594Y-42940909D01*
X-385857495Y-42965788D01*
X-385868793Y-42989674D01*
X-385882377Y-43012337D01*
X-385898117Y-43033560D01*
X-385915861Y-43053139D01*
X-385935440Y-43070883D01*
X-385956663Y-43086623D01*
X-385979326Y-43100207D01*
X-386003212Y-43111505D01*
X-386028091Y-43120406D01*
X-386053722Y-43126826D01*
X-386079859Y-43130703D01*
X-386106250Y-43132000D01*
X-387069750Y-43132000D01*
X-387096141Y-43130703D01*
X-387122278Y-43126826D01*
X-387147909Y-43120406D01*
X-387172788Y-43111505D01*
X-387196674Y-43100207D01*
X-387219337Y-43086623D01*
X-387240560Y-43070883D01*
X-387260139Y-43053139D01*
X-387277883Y-43033560D01*
X-387293623Y-43012337D01*
X-387307207Y-42989674D01*
X-387318505Y-42965788D01*
X-387327406Y-42940909D01*
X-387333826Y-42915278D01*
X-387337703Y-42889141D01*
X-387339000Y-42862750D01*
X-387339000Y-42324250D01*
X-387337703Y-42297859D01*
X-387333826Y-42271722D01*
X-387327406Y-42246091D01*
X-387318505Y-42221212D01*
X-387307207Y-42197326D01*
X-387293623Y-42174663D01*
X-387277883Y-42153440D01*
X-387260139Y-42133861D01*
X-387240560Y-42116117D01*
X-387219337Y-42100377D01*
X-387196674Y-42086793D01*
X-387172788Y-42075495D01*
X-387147909Y-42066594D01*
X-387122278Y-42060174D01*
X-387096141Y-42056297D01*
X-387069750Y-42055000D01*
X-386106250Y-42055000D01*
X-386079859Y-42056297D01*
G37*
G36*
X-386079859Y-40181297D02*
G01*
X-386053722Y-40185174D01*
X-386028091Y-40191594D01*
X-386003212Y-40200495D01*
X-385979326Y-40211793D01*
X-385956663Y-40225377D01*
X-385935440Y-40241117D01*
X-385915861Y-40258861D01*
X-385898117Y-40278440D01*
X-385882377Y-40299663D01*
X-385868793Y-40322326D01*
X-385857495Y-40346212D01*
X-385848594Y-40371091D01*
X-385842174Y-40396722D01*
X-385838297Y-40422859D01*
X-385837000Y-40449250D01*
X-385837000Y-40987750D01*
X-385838297Y-41014141D01*
X-385842174Y-41040278D01*
X-385848594Y-41065909D01*
X-385857495Y-41090788D01*
X-385868793Y-41114674D01*
X-385882377Y-41137337D01*
X-385898117Y-41158560D01*
X-385915861Y-41178139D01*
X-385935440Y-41195883D01*
X-385956663Y-41211623D01*
X-385979326Y-41225207D01*
X-386003212Y-41236505D01*
X-386028091Y-41245406D01*
X-386053722Y-41251826D01*
X-386079859Y-41255703D01*
X-386106250Y-41257000D01*
X-387069750Y-41257000D01*
X-387096141Y-41255703D01*
X-387122278Y-41251826D01*
X-387147909Y-41245406D01*
X-387172788Y-41236505D01*
X-387196674Y-41225207D01*
X-387219337Y-41211623D01*
X-387240560Y-41195883D01*
X-387260139Y-41178139D01*
X-387277883Y-41158560D01*
X-387293623Y-41137337D01*
X-387307207Y-41114674D01*
X-387318505Y-41090788D01*
X-387327406Y-41065909D01*
X-387333826Y-41040278D01*
X-387337703Y-41014141D01*
X-387339000Y-40987750D01*
X-387339000Y-40449250D01*
X-387337703Y-40422859D01*
X-387333826Y-40396722D01*
X-387327406Y-40371091D01*
X-387318505Y-40346212D01*
X-387307207Y-40322326D01*
X-387293623Y-40299663D01*
X-387277883Y-40278440D01*
X-387260139Y-40258861D01*
X-387240560Y-40241117D01*
X-387219337Y-40225377D01*
X-387196674Y-40211793D01*
X-387172788Y-40200495D01*
X-387147909Y-40191594D01*
X-387122278Y-40185174D01*
X-387096141Y-40181297D01*
X-387069750Y-40180000D01*
X-386106250Y-40180000D01*
X-386079859Y-40181297D01*
G37*
G36*
X-394461859Y-40435297D02*
G01*
X-394435722Y-40439174D01*
X-394410091Y-40445594D01*
X-394385212Y-40454495D01*
X-394361326Y-40465793D01*
X-394338663Y-40479377D01*
X-394317440Y-40495117D01*
X-394297861Y-40512861D01*
X-394280117Y-40532440D01*
X-394264377Y-40553663D01*
X-394250793Y-40576326D01*
X-394239495Y-40600212D01*
X-394230594Y-40625091D01*
X-394224174Y-40650722D01*
X-394220297Y-40676859D01*
X-394219000Y-40703250D01*
X-394219000Y-41241750D01*
X-394220297Y-41268141D01*
X-394224174Y-41294278D01*
X-394230594Y-41319909D01*
X-394239495Y-41344788D01*
X-394250793Y-41368674D01*
X-394264377Y-41391337D01*
X-394280117Y-41412560D01*
X-394297861Y-41432139D01*
X-394317440Y-41449883D01*
X-394338663Y-41465623D01*
X-394361326Y-41479207D01*
X-394385212Y-41490505D01*
X-394410091Y-41499406D01*
X-394435722Y-41505826D01*
X-394461859Y-41509703D01*
X-394488250Y-41511000D01*
X-395451750Y-41511000D01*
X-395478141Y-41509703D01*
X-395504278Y-41505826D01*
X-395529909Y-41499406D01*
X-395554788Y-41490505D01*
X-395578674Y-41479207D01*
X-395601337Y-41465623D01*
X-395622560Y-41449883D01*
X-395642139Y-41432139D01*
X-395659883Y-41412560D01*
X-395675623Y-41391337D01*
X-395689207Y-41368674D01*
X-395700505Y-41344788D01*
X-395709406Y-41319909D01*
X-395715826Y-41294278D01*
X-395719703Y-41268141D01*
X-395721000Y-41241750D01*
X-395721000Y-40703250D01*
X-395719703Y-40676859D01*
X-395715826Y-40650722D01*
X-395709406Y-40625091D01*
X-395700505Y-40600212D01*
X-395689207Y-40576326D01*
X-395675623Y-40553663D01*
X-395659883Y-40532440D01*
X-395642139Y-40512861D01*
X-395622560Y-40495117D01*
X-395601337Y-40479377D01*
X-395578674Y-40465793D01*
X-395554788Y-40454495D01*
X-395529909Y-40445594D01*
X-395504278Y-40439174D01*
X-395478141Y-40435297D01*
X-395451750Y-40434000D01*
X-394488250Y-40434000D01*
X-394461859Y-40435297D01*
G37*
G36*
X-394461859Y-42310297D02*
G01*
X-394435722Y-42314174D01*
X-394410091Y-42320594D01*
X-394385212Y-42329495D01*
X-394361326Y-42340793D01*
X-394338663Y-42354377D01*
X-394317440Y-42370117D01*
X-394297861Y-42387861D01*
X-394280117Y-42407440D01*
X-394264377Y-42428663D01*
X-394250793Y-42451326D01*
X-394239495Y-42475212D01*
X-394230594Y-42500091D01*
X-394224174Y-42525722D01*
X-394220297Y-42551859D01*
X-394219000Y-42578250D01*
X-394219000Y-43116750D01*
X-394220297Y-43143141D01*
X-394224174Y-43169278D01*
X-394230594Y-43194909D01*
X-394239495Y-43219788D01*
X-394250793Y-43243674D01*
X-394264377Y-43266337D01*
X-394280117Y-43287560D01*
X-394297861Y-43307139D01*
X-394317440Y-43324883D01*
X-394338663Y-43340623D01*
X-394361326Y-43354207D01*
X-394385212Y-43365505D01*
X-394410091Y-43374406D01*
X-394435722Y-43380826D01*
X-394461859Y-43384703D01*
X-394488250Y-43386000D01*
X-395451750Y-43386000D01*
X-395478141Y-43384703D01*
X-395504278Y-43380826D01*
X-395529909Y-43374406D01*
X-395554788Y-43365505D01*
X-395578674Y-43354207D01*
X-395601337Y-43340623D01*
X-395622560Y-43324883D01*
X-395642139Y-43307139D01*
X-395659883Y-43287560D01*
X-395675623Y-43266337D01*
X-395689207Y-43243674D01*
X-395700505Y-43219788D01*
X-395709406Y-43194909D01*
X-395715826Y-43169278D01*
X-395719703Y-43143141D01*
X-395721000Y-43116750D01*
X-395721000Y-42578250D01*
X-395719703Y-42551859D01*
X-395715826Y-42525722D01*
X-395709406Y-42500091D01*
X-395700505Y-42475212D01*
X-395689207Y-42451326D01*
X-395675623Y-42428663D01*
X-395659883Y-42407440D01*
X-395642139Y-42387861D01*
X-395622560Y-42370117D01*
X-395601337Y-42354377D01*
X-395578674Y-42340793D01*
X-395554788Y-42329495D01*
X-395529909Y-42320594D01*
X-395504278Y-42314174D01*
X-395478141Y-42310297D01*
X-395451750Y-42309000D01*
X-394488250Y-42309000D01*
X-394461859Y-42310297D01*
G37*
G36*
X-399541859Y-40435297D02*
G01*
X-399515722Y-40439174D01*
X-399490091Y-40445594D01*
X-399465212Y-40454495D01*
X-399441326Y-40465793D01*
X-399418663Y-40479377D01*
X-399397440Y-40495117D01*
X-399377861Y-40512861D01*
X-399360117Y-40532440D01*
X-399344377Y-40553663D01*
X-399330793Y-40576326D01*
X-399319495Y-40600212D01*
X-399310594Y-40625091D01*
X-399304174Y-40650722D01*
X-399300297Y-40676859D01*
X-399299000Y-40703250D01*
X-399299000Y-41241750D01*
X-399300297Y-41268141D01*
X-399304174Y-41294278D01*
X-399310594Y-41319909D01*
X-399319495Y-41344788D01*
X-399330793Y-41368674D01*
X-399344377Y-41391337D01*
X-399360117Y-41412560D01*
X-399377861Y-41432139D01*
X-399397440Y-41449883D01*
X-399418663Y-41465623D01*
X-399441326Y-41479207D01*
X-399465212Y-41490505D01*
X-399490091Y-41499406D01*
X-399515722Y-41505826D01*
X-399541859Y-41509703D01*
X-399568250Y-41511000D01*
X-400531750Y-41511000D01*
X-400558141Y-41509703D01*
X-400584278Y-41505826D01*
X-400609909Y-41499406D01*
X-400634788Y-41490505D01*
X-400658674Y-41479207D01*
X-400681337Y-41465623D01*
X-400702560Y-41449883D01*
X-400722139Y-41432139D01*
X-400739883Y-41412560D01*
X-400755623Y-41391337D01*
X-400769207Y-41368674D01*
X-400780505Y-41344788D01*
X-400789406Y-41319909D01*
X-400795826Y-41294278D01*
X-400799703Y-41268141D01*
X-400801000Y-41241750D01*
X-400801000Y-40703250D01*
X-400799703Y-40676859D01*
X-400795826Y-40650722D01*
X-400789406Y-40625091D01*
X-400780505Y-40600212D01*
X-400769207Y-40576326D01*
X-400755623Y-40553663D01*
X-400739883Y-40532440D01*
X-400722139Y-40512861D01*
X-400702560Y-40495117D01*
X-400681337Y-40479377D01*
X-400658674Y-40465793D01*
X-400634788Y-40454495D01*
X-400609909Y-40445594D01*
X-400584278Y-40439174D01*
X-400558141Y-40435297D01*
X-400531750Y-40434000D01*
X-399568250Y-40434000D01*
X-399541859Y-40435297D01*
G37*
G36*
X-399541859Y-42310297D02*
G01*
X-399515722Y-42314174D01*
X-399490091Y-42320594D01*
X-399465212Y-42329495D01*
X-399441326Y-42340793D01*
X-399418663Y-42354377D01*
X-399397440Y-42370117D01*
X-399377861Y-42387861D01*
X-399360117Y-42407440D01*
X-399344377Y-42428663D01*
X-399330793Y-42451326D01*
X-399319495Y-42475212D01*
X-399310594Y-42500091D01*
X-399304174Y-42525722D01*
X-399300297Y-42551859D01*
X-399299000Y-42578250D01*
X-399299000Y-43116750D01*
X-399300297Y-43143141D01*
X-399304174Y-43169278D01*
X-399310594Y-43194909D01*
X-399319495Y-43219788D01*
X-399330793Y-43243674D01*
X-399344377Y-43266337D01*
X-399360117Y-43287560D01*
X-399377861Y-43307139D01*
X-399397440Y-43324883D01*
X-399418663Y-43340623D01*
X-399441326Y-43354207D01*
X-399465212Y-43365505D01*
X-399490091Y-43374406D01*
X-399515722Y-43380826D01*
X-399541859Y-43384703D01*
X-399568250Y-43386000D01*
X-400531750Y-43386000D01*
X-400558141Y-43384703D01*
X-400584278Y-43380826D01*
X-400609909Y-43374406D01*
X-400634788Y-43365505D01*
X-400658674Y-43354207D01*
X-400681337Y-43340623D01*
X-400702560Y-43324883D01*
X-400722139Y-43307139D01*
X-400739883Y-43287560D01*
X-400755623Y-43266337D01*
X-400769207Y-43243674D01*
X-400780505Y-43219788D01*
X-400789406Y-43194909D01*
X-400795826Y-43169278D01*
X-400799703Y-43143141D01*
X-400801000Y-43116750D01*
X-400801000Y-42578250D01*
X-400799703Y-42551859D01*
X-400795826Y-42525722D01*
X-400789406Y-42500091D01*
X-400780505Y-42475212D01*
X-400769207Y-42451326D01*
X-400755623Y-42428663D01*
X-400739883Y-42407440D01*
X-400722139Y-42387861D01*
X-400702560Y-42370117D01*
X-400681337Y-42354377D01*
X-400658674Y-42340793D01*
X-400634788Y-42329495D01*
X-400609909Y-42320594D01*
X-400584278Y-42314174D01*
X-400558141Y-42310297D01*
X-400531750Y-42309000D01*
X-399568250Y-42309000D01*
X-399541859Y-42310297D01*
G37*
D19*
X-327501250Y-58737500D03*
X-337661250Y-58737500D03*
D20*
X-335081250Y-54737500D03*
D21*
X-332581250Y-58737500D03*
D22*
X-336391250Y-56197500D02*
X-335081248Y-54737500D01*
D20*
X-330041250Y-53657500D03*
D22*
X-330081250Y-54237500D02*
X-330041250Y-53657500D01*
D19*
X-327501250Y-39687500D03*
X-337661250Y-39687500D03*
D20*
X-335081250Y-35687500D03*
D21*
X-332581250Y-39687500D03*
D22*
X-336391250Y-37147500D02*
X-335081248Y-35687500D01*
D20*
X-330041250Y-34607500D03*
D22*
X-330081250Y-35187500D02*
X-330041250Y-34607500D01*
D19*
X-346551250Y-58737500D03*
X-356711250Y-58737500D03*
D20*
X-354131250Y-54737500D03*
D21*
X-351631250Y-58737500D03*
D22*
X-355441250Y-56197500D02*
X-354131248Y-54737500D01*
D20*
X-349091250Y-53657500D03*
D22*
X-349131250Y-54237500D02*
X-349091250Y-53657500D01*
D19*
X-346551250Y-39687500D03*
X-356711250Y-39687500D03*
D20*
X-354131250Y-35687500D03*
D21*
X-351631250Y-39687500D03*
D22*
X-355441250Y-37147500D02*
X-354131248Y-35687500D01*
D20*
X-349091250Y-34607500D03*
D22*
X-349131250Y-35187500D02*
X-349091250Y-34607500D01*
D18*
G36*
X-403177896Y-46315302D02*
G01*
X-403151648Y-46319196D01*
X-403125907Y-46325643D01*
X-403100922Y-46334583D01*
X-403076934Y-46345928D01*
X-403054174Y-46359571D01*
X-403032860Y-46375378D01*
X-403013198Y-46393198D01*
X-402995378Y-46412860D01*
X-402979571Y-46434174D01*
X-402965928Y-46456934D01*
X-402954583Y-46480922D01*
X-402945643Y-46505907D01*
X-402939196Y-46531648D01*
X-402935302Y-46557896D01*
X-402934000Y-46584400D01*
X-402934000Y-47395600D01*
X-402935302Y-47422104D01*
X-402939196Y-47448352D01*
X-402945643Y-47474093D01*
X-402954583Y-47499078D01*
X-402965928Y-47523066D01*
X-402979571Y-47545826D01*
X-402995378Y-47567140D01*
X-403013198Y-47586802D01*
X-403032860Y-47604622D01*
X-403054174Y-47620429D01*
X-403076934Y-47634072D01*
X-403100922Y-47645417D01*
X-403125907Y-47654357D01*
X-403151648Y-47660804D01*
X-403177896Y-47664698D01*
X-403204400Y-47666000D01*
X-404515600Y-47666000D01*
X-404542104Y-47664698D01*
X-404568352Y-47660804D01*
X-404594093Y-47654357D01*
X-404619078Y-47645417D01*
X-404643066Y-47634072D01*
X-404665826Y-47620429D01*
X-404687140Y-47604622D01*
X-404706802Y-47586802D01*
X-404724622Y-47567140D01*
X-404740429Y-47545826D01*
X-404754072Y-47523066D01*
X-404765417Y-47499078D01*
X-404774357Y-47474093D01*
X-404780804Y-47448352D01*
X-404784698Y-47422104D01*
X-404786000Y-47395600D01*
X-404786000Y-46584400D01*
X-404784698Y-46557896D01*
X-404780804Y-46531648D01*
X-404774357Y-46505907D01*
X-404765417Y-46480922D01*
X-404754072Y-46456934D01*
X-404740429Y-46434174D01*
X-404724622Y-46412860D01*
X-404706802Y-46393198D01*
X-404687140Y-46375378D01*
X-404665826Y-46359571D01*
X-404643066Y-46345928D01*
X-404619078Y-46334583D01*
X-404594093Y-46325643D01*
X-404568352Y-46319196D01*
X-404542104Y-46315302D01*
X-404515600Y-46314000D01*
X-403204400Y-46314000D01*
X-403177896Y-46315302D01*
G37*
G36*
X-403177896Y-49115302D02*
G01*
X-403151648Y-49119196D01*
X-403125907Y-49125643D01*
X-403100922Y-49134583D01*
X-403076934Y-49145928D01*
X-403054174Y-49159571D01*
X-403032860Y-49175378D01*
X-403013198Y-49193198D01*
X-402995378Y-49212860D01*
X-402979571Y-49234174D01*
X-402965928Y-49256934D01*
X-402954583Y-49280922D01*
X-402945643Y-49305907D01*
X-402939196Y-49331648D01*
X-402935302Y-49357896D01*
X-402934000Y-49384400D01*
X-402934000Y-50195600D01*
X-402935302Y-50222104D01*
X-402939196Y-50248352D01*
X-402945643Y-50274093D01*
X-402954583Y-50299078D01*
X-402965928Y-50323066D01*
X-402979571Y-50345826D01*
X-402995378Y-50367140D01*
X-403013198Y-50386802D01*
X-403032860Y-50404622D01*
X-403054174Y-50420429D01*
X-403076934Y-50434072D01*
X-403100922Y-50445417D01*
X-403125907Y-50454357D01*
X-403151648Y-50460804D01*
X-403177896Y-50464698D01*
X-403204400Y-50466000D01*
X-404515600Y-50466000D01*
X-404542104Y-50464698D01*
X-404568352Y-50460804D01*
X-404594093Y-50454357D01*
X-404619078Y-50445417D01*
X-404643066Y-50434072D01*
X-404665826Y-50420429D01*
X-404687140Y-50404622D01*
X-404706802Y-50386802D01*
X-404724622Y-50367140D01*
X-404740429Y-50345826D01*
X-404754072Y-50323066D01*
X-404765417Y-50299078D01*
X-404774357Y-50274093D01*
X-404780804Y-50248352D01*
X-404784698Y-50222104D01*
X-404786000Y-50195600D01*
X-404786000Y-49384400D01*
X-404784698Y-49357896D01*
X-404780804Y-49331648D01*
X-404774357Y-49305907D01*
X-404765417Y-49280922D01*
X-404754072Y-49256934D01*
X-404740429Y-49234174D01*
X-404724622Y-49212860D01*
X-404706802Y-49193198D01*
X-404687140Y-49175378D01*
X-404665826Y-49159571D01*
X-404643066Y-49145928D01*
X-404619078Y-49134583D01*
X-404594093Y-49125643D01*
X-404568352Y-49119196D01*
X-404542104Y-49115302D01*
X-404515600Y-49114000D01*
X-403204400Y-49114000D01*
X-403177896Y-49115302D01*
G37*
D23*
X-323850000Y-57087500D03*
X-323850000Y-60387500D03*
X-323850000Y-37975000D03*
X-323850000Y-41275000D03*
X-342900000Y-57087500D03*
X-342900000Y-60387500D03*
X-342900000Y-37975000D03*
X-342900000Y-41275000D03*
D18*
G36*
X-386260609Y-48462797D02*
G01*
X-386234472Y-48466674D01*
X-386208841Y-48473094D01*
X-386183962Y-48481995D01*
X-386160076Y-48493293D01*
X-386137413Y-48506877D01*
X-386116190Y-48522617D01*
X-386096611Y-48540361D01*
X-386078867Y-48559940D01*
X-386063127Y-48581163D01*
X-386049543Y-48603826D01*
X-386038245Y-48627712D01*
X-386029344Y-48652591D01*
X-386022924Y-48678222D01*
X-386019047Y-48704359D01*
X-386017750Y-48730750D01*
X-386017750Y-49694250D01*
X-386019047Y-49720641D01*
X-386022924Y-49746778D01*
X-386029344Y-49772409D01*
X-386038245Y-49797288D01*
X-386049543Y-49821174D01*
X-386063127Y-49843837D01*
X-386078867Y-49865060D01*
X-386096611Y-49884639D01*
X-386116190Y-49902383D01*
X-386137413Y-49918123D01*
X-386160076Y-49931707D01*
X-386183962Y-49943005D01*
X-386208841Y-49951906D01*
X-386234472Y-49958326D01*
X-386260609Y-49962203D01*
X-386287000Y-49963500D01*
X-386825500Y-49963500D01*
X-386851891Y-49962203D01*
X-386878028Y-49958326D01*
X-386903659Y-49951906D01*
X-386928538Y-49943005D01*
X-386952424Y-49931707D01*
X-386975087Y-49918123D01*
X-386996310Y-49902383D01*
X-387015889Y-49884639D01*
X-387033633Y-49865060D01*
X-387049373Y-49843837D01*
X-387062957Y-49821174D01*
X-387074255Y-49797288D01*
X-387083156Y-49772409D01*
X-387089576Y-49746778D01*
X-387093453Y-49720641D01*
X-387094750Y-49694250D01*
X-387094750Y-48730750D01*
X-387093453Y-48704359D01*
X-387089576Y-48678222D01*
X-387083156Y-48652591D01*
X-387074255Y-48627712D01*
X-387062957Y-48603826D01*
X-387049373Y-48581163D01*
X-387033633Y-48559940D01*
X-387015889Y-48540361D01*
X-386996310Y-48522617D01*
X-386975087Y-48506877D01*
X-386952424Y-48493293D01*
X-386928538Y-48481995D01*
X-386903659Y-48473094D01*
X-386878028Y-48466674D01*
X-386851891Y-48462797D01*
X-386825500Y-48461500D01*
X-386287000Y-48461500D01*
X-386260609Y-48462797D01*
G37*
G36*
X-384385609Y-48462797D02*
G01*
X-384359472Y-48466674D01*
X-384333841Y-48473094D01*
X-384308962Y-48481995D01*
X-384285076Y-48493293D01*
X-384262413Y-48506877D01*
X-384241190Y-48522617D01*
X-384221611Y-48540361D01*
X-384203867Y-48559940D01*
X-384188127Y-48581163D01*
X-384174543Y-48603826D01*
X-384163245Y-48627712D01*
X-384154344Y-48652591D01*
X-384147924Y-48678222D01*
X-384144047Y-48704359D01*
X-384142750Y-48730750D01*
X-384142750Y-49694250D01*
X-384144047Y-49720641D01*
X-384147924Y-49746778D01*
X-384154344Y-49772409D01*
X-384163245Y-49797288D01*
X-384174543Y-49821174D01*
X-384188127Y-49843837D01*
X-384203867Y-49865060D01*
X-384221611Y-49884639D01*
X-384241190Y-49902383D01*
X-384262413Y-49918123D01*
X-384285076Y-49931707D01*
X-384308962Y-49943005D01*
X-384333841Y-49951906D01*
X-384359472Y-49958326D01*
X-384385609Y-49962203D01*
X-384412000Y-49963500D01*
X-384950500Y-49963500D01*
X-384976891Y-49962203D01*
X-385003028Y-49958326D01*
X-385028659Y-49951906D01*
X-385053538Y-49943005D01*
X-385077424Y-49931707D01*
X-385100087Y-49918123D01*
X-385121310Y-49902383D01*
X-385140889Y-49884639D01*
X-385158633Y-49865060D01*
X-385174373Y-49843837D01*
X-385187957Y-49821174D01*
X-385199255Y-49797288D01*
X-385208156Y-49772409D01*
X-385214576Y-49746778D01*
X-385218453Y-49720641D01*
X-385219750Y-49694250D01*
X-385219750Y-48730750D01*
X-385218453Y-48704359D01*
X-385214576Y-48678222D01*
X-385208156Y-48652591D01*
X-385199255Y-48627712D01*
X-385187957Y-48603826D01*
X-385174373Y-48581163D01*
X-385158633Y-48559940D01*
X-385140889Y-48540361D01*
X-385121310Y-48522617D01*
X-385100087Y-48506877D01*
X-385077424Y-48493293D01*
X-385053538Y-48481995D01*
X-385028659Y-48473094D01*
X-385003028Y-48466674D01*
X-384976891Y-48462797D01*
X-384950500Y-48461500D01*
X-384412000Y-48461500D01*
X-384385609Y-48462797D01*
G37*
G36*
X-377697859Y-32893797D02*
G01*
X-377671722Y-32897674D01*
X-377646091Y-32904094D01*
X-377621212Y-32912995D01*
X-377597326Y-32924293D01*
X-377574663Y-32937877D01*
X-377553440Y-32953617D01*
X-377533861Y-32971361D01*
X-377516117Y-32990940D01*
X-377500377Y-33012163D01*
X-377486793Y-33034826D01*
X-377475495Y-33058712D01*
X-377466594Y-33083591D01*
X-377460174Y-33109222D01*
X-377456297Y-33135359D01*
X-377455000Y-33161750D01*
X-377455000Y-33700250D01*
X-377456297Y-33726641D01*
X-377460174Y-33752778D01*
X-377466594Y-33778409D01*
X-377475495Y-33803288D01*
X-377486793Y-33827174D01*
X-377500377Y-33849837D01*
X-377516117Y-33871060D01*
X-377533861Y-33890639D01*
X-377553440Y-33908383D01*
X-377574663Y-33924123D01*
X-377597326Y-33937707D01*
X-377621212Y-33949005D01*
X-377646091Y-33957906D01*
X-377671722Y-33964326D01*
X-377697859Y-33968203D01*
X-377724250Y-33969500D01*
X-378687750Y-33969500D01*
X-378714141Y-33968203D01*
X-378740278Y-33964326D01*
X-378765909Y-33957906D01*
X-378790788Y-33949005D01*
X-378814674Y-33937707D01*
X-378837337Y-33924123D01*
X-378858560Y-33908383D01*
X-378878139Y-33890639D01*
X-378895883Y-33871060D01*
X-378911623Y-33849837D01*
X-378925207Y-33827174D01*
X-378936505Y-33803288D01*
X-378945406Y-33778409D01*
X-378951826Y-33752778D01*
X-378955703Y-33726641D01*
X-378957000Y-33700250D01*
X-378957000Y-33161750D01*
X-378955703Y-33135359D01*
X-378951826Y-33109222D01*
X-378945406Y-33083591D01*
X-378936505Y-33058712D01*
X-378925207Y-33034826D01*
X-378911623Y-33012163D01*
X-378895883Y-32990940D01*
X-378878139Y-32971361D01*
X-378858560Y-32953617D01*
X-378837337Y-32937877D01*
X-378814674Y-32924293D01*
X-378790788Y-32912995D01*
X-378765909Y-32904094D01*
X-378740278Y-32897674D01*
X-378714141Y-32893797D01*
X-378687750Y-32892500D01*
X-377724250Y-32892500D01*
X-377697859Y-32893797D01*
G37*
G36*
X-377697859Y-34768797D02*
G01*
X-377671722Y-34772674D01*
X-377646091Y-34779094D01*
X-377621212Y-34787995D01*
X-377597326Y-34799293D01*
X-377574663Y-34812877D01*
X-377553440Y-34828617D01*
X-377533861Y-34846361D01*
X-377516117Y-34865940D01*
X-377500377Y-34887163D01*
X-377486793Y-34909826D01*
X-377475495Y-34933712D01*
X-377466594Y-34958591D01*
X-377460174Y-34984222D01*
X-377456297Y-35010359D01*
X-377455000Y-35036750D01*
X-377455000Y-35575250D01*
X-377456297Y-35601641D01*
X-377460174Y-35627778D01*
X-377466594Y-35653409D01*
X-377475495Y-35678288D01*
X-377486793Y-35702174D01*
X-377500377Y-35724837D01*
X-377516117Y-35746060D01*
X-377533861Y-35765639D01*
X-377553440Y-35783383D01*
X-377574663Y-35799123D01*
X-377597326Y-35812707D01*
X-377621212Y-35824005D01*
X-377646091Y-35832906D01*
X-377671722Y-35839326D01*
X-377697859Y-35843203D01*
X-377724250Y-35844500D01*
X-378687750Y-35844500D01*
X-378714141Y-35843203D01*
X-378740278Y-35839326D01*
X-378765909Y-35832906D01*
X-378790788Y-35824005D01*
X-378814674Y-35812707D01*
X-378837337Y-35799123D01*
X-378858560Y-35783383D01*
X-378878139Y-35765639D01*
X-378895883Y-35746060D01*
X-378911623Y-35724837D01*
X-378925207Y-35702174D01*
X-378936505Y-35678288D01*
X-378945406Y-35653409D01*
X-378951826Y-35627778D01*
X-378955703Y-35601641D01*
X-378957000Y-35575250D01*
X-378957000Y-35036750D01*
X-378955703Y-35010359D01*
X-378951826Y-34984222D01*
X-378945406Y-34958591D01*
X-378936505Y-34933712D01*
X-378925207Y-34909826D01*
X-378911623Y-34887163D01*
X-378895883Y-34865940D01*
X-378878139Y-34846361D01*
X-378858560Y-34828617D01*
X-378837337Y-34812877D01*
X-378814674Y-34799293D01*
X-378790788Y-34787995D01*
X-378765909Y-34779094D01*
X-378740278Y-34772674D01*
X-378714141Y-34768797D01*
X-378687750Y-34767500D01*
X-377724250Y-34767500D01*
X-377697859Y-34768797D01*
G37*
G36*
X-368553859Y-34768797D02*
G01*
X-368527722Y-34772674D01*
X-368502091Y-34779094D01*
X-368477212Y-34787995D01*
X-368453326Y-34799293D01*
X-368430663Y-34812877D01*
X-368409440Y-34828617D01*
X-368389861Y-34846361D01*
X-368372117Y-34865940D01*
X-368356377Y-34887163D01*
X-368342793Y-34909826D01*
X-368331495Y-34933712D01*
X-368322594Y-34958591D01*
X-368316174Y-34984222D01*
X-368312297Y-35010359D01*
X-368311000Y-35036750D01*
X-368311000Y-35575250D01*
X-368312297Y-35601641D01*
X-368316174Y-35627778D01*
X-368322594Y-35653409D01*
X-368331495Y-35678288D01*
X-368342793Y-35702174D01*
X-368356377Y-35724837D01*
X-368372117Y-35746060D01*
X-368389861Y-35765639D01*
X-368409440Y-35783383D01*
X-368430663Y-35799123D01*
X-368453326Y-35812707D01*
X-368477212Y-35824005D01*
X-368502091Y-35832906D01*
X-368527722Y-35839326D01*
X-368553859Y-35843203D01*
X-368580250Y-35844500D01*
X-369543750Y-35844500D01*
X-369570141Y-35843203D01*
X-369596278Y-35839326D01*
X-369621909Y-35832906D01*
X-369646788Y-35824005D01*
X-369670674Y-35812707D01*
X-369693337Y-35799123D01*
X-369714560Y-35783383D01*
X-369734139Y-35765639D01*
X-369751883Y-35746060D01*
X-369767623Y-35724837D01*
X-369781207Y-35702174D01*
X-369792505Y-35678288D01*
X-369801406Y-35653409D01*
X-369807826Y-35627778D01*
X-369811703Y-35601641D01*
X-369813000Y-35575250D01*
X-369813000Y-35036750D01*
X-369811703Y-35010359D01*
X-369807826Y-34984222D01*
X-369801406Y-34958591D01*
X-369792505Y-34933712D01*
X-369781207Y-34909826D01*
X-369767623Y-34887163D01*
X-369751883Y-34865940D01*
X-369734139Y-34846361D01*
X-369714560Y-34828617D01*
X-369693337Y-34812877D01*
X-369670674Y-34799293D01*
X-369646788Y-34787995D01*
X-369621909Y-34779094D01*
X-369596278Y-34772674D01*
X-369570141Y-34768797D01*
X-369543750Y-34767500D01*
X-368580250Y-34767500D01*
X-368553859Y-34768797D01*
G37*
G36*
X-368553859Y-32893797D02*
G01*
X-368527722Y-32897674D01*
X-368502091Y-32904094D01*
X-368477212Y-32912995D01*
X-368453326Y-32924293D01*
X-368430663Y-32937877D01*
X-368409440Y-32953617D01*
X-368389861Y-32971361D01*
X-368372117Y-32990940D01*
X-368356377Y-33012163D01*
X-368342793Y-33034826D01*
X-368331495Y-33058712D01*
X-368322594Y-33083591D01*
X-368316174Y-33109222D01*
X-368312297Y-33135359D01*
X-368311000Y-33161750D01*
X-368311000Y-33700250D01*
X-368312297Y-33726641D01*
X-368316174Y-33752778D01*
X-368322594Y-33778409D01*
X-368331495Y-33803288D01*
X-368342793Y-33827174D01*
X-368356377Y-33849837D01*
X-368372117Y-33871060D01*
X-368389861Y-33890639D01*
X-368409440Y-33908383D01*
X-368430663Y-33924123D01*
X-368453326Y-33937707D01*
X-368477212Y-33949005D01*
X-368502091Y-33957906D01*
X-368527722Y-33964326D01*
X-368553859Y-33968203D01*
X-368580250Y-33969500D01*
X-369543750Y-33969500D01*
X-369570141Y-33968203D01*
X-369596278Y-33964326D01*
X-369621909Y-33957906D01*
X-369646788Y-33949005D01*
X-369670674Y-33937707D01*
X-369693337Y-33924123D01*
X-369714560Y-33908383D01*
X-369734139Y-33890639D01*
X-369751883Y-33871060D01*
X-369767623Y-33849837D01*
X-369781207Y-33827174D01*
X-369792505Y-33803288D01*
X-369801406Y-33778409D01*
X-369807826Y-33752778D01*
X-369811703Y-33726641D01*
X-369813000Y-33700250D01*
X-369813000Y-33161750D01*
X-369811703Y-33135359D01*
X-369807826Y-33109222D01*
X-369801406Y-33083591D01*
X-369792505Y-33058712D01*
X-369781207Y-33034826D01*
X-369767623Y-33012163D01*
X-369751883Y-32990940D01*
X-369734139Y-32971361D01*
X-369714560Y-32953617D01*
X-369693337Y-32937877D01*
X-369670674Y-32924293D01*
X-369646788Y-32912995D01*
X-369621909Y-32904094D01*
X-369596278Y-32897674D01*
X-369570141Y-32893797D01*
X-369543750Y-32892500D01*
X-368580250Y-32892500D01*
X-368553859Y-32893797D01*
G37*
G36*
X-363981859Y-43561797D02*
G01*
X-363955722Y-43565674D01*
X-363930091Y-43572094D01*
X-363905212Y-43580995D01*
X-363881326Y-43592293D01*
X-363858663Y-43605877D01*
X-363837440Y-43621617D01*
X-363817861Y-43639361D01*
X-363800117Y-43658940D01*
X-363784377Y-43680163D01*
X-363770793Y-43702826D01*
X-363759495Y-43726712D01*
X-363750594Y-43751591D01*
X-363744174Y-43777222D01*
X-363740297Y-43803359D01*
X-363739000Y-43829750D01*
X-363739000Y-44368250D01*
X-363740297Y-44394641D01*
X-363744174Y-44420778D01*
X-363750594Y-44446409D01*
X-363759495Y-44471288D01*
X-363770793Y-44495174D01*
X-363784377Y-44517837D01*
X-363800117Y-44539060D01*
X-363817861Y-44558639D01*
X-363837440Y-44576383D01*
X-363858663Y-44592123D01*
X-363881326Y-44605707D01*
X-363905212Y-44617005D01*
X-363930091Y-44625906D01*
X-363955722Y-44632326D01*
X-363981859Y-44636203D01*
X-364008250Y-44637500D01*
X-364971750Y-44637500D01*
X-364998141Y-44636203D01*
X-365024278Y-44632326D01*
X-365049909Y-44625906D01*
X-365074788Y-44617005D01*
X-365098674Y-44605707D01*
X-365121337Y-44592123D01*
X-365142560Y-44576383D01*
X-365162139Y-44558639D01*
X-365179883Y-44539060D01*
X-365195623Y-44517837D01*
X-365209207Y-44495174D01*
X-365220505Y-44471288D01*
X-365229406Y-44446409D01*
X-365235826Y-44420778D01*
X-365239703Y-44394641D01*
X-365241000Y-44368250D01*
X-365241000Y-43829750D01*
X-365239703Y-43803359D01*
X-365235826Y-43777222D01*
X-365229406Y-43751591D01*
X-365220505Y-43726712D01*
X-365209207Y-43702826D01*
X-365195623Y-43680163D01*
X-365179883Y-43658940D01*
X-365162139Y-43639361D01*
X-365142560Y-43621617D01*
X-365121337Y-43605877D01*
X-365098674Y-43592293D01*
X-365074788Y-43580995D01*
X-365049909Y-43572094D01*
X-365024278Y-43565674D01*
X-364998141Y-43561797D01*
X-364971750Y-43560500D01*
X-364008250Y-43560500D01*
X-363981859Y-43561797D01*
G37*
G36*
X-363981859Y-45436797D02*
G01*
X-363955722Y-45440674D01*
X-363930091Y-45447094D01*
X-363905212Y-45455995D01*
X-363881326Y-45467293D01*
X-363858663Y-45480877D01*
X-363837440Y-45496617D01*
X-363817861Y-45514361D01*
X-363800117Y-45533940D01*
X-363784377Y-45555163D01*
X-363770793Y-45577826D01*
X-363759495Y-45601712D01*
X-363750594Y-45626591D01*
X-363744174Y-45652222D01*
X-363740297Y-45678359D01*
X-363739000Y-45704750D01*
X-363739000Y-46243250D01*
X-363740297Y-46269641D01*
X-363744174Y-46295778D01*
X-363750594Y-46321409D01*
X-363759495Y-46346288D01*
X-363770793Y-46370174D01*
X-363784377Y-46392837D01*
X-363800117Y-46414060D01*
X-363817861Y-46433639D01*
X-363837440Y-46451383D01*
X-363858663Y-46467123D01*
X-363881326Y-46480707D01*
X-363905212Y-46492005D01*
X-363930091Y-46500906D01*
X-363955722Y-46507326D01*
X-363981859Y-46511203D01*
X-364008250Y-46512500D01*
X-364971750Y-46512500D01*
X-364998141Y-46511203D01*
X-365024278Y-46507326D01*
X-365049909Y-46500906D01*
X-365074788Y-46492005D01*
X-365098674Y-46480707D01*
X-365121337Y-46467123D01*
X-365142560Y-46451383D01*
X-365162139Y-46433639D01*
X-365179883Y-46414060D01*
X-365195623Y-46392837D01*
X-365209207Y-46370174D01*
X-365220505Y-46346288D01*
X-365229406Y-46321409D01*
X-365235826Y-46295778D01*
X-365239703Y-46269641D01*
X-365241000Y-46243250D01*
X-365241000Y-45704750D01*
X-365239703Y-45678359D01*
X-365235826Y-45652222D01*
X-365229406Y-45626591D01*
X-365220505Y-45601712D01*
X-365209207Y-45577826D01*
X-365195623Y-45555163D01*
X-365179883Y-45533940D01*
X-365162139Y-45514361D01*
X-365142560Y-45496617D01*
X-365121337Y-45480877D01*
X-365098674Y-45467293D01*
X-365074788Y-45455995D01*
X-365049909Y-45447094D01*
X-365024278Y-45440674D01*
X-364998141Y-45436797D01*
X-364971750Y-45435500D01*
X-364008250Y-45435500D01*
X-363981859Y-45436797D01*
G37*
G36*
X-369879359Y-59575297D02*
G01*
X-369853222Y-59579174D01*
X-369827591Y-59585594D01*
X-369802712Y-59594495D01*
X-369778826Y-59605793D01*
X-369756163Y-59619377D01*
X-369734940Y-59635117D01*
X-369715361Y-59652861D01*
X-369697617Y-59672440D01*
X-369681877Y-59693663D01*
X-369668293Y-59716326D01*
X-369656995Y-59740212D01*
X-369648094Y-59765091D01*
X-369641674Y-59790722D01*
X-369637797Y-59816859D01*
X-369636500Y-59843250D01*
X-369636500Y-60806750D01*
X-369637797Y-60833141D01*
X-369641674Y-60859278D01*
X-369648094Y-60884909D01*
X-369656995Y-60909788D01*
X-369668293Y-60933674D01*
X-369681877Y-60956337D01*
X-369697617Y-60977560D01*
X-369715361Y-60997139D01*
X-369734940Y-61014883D01*
X-369756163Y-61030623D01*
X-369778826Y-61044207D01*
X-369802712Y-61055505D01*
X-369827591Y-61064406D01*
X-369853222Y-61070826D01*
X-369879359Y-61074703D01*
X-369905750Y-61076000D01*
X-370444250Y-61076000D01*
X-370470641Y-61074703D01*
X-370496778Y-61070826D01*
X-370522409Y-61064406D01*
X-370547288Y-61055505D01*
X-370571174Y-61044207D01*
X-370593837Y-61030623D01*
X-370615060Y-61014883D01*
X-370634639Y-60997139D01*
X-370652383Y-60977560D01*
X-370668123Y-60956337D01*
X-370681707Y-60933674D01*
X-370693005Y-60909788D01*
X-370701906Y-60884909D01*
X-370708326Y-60859278D01*
X-370712203Y-60833141D01*
X-370713500Y-60806750D01*
X-370713500Y-59843250D01*
X-370712203Y-59816859D01*
X-370708326Y-59790722D01*
X-370701906Y-59765091D01*
X-370693005Y-59740212D01*
X-370681707Y-59716326D01*
X-370668123Y-59693663D01*
X-370652383Y-59672440D01*
X-370634639Y-59652861D01*
X-370615060Y-59635117D01*
X-370593837Y-59619377D01*
X-370571174Y-59605793D01*
X-370547288Y-59594495D01*
X-370522409Y-59585594D01*
X-370496778Y-59579174D01*
X-370470641Y-59575297D01*
X-370444250Y-59574000D01*
X-369905750Y-59574000D01*
X-369879359Y-59575297D01*
G37*
G36*
X-368004359Y-59575297D02*
G01*
X-367978222Y-59579174D01*
X-367952591Y-59585594D01*
X-367927712Y-59594495D01*
X-367903826Y-59605793D01*
X-367881163Y-59619377D01*
X-367859940Y-59635117D01*
X-367840361Y-59652861D01*
X-367822617Y-59672440D01*
X-367806877Y-59693663D01*
X-367793293Y-59716326D01*
X-367781995Y-59740212D01*
X-367773094Y-59765091D01*
X-367766674Y-59790722D01*
X-367762797Y-59816859D01*
X-367761500Y-59843250D01*
X-367761500Y-60806750D01*
X-367762797Y-60833141D01*
X-367766674Y-60859278D01*
X-367773094Y-60884909D01*
X-367781995Y-60909788D01*
X-367793293Y-60933674D01*
X-367806877Y-60956337D01*
X-367822617Y-60977560D01*
X-367840361Y-60997139D01*
X-367859940Y-61014883D01*
X-367881163Y-61030623D01*
X-367903826Y-61044207D01*
X-367927712Y-61055505D01*
X-367952591Y-61064406D01*
X-367978222Y-61070826D01*
X-368004359Y-61074703D01*
X-368030750Y-61076000D01*
X-368569250Y-61076000D01*
X-368595641Y-61074703D01*
X-368621778Y-61070826D01*
X-368647409Y-61064406D01*
X-368672288Y-61055505D01*
X-368696174Y-61044207D01*
X-368718837Y-61030623D01*
X-368740060Y-61014883D01*
X-368759639Y-60997139D01*
X-368777383Y-60977560D01*
X-368793123Y-60956337D01*
X-368806707Y-60933674D01*
X-368818005Y-60909788D01*
X-368826906Y-60884909D01*
X-368833326Y-60859278D01*
X-368837203Y-60833141D01*
X-368838500Y-60806750D01*
X-368838500Y-59843250D01*
X-368837203Y-59816859D01*
X-368833326Y-59790722D01*
X-368826906Y-59765091D01*
X-368818005Y-59740212D01*
X-368806707Y-59716326D01*
X-368793123Y-59693663D01*
X-368777383Y-59672440D01*
X-368759639Y-59652861D01*
X-368740060Y-59635117D01*
X-368718837Y-59619377D01*
X-368696174Y-59605793D01*
X-368672288Y-59594495D01*
X-368647409Y-59585594D01*
X-368621778Y-59579174D01*
X-368595641Y-59575297D01*
X-368569250Y-59574000D01*
X-368030750Y-59574000D01*
X-368004359Y-59575297D01*
G37*
G36*
X-382523859Y-40181297D02*
G01*
X-382497722Y-40185174D01*
X-382472091Y-40191594D01*
X-382447212Y-40200495D01*
X-382423326Y-40211793D01*
X-382400663Y-40225377D01*
X-382379440Y-40241117D01*
X-382359861Y-40258861D01*
X-382342117Y-40278440D01*
X-382326377Y-40299663D01*
X-382312793Y-40322326D01*
X-382301495Y-40346212D01*
X-382292594Y-40371091D01*
X-382286174Y-40396722D01*
X-382282297Y-40422859D01*
X-382281000Y-40449250D01*
X-382281000Y-40987750D01*
X-382282297Y-41014141D01*
X-382286174Y-41040278D01*
X-382292594Y-41065909D01*
X-382301495Y-41090788D01*
X-382312793Y-41114674D01*
X-382326377Y-41137337D01*
X-382342117Y-41158560D01*
X-382359861Y-41178139D01*
X-382379440Y-41195883D01*
X-382400663Y-41211623D01*
X-382423326Y-41225207D01*
X-382447212Y-41236505D01*
X-382472091Y-41245406D01*
X-382497722Y-41251826D01*
X-382523859Y-41255703D01*
X-382550250Y-41257000D01*
X-383513750Y-41257000D01*
X-383540141Y-41255703D01*
X-383566278Y-41251826D01*
X-383591909Y-41245406D01*
X-383616788Y-41236505D01*
X-383640674Y-41225207D01*
X-383663337Y-41211623D01*
X-383684560Y-41195883D01*
X-383704139Y-41178139D01*
X-383721883Y-41158560D01*
X-383737623Y-41137337D01*
X-383751207Y-41114674D01*
X-383762505Y-41090788D01*
X-383771406Y-41065909D01*
X-383777826Y-41040278D01*
X-383781703Y-41014141D01*
X-383783000Y-40987750D01*
X-383783000Y-40449250D01*
X-383781703Y-40422859D01*
X-383777826Y-40396722D01*
X-383771406Y-40371091D01*
X-383762505Y-40346212D01*
X-383751207Y-40322326D01*
X-383737623Y-40299663D01*
X-383721883Y-40278440D01*
X-383704139Y-40258861D01*
X-383684560Y-40241117D01*
X-383663337Y-40225377D01*
X-383640674Y-40211793D01*
X-383616788Y-40200495D01*
X-383591909Y-40191594D01*
X-383566278Y-40185174D01*
X-383540141Y-40181297D01*
X-383513750Y-40180000D01*
X-382550250Y-40180000D01*
X-382523859Y-40181297D01*
G37*
G36*
X-382523859Y-42056297D02*
G01*
X-382497722Y-42060174D01*
X-382472091Y-42066594D01*
X-382447212Y-42075495D01*
X-382423326Y-42086793D01*
X-382400663Y-42100377D01*
X-382379440Y-42116117D01*
X-382359861Y-42133861D01*
X-382342117Y-42153440D01*
X-382326377Y-42174663D01*
X-382312793Y-42197326D01*
X-382301495Y-42221212D01*
X-382292594Y-42246091D01*
X-382286174Y-42271722D01*
X-382282297Y-42297859D01*
X-382281000Y-42324250D01*
X-382281000Y-42862750D01*
X-382282297Y-42889141D01*
X-382286174Y-42915278D01*
X-382292594Y-42940909D01*
X-382301495Y-42965788D01*
X-382312793Y-42989674D01*
X-382326377Y-43012337D01*
X-382342117Y-43033560D01*
X-382359861Y-43053139D01*
X-382379440Y-43070883D01*
X-382400663Y-43086623D01*
X-382423326Y-43100207D01*
X-382447212Y-43111505D01*
X-382472091Y-43120406D01*
X-382497722Y-43126826D01*
X-382523859Y-43130703D01*
X-382550250Y-43132000D01*
X-383513750Y-43132000D01*
X-383540141Y-43130703D01*
X-383566278Y-43126826D01*
X-383591909Y-43120406D01*
X-383616788Y-43111505D01*
X-383640674Y-43100207D01*
X-383663337Y-43086623D01*
X-383684560Y-43070883D01*
X-383704139Y-43053139D01*
X-383721883Y-43033560D01*
X-383737623Y-43012337D01*
X-383751207Y-42989674D01*
X-383762505Y-42965788D01*
X-383771406Y-42940909D01*
X-383777826Y-42915278D01*
X-383781703Y-42889141D01*
X-383783000Y-42862750D01*
X-383783000Y-42324250D01*
X-383781703Y-42297859D01*
X-383777826Y-42271722D01*
X-383771406Y-42246091D01*
X-383762505Y-42221212D01*
X-383751207Y-42197326D01*
X-383737623Y-42174663D01*
X-383721883Y-42153440D01*
X-383704139Y-42133861D01*
X-383684560Y-42116117D01*
X-383663337Y-42100377D01*
X-383640674Y-42086793D01*
X-383616788Y-42075495D01*
X-383591909Y-42066594D01*
X-383566278Y-42060174D01*
X-383540141Y-42056297D01*
X-383513750Y-42055000D01*
X-382550250Y-42055000D01*
X-382523859Y-42056297D01*
G37*
G36*
X-376735609Y-59575297D02*
G01*
X-376709472Y-59579174D01*
X-376683841Y-59585594D01*
X-376658962Y-59594495D01*
X-376635076Y-59605793D01*
X-376612413Y-59619377D01*
X-376591190Y-59635117D01*
X-376571611Y-59652861D01*
X-376553867Y-59672440D01*
X-376538127Y-59693663D01*
X-376524543Y-59716326D01*
X-376513245Y-59740212D01*
X-376504344Y-59765091D01*
X-376497924Y-59790722D01*
X-376494047Y-59816859D01*
X-376492750Y-59843250D01*
X-376492750Y-60806750D01*
X-376494047Y-60833141D01*
X-376497924Y-60859278D01*
X-376504344Y-60884909D01*
X-376513245Y-60909788D01*
X-376524543Y-60933674D01*
X-376538127Y-60956337D01*
X-376553867Y-60977560D01*
X-376571611Y-60997139D01*
X-376591190Y-61014883D01*
X-376612413Y-61030623D01*
X-376635076Y-61044207D01*
X-376658962Y-61055505D01*
X-376683841Y-61064406D01*
X-376709472Y-61070826D01*
X-376735609Y-61074703D01*
X-376762000Y-61076000D01*
X-377300500Y-61076000D01*
X-377326891Y-61074703D01*
X-377353028Y-61070826D01*
X-377378659Y-61064406D01*
X-377403538Y-61055505D01*
X-377427424Y-61044207D01*
X-377450087Y-61030623D01*
X-377471310Y-61014883D01*
X-377490889Y-60997139D01*
X-377508633Y-60977560D01*
X-377524373Y-60956337D01*
X-377537957Y-60933674D01*
X-377549255Y-60909788D01*
X-377558156Y-60884909D01*
X-377564576Y-60859278D01*
X-377568453Y-60833141D01*
X-377569750Y-60806750D01*
X-377569750Y-59843250D01*
X-377568453Y-59816859D01*
X-377564576Y-59790722D01*
X-377558156Y-59765091D01*
X-377549255Y-59740212D01*
X-377537957Y-59716326D01*
X-377524373Y-59693663D01*
X-377508633Y-59672440D01*
X-377490889Y-59652861D01*
X-377471310Y-59635117D01*
X-377450087Y-59619377D01*
X-377427424Y-59605793D01*
X-377403538Y-59594495D01*
X-377378659Y-59585594D01*
X-377353028Y-59579174D01*
X-377326891Y-59575297D01*
X-377300500Y-59574000D01*
X-376762000Y-59574000D01*
X-376735609Y-59575297D01*
G37*
G36*
X-378610609Y-59575297D02*
G01*
X-378584472Y-59579174D01*
X-378558841Y-59585594D01*
X-378533962Y-59594495D01*
X-378510076Y-59605793D01*
X-378487413Y-59619377D01*
X-378466190Y-59635117D01*
X-378446611Y-59652861D01*
X-378428867Y-59672440D01*
X-378413127Y-59693663D01*
X-378399543Y-59716326D01*
X-378388245Y-59740212D01*
X-378379344Y-59765091D01*
X-378372924Y-59790722D01*
X-378369047Y-59816859D01*
X-378367750Y-59843250D01*
X-378367750Y-60806750D01*
X-378369047Y-60833141D01*
X-378372924Y-60859278D01*
X-378379344Y-60884909D01*
X-378388245Y-60909788D01*
X-378399543Y-60933674D01*
X-378413127Y-60956337D01*
X-378428867Y-60977560D01*
X-378446611Y-60997139D01*
X-378466190Y-61014883D01*
X-378487413Y-61030623D01*
X-378510076Y-61044207D01*
X-378533962Y-61055505D01*
X-378558841Y-61064406D01*
X-378584472Y-61070826D01*
X-378610609Y-61074703D01*
X-378637000Y-61076000D01*
X-379175500Y-61076000D01*
X-379201891Y-61074703D01*
X-379228028Y-61070826D01*
X-379253659Y-61064406D01*
X-379278538Y-61055505D01*
X-379302424Y-61044207D01*
X-379325087Y-61030623D01*
X-379346310Y-61014883D01*
X-379365889Y-60997139D01*
X-379383633Y-60977560D01*
X-379399373Y-60956337D01*
X-379412957Y-60933674D01*
X-379424255Y-60909788D01*
X-379433156Y-60884909D01*
X-379439576Y-60859278D01*
X-379443453Y-60833141D01*
X-379444750Y-60806750D01*
X-379444750Y-59843250D01*
X-379443453Y-59816859D01*
X-379439576Y-59790722D01*
X-379433156Y-59765091D01*
X-379424255Y-59740212D01*
X-379412957Y-59716326D01*
X-379399373Y-59693663D01*
X-379383633Y-59672440D01*
X-379365889Y-59652861D01*
X-379346310Y-59635117D01*
X-379325087Y-59619377D01*
X-379302424Y-59605793D01*
X-379278538Y-59594495D01*
X-379253659Y-59585594D01*
X-379228028Y-59579174D01*
X-379201891Y-59575297D01*
X-379175500Y-59574000D01*
X-378637000Y-59574000D01*
X-378610609Y-59575297D01*
G37*
M02*
