M48
; DRILL file {KiCad (5.1.5)-1} date 4/16/2021 1:39:28 PM
; FORMAT={-:-/ absolute / inch / decimal}
; #@! TF.CreationDate,2021-04-16T13:39:28-04:00
; #@! TF.GenerationSoftware,Kicad,Pcbnew,(5.1.5)-1
; #@! TF.FileFunction,Plated,1,2,PTH
FMAT,2
INCH
T1C0.0157
T2C0.0276
T3C0.0579
%
G90
G05
T1
X-15.57Y-2.4
X-15.28Y-1.68
X-15.15Y-1.56
X-15.03Y-1.92
X-15.03Y-2.1
X-15.03Y-2.28
X-14.52Y-2.29
X-14.43Y-2.37
X-14.27Y-1.82
T3
X-13.2438Y-1.4625
X-13.1922Y-1.405
X-12.9953Y-1.3853
X-12.9938Y-1.3625
X-13.9938Y-1.4625
X-13.9422Y-1.405
X-13.7453Y-1.3853
X-13.7438Y-1.3625
X-13.2438Y-2.2125
X-13.1922Y-2.155
X-12.9953Y-2.1353
X-12.9938Y-2.1125
X-13.9938Y-2.2125
X-13.9422Y-2.155
X-13.7453Y-2.1353
X-13.7438Y-2.1125
T2
G00X-15.8Y-1.2264
M15
G01X-15.8Y-1.2736
M16
G05
G00X-15.8Y-1.4035
M15
G01X-15.8Y-1.4508
M16
G05
G00X-15.5125Y-1.2264
M15
G01X-15.5125Y-1.2736
M16
G05
G00X-15.5125Y-1.4035
M15
G01X-15.5125Y-1.4508
M16
G05
T0
M30
