G04 #@! TF.GenerationSoftware,KiCad,Pcbnew,(5.1.5)-1*
G04 #@! TF.CreationDate,2021-04-16T13:39:06-04:00*
G04 #@! TF.ProjectId,intro-pcb,696e7472-6f2d-4706-9362-2e6b69636164,rev?*
G04 #@! TF.SameCoordinates,Original*
G04 #@! TF.FileFunction,Soldermask,Bot*
G04 #@! TF.FilePolarity,Negative*
%FSLAX46Y46*%
G04 Gerber Fmt 4.6, Leading zero omitted, Abs format (unit mm)*
G04 Created by KiCad (PCBNEW (5.1.5)-1) date 2021-04-16 13:39:06*
%MOMM*%
%LPD*%
G04 APERTURE LIST*
%ADD10C,0.100000*%
G04 APERTURE END LIST*
D10*
G36*
X-396792750Y-65951000D02*
G01*
X-398694750Y-65951000D01*
X-398694750Y-64749000D01*
X-396792750Y-64749000D01*
X-396792750Y-65951000D01*
G37*
G36*
X-402992750Y-65951000D02*
G01*
X-404894750Y-65951000D01*
X-404894750Y-64749000D01*
X-402992750Y-64749000D01*
X-402992750Y-65951000D01*
G37*
G36*
X-402992750Y-62251000D02*
G01*
X-404894750Y-62251000D01*
X-404894750Y-61049000D01*
X-402992750Y-61049000D01*
X-402992750Y-62251000D01*
G37*
G36*
X-396792750Y-62251000D02*
G01*
X-398694750Y-62251000D01*
X-398694750Y-61049000D01*
X-396792750Y-61049000D01*
X-396792750Y-62251000D01*
G37*
G36*
X-378534282Y-59578565D02*
G01*
X-378495612Y-59590296D01*
X-378459973Y-59609346D01*
X-378428733Y-59634983D01*
X-378403096Y-59666223D01*
X-378384046Y-59701862D01*
X-378372315Y-59740532D01*
X-378367750Y-59786888D01*
X-378367750Y-60863112D01*
X-378372315Y-60909468D01*
X-378384046Y-60948138D01*
X-378403096Y-60983777D01*
X-378428733Y-61015017D01*
X-378459973Y-61040654D01*
X-378495612Y-61059704D01*
X-378534282Y-61071435D01*
X-378580638Y-61076000D01*
X-379231862Y-61076000D01*
X-379278218Y-61071435D01*
X-379316888Y-61059704D01*
X-379352527Y-61040654D01*
X-379383767Y-61015017D01*
X-379409404Y-60983777D01*
X-379428454Y-60948138D01*
X-379440185Y-60909468D01*
X-379444750Y-60863112D01*
X-379444750Y-59786888D01*
X-379440185Y-59740532D01*
X-379428454Y-59701862D01*
X-379409404Y-59666223D01*
X-379383767Y-59634983D01*
X-379352527Y-59609346D01*
X-379316888Y-59590296D01*
X-379278218Y-59578565D01*
X-379231862Y-59574000D01*
X-378580638Y-59574000D01*
X-378534282Y-59578565D01*
G37*
G36*
X-376659282Y-59578565D02*
G01*
X-376620612Y-59590296D01*
X-376584973Y-59609346D01*
X-376553733Y-59634983D01*
X-376528096Y-59666223D01*
X-376509046Y-59701862D01*
X-376497315Y-59740532D01*
X-376492750Y-59786888D01*
X-376492750Y-60863112D01*
X-376497315Y-60909468D01*
X-376509046Y-60948138D01*
X-376528096Y-60983777D01*
X-376553733Y-61015017D01*
X-376584973Y-61040654D01*
X-376620612Y-61059704D01*
X-376659282Y-61071435D01*
X-376705638Y-61076000D01*
X-377356862Y-61076000D01*
X-377403218Y-61071435D01*
X-377441888Y-61059704D01*
X-377477527Y-61040654D01*
X-377508767Y-61015017D01*
X-377534404Y-60983777D01*
X-377553454Y-60948138D01*
X-377565185Y-60909468D01*
X-377569750Y-60863112D01*
X-377569750Y-59786888D01*
X-377565185Y-59740532D01*
X-377553454Y-59701862D01*
X-377534404Y-59666223D01*
X-377508767Y-59634983D01*
X-377477527Y-59609346D01*
X-377441888Y-59590296D01*
X-377403218Y-59578565D01*
X-377356862Y-59574000D01*
X-376705638Y-59574000D01*
X-376659282Y-59578565D01*
G37*
G36*
X-367928032Y-59578565D02*
G01*
X-367889362Y-59590296D01*
X-367853723Y-59609346D01*
X-367822483Y-59634983D01*
X-367796846Y-59666223D01*
X-367777796Y-59701862D01*
X-367766065Y-59740532D01*
X-367761500Y-59786888D01*
X-367761500Y-60863112D01*
X-367766065Y-60909468D01*
X-367777796Y-60948138D01*
X-367796846Y-60983777D01*
X-367822483Y-61015017D01*
X-367853723Y-61040654D01*
X-367889362Y-61059704D01*
X-367928032Y-61071435D01*
X-367974388Y-61076000D01*
X-368625612Y-61076000D01*
X-368671968Y-61071435D01*
X-368710638Y-61059704D01*
X-368746277Y-61040654D01*
X-368777517Y-61015017D01*
X-368803154Y-60983777D01*
X-368822204Y-60948138D01*
X-368833935Y-60909468D01*
X-368838500Y-60863112D01*
X-368838500Y-59786888D01*
X-368833935Y-59740532D01*
X-368822204Y-59701862D01*
X-368803154Y-59666223D01*
X-368777517Y-59634983D01*
X-368746277Y-59609346D01*
X-368710638Y-59590296D01*
X-368671968Y-59578565D01*
X-368625612Y-59574000D01*
X-367974388Y-59574000D01*
X-367928032Y-59578565D01*
G37*
G36*
X-369803032Y-59578565D02*
G01*
X-369764362Y-59590296D01*
X-369728723Y-59609346D01*
X-369697483Y-59634983D01*
X-369671846Y-59666223D01*
X-369652796Y-59701862D01*
X-369641065Y-59740532D01*
X-369636500Y-59786888D01*
X-369636500Y-60863112D01*
X-369641065Y-60909468D01*
X-369652796Y-60948138D01*
X-369671846Y-60983777D01*
X-369697483Y-61015017D01*
X-369728723Y-61040654D01*
X-369764362Y-61059704D01*
X-369803032Y-61071435D01*
X-369849388Y-61076000D01*
X-370500612Y-61076000D01*
X-370546968Y-61071435D01*
X-370585638Y-61059704D01*
X-370621277Y-61040654D01*
X-370652517Y-61015017D01*
X-370678154Y-60983777D01*
X-370697204Y-60948138D01*
X-370708935Y-60909468D01*
X-370713500Y-60863112D01*
X-370713500Y-59786888D01*
X-370708935Y-59740532D01*
X-370697204Y-59701862D01*
X-370678154Y-59666223D01*
X-370652517Y-59634983D01*
X-370621277Y-59609346D01*
X-370585638Y-59590296D01*
X-370546968Y-59578565D01*
X-370500612Y-59574000D01*
X-369849388Y-59574000D01*
X-369803032Y-59578565D01*
G37*
G36*
X-342249000Y-60888500D02*
G01*
X-343551000Y-60888500D01*
X-343551000Y-59886500D01*
X-342249000Y-59886500D01*
X-342249000Y-60888500D01*
G37*
G36*
X-323199000Y-60888500D02*
G01*
X-324501000Y-60888500D01*
X-324501000Y-59886500D01*
X-323199000Y-59886500D01*
X-323199000Y-60888500D01*
G37*
G36*
X-351034776Y-56771184D02*
G01*
X-350816776Y-56861483D01*
X-350662627Y-56925333D01*
X-350327702Y-57149123D01*
X-350042873Y-57433952D01*
X-349819083Y-57768877D01*
X-349786688Y-57847086D01*
X-349664934Y-58141026D01*
X-349586350Y-58536094D01*
X-349586350Y-58938906D01*
X-349664934Y-59333974D01*
X-349715799Y-59456772D01*
X-349819083Y-59706123D01*
X-350042873Y-60041048D01*
X-350327702Y-60325877D01*
X-350662627Y-60549667D01*
X-350816776Y-60613517D01*
X-351034776Y-60703816D01*
X-351429844Y-60782400D01*
X-351832656Y-60782400D01*
X-352227724Y-60703816D01*
X-352445724Y-60613517D01*
X-352599873Y-60549667D01*
X-352934798Y-60325877D01*
X-353219627Y-60041048D01*
X-353443417Y-59706123D01*
X-353546701Y-59456772D01*
X-353597566Y-59333974D01*
X-353676150Y-58938906D01*
X-353676150Y-58536094D01*
X-353597566Y-58141026D01*
X-353475812Y-57847086D01*
X-353443417Y-57768877D01*
X-353219627Y-57433952D01*
X-352934798Y-57149123D01*
X-352599873Y-56925333D01*
X-352445724Y-56861483D01*
X-352227724Y-56771184D01*
X-351832656Y-56692600D01*
X-351429844Y-56692600D01*
X-351034776Y-56771184D01*
G37*
G36*
X-331984776Y-56771184D02*
G01*
X-331766776Y-56861483D01*
X-331612627Y-56925333D01*
X-331277702Y-57149123D01*
X-330992873Y-57433952D01*
X-330769083Y-57768877D01*
X-330736688Y-57847086D01*
X-330614934Y-58141026D01*
X-330536350Y-58536094D01*
X-330536350Y-58938906D01*
X-330614934Y-59333974D01*
X-330665799Y-59456772D01*
X-330769083Y-59706123D01*
X-330992873Y-60041048D01*
X-331277702Y-60325877D01*
X-331612627Y-60549667D01*
X-331766776Y-60613517D01*
X-331984776Y-60703816D01*
X-332379844Y-60782400D01*
X-332782656Y-60782400D01*
X-333177724Y-60703816D01*
X-333395724Y-60613517D01*
X-333549873Y-60549667D01*
X-333884798Y-60325877D01*
X-334169627Y-60041048D01*
X-334393417Y-59706123D01*
X-334496701Y-59456772D01*
X-334547566Y-59333974D01*
X-334626150Y-58938906D01*
X-334626150Y-58536094D01*
X-334547566Y-58141026D01*
X-334425812Y-57847086D01*
X-334393417Y-57768877D01*
X-334169627Y-57433952D01*
X-333884798Y-57149123D01*
X-333549873Y-56925333D01*
X-333395724Y-56861483D01*
X-333177724Y-56771184D01*
X-332782656Y-56692600D01*
X-332379844Y-56692600D01*
X-331984776Y-56771184D01*
G37*
G36*
X-337391146Y-57847085D02*
G01*
X-337222624Y-57916889D01*
X-337070959Y-58018228D01*
X-336941978Y-58147209D01*
X-336840639Y-58298874D01*
X-336770835Y-58467396D01*
X-336735250Y-58646297D01*
X-336735250Y-58828703D01*
X-336770835Y-59007604D01*
X-336840639Y-59176126D01*
X-336941978Y-59327791D01*
X-337070959Y-59456772D01*
X-337222624Y-59558111D01*
X-337391146Y-59627915D01*
X-337570047Y-59663500D01*
X-337752453Y-59663500D01*
X-337931354Y-59627915D01*
X-338099876Y-59558111D01*
X-338251541Y-59456772D01*
X-338380522Y-59327791D01*
X-338481861Y-59176126D01*
X-338551665Y-59007604D01*
X-338587250Y-58828703D01*
X-338587250Y-58646297D01*
X-338551665Y-58467396D01*
X-338481861Y-58298874D01*
X-338380522Y-58147209D01*
X-338251541Y-58018228D01*
X-338099876Y-57916889D01*
X-337931354Y-57847085D01*
X-337752453Y-57811500D01*
X-337570047Y-57811500D01*
X-337391146Y-57847085D01*
G37*
G36*
X-327231146Y-57847085D02*
G01*
X-327062624Y-57916889D01*
X-326910959Y-58018228D01*
X-326781978Y-58147209D01*
X-326680639Y-58298874D01*
X-326610835Y-58467396D01*
X-326575250Y-58646297D01*
X-326575250Y-58828703D01*
X-326610835Y-59007604D01*
X-326680639Y-59176126D01*
X-326781978Y-59327791D01*
X-326910959Y-59456772D01*
X-327062624Y-59558111D01*
X-327231146Y-59627915D01*
X-327410047Y-59663500D01*
X-327592453Y-59663500D01*
X-327771354Y-59627915D01*
X-327939876Y-59558111D01*
X-328091541Y-59456772D01*
X-328220522Y-59327791D01*
X-328321861Y-59176126D01*
X-328391665Y-59007604D01*
X-328427250Y-58828703D01*
X-328427250Y-58646297D01*
X-328391665Y-58467396D01*
X-328321861Y-58298874D01*
X-328220522Y-58147209D01*
X-328091541Y-58018228D01*
X-327939876Y-57916889D01*
X-327771354Y-57847085D01*
X-327592453Y-57811500D01*
X-327410047Y-57811500D01*
X-327231146Y-57847085D01*
G37*
G36*
X-346281146Y-57847085D02*
G01*
X-346112624Y-57916889D01*
X-345960959Y-58018228D01*
X-345831978Y-58147209D01*
X-345730639Y-58298874D01*
X-345660835Y-58467396D01*
X-345625250Y-58646297D01*
X-345625250Y-58828703D01*
X-345660835Y-59007604D01*
X-345730639Y-59176126D01*
X-345831978Y-59327791D01*
X-345960959Y-59456772D01*
X-346112624Y-59558111D01*
X-346281146Y-59627915D01*
X-346460047Y-59663500D01*
X-346642453Y-59663500D01*
X-346821354Y-59627915D01*
X-346989876Y-59558111D01*
X-347141541Y-59456772D01*
X-347270522Y-59327791D01*
X-347371861Y-59176126D01*
X-347441665Y-59007604D01*
X-347477250Y-58828703D01*
X-347477250Y-58646297D01*
X-347441665Y-58467396D01*
X-347371861Y-58298874D01*
X-347270522Y-58147209D01*
X-347141541Y-58018228D01*
X-346989876Y-57916889D01*
X-346821354Y-57847085D01*
X-346642453Y-57811500D01*
X-346460047Y-57811500D01*
X-346281146Y-57847085D01*
G37*
G36*
X-356441146Y-57847085D02*
G01*
X-356272624Y-57916889D01*
X-356120959Y-58018228D01*
X-355991978Y-58147209D01*
X-355890639Y-58298874D01*
X-355820835Y-58467396D01*
X-355785250Y-58646297D01*
X-355785250Y-58828703D01*
X-355820835Y-59007604D01*
X-355890639Y-59176126D01*
X-355991978Y-59327791D01*
X-356120959Y-59456772D01*
X-356272624Y-59558111D01*
X-356441146Y-59627915D01*
X-356620047Y-59663500D01*
X-356802453Y-59663500D01*
X-356981354Y-59627915D01*
X-357149876Y-59558111D01*
X-357301541Y-59456772D01*
X-357430522Y-59327791D01*
X-357531861Y-59176126D01*
X-357601665Y-59007604D01*
X-357637250Y-58828703D01*
X-357637250Y-58646297D01*
X-357601665Y-58467396D01*
X-357531861Y-58298874D01*
X-357430522Y-58147209D01*
X-357301541Y-58018228D01*
X-357149876Y-57916889D01*
X-356981354Y-57847085D01*
X-356802453Y-57811500D01*
X-356620047Y-57811500D01*
X-356441146Y-57847085D01*
G37*
G36*
X-323199000Y-57588500D02*
G01*
X-324501000Y-57588500D01*
X-324501000Y-56586500D01*
X-323199000Y-56586500D01*
X-323199000Y-57588500D01*
G37*
G36*
X-342249000Y-57588500D02*
G01*
X-343551000Y-57588500D01*
X-343551000Y-56586500D01*
X-342249000Y-56586500D01*
X-342249000Y-57588500D01*
G37*
G36*
X-354108045Y-53561381D02*
G01*
X-354102605Y-53561500D01*
X-354015422Y-53561500D01*
X-353999153Y-53564736D01*
X-353980294Y-53567015D01*
X-353963718Y-53567746D01*
X-353879027Y-53588510D01*
X-353873732Y-53589684D01*
X-353788223Y-53606693D01*
X-353772888Y-53613045D01*
X-353754849Y-53618955D01*
X-353738729Y-53622907D01*
X-353659746Y-53659780D01*
X-353654756Y-53661977D01*
X-353574205Y-53695342D01*
X-353560409Y-53704560D01*
X-353543857Y-53713882D01*
X-353528824Y-53720900D01*
X-353458556Y-53772471D01*
X-353454058Y-53775622D01*
X-353381594Y-53824041D01*
X-353369867Y-53835768D01*
X-353355441Y-53848148D01*
X-353342071Y-53857961D01*
X-353342070Y-53857962D01*
X-353283229Y-53922233D01*
X-353279421Y-53926214D01*
X-353217791Y-53987844D01*
X-353208576Y-54001635D01*
X-353196854Y-54016578D01*
X-353185645Y-54028821D01*
X-353140451Y-54103374D01*
X-353137504Y-54108001D01*
X-353089092Y-54180455D01*
X-353082745Y-54195777D01*
X-353074158Y-54212731D01*
X-353065559Y-54226917D01*
X-353035772Y-54308868D01*
X-353033798Y-54313948D01*
X-353000443Y-54394473D01*
X-353000443Y-54394474D01*
X-352997209Y-54410733D01*
X-352992092Y-54429042D01*
X-352986425Y-54444634D01*
X-352973195Y-54530845D01*
X-352972249Y-54536213D01*
X-352955250Y-54621673D01*
X-352955250Y-54638252D01*
X-352953806Y-54657192D01*
X-352951287Y-54673604D01*
X-352955130Y-54760749D01*
X-352955250Y-54766189D01*
X-352955250Y-54853325D01*
X-352958484Y-54869583D01*
X-352960762Y-54888441D01*
X-352961494Y-54905031D01*
X-352982262Y-54989737D01*
X-352983438Y-54995037D01*
X-353000443Y-55080527D01*
X-353006793Y-55095857D01*
X-353012701Y-55113893D01*
X-353016655Y-55130020D01*
X-353053539Y-55209026D01*
X-353055739Y-55214023D01*
X-353089092Y-55294545D01*
X-353098306Y-55308335D01*
X-353107628Y-55324887D01*
X-353114648Y-55339924D01*
X-353166239Y-55410220D01*
X-353169384Y-55414710D01*
X-353217789Y-55487154D01*
X-353274790Y-55544155D01*
X-353279439Y-55549063D01*
X-353710939Y-56029970D01*
X-354604527Y-57025876D01*
X-354732571Y-57143102D01*
X-354831620Y-57203146D01*
X-354930667Y-57263189D01*
X-355148384Y-57342323D01*
X-355377355Y-57377461D01*
X-355608780Y-57367254D01*
X-355833769Y-57312093D01*
X-355938523Y-57263189D01*
X-356043671Y-57214102D01*
X-356140412Y-57143102D01*
X-356230427Y-57077039D01*
X-356304856Y-56995741D01*
X-356386852Y-56906179D01*
X-356468686Y-56771185D01*
X-356506939Y-56708083D01*
X-356586073Y-56490366D01*
X-356621211Y-56261395D01*
X-356611004Y-56029970D01*
X-356555843Y-55804981D01*
X-356504278Y-55694528D01*
X-356457852Y-55595080D01*
X-356457850Y-55595077D01*
X-356355136Y-55455122D01*
X-355600005Y-54613527D01*
X-355068463Y-54021121D01*
X-355057569Y-54007089D01*
X-355044711Y-53987846D01*
X-354987677Y-53930812D01*
X-354983027Y-53925903D01*
X-354967972Y-53909124D01*
X-354946549Y-53889511D01*
X-354942568Y-53885703D01*
X-354880904Y-53824039D01*
X-354867107Y-53814820D01*
X-354852148Y-53803085D01*
X-354839929Y-53791898D01*
X-354807865Y-53772461D01*
X-354765420Y-53746731D01*
X-354760829Y-53743808D01*
X-354688295Y-53695342D01*
X-354672950Y-53688986D01*
X-354656002Y-53680401D01*
X-354641834Y-53671812D01*
X-354641833Y-53671812D01*
X-354641832Y-53671811D01*
X-354559938Y-53642045D01*
X-354554840Y-53640063D01*
X-354474277Y-53606693D01*
X-354457998Y-53603455D01*
X-354439708Y-53598344D01*
X-354424115Y-53592677D01*
X-354337950Y-53579454D01*
X-354332587Y-53578509D01*
X-354247077Y-53561500D01*
X-354230484Y-53561500D01*
X-354211541Y-53560055D01*
X-354195144Y-53557539D01*
X-354108045Y-53561381D01*
G37*
G36*
X-335058045Y-53561381D02*
G01*
X-335052605Y-53561500D01*
X-334965422Y-53561500D01*
X-334949153Y-53564736D01*
X-334930294Y-53567015D01*
X-334913718Y-53567746D01*
X-334829027Y-53588510D01*
X-334823732Y-53589684D01*
X-334738223Y-53606693D01*
X-334722888Y-53613045D01*
X-334704849Y-53618955D01*
X-334688729Y-53622907D01*
X-334609746Y-53659780D01*
X-334604756Y-53661977D01*
X-334524205Y-53695342D01*
X-334510409Y-53704560D01*
X-334493857Y-53713882D01*
X-334478824Y-53720900D01*
X-334408556Y-53772471D01*
X-334404058Y-53775622D01*
X-334331594Y-53824041D01*
X-334319867Y-53835768D01*
X-334305441Y-53848148D01*
X-334292071Y-53857961D01*
X-334292070Y-53857962D01*
X-334233229Y-53922233D01*
X-334229421Y-53926214D01*
X-334167791Y-53987844D01*
X-334158576Y-54001635D01*
X-334146854Y-54016578D01*
X-334135645Y-54028821D01*
X-334090451Y-54103374D01*
X-334087504Y-54108001D01*
X-334039092Y-54180455D01*
X-334032745Y-54195777D01*
X-334024158Y-54212731D01*
X-334015559Y-54226917D01*
X-333985772Y-54308868D01*
X-333983798Y-54313948D01*
X-333950443Y-54394473D01*
X-333950443Y-54394474D01*
X-333947209Y-54410733D01*
X-333942092Y-54429042D01*
X-333936425Y-54444634D01*
X-333923195Y-54530845D01*
X-333922249Y-54536213D01*
X-333905250Y-54621673D01*
X-333905250Y-54638252D01*
X-333903806Y-54657192D01*
X-333901287Y-54673604D01*
X-333905130Y-54760749D01*
X-333905250Y-54766189D01*
X-333905250Y-54853325D01*
X-333908484Y-54869583D01*
X-333910762Y-54888441D01*
X-333911494Y-54905031D01*
X-333932262Y-54989737D01*
X-333933438Y-54995037D01*
X-333950443Y-55080527D01*
X-333956793Y-55095857D01*
X-333962701Y-55113893D01*
X-333966655Y-55130020D01*
X-334003539Y-55209026D01*
X-334005739Y-55214023D01*
X-334039092Y-55294545D01*
X-334048306Y-55308335D01*
X-334057628Y-55324887D01*
X-334064648Y-55339924D01*
X-334116239Y-55410220D01*
X-334119384Y-55414710D01*
X-334167789Y-55487154D01*
X-334224790Y-55544155D01*
X-334229439Y-55549063D01*
X-334660939Y-56029970D01*
X-335554527Y-57025876D01*
X-335682571Y-57143102D01*
X-335781620Y-57203146D01*
X-335880667Y-57263189D01*
X-336098384Y-57342323D01*
X-336327355Y-57377461D01*
X-336558780Y-57367254D01*
X-336783769Y-57312093D01*
X-336888523Y-57263189D01*
X-336993671Y-57214102D01*
X-337090412Y-57143102D01*
X-337180427Y-57077039D01*
X-337254856Y-56995741D01*
X-337336852Y-56906179D01*
X-337418686Y-56771185D01*
X-337456939Y-56708083D01*
X-337536073Y-56490366D01*
X-337571211Y-56261395D01*
X-337561004Y-56029970D01*
X-337505843Y-55804981D01*
X-337454278Y-55694528D01*
X-337407852Y-55595080D01*
X-337407850Y-55595077D01*
X-337305136Y-55455122D01*
X-336550005Y-54613527D01*
X-336018463Y-54021121D01*
X-336007569Y-54007089D01*
X-335994711Y-53987846D01*
X-335937677Y-53930812D01*
X-335933027Y-53925903D01*
X-335917972Y-53909124D01*
X-335896549Y-53889511D01*
X-335892568Y-53885703D01*
X-335830904Y-53824039D01*
X-335817107Y-53814820D01*
X-335802148Y-53803085D01*
X-335789929Y-53791898D01*
X-335757865Y-53772461D01*
X-335715420Y-53746731D01*
X-335710829Y-53743808D01*
X-335638295Y-53695342D01*
X-335622950Y-53688986D01*
X-335606002Y-53680401D01*
X-335591834Y-53671812D01*
X-335591833Y-53671812D01*
X-335591832Y-53671811D01*
X-335509938Y-53642045D01*
X-335504840Y-53640063D01*
X-335424277Y-53606693D01*
X-335407998Y-53603455D01*
X-335389708Y-53598344D01*
X-335374115Y-53592677D01*
X-335287950Y-53579454D01*
X-335282587Y-53578509D01*
X-335197077Y-53561500D01*
X-335180484Y-53561500D01*
X-335161541Y-53560055D01*
X-335145144Y-53557539D01*
X-335058045Y-53561381D01*
G37*
G36*
X-369530250Y-56507250D02*
G01*
X-378182250Y-56507250D01*
X-378182250Y-54905250D01*
X-369530250Y-54905250D01*
X-369530250Y-56507250D01*
G37*
G36*
X-363905532Y-55346065D02*
G01*
X-363866862Y-55357796D01*
X-363831223Y-55376846D01*
X-363799983Y-55402483D01*
X-363774346Y-55433723D01*
X-363755296Y-55469362D01*
X-363743565Y-55508032D01*
X-363739000Y-55554388D01*
X-363739000Y-56205612D01*
X-363743565Y-56251968D01*
X-363755296Y-56290638D01*
X-363774346Y-56326277D01*
X-363799983Y-56357517D01*
X-363831223Y-56383154D01*
X-363866862Y-56402204D01*
X-363905532Y-56413935D01*
X-363951888Y-56418500D01*
X-365028112Y-56418500D01*
X-365074468Y-56413935D01*
X-365113138Y-56402204D01*
X-365148777Y-56383154D01*
X-365180017Y-56357517D01*
X-365205654Y-56326277D01*
X-365224704Y-56290638D01*
X-365236435Y-56251968D01*
X-365241000Y-56205612D01*
X-365241000Y-55554388D01*
X-365236435Y-55508032D01*
X-365224704Y-55469362D01*
X-365205654Y-55433723D01*
X-365180017Y-55402483D01*
X-365148777Y-55376846D01*
X-365113138Y-55357796D01*
X-365074468Y-55346065D01*
X-365028112Y-55341500D01*
X-363951888Y-55341500D01*
X-363905532Y-55346065D01*
G37*
G36*
X-329953123Y-52479761D02*
G01*
X-329932350Y-52481500D01*
X-329925423Y-52481500D01*
X-329830496Y-52500382D01*
X-329826902Y-52501042D01*
X-329731520Y-52517124D01*
X-329725047Y-52519585D01*
X-329705022Y-52525341D01*
X-329698223Y-52526693D01*
X-329635836Y-52552534D01*
X-329608807Y-52563730D01*
X-329605406Y-52565081D01*
X-329514995Y-52599461D01*
X-329509123Y-52603140D01*
X-329490614Y-52612687D01*
X-329484205Y-52615342D01*
X-329403687Y-52669142D01*
X-329400696Y-52671078D01*
X-329318693Y-52722459D01*
X-329313666Y-52727200D01*
X-329297354Y-52740191D01*
X-329291598Y-52744037D01*
X-329223140Y-52812495D01*
X-329220561Y-52814999D01*
X-329150160Y-52881389D01*
X-329146155Y-52887019D01*
X-329132691Y-52902944D01*
X-329127791Y-52907844D01*
X-329074006Y-52988339D01*
X-329071959Y-52991307D01*
X-329015870Y-53070145D01*
X-329013036Y-53076458D01*
X-329002942Y-53094693D01*
X-328999092Y-53100455D01*
X-328962030Y-53189930D01*
X-328960626Y-53193185D01*
X-328920985Y-53281473D01*
X-328919435Y-53288225D01*
X-328913098Y-53308062D01*
X-328910443Y-53314473D01*
X-328891558Y-53409417D01*
X-328890812Y-53412901D01*
X-328869152Y-53507251D01*
X-328869016Y-53511877D01*
X-328868950Y-53514154D01*
X-328866603Y-53534870D01*
X-328865250Y-53541674D01*
X-328865250Y-53638486D01*
X-328865197Y-53642084D01*
X-328864062Y-53680777D01*
X-328864955Y-53693725D01*
X-328865250Y-53702297D01*
X-328865250Y-53773326D01*
X-328871169Y-53803085D01*
X-328871646Y-53805479D01*
X-328873750Y-53821250D01*
X-328912012Y-54376045D01*
X-328940874Y-54547230D01*
X-329023212Y-54763755D01*
X-329146209Y-54960057D01*
X-329305139Y-55128590D01*
X-329493895Y-55262880D01*
X-329705223Y-55357765D01*
X-329931001Y-55409598D01*
X-330162552Y-55416389D01*
X-330162553Y-55416389D01*
X-330208238Y-55408686D01*
X-330390980Y-55377876D01*
X-330607505Y-55295538D01*
X-330803807Y-55172541D01*
X-330972340Y-55013611D01*
X-331106630Y-54824855D01*
X-331201515Y-54613527D01*
X-331253348Y-54387749D01*
X-331258438Y-54214223D01*
X-331217546Y-53621294D01*
X-331217250Y-53612696D01*
X-331217250Y-53541675D01*
X-331210403Y-53507251D01*
X-331198362Y-53446719D01*
X-331197706Y-53443145D01*
X-331192019Y-53409417D01*
X-331181626Y-53347770D01*
X-331179165Y-53341299D01*
X-331173408Y-53321267D01*
X-331172057Y-53314474D01*
X-331169407Y-53308076D01*
X-331134986Y-53224976D01*
X-331133697Y-53221730D01*
X-331099288Y-53131245D01*
X-331095614Y-53125381D01*
X-331086063Y-53106865D01*
X-331083408Y-53100455D01*
X-331029593Y-53019915D01*
X-331027673Y-53016949D01*
X-330976291Y-52934943D01*
X-330971539Y-52929904D01*
X-330958561Y-52913607D01*
X-330954713Y-52907848D01*
X-330886257Y-52839392D01*
X-330883704Y-52836762D01*
X-330863227Y-52815048D01*
X-330817361Y-52766410D01*
X-330811729Y-52762403D01*
X-330795803Y-52748938D01*
X-330790904Y-52744039D01*
X-330710426Y-52690266D01*
X-330707444Y-52688210D01*
X-330628605Y-52632120D01*
X-330622295Y-52629287D01*
X-330604056Y-52619191D01*
X-330598299Y-52615344D01*
X-330598296Y-52615343D01*
X-330598295Y-52615342D01*
X-330508821Y-52578281D01*
X-330505563Y-52576875D01*
X-330417277Y-52537235D01*
X-330410525Y-52535685D01*
X-330390688Y-52529348D01*
X-330384277Y-52526693D01*
X-330289351Y-52507811D01*
X-330285804Y-52507051D01*
X-330191499Y-52485401D01*
X-330189120Y-52485331D01*
X-330184585Y-52485198D01*
X-330163869Y-52482851D01*
X-330157076Y-52481500D01*
X-330060291Y-52481500D01*
X-330056666Y-52481447D01*
X-329959948Y-52478610D01*
X-329953123Y-52479761D01*
G37*
G36*
X-349003123Y-52479761D02*
G01*
X-348982350Y-52481500D01*
X-348975423Y-52481500D01*
X-348880496Y-52500382D01*
X-348876902Y-52501042D01*
X-348781520Y-52517124D01*
X-348775047Y-52519585D01*
X-348755022Y-52525341D01*
X-348748223Y-52526693D01*
X-348685836Y-52552534D01*
X-348658807Y-52563730D01*
X-348655406Y-52565081D01*
X-348564995Y-52599461D01*
X-348559123Y-52603140D01*
X-348540614Y-52612687D01*
X-348534205Y-52615342D01*
X-348453687Y-52669142D01*
X-348450696Y-52671078D01*
X-348368693Y-52722459D01*
X-348363666Y-52727200D01*
X-348347354Y-52740191D01*
X-348341598Y-52744037D01*
X-348273140Y-52812495D01*
X-348270561Y-52814999D01*
X-348200160Y-52881389D01*
X-348196155Y-52887019D01*
X-348182691Y-52902944D01*
X-348177791Y-52907844D01*
X-348124006Y-52988339D01*
X-348121959Y-52991307D01*
X-348065870Y-53070145D01*
X-348063036Y-53076458D01*
X-348052942Y-53094693D01*
X-348049092Y-53100455D01*
X-348012030Y-53189930D01*
X-348010626Y-53193185D01*
X-347970985Y-53281473D01*
X-347969435Y-53288225D01*
X-347963098Y-53308062D01*
X-347960443Y-53314473D01*
X-347941558Y-53409417D01*
X-347940812Y-53412901D01*
X-347919152Y-53507251D01*
X-347919016Y-53511877D01*
X-347918950Y-53514154D01*
X-347916603Y-53534870D01*
X-347915250Y-53541674D01*
X-347915250Y-53638486D01*
X-347915197Y-53642084D01*
X-347914062Y-53680777D01*
X-347914955Y-53693725D01*
X-347915250Y-53702297D01*
X-347915250Y-53773326D01*
X-347921169Y-53803085D01*
X-347921646Y-53805479D01*
X-347923750Y-53821250D01*
X-347962012Y-54376045D01*
X-347990874Y-54547230D01*
X-348073212Y-54763755D01*
X-348196209Y-54960057D01*
X-348355139Y-55128590D01*
X-348543895Y-55262880D01*
X-348755223Y-55357765D01*
X-348981001Y-55409598D01*
X-349212552Y-55416389D01*
X-349212553Y-55416389D01*
X-349258238Y-55408686D01*
X-349440980Y-55377876D01*
X-349657505Y-55295538D01*
X-349853807Y-55172541D01*
X-350022340Y-55013611D01*
X-350156630Y-54824855D01*
X-350251515Y-54613527D01*
X-350303348Y-54387749D01*
X-350308438Y-54214223D01*
X-350267546Y-53621294D01*
X-350267250Y-53612696D01*
X-350267250Y-53541675D01*
X-350260403Y-53507251D01*
X-350248362Y-53446719D01*
X-350247706Y-53443145D01*
X-350242019Y-53409417D01*
X-350231626Y-53347770D01*
X-350229165Y-53341299D01*
X-350223408Y-53321267D01*
X-350222057Y-53314474D01*
X-350219407Y-53308076D01*
X-350184986Y-53224976D01*
X-350183697Y-53221730D01*
X-350149288Y-53131245D01*
X-350145614Y-53125381D01*
X-350136063Y-53106865D01*
X-350133408Y-53100455D01*
X-350079593Y-53019915D01*
X-350077673Y-53016949D01*
X-350026291Y-52934943D01*
X-350021539Y-52929904D01*
X-350008561Y-52913607D01*
X-350004713Y-52907848D01*
X-349936257Y-52839392D01*
X-349933704Y-52836762D01*
X-349913227Y-52815048D01*
X-349867361Y-52766410D01*
X-349861729Y-52762403D01*
X-349845803Y-52748938D01*
X-349840904Y-52744039D01*
X-349760426Y-52690266D01*
X-349757444Y-52688210D01*
X-349678605Y-52632120D01*
X-349672295Y-52629287D01*
X-349654056Y-52619191D01*
X-349648299Y-52615344D01*
X-349648296Y-52615343D01*
X-349648295Y-52615342D01*
X-349558821Y-52578281D01*
X-349555563Y-52576875D01*
X-349467277Y-52537235D01*
X-349460525Y-52535685D01*
X-349440688Y-52529348D01*
X-349434277Y-52526693D01*
X-349339351Y-52507811D01*
X-349335804Y-52507051D01*
X-349241499Y-52485401D01*
X-349239120Y-52485331D01*
X-349234585Y-52485198D01*
X-349213869Y-52482851D01*
X-349207076Y-52481500D01*
X-349110291Y-52481500D01*
X-349106666Y-52481447D01*
X-349009948Y-52478610D01*
X-349003123Y-52479761D01*
G37*
G36*
X-363905532Y-53471065D02*
G01*
X-363866862Y-53482796D01*
X-363831223Y-53501846D01*
X-363799983Y-53527483D01*
X-363774346Y-53558723D01*
X-363755296Y-53594362D01*
X-363743565Y-53633032D01*
X-363739000Y-53679388D01*
X-363739000Y-54330612D01*
X-363743565Y-54376968D01*
X-363755296Y-54415638D01*
X-363774346Y-54451277D01*
X-363799983Y-54482517D01*
X-363831223Y-54508154D01*
X-363866862Y-54527204D01*
X-363905532Y-54538935D01*
X-363951888Y-54543500D01*
X-365028112Y-54543500D01*
X-365074468Y-54538935D01*
X-365113138Y-54527204D01*
X-365148777Y-54508154D01*
X-365180017Y-54482517D01*
X-365205654Y-54451277D01*
X-365224704Y-54415638D01*
X-365236435Y-54376968D01*
X-365241000Y-54330612D01*
X-365241000Y-53679388D01*
X-365236435Y-53633032D01*
X-365224704Y-53594362D01*
X-365205654Y-53558723D01*
X-365180017Y-53527483D01*
X-365148777Y-53501846D01*
X-365113138Y-53482796D01*
X-365074468Y-53471065D01*
X-365028112Y-53466500D01*
X-363951888Y-53466500D01*
X-363905532Y-53471065D01*
G37*
G36*
X-378755250Y-54332250D02*
G01*
X-380357250Y-54332250D01*
X-380357250Y-45680250D01*
X-378755250Y-45680250D01*
X-378755250Y-54332250D01*
G37*
G36*
X-367355250Y-54332250D02*
G01*
X-368957250Y-54332250D01*
X-368957250Y-45680250D01*
X-367355250Y-45680250D01*
X-367355250Y-54332250D01*
G37*
G36*
X-403091396Y-49118347D02*
G01*
X-403054856Y-49129432D01*
X-403021179Y-49147433D01*
X-402991659Y-49171659D01*
X-402967433Y-49201179D01*
X-402949432Y-49234856D01*
X-402938347Y-49271396D01*
X-402934000Y-49315538D01*
X-402934000Y-50264462D01*
X-402938347Y-50308604D01*
X-402949432Y-50345144D01*
X-402967433Y-50378821D01*
X-402991659Y-50408341D01*
X-403021179Y-50432567D01*
X-403054856Y-50450568D01*
X-403091396Y-50461653D01*
X-403135538Y-50466000D01*
X-404584462Y-50466000D01*
X-404628604Y-50461653D01*
X-404665144Y-50450568D01*
X-404698821Y-50432567D01*
X-404728341Y-50408341D01*
X-404752567Y-50378821D01*
X-404770568Y-50345144D01*
X-404781653Y-50308604D01*
X-404786000Y-50264462D01*
X-404786000Y-49315538D01*
X-404781653Y-49271396D01*
X-404770568Y-49234856D01*
X-404752567Y-49201179D01*
X-404728341Y-49171659D01*
X-404698821Y-49147433D01*
X-404665144Y-49129432D01*
X-404628604Y-49118347D01*
X-404584462Y-49114000D01*
X-403135538Y-49114000D01*
X-403091396Y-49118347D01*
G37*
G36*
X-384309282Y-48466065D02*
G01*
X-384270612Y-48477796D01*
X-384234973Y-48496846D01*
X-384203733Y-48522483D01*
X-384178096Y-48553723D01*
X-384159046Y-48589362D01*
X-384147315Y-48628032D01*
X-384142750Y-48674388D01*
X-384142750Y-49750612D01*
X-384147315Y-49796968D01*
X-384159046Y-49835638D01*
X-384178096Y-49871277D01*
X-384203733Y-49902517D01*
X-384234973Y-49928154D01*
X-384270612Y-49947204D01*
X-384309282Y-49958935D01*
X-384355638Y-49963500D01*
X-385006862Y-49963500D01*
X-385053218Y-49958935D01*
X-385091888Y-49947204D01*
X-385127527Y-49928154D01*
X-385158767Y-49902517D01*
X-385184404Y-49871277D01*
X-385203454Y-49835638D01*
X-385215185Y-49796968D01*
X-385219750Y-49750612D01*
X-385219750Y-48674388D01*
X-385215185Y-48628032D01*
X-385203454Y-48589362D01*
X-385184404Y-48553723D01*
X-385158767Y-48522483D01*
X-385127527Y-48496846D01*
X-385091888Y-48477796D01*
X-385053218Y-48466065D01*
X-385006862Y-48461500D01*
X-384355638Y-48461500D01*
X-384309282Y-48466065D01*
G37*
G36*
X-386184282Y-48466065D02*
G01*
X-386145612Y-48477796D01*
X-386109973Y-48496846D01*
X-386078733Y-48522483D01*
X-386053096Y-48553723D01*
X-386034046Y-48589362D01*
X-386022315Y-48628032D01*
X-386017750Y-48674388D01*
X-386017750Y-49750612D01*
X-386022315Y-49796968D01*
X-386034046Y-49835638D01*
X-386053096Y-49871277D01*
X-386078733Y-49902517D01*
X-386109973Y-49928154D01*
X-386145612Y-49947204D01*
X-386184282Y-49958935D01*
X-386230638Y-49963500D01*
X-386881862Y-49963500D01*
X-386928218Y-49958935D01*
X-386966888Y-49947204D01*
X-387002527Y-49928154D01*
X-387033767Y-49902517D01*
X-387059404Y-49871277D01*
X-387078454Y-49835638D01*
X-387090185Y-49796968D01*
X-387094750Y-49750612D01*
X-387094750Y-48674388D01*
X-387090185Y-48628032D01*
X-387078454Y-48589362D01*
X-387059404Y-48553723D01*
X-387033767Y-48522483D01*
X-387002527Y-48496846D01*
X-386966888Y-48477796D01*
X-386928218Y-48466065D01*
X-386881862Y-48461500D01*
X-386230638Y-48461500D01*
X-386184282Y-48466065D01*
G37*
G36*
X-403091396Y-46318347D02*
G01*
X-403054856Y-46329432D01*
X-403021179Y-46347433D01*
X-402991659Y-46371659D01*
X-402967433Y-46401179D01*
X-402949432Y-46434856D01*
X-402938347Y-46471396D01*
X-402934000Y-46515538D01*
X-402934000Y-47464462D01*
X-402938347Y-47508604D01*
X-402949432Y-47545144D01*
X-402967433Y-47578821D01*
X-402991659Y-47608341D01*
X-403021179Y-47632567D01*
X-403054856Y-47650568D01*
X-403091396Y-47661653D01*
X-403135538Y-47666000D01*
X-404584462Y-47666000D01*
X-404628604Y-47661653D01*
X-404665144Y-47650568D01*
X-404698821Y-47632567D01*
X-404728341Y-47608341D01*
X-404752567Y-47578821D01*
X-404770568Y-47545144D01*
X-404781653Y-47508604D01*
X-404786000Y-47464462D01*
X-404786000Y-46515538D01*
X-404781653Y-46471396D01*
X-404770568Y-46434856D01*
X-404752567Y-46401179D01*
X-404728341Y-46371659D01*
X-404698821Y-46347433D01*
X-404665144Y-46329432D01*
X-404628604Y-46318347D01*
X-404584462Y-46314000D01*
X-403135538Y-46314000D01*
X-403091396Y-46318347D01*
G37*
G36*
X-363905532Y-45440065D02*
G01*
X-363866862Y-45451796D01*
X-363831223Y-45470846D01*
X-363799983Y-45496483D01*
X-363774346Y-45527723D01*
X-363755296Y-45563362D01*
X-363743565Y-45602032D01*
X-363739000Y-45648388D01*
X-363739000Y-46299612D01*
X-363743565Y-46345968D01*
X-363755296Y-46384638D01*
X-363774346Y-46420277D01*
X-363799983Y-46451517D01*
X-363831223Y-46477154D01*
X-363866862Y-46496204D01*
X-363905532Y-46507935D01*
X-363951888Y-46512500D01*
X-365028112Y-46512500D01*
X-365074468Y-46507935D01*
X-365113138Y-46496204D01*
X-365148777Y-46477154D01*
X-365180017Y-46451517D01*
X-365205654Y-46420277D01*
X-365224704Y-46384638D01*
X-365236435Y-46345968D01*
X-365241000Y-46299612D01*
X-365241000Y-45648388D01*
X-365236435Y-45602032D01*
X-365224704Y-45563362D01*
X-365205654Y-45527723D01*
X-365180017Y-45496483D01*
X-365148777Y-45470846D01*
X-365113138Y-45451796D01*
X-365074468Y-45440065D01*
X-365028112Y-45435500D01*
X-363951888Y-45435500D01*
X-363905532Y-45440065D01*
G37*
G36*
X-369530250Y-45107250D02*
G01*
X-378182250Y-45107250D01*
X-378182250Y-43505250D01*
X-369530250Y-43505250D01*
X-369530250Y-45107250D01*
G37*
G36*
X-363905532Y-43565065D02*
G01*
X-363866862Y-43576796D01*
X-363831223Y-43595846D01*
X-363799983Y-43621483D01*
X-363774346Y-43652723D01*
X-363755296Y-43688362D01*
X-363743565Y-43727032D01*
X-363739000Y-43773388D01*
X-363739000Y-44424612D01*
X-363743565Y-44470968D01*
X-363755296Y-44509638D01*
X-363774346Y-44545277D01*
X-363799983Y-44576517D01*
X-363831223Y-44602154D01*
X-363866862Y-44621204D01*
X-363905532Y-44632935D01*
X-363951888Y-44637500D01*
X-365028112Y-44637500D01*
X-365074468Y-44632935D01*
X-365113138Y-44621204D01*
X-365148777Y-44602154D01*
X-365180017Y-44576517D01*
X-365205654Y-44545277D01*
X-365224704Y-44509638D01*
X-365236435Y-44470968D01*
X-365241000Y-44424612D01*
X-365241000Y-43773388D01*
X-365236435Y-43727032D01*
X-365224704Y-43688362D01*
X-365205654Y-43652723D01*
X-365180017Y-43621483D01*
X-365148777Y-43595846D01*
X-365113138Y-43576796D01*
X-365074468Y-43565065D01*
X-365028112Y-43560500D01*
X-363951888Y-43560500D01*
X-363905532Y-43565065D01*
G37*
G36*
X-399465532Y-42313565D02*
G01*
X-399426862Y-42325296D01*
X-399391223Y-42344346D01*
X-399359983Y-42369983D01*
X-399334346Y-42401223D01*
X-399315296Y-42436862D01*
X-399303565Y-42475532D01*
X-399299000Y-42521888D01*
X-399299000Y-43173112D01*
X-399303565Y-43219468D01*
X-399315296Y-43258138D01*
X-399334346Y-43293777D01*
X-399359983Y-43325017D01*
X-399391223Y-43350654D01*
X-399426862Y-43369704D01*
X-399465532Y-43381435D01*
X-399511888Y-43386000D01*
X-400588112Y-43386000D01*
X-400634468Y-43381435D01*
X-400673138Y-43369704D01*
X-400708777Y-43350654D01*
X-400740017Y-43325017D01*
X-400765654Y-43293777D01*
X-400784704Y-43258138D01*
X-400796435Y-43219468D01*
X-400801000Y-43173112D01*
X-400801000Y-42521888D01*
X-400796435Y-42475532D01*
X-400784704Y-42436862D01*
X-400765654Y-42401223D01*
X-400740017Y-42369983D01*
X-400708777Y-42344346D01*
X-400673138Y-42325296D01*
X-400634468Y-42313565D01*
X-400588112Y-42309000D01*
X-399511888Y-42309000D01*
X-399465532Y-42313565D01*
G37*
G36*
X-394385532Y-42313565D02*
G01*
X-394346862Y-42325296D01*
X-394311223Y-42344346D01*
X-394279983Y-42369983D01*
X-394254346Y-42401223D01*
X-394235296Y-42436862D01*
X-394223565Y-42475532D01*
X-394219000Y-42521888D01*
X-394219000Y-43173112D01*
X-394223565Y-43219468D01*
X-394235296Y-43258138D01*
X-394254346Y-43293777D01*
X-394279983Y-43325017D01*
X-394311223Y-43350654D01*
X-394346862Y-43369704D01*
X-394385532Y-43381435D01*
X-394431888Y-43386000D01*
X-395508112Y-43386000D01*
X-395554468Y-43381435D01*
X-395593138Y-43369704D01*
X-395628777Y-43350654D01*
X-395660017Y-43325017D01*
X-395685654Y-43293777D01*
X-395704704Y-43258138D01*
X-395716435Y-43219468D01*
X-395721000Y-43173112D01*
X-395721000Y-42521888D01*
X-395716435Y-42475532D01*
X-395704704Y-42436862D01*
X-395685654Y-42401223D01*
X-395660017Y-42369983D01*
X-395628777Y-42344346D01*
X-395593138Y-42325296D01*
X-395554468Y-42313565D01*
X-395508112Y-42309000D01*
X-394431888Y-42309000D01*
X-394385532Y-42313565D01*
G37*
G36*
X-382447532Y-42059565D02*
G01*
X-382408862Y-42071296D01*
X-382373223Y-42090346D01*
X-382341983Y-42115983D01*
X-382316346Y-42147223D01*
X-382297296Y-42182862D01*
X-382285565Y-42221532D01*
X-382281000Y-42267888D01*
X-382281000Y-42919112D01*
X-382285565Y-42965468D01*
X-382297296Y-43004138D01*
X-382316346Y-43039777D01*
X-382341983Y-43071017D01*
X-382373223Y-43096654D01*
X-382408862Y-43115704D01*
X-382447532Y-43127435D01*
X-382493888Y-43132000D01*
X-383570112Y-43132000D01*
X-383616468Y-43127435D01*
X-383655138Y-43115704D01*
X-383690777Y-43096654D01*
X-383722017Y-43071017D01*
X-383747654Y-43039777D01*
X-383766704Y-43004138D01*
X-383778435Y-42965468D01*
X-383783000Y-42919112D01*
X-383783000Y-42267888D01*
X-383778435Y-42221532D01*
X-383766704Y-42182862D01*
X-383747654Y-42147223D01*
X-383722017Y-42115983D01*
X-383690777Y-42090346D01*
X-383655138Y-42071296D01*
X-383616468Y-42059565D01*
X-383570112Y-42055000D01*
X-382493888Y-42055000D01*
X-382447532Y-42059565D01*
G37*
G36*
X-386003532Y-42059565D02*
G01*
X-385964862Y-42071296D01*
X-385929223Y-42090346D01*
X-385897983Y-42115983D01*
X-385872346Y-42147223D01*
X-385853296Y-42182862D01*
X-385841565Y-42221532D01*
X-385837000Y-42267888D01*
X-385837000Y-42919112D01*
X-385841565Y-42965468D01*
X-385853296Y-43004138D01*
X-385872346Y-43039777D01*
X-385897983Y-43071017D01*
X-385929223Y-43096654D01*
X-385964862Y-43115704D01*
X-386003532Y-43127435D01*
X-386049888Y-43132000D01*
X-387126112Y-43132000D01*
X-387172468Y-43127435D01*
X-387211138Y-43115704D01*
X-387246777Y-43096654D01*
X-387278017Y-43071017D01*
X-387303654Y-43039777D01*
X-387322704Y-43004138D01*
X-387334435Y-42965468D01*
X-387339000Y-42919112D01*
X-387339000Y-42267888D01*
X-387334435Y-42221532D01*
X-387322704Y-42182862D01*
X-387303654Y-42147223D01*
X-387278017Y-42115983D01*
X-387246777Y-42090346D01*
X-387211138Y-42071296D01*
X-387172468Y-42059565D01*
X-387126112Y-42055000D01*
X-386049888Y-42055000D01*
X-386003532Y-42059565D01*
G37*
G36*
X-323199000Y-41776000D02*
G01*
X-324501000Y-41776000D01*
X-324501000Y-40774000D01*
X-323199000Y-40774000D01*
X-323199000Y-41776000D01*
G37*
G36*
X-342249000Y-41776000D02*
G01*
X-343551000Y-41776000D01*
X-343551000Y-40774000D01*
X-342249000Y-40774000D01*
X-342249000Y-41776000D01*
G37*
G36*
X-331984776Y-37721184D02*
G01*
X-331766776Y-37811483D01*
X-331612627Y-37875333D01*
X-331277702Y-38099123D01*
X-330992873Y-38383952D01*
X-330769083Y-38718877D01*
X-330736688Y-38797086D01*
X-330614934Y-39091026D01*
X-330536350Y-39486094D01*
X-330536350Y-39888906D01*
X-330614934Y-40283974D01*
X-330665799Y-40406772D01*
X-330769083Y-40656123D01*
X-330992873Y-40991048D01*
X-331277702Y-41275877D01*
X-331612627Y-41499667D01*
X-331766776Y-41563517D01*
X-331984776Y-41653816D01*
X-332379844Y-41732400D01*
X-332782656Y-41732400D01*
X-333177724Y-41653816D01*
X-333395724Y-41563517D01*
X-333549873Y-41499667D01*
X-333884798Y-41275877D01*
X-334169627Y-40991048D01*
X-334393417Y-40656123D01*
X-334496701Y-40406772D01*
X-334547566Y-40283974D01*
X-334626150Y-39888906D01*
X-334626150Y-39486094D01*
X-334547566Y-39091026D01*
X-334425812Y-38797086D01*
X-334393417Y-38718877D01*
X-334169627Y-38383952D01*
X-333884798Y-38099123D01*
X-333549873Y-37875333D01*
X-333395724Y-37811483D01*
X-333177724Y-37721184D01*
X-332782656Y-37642600D01*
X-332379844Y-37642600D01*
X-331984776Y-37721184D01*
G37*
G36*
X-351034776Y-37721184D02*
G01*
X-350816776Y-37811483D01*
X-350662627Y-37875333D01*
X-350327702Y-38099123D01*
X-350042873Y-38383952D01*
X-349819083Y-38718877D01*
X-349786688Y-38797086D01*
X-349664934Y-39091026D01*
X-349586350Y-39486094D01*
X-349586350Y-39888906D01*
X-349664934Y-40283974D01*
X-349715799Y-40406772D01*
X-349819083Y-40656123D01*
X-350042873Y-40991048D01*
X-350327702Y-41275877D01*
X-350662627Y-41499667D01*
X-350816776Y-41563517D01*
X-351034776Y-41653816D01*
X-351429844Y-41732400D01*
X-351832656Y-41732400D01*
X-352227724Y-41653816D01*
X-352445724Y-41563517D01*
X-352599873Y-41499667D01*
X-352934798Y-41275877D01*
X-353219627Y-40991048D01*
X-353443417Y-40656123D01*
X-353546701Y-40406772D01*
X-353597566Y-40283974D01*
X-353676150Y-39888906D01*
X-353676150Y-39486094D01*
X-353597566Y-39091026D01*
X-353475812Y-38797086D01*
X-353443417Y-38718877D01*
X-353219627Y-38383952D01*
X-352934798Y-38099123D01*
X-352599873Y-37875333D01*
X-352445724Y-37811483D01*
X-352227724Y-37721184D01*
X-351832656Y-37642600D01*
X-351429844Y-37642600D01*
X-351034776Y-37721184D01*
G37*
G36*
X-394385532Y-40438565D02*
G01*
X-394346862Y-40450296D01*
X-394311223Y-40469346D01*
X-394279983Y-40494983D01*
X-394254346Y-40526223D01*
X-394235296Y-40561862D01*
X-394223565Y-40600532D01*
X-394219000Y-40646888D01*
X-394219000Y-41298112D01*
X-394223565Y-41344468D01*
X-394235296Y-41383138D01*
X-394254346Y-41418777D01*
X-394279983Y-41450017D01*
X-394311223Y-41475654D01*
X-394346862Y-41494704D01*
X-394385532Y-41506435D01*
X-394431888Y-41511000D01*
X-395508112Y-41511000D01*
X-395554468Y-41506435D01*
X-395593138Y-41494704D01*
X-395628777Y-41475654D01*
X-395660017Y-41450017D01*
X-395685654Y-41418777D01*
X-395704704Y-41383138D01*
X-395716435Y-41344468D01*
X-395721000Y-41298112D01*
X-395721000Y-40646888D01*
X-395716435Y-40600532D01*
X-395704704Y-40561862D01*
X-395685654Y-40526223D01*
X-395660017Y-40494983D01*
X-395628777Y-40469346D01*
X-395593138Y-40450296D01*
X-395554468Y-40438565D01*
X-395508112Y-40434000D01*
X-394431888Y-40434000D01*
X-394385532Y-40438565D01*
G37*
G36*
X-399465532Y-40438565D02*
G01*
X-399426862Y-40450296D01*
X-399391223Y-40469346D01*
X-399359983Y-40494983D01*
X-399334346Y-40526223D01*
X-399315296Y-40561862D01*
X-399303565Y-40600532D01*
X-399299000Y-40646888D01*
X-399299000Y-41298112D01*
X-399303565Y-41344468D01*
X-399315296Y-41383138D01*
X-399334346Y-41418777D01*
X-399359983Y-41450017D01*
X-399391223Y-41475654D01*
X-399426862Y-41494704D01*
X-399465532Y-41506435D01*
X-399511888Y-41511000D01*
X-400588112Y-41511000D01*
X-400634468Y-41506435D01*
X-400673138Y-41494704D01*
X-400708777Y-41475654D01*
X-400740017Y-41450017D01*
X-400765654Y-41418777D01*
X-400784704Y-41383138D01*
X-400796435Y-41344468D01*
X-400801000Y-41298112D01*
X-400801000Y-40646888D01*
X-400796435Y-40600532D01*
X-400784704Y-40561862D01*
X-400765654Y-40526223D01*
X-400740017Y-40494983D01*
X-400708777Y-40469346D01*
X-400673138Y-40450296D01*
X-400634468Y-40438565D01*
X-400588112Y-40434000D01*
X-399511888Y-40434000D01*
X-399465532Y-40438565D01*
G37*
G36*
X-386003532Y-40184565D02*
G01*
X-385964862Y-40196296D01*
X-385929223Y-40215346D01*
X-385897983Y-40240983D01*
X-385872346Y-40272223D01*
X-385853296Y-40307862D01*
X-385841565Y-40346532D01*
X-385837000Y-40392888D01*
X-385837000Y-41044112D01*
X-385841565Y-41090468D01*
X-385853296Y-41129138D01*
X-385872346Y-41164777D01*
X-385897983Y-41196017D01*
X-385929223Y-41221654D01*
X-385964862Y-41240704D01*
X-386003532Y-41252435D01*
X-386049888Y-41257000D01*
X-387126112Y-41257000D01*
X-387172468Y-41252435D01*
X-387211138Y-41240704D01*
X-387246777Y-41221654D01*
X-387278017Y-41196017D01*
X-387303654Y-41164777D01*
X-387322704Y-41129138D01*
X-387334435Y-41090468D01*
X-387339000Y-41044112D01*
X-387339000Y-40392888D01*
X-387334435Y-40346532D01*
X-387322704Y-40307862D01*
X-387303654Y-40272223D01*
X-387278017Y-40240983D01*
X-387246777Y-40215346D01*
X-387211138Y-40196296D01*
X-387172468Y-40184565D01*
X-387126112Y-40180000D01*
X-386049888Y-40180000D01*
X-386003532Y-40184565D01*
G37*
G36*
X-382447532Y-40184565D02*
G01*
X-382408862Y-40196296D01*
X-382373223Y-40215346D01*
X-382341983Y-40240983D01*
X-382316346Y-40272223D01*
X-382297296Y-40307862D01*
X-382285565Y-40346532D01*
X-382281000Y-40392888D01*
X-382281000Y-41044112D01*
X-382285565Y-41090468D01*
X-382297296Y-41129138D01*
X-382316346Y-41164777D01*
X-382341983Y-41196017D01*
X-382373223Y-41221654D01*
X-382408862Y-41240704D01*
X-382447532Y-41252435D01*
X-382493888Y-41257000D01*
X-383570112Y-41257000D01*
X-383616468Y-41252435D01*
X-383655138Y-41240704D01*
X-383690777Y-41221654D01*
X-383722017Y-41196017D01*
X-383747654Y-41164777D01*
X-383766704Y-41129138D01*
X-383778435Y-41090468D01*
X-383783000Y-41044112D01*
X-383783000Y-40392888D01*
X-383778435Y-40346532D01*
X-383766704Y-40307862D01*
X-383747654Y-40272223D01*
X-383722017Y-40240983D01*
X-383690777Y-40215346D01*
X-383655138Y-40196296D01*
X-383616468Y-40184565D01*
X-383570112Y-40180000D01*
X-382493888Y-40180000D01*
X-382447532Y-40184565D01*
G37*
G36*
X-337391146Y-38797085D02*
G01*
X-337222624Y-38866889D01*
X-337070959Y-38968228D01*
X-336941978Y-39097209D01*
X-336840639Y-39248874D01*
X-336770835Y-39417396D01*
X-336735250Y-39596297D01*
X-336735250Y-39778703D01*
X-336770835Y-39957604D01*
X-336840639Y-40126126D01*
X-336941978Y-40277791D01*
X-337070959Y-40406772D01*
X-337222624Y-40508111D01*
X-337391146Y-40577915D01*
X-337570047Y-40613500D01*
X-337752453Y-40613500D01*
X-337931354Y-40577915D01*
X-338099876Y-40508111D01*
X-338251541Y-40406772D01*
X-338380522Y-40277791D01*
X-338481861Y-40126126D01*
X-338551665Y-39957604D01*
X-338587250Y-39778703D01*
X-338587250Y-39596297D01*
X-338551665Y-39417396D01*
X-338481861Y-39248874D01*
X-338380522Y-39097209D01*
X-338251541Y-38968228D01*
X-338099876Y-38866889D01*
X-337931354Y-38797085D01*
X-337752453Y-38761500D01*
X-337570047Y-38761500D01*
X-337391146Y-38797085D01*
G37*
G36*
X-327231146Y-38797085D02*
G01*
X-327062624Y-38866889D01*
X-326910959Y-38968228D01*
X-326781978Y-39097209D01*
X-326680639Y-39248874D01*
X-326610835Y-39417396D01*
X-326575250Y-39596297D01*
X-326575250Y-39778703D01*
X-326610835Y-39957604D01*
X-326680639Y-40126126D01*
X-326781978Y-40277791D01*
X-326910959Y-40406772D01*
X-327062624Y-40508111D01*
X-327231146Y-40577915D01*
X-327410047Y-40613500D01*
X-327592453Y-40613500D01*
X-327771354Y-40577915D01*
X-327939876Y-40508111D01*
X-328091541Y-40406772D01*
X-328220522Y-40277791D01*
X-328321861Y-40126126D01*
X-328391665Y-39957604D01*
X-328427250Y-39778703D01*
X-328427250Y-39596297D01*
X-328391665Y-39417396D01*
X-328321861Y-39248874D01*
X-328220522Y-39097209D01*
X-328091541Y-38968228D01*
X-327939876Y-38866889D01*
X-327771354Y-38797085D01*
X-327592453Y-38761500D01*
X-327410047Y-38761500D01*
X-327231146Y-38797085D01*
G37*
G36*
X-346281146Y-38797085D02*
G01*
X-346112624Y-38866889D01*
X-345960959Y-38968228D01*
X-345831978Y-39097209D01*
X-345730639Y-39248874D01*
X-345660835Y-39417396D01*
X-345625250Y-39596297D01*
X-345625250Y-39778703D01*
X-345660835Y-39957604D01*
X-345730639Y-40126126D01*
X-345831978Y-40277791D01*
X-345960959Y-40406772D01*
X-346112624Y-40508111D01*
X-346281146Y-40577915D01*
X-346460047Y-40613500D01*
X-346642453Y-40613500D01*
X-346821354Y-40577915D01*
X-346989876Y-40508111D01*
X-347141541Y-40406772D01*
X-347270522Y-40277791D01*
X-347371861Y-40126126D01*
X-347441665Y-39957604D01*
X-347477250Y-39778703D01*
X-347477250Y-39596297D01*
X-347441665Y-39417396D01*
X-347371861Y-39248874D01*
X-347270522Y-39097209D01*
X-347141541Y-38968228D01*
X-346989876Y-38866889D01*
X-346821354Y-38797085D01*
X-346642453Y-38761500D01*
X-346460047Y-38761500D01*
X-346281146Y-38797085D01*
G37*
G36*
X-356441146Y-38797085D02*
G01*
X-356272624Y-38866889D01*
X-356120959Y-38968228D01*
X-355991978Y-39097209D01*
X-355890639Y-39248874D01*
X-355820835Y-39417396D01*
X-355785250Y-39596297D01*
X-355785250Y-39778703D01*
X-355820835Y-39957604D01*
X-355890639Y-40126126D01*
X-355991978Y-40277791D01*
X-356120959Y-40406772D01*
X-356272624Y-40508111D01*
X-356441146Y-40577915D01*
X-356620047Y-40613500D01*
X-356802453Y-40613500D01*
X-356981354Y-40577915D01*
X-357149876Y-40508111D01*
X-357301541Y-40406772D01*
X-357430522Y-40277791D01*
X-357531861Y-40126126D01*
X-357601665Y-39957604D01*
X-357637250Y-39778703D01*
X-357637250Y-39596297D01*
X-357601665Y-39417396D01*
X-357531861Y-39248874D01*
X-357430522Y-39097209D01*
X-357301541Y-38968228D01*
X-357149876Y-38866889D01*
X-356981354Y-38797085D01*
X-356802453Y-38761500D01*
X-356620047Y-38761500D01*
X-356441146Y-38797085D01*
G37*
G36*
X-342249000Y-38476000D02*
G01*
X-343551000Y-38476000D01*
X-343551000Y-37474000D01*
X-342249000Y-37474000D01*
X-342249000Y-38476000D01*
G37*
G36*
X-323199000Y-38476000D02*
G01*
X-324501000Y-38476000D01*
X-324501000Y-37474000D01*
X-323199000Y-37474000D01*
X-323199000Y-38476000D01*
G37*
G36*
X-354108045Y-34511381D02*
G01*
X-354102605Y-34511500D01*
X-354015422Y-34511500D01*
X-353999153Y-34514736D01*
X-353980294Y-34517015D01*
X-353963718Y-34517746D01*
X-353879027Y-34538510D01*
X-353873732Y-34539684D01*
X-353788223Y-34556693D01*
X-353772888Y-34563045D01*
X-353754849Y-34568955D01*
X-353738729Y-34572907D01*
X-353659746Y-34609780D01*
X-353654756Y-34611977D01*
X-353574205Y-34645342D01*
X-353560409Y-34654560D01*
X-353543857Y-34663882D01*
X-353528824Y-34670900D01*
X-353458556Y-34722471D01*
X-353454058Y-34725622D01*
X-353381594Y-34774041D01*
X-353369867Y-34785768D01*
X-353355441Y-34798148D01*
X-353342071Y-34807961D01*
X-353292563Y-34862037D01*
X-353283229Y-34872233D01*
X-353279421Y-34876214D01*
X-353217791Y-34937844D01*
X-353208576Y-34951635D01*
X-353196854Y-34966578D01*
X-353185645Y-34978821D01*
X-353140451Y-35053374D01*
X-353137504Y-35058001D01*
X-353089092Y-35130455D01*
X-353082745Y-35145777D01*
X-353074158Y-35162731D01*
X-353065559Y-35176917D01*
X-353035772Y-35258868D01*
X-353033798Y-35263948D01*
X-353000443Y-35344473D01*
X-353000443Y-35344474D01*
X-352997209Y-35360733D01*
X-352992092Y-35379042D01*
X-352986425Y-35394634D01*
X-352973195Y-35480845D01*
X-352972249Y-35486213D01*
X-352955250Y-35571673D01*
X-352955250Y-35588252D01*
X-352953806Y-35607192D01*
X-352951287Y-35623604D01*
X-352955130Y-35710749D01*
X-352955250Y-35716189D01*
X-352955250Y-35803325D01*
X-352958484Y-35819583D01*
X-352960762Y-35838441D01*
X-352961494Y-35855031D01*
X-352982262Y-35939737D01*
X-352983438Y-35945037D01*
X-353000443Y-36030527D01*
X-353006793Y-36045857D01*
X-353012701Y-36063893D01*
X-353016655Y-36080020D01*
X-353053539Y-36159026D01*
X-353055739Y-36164023D01*
X-353089092Y-36244545D01*
X-353098306Y-36258335D01*
X-353107628Y-36274887D01*
X-353114648Y-36289924D01*
X-353166239Y-36360220D01*
X-353169384Y-36364710D01*
X-353217789Y-36437154D01*
X-353274790Y-36494155D01*
X-353279439Y-36499063D01*
X-353663073Y-36926624D01*
X-354604527Y-37975876D01*
X-354732571Y-38093102D01*
X-354831620Y-38153146D01*
X-354930667Y-38213189D01*
X-355148384Y-38292323D01*
X-355377355Y-38327461D01*
X-355608780Y-38317254D01*
X-355833769Y-38262093D01*
X-355938523Y-38213189D01*
X-356043671Y-38164102D01*
X-356140412Y-38093102D01*
X-356230427Y-38027039D01*
X-356304856Y-37945741D01*
X-356386852Y-37856179D01*
X-356468686Y-37721185D01*
X-356506939Y-37658083D01*
X-356586073Y-37440366D01*
X-356621211Y-37211395D01*
X-356611004Y-36979970D01*
X-356555843Y-36754981D01*
X-356504278Y-36644528D01*
X-356457852Y-36545080D01*
X-356457850Y-36545077D01*
X-356355136Y-36405122D01*
X-355702976Y-35678288D01*
X-355068463Y-34971121D01*
X-355057569Y-34957089D01*
X-355044711Y-34937846D01*
X-354987677Y-34880812D01*
X-354983027Y-34875903D01*
X-354967972Y-34859124D01*
X-354946549Y-34839511D01*
X-354942568Y-34835703D01*
X-354880904Y-34774039D01*
X-354867107Y-34764820D01*
X-354852148Y-34753085D01*
X-354839929Y-34741898D01*
X-354807865Y-34722461D01*
X-354765420Y-34696731D01*
X-354760829Y-34693808D01*
X-354688295Y-34645342D01*
X-354672950Y-34638986D01*
X-354656002Y-34630401D01*
X-354641834Y-34621812D01*
X-354641833Y-34621812D01*
X-354641832Y-34621811D01*
X-354559938Y-34592045D01*
X-354554840Y-34590063D01*
X-354474277Y-34556693D01*
X-354457998Y-34553455D01*
X-354439708Y-34548344D01*
X-354424115Y-34542677D01*
X-354337950Y-34529454D01*
X-354332587Y-34528509D01*
X-354247077Y-34511500D01*
X-354230484Y-34511500D01*
X-354211541Y-34510055D01*
X-354195144Y-34507539D01*
X-354108045Y-34511381D01*
G37*
G36*
X-335058045Y-34511381D02*
G01*
X-335052605Y-34511500D01*
X-334965422Y-34511500D01*
X-334949153Y-34514736D01*
X-334930294Y-34517015D01*
X-334913718Y-34517746D01*
X-334829027Y-34538510D01*
X-334823732Y-34539684D01*
X-334738223Y-34556693D01*
X-334722888Y-34563045D01*
X-334704849Y-34568955D01*
X-334688729Y-34572907D01*
X-334609746Y-34609780D01*
X-334604756Y-34611977D01*
X-334524205Y-34645342D01*
X-334510409Y-34654560D01*
X-334493857Y-34663882D01*
X-334478824Y-34670900D01*
X-334408556Y-34722471D01*
X-334404058Y-34725622D01*
X-334331594Y-34774041D01*
X-334319867Y-34785768D01*
X-334305441Y-34798148D01*
X-334292071Y-34807961D01*
X-334242563Y-34862037D01*
X-334233229Y-34872233D01*
X-334229421Y-34876214D01*
X-334167791Y-34937844D01*
X-334158576Y-34951635D01*
X-334146854Y-34966578D01*
X-334135645Y-34978821D01*
X-334090451Y-35053374D01*
X-334087504Y-35058001D01*
X-334039092Y-35130455D01*
X-334032745Y-35145777D01*
X-334024158Y-35162731D01*
X-334015559Y-35176917D01*
X-333985772Y-35258868D01*
X-333983798Y-35263948D01*
X-333950443Y-35344473D01*
X-333950443Y-35344474D01*
X-333947209Y-35360733D01*
X-333942092Y-35379042D01*
X-333936425Y-35394634D01*
X-333923195Y-35480845D01*
X-333922249Y-35486213D01*
X-333905250Y-35571673D01*
X-333905250Y-35588252D01*
X-333903806Y-35607192D01*
X-333901287Y-35623604D01*
X-333905130Y-35710749D01*
X-333905250Y-35716189D01*
X-333905250Y-35803325D01*
X-333908484Y-35819583D01*
X-333910762Y-35838441D01*
X-333911494Y-35855031D01*
X-333932262Y-35939737D01*
X-333933438Y-35945037D01*
X-333950443Y-36030527D01*
X-333956793Y-36045857D01*
X-333962701Y-36063893D01*
X-333966655Y-36080020D01*
X-334003539Y-36159026D01*
X-334005739Y-36164023D01*
X-334039092Y-36244545D01*
X-334048306Y-36258335D01*
X-334057628Y-36274887D01*
X-334064648Y-36289924D01*
X-334116239Y-36360220D01*
X-334119384Y-36364710D01*
X-334167789Y-36437154D01*
X-334224790Y-36494155D01*
X-334229439Y-36499063D01*
X-334613073Y-36926624D01*
X-335554527Y-37975876D01*
X-335682571Y-38093102D01*
X-335781620Y-38153146D01*
X-335880667Y-38213189D01*
X-336098384Y-38292323D01*
X-336327355Y-38327461D01*
X-336558780Y-38317254D01*
X-336783769Y-38262093D01*
X-336888523Y-38213189D01*
X-336993671Y-38164102D01*
X-337090412Y-38093102D01*
X-337180427Y-38027039D01*
X-337254856Y-37945741D01*
X-337336852Y-37856179D01*
X-337418686Y-37721185D01*
X-337456939Y-37658083D01*
X-337536073Y-37440366D01*
X-337571211Y-37211395D01*
X-337561004Y-36979970D01*
X-337505843Y-36754981D01*
X-337454278Y-36644528D01*
X-337407852Y-36545080D01*
X-337407850Y-36545077D01*
X-337305136Y-36405122D01*
X-336652976Y-35678288D01*
X-336018463Y-34971121D01*
X-336007569Y-34957089D01*
X-335994711Y-34937846D01*
X-335937677Y-34880812D01*
X-335933027Y-34875903D01*
X-335917972Y-34859124D01*
X-335896549Y-34839511D01*
X-335892568Y-34835703D01*
X-335830904Y-34774039D01*
X-335817107Y-34764820D01*
X-335802148Y-34753085D01*
X-335789929Y-34741898D01*
X-335757865Y-34722461D01*
X-335715420Y-34696731D01*
X-335710829Y-34693808D01*
X-335638295Y-34645342D01*
X-335622950Y-34638986D01*
X-335606002Y-34630401D01*
X-335591834Y-34621812D01*
X-335591833Y-34621812D01*
X-335591832Y-34621811D01*
X-335509938Y-34592045D01*
X-335504840Y-34590063D01*
X-335424277Y-34556693D01*
X-335407998Y-34553455D01*
X-335389708Y-34548344D01*
X-335374115Y-34542677D01*
X-335287950Y-34529454D01*
X-335282587Y-34528509D01*
X-335197077Y-34511500D01*
X-335180484Y-34511500D01*
X-335161541Y-34510055D01*
X-335145144Y-34507539D01*
X-335058045Y-34511381D01*
G37*
G36*
X-393842123Y-34862037D02*
G01*
X-393672284Y-34913557D01*
X-393515759Y-34997222D01*
X-393480021Y-35026552D01*
X-393378564Y-35109814D01*
X-393323496Y-35176916D01*
X-393265972Y-35247009D01*
X-393182307Y-35403534D01*
X-393130787Y-35573373D01*
X-393130787Y-35573375D01*
X-393117750Y-35705740D01*
X-393117750Y-36794260D01*
X-393124269Y-36860443D01*
X-393130787Y-36926627D01*
X-393182307Y-37096466D01*
X-393265972Y-37252991D01*
X-393295302Y-37288729D01*
X-393378564Y-37390186D01*
X-393515761Y-37502779D01*
X-393672283Y-37586442D01*
X-393672285Y-37586443D01*
X-393842124Y-37637963D01*
X-394018750Y-37655359D01*
X-394195377Y-37637963D01*
X-394365216Y-37586443D01*
X-394521741Y-37502778D01*
X-394597784Y-37440371D01*
X-394658936Y-37390186D01*
X-394771529Y-37252989D01*
X-394855192Y-37096467D01*
X-394855193Y-37096465D01*
X-394906713Y-36926626D01*
X-394919750Y-36794257D01*
X-394919749Y-35705742D01*
X-394906712Y-35573373D01*
X-394855192Y-35403534D01*
X-394771527Y-35247009D01*
X-394714003Y-35176916D01*
X-394658935Y-35109814D01*
X-394557478Y-35026552D01*
X-394521740Y-34997222D01*
X-394365215Y-34913557D01*
X-394195376Y-34862037D01*
X-394018750Y-34844641D01*
X-393842123Y-34862037D01*
G37*
G36*
X-401142123Y-34862037D02*
G01*
X-400972284Y-34913557D01*
X-400815759Y-34997222D01*
X-400780021Y-35026552D01*
X-400678564Y-35109814D01*
X-400623496Y-35176916D01*
X-400565972Y-35247009D01*
X-400482307Y-35403534D01*
X-400430787Y-35573373D01*
X-400430787Y-35573375D01*
X-400417750Y-35705740D01*
X-400417750Y-36794260D01*
X-400424269Y-36860443D01*
X-400430787Y-36926627D01*
X-400482307Y-37096466D01*
X-400565972Y-37252991D01*
X-400595302Y-37288729D01*
X-400678564Y-37390186D01*
X-400815761Y-37502779D01*
X-400972283Y-37586442D01*
X-400972285Y-37586443D01*
X-401142124Y-37637963D01*
X-401318750Y-37655359D01*
X-401495377Y-37637963D01*
X-401665216Y-37586443D01*
X-401821741Y-37502778D01*
X-401897784Y-37440371D01*
X-401958936Y-37390186D01*
X-402071529Y-37252989D01*
X-402155192Y-37096467D01*
X-402155193Y-37096465D01*
X-402206713Y-36926626D01*
X-402219750Y-36794257D01*
X-402219749Y-35705742D01*
X-402206712Y-35573373D01*
X-402155192Y-35403534D01*
X-402071527Y-35247009D01*
X-402014003Y-35176916D01*
X-401958935Y-35109814D01*
X-401857478Y-35026552D01*
X-401821740Y-34997222D01*
X-401665215Y-34913557D01*
X-401495376Y-34862037D01*
X-401318750Y-34844641D01*
X-401142123Y-34862037D01*
G37*
G36*
X-395767750Y-37426000D02*
G01*
X-399569750Y-37426000D01*
X-399569750Y-35074000D01*
X-395767750Y-35074000D01*
X-395767750Y-37426000D01*
G37*
G36*
X-329953123Y-33429761D02*
G01*
X-329932350Y-33431500D01*
X-329925423Y-33431500D01*
X-329830496Y-33450382D01*
X-329826902Y-33451042D01*
X-329731520Y-33467124D01*
X-329725047Y-33469585D01*
X-329705022Y-33475341D01*
X-329698223Y-33476693D01*
X-329635836Y-33502534D01*
X-329608807Y-33513730D01*
X-329605406Y-33515081D01*
X-329514995Y-33549461D01*
X-329509123Y-33553140D01*
X-329490614Y-33562687D01*
X-329484205Y-33565342D01*
X-329403687Y-33619142D01*
X-329400696Y-33621078D01*
X-329318693Y-33672459D01*
X-329313666Y-33677200D01*
X-329297354Y-33690191D01*
X-329291598Y-33694037D01*
X-329223140Y-33762495D01*
X-329220561Y-33764999D01*
X-329150160Y-33831389D01*
X-329146155Y-33837019D01*
X-329132691Y-33852944D01*
X-329127791Y-33857844D01*
X-329074006Y-33938339D01*
X-329071959Y-33941307D01*
X-329015870Y-34020145D01*
X-329013036Y-34026458D01*
X-329002942Y-34044693D01*
X-328999092Y-34050455D01*
X-328962030Y-34139930D01*
X-328960626Y-34143185D01*
X-328920985Y-34231473D01*
X-328919435Y-34238225D01*
X-328913098Y-34258062D01*
X-328910443Y-34264473D01*
X-328891558Y-34359417D01*
X-328890812Y-34362901D01*
X-328869152Y-34457251D01*
X-328869152Y-34457254D01*
X-328868950Y-34464154D01*
X-328866603Y-34484870D01*
X-328865250Y-34491674D01*
X-328865250Y-34588486D01*
X-328865197Y-34592084D01*
X-328864062Y-34630777D01*
X-328864955Y-34643725D01*
X-328865250Y-34652297D01*
X-328865250Y-34723326D01*
X-328871169Y-34753085D01*
X-328871646Y-34755479D01*
X-328873750Y-34771250D01*
X-328912012Y-35326045D01*
X-328940874Y-35497230D01*
X-329023212Y-35713755D01*
X-329146209Y-35910057D01*
X-329305139Y-36078590D01*
X-329493895Y-36212880D01*
X-329705223Y-36307765D01*
X-329931001Y-36359598D01*
X-330162552Y-36366389D01*
X-330162553Y-36366389D01*
X-330208238Y-36358686D01*
X-330390980Y-36327876D01*
X-330607505Y-36245538D01*
X-330803807Y-36122541D01*
X-330972340Y-35963611D01*
X-331106630Y-35774855D01*
X-331201515Y-35563527D01*
X-331253348Y-35337749D01*
X-331258438Y-35164223D01*
X-331217546Y-34571294D01*
X-331217250Y-34562696D01*
X-331217250Y-34491675D01*
X-331198368Y-34396750D01*
X-331197706Y-34393145D01*
X-331192019Y-34359417D01*
X-331181626Y-34297770D01*
X-331179165Y-34291299D01*
X-331173408Y-34271267D01*
X-331172057Y-34264474D01*
X-331169407Y-34258076D01*
X-331134986Y-34174976D01*
X-331133697Y-34171730D01*
X-331099288Y-34081245D01*
X-331095614Y-34075381D01*
X-331086063Y-34056865D01*
X-331083408Y-34050455D01*
X-331029593Y-33969915D01*
X-331027673Y-33966949D01*
X-330976291Y-33884943D01*
X-330971539Y-33879904D01*
X-330958561Y-33863607D01*
X-330954713Y-33857848D01*
X-330886257Y-33789392D01*
X-330883704Y-33786762D01*
X-330863227Y-33765048D01*
X-330817361Y-33716410D01*
X-330811729Y-33712403D01*
X-330795803Y-33698938D01*
X-330790904Y-33694039D01*
X-330710426Y-33640266D01*
X-330707444Y-33638210D01*
X-330628605Y-33582120D01*
X-330622295Y-33579287D01*
X-330604056Y-33569191D01*
X-330598299Y-33565344D01*
X-330598296Y-33565343D01*
X-330598295Y-33565342D01*
X-330508821Y-33528281D01*
X-330505563Y-33526875D01*
X-330417277Y-33487235D01*
X-330410525Y-33485685D01*
X-330390688Y-33479348D01*
X-330384277Y-33476693D01*
X-330289351Y-33457811D01*
X-330285804Y-33457051D01*
X-330191499Y-33435401D01*
X-330189120Y-33435331D01*
X-330184585Y-33435198D01*
X-330163869Y-33432851D01*
X-330157076Y-33431500D01*
X-330060291Y-33431500D01*
X-330056666Y-33431447D01*
X-329959948Y-33428610D01*
X-329953123Y-33429761D01*
G37*
G36*
X-349003123Y-33429761D02*
G01*
X-348982350Y-33431500D01*
X-348975423Y-33431500D01*
X-348880496Y-33450382D01*
X-348876902Y-33451042D01*
X-348781520Y-33467124D01*
X-348775047Y-33469585D01*
X-348755022Y-33475341D01*
X-348748223Y-33476693D01*
X-348685836Y-33502534D01*
X-348658807Y-33513730D01*
X-348655406Y-33515081D01*
X-348564995Y-33549461D01*
X-348559123Y-33553140D01*
X-348540614Y-33562687D01*
X-348534205Y-33565342D01*
X-348453687Y-33619142D01*
X-348450696Y-33621078D01*
X-348368693Y-33672459D01*
X-348363666Y-33677200D01*
X-348347354Y-33690191D01*
X-348341598Y-33694037D01*
X-348273140Y-33762495D01*
X-348270561Y-33764999D01*
X-348200160Y-33831389D01*
X-348196155Y-33837019D01*
X-348182691Y-33852944D01*
X-348177791Y-33857844D01*
X-348124006Y-33938339D01*
X-348121959Y-33941307D01*
X-348065870Y-34020145D01*
X-348063036Y-34026458D01*
X-348052942Y-34044693D01*
X-348049092Y-34050455D01*
X-348012030Y-34139930D01*
X-348010626Y-34143185D01*
X-347970985Y-34231473D01*
X-347969435Y-34238225D01*
X-347963098Y-34258062D01*
X-347960443Y-34264473D01*
X-347941558Y-34359417D01*
X-347940812Y-34362901D01*
X-347919152Y-34457251D01*
X-347919152Y-34457254D01*
X-347918950Y-34464154D01*
X-347916603Y-34484870D01*
X-347915250Y-34491674D01*
X-347915250Y-34588486D01*
X-347915197Y-34592084D01*
X-347914062Y-34630777D01*
X-347914955Y-34643725D01*
X-347915250Y-34652297D01*
X-347915250Y-34723326D01*
X-347921169Y-34753085D01*
X-347921646Y-34755479D01*
X-347923750Y-34771250D01*
X-347962012Y-35326045D01*
X-347990874Y-35497230D01*
X-348073212Y-35713755D01*
X-348196209Y-35910057D01*
X-348355139Y-36078590D01*
X-348543895Y-36212880D01*
X-348755223Y-36307765D01*
X-348981001Y-36359598D01*
X-349212552Y-36366389D01*
X-349212553Y-36366389D01*
X-349258238Y-36358686D01*
X-349440980Y-36327876D01*
X-349657505Y-36245538D01*
X-349853807Y-36122541D01*
X-350022340Y-35963611D01*
X-350156630Y-35774855D01*
X-350251515Y-35563527D01*
X-350303348Y-35337749D01*
X-350308438Y-35164223D01*
X-350267546Y-34571294D01*
X-350267250Y-34562696D01*
X-350267250Y-34491675D01*
X-350248368Y-34396750D01*
X-350247706Y-34393145D01*
X-350242019Y-34359417D01*
X-350231626Y-34297770D01*
X-350229165Y-34291299D01*
X-350223408Y-34271267D01*
X-350222057Y-34264474D01*
X-350219407Y-34258076D01*
X-350184986Y-34174976D01*
X-350183697Y-34171730D01*
X-350149288Y-34081245D01*
X-350145614Y-34075381D01*
X-350136063Y-34056865D01*
X-350133408Y-34050455D01*
X-350079593Y-33969915D01*
X-350077673Y-33966949D01*
X-350026291Y-33884943D01*
X-350021539Y-33879904D01*
X-350008561Y-33863607D01*
X-350004713Y-33857848D01*
X-349936257Y-33789392D01*
X-349933704Y-33786762D01*
X-349913227Y-33765048D01*
X-349867361Y-33716410D01*
X-349861729Y-33712403D01*
X-349845803Y-33698938D01*
X-349840904Y-33694039D01*
X-349760426Y-33640266D01*
X-349757444Y-33638210D01*
X-349678605Y-33582120D01*
X-349672295Y-33579287D01*
X-349654056Y-33569191D01*
X-349648299Y-33565344D01*
X-349648296Y-33565343D01*
X-349648295Y-33565342D01*
X-349558821Y-33528281D01*
X-349555563Y-33526875D01*
X-349467277Y-33487235D01*
X-349460525Y-33485685D01*
X-349440688Y-33479348D01*
X-349434277Y-33476693D01*
X-349339351Y-33457811D01*
X-349335804Y-33457051D01*
X-349241499Y-33435401D01*
X-349239120Y-33435331D01*
X-349234585Y-33435198D01*
X-349213869Y-33432851D01*
X-349207076Y-33431500D01*
X-349110291Y-33431500D01*
X-349106666Y-33431447D01*
X-349009948Y-33428610D01*
X-349003123Y-33429761D01*
G37*
G36*
X-374067000Y-35957000D02*
G01*
X-375569000Y-35957000D01*
X-375569000Y-34655000D01*
X-374067000Y-34655000D01*
X-374067000Y-35957000D01*
G37*
G36*
X-371867000Y-35957000D02*
G01*
X-373369000Y-35957000D01*
X-373369000Y-34655000D01*
X-371867000Y-34655000D01*
X-371867000Y-35957000D01*
G37*
G36*
X-368477532Y-34772065D02*
G01*
X-368438862Y-34783796D01*
X-368403223Y-34802846D01*
X-368371983Y-34828483D01*
X-368346346Y-34859723D01*
X-368327296Y-34895362D01*
X-368315565Y-34934032D01*
X-368311000Y-34980388D01*
X-368311000Y-35631612D01*
X-368315565Y-35677968D01*
X-368327296Y-35716638D01*
X-368346346Y-35752277D01*
X-368371983Y-35783517D01*
X-368403223Y-35809154D01*
X-368438862Y-35828204D01*
X-368477532Y-35839935D01*
X-368523888Y-35844500D01*
X-369600112Y-35844500D01*
X-369646468Y-35839935D01*
X-369685138Y-35828204D01*
X-369720777Y-35809154D01*
X-369752017Y-35783517D01*
X-369777654Y-35752277D01*
X-369796704Y-35716638D01*
X-369808435Y-35677968D01*
X-369813000Y-35631612D01*
X-369813000Y-34980388D01*
X-369808435Y-34934032D01*
X-369796704Y-34895362D01*
X-369777654Y-34859723D01*
X-369752017Y-34828483D01*
X-369720777Y-34802846D01*
X-369685138Y-34783796D01*
X-369646468Y-34772065D01*
X-369600112Y-34767500D01*
X-368523888Y-34767500D01*
X-368477532Y-34772065D01*
G37*
G36*
X-377621532Y-34772065D02*
G01*
X-377582862Y-34783796D01*
X-377547223Y-34802846D01*
X-377515983Y-34828483D01*
X-377490346Y-34859723D01*
X-377471296Y-34895362D01*
X-377459565Y-34934032D01*
X-377455000Y-34980388D01*
X-377455000Y-35631612D01*
X-377459565Y-35677968D01*
X-377471296Y-35716638D01*
X-377490346Y-35752277D01*
X-377515983Y-35783517D01*
X-377547223Y-35809154D01*
X-377582862Y-35828204D01*
X-377621532Y-35839935D01*
X-377667888Y-35844500D01*
X-378744112Y-35844500D01*
X-378790468Y-35839935D01*
X-378829138Y-35828204D01*
X-378864777Y-35809154D01*
X-378896017Y-35783517D01*
X-378921654Y-35752277D01*
X-378940704Y-35716638D01*
X-378952435Y-35677968D01*
X-378957000Y-35631612D01*
X-378957000Y-34980388D01*
X-378952435Y-34934032D01*
X-378940704Y-34895362D01*
X-378921654Y-34859723D01*
X-378896017Y-34828483D01*
X-378864777Y-34802846D01*
X-378829138Y-34783796D01*
X-378790468Y-34772065D01*
X-378744112Y-34767500D01*
X-377667888Y-34767500D01*
X-377621532Y-34772065D01*
G37*
G36*
X-374067000Y-34257000D02*
G01*
X-375569000Y-34257000D01*
X-375569000Y-32955000D01*
X-374067000Y-32955000D01*
X-374067000Y-34257000D01*
G37*
G36*
X-371867000Y-34257000D02*
G01*
X-373369000Y-34257000D01*
X-373369000Y-32955000D01*
X-371867000Y-32955000D01*
X-371867000Y-34257000D01*
G37*
G36*
X-377621532Y-32897065D02*
G01*
X-377582862Y-32908796D01*
X-377547223Y-32927846D01*
X-377515983Y-32953483D01*
X-377490346Y-32984723D01*
X-377471296Y-33020362D01*
X-377459565Y-33059032D01*
X-377455000Y-33105388D01*
X-377455000Y-33756612D01*
X-377459565Y-33802968D01*
X-377471296Y-33841638D01*
X-377490346Y-33877277D01*
X-377515983Y-33908517D01*
X-377547223Y-33934154D01*
X-377582862Y-33953204D01*
X-377621532Y-33964935D01*
X-377667888Y-33969500D01*
X-378744112Y-33969500D01*
X-378790468Y-33964935D01*
X-378829138Y-33953204D01*
X-378864777Y-33934154D01*
X-378896017Y-33908517D01*
X-378921654Y-33877277D01*
X-378940704Y-33841638D01*
X-378952435Y-33802968D01*
X-378957000Y-33756612D01*
X-378957000Y-33105388D01*
X-378952435Y-33059032D01*
X-378940704Y-33020362D01*
X-378921654Y-32984723D01*
X-378896017Y-32953483D01*
X-378864777Y-32927846D01*
X-378829138Y-32908796D01*
X-378790468Y-32897065D01*
X-378744112Y-32892500D01*
X-377667888Y-32892500D01*
X-377621532Y-32897065D01*
G37*
G36*
X-368477532Y-32897065D02*
G01*
X-368438862Y-32908796D01*
X-368403223Y-32927846D01*
X-368371983Y-32953483D01*
X-368346346Y-32984723D01*
X-368327296Y-33020362D01*
X-368315565Y-33059032D01*
X-368311000Y-33105388D01*
X-368311000Y-33756612D01*
X-368315565Y-33802968D01*
X-368327296Y-33841638D01*
X-368346346Y-33877277D01*
X-368371983Y-33908517D01*
X-368403223Y-33934154D01*
X-368438862Y-33953204D01*
X-368477532Y-33964935D01*
X-368523888Y-33969500D01*
X-369600112Y-33969500D01*
X-369646468Y-33964935D01*
X-369685138Y-33953204D01*
X-369720777Y-33934154D01*
X-369752017Y-33908517D01*
X-369777654Y-33877277D01*
X-369796704Y-33841638D01*
X-369808435Y-33802968D01*
X-369813000Y-33756612D01*
X-369813000Y-33105388D01*
X-369808435Y-33059032D01*
X-369796704Y-33020362D01*
X-369777654Y-32984723D01*
X-369752017Y-32953483D01*
X-369720777Y-32927846D01*
X-369685138Y-32908796D01*
X-369646468Y-32897065D01*
X-369600112Y-32892500D01*
X-368523888Y-32892500D01*
X-368477532Y-32897065D01*
G37*
G36*
X-393842123Y-30362037D02*
G01*
X-393672284Y-30413557D01*
X-393515759Y-30497222D01*
X-393480021Y-30526552D01*
X-393378564Y-30609814D01*
X-393295302Y-30711271D01*
X-393265972Y-30747009D01*
X-393182307Y-30903534D01*
X-393130787Y-31073373D01*
X-393117750Y-31205742D01*
X-393117750Y-32294258D01*
X-393130787Y-32426627D01*
X-393182307Y-32596466D01*
X-393265972Y-32752991D01*
X-393295302Y-32788729D01*
X-393378564Y-32890186D01*
X-393515761Y-33002779D01*
X-393620404Y-33058712D01*
X-393672285Y-33086443D01*
X-393842124Y-33137963D01*
X-394018750Y-33155359D01*
X-394195377Y-33137963D01*
X-394365216Y-33086443D01*
X-394521741Y-33002778D01*
X-394557479Y-32973448D01*
X-394658936Y-32890186D01*
X-394771529Y-32752989D01*
X-394855192Y-32596467D01*
X-394855193Y-32596465D01*
X-394906713Y-32426626D01*
X-394919750Y-32294257D01*
X-394919749Y-31205742D01*
X-394906712Y-31073373D01*
X-394855192Y-30903534D01*
X-394771527Y-30747009D01*
X-394742197Y-30711271D01*
X-394658935Y-30609814D01*
X-394557478Y-30526552D01*
X-394521740Y-30497222D01*
X-394365215Y-30413557D01*
X-394195376Y-30362037D01*
X-394018750Y-30344641D01*
X-393842123Y-30362037D01*
G37*
G36*
X-401142123Y-30362037D02*
G01*
X-400972284Y-30413557D01*
X-400815759Y-30497222D01*
X-400780021Y-30526552D01*
X-400678564Y-30609814D01*
X-400595302Y-30711271D01*
X-400565972Y-30747009D01*
X-400482307Y-30903534D01*
X-400430787Y-31073373D01*
X-400417750Y-31205742D01*
X-400417750Y-32294258D01*
X-400430787Y-32426627D01*
X-400482307Y-32596466D01*
X-400565972Y-32752991D01*
X-400595302Y-32788729D01*
X-400678564Y-32890186D01*
X-400815761Y-33002779D01*
X-400920404Y-33058712D01*
X-400972285Y-33086443D01*
X-401142124Y-33137963D01*
X-401318750Y-33155359D01*
X-401495377Y-33137963D01*
X-401665216Y-33086443D01*
X-401821741Y-33002778D01*
X-401857479Y-32973448D01*
X-401958936Y-32890186D01*
X-402071529Y-32752989D01*
X-402155192Y-32596467D01*
X-402155193Y-32596465D01*
X-402206713Y-32426626D01*
X-402219750Y-32294257D01*
X-402219749Y-31205742D01*
X-402206712Y-31073373D01*
X-402155192Y-30903534D01*
X-402071527Y-30747009D01*
X-402042197Y-30711271D01*
X-401958935Y-30609814D01*
X-401857478Y-30526552D01*
X-401821740Y-30497222D01*
X-401665215Y-30413557D01*
X-401495376Y-30362037D01*
X-401318750Y-30344641D01*
X-401142123Y-30362037D01*
G37*
M02*
