G04 #@! TF.GenerationSoftware,KiCad,Pcbnew,(5.1.5)-1*
G04 #@! TF.CreationDate,2021-04-16T13:39:06-04:00*
G04 #@! TF.ProjectId,intro-pcb,696e7472-6f2d-4706-9362-2e6b69636164,rev?*
G04 #@! TF.SameCoordinates,Original*
G04 #@! TF.FileFunction,Copper,L1,Top*
G04 #@! TF.FilePolarity,Positive*
%FSLAX46Y46*%
G04 Gerber Fmt 4.6, Leading zero omitted, Abs format (unit mm)*
G04 Created by KiCad (PCBNEW (5.1.5)-1) date 2021-04-16 13:39:06*
%MOMM*%
%LPD*%
G04 APERTURE LIST*
%ADD10O,1.700000X2.700000*%
%ADD11C,2.250000*%
%ADD12C,2.250000*%
%ADD13C,0.800000*%
%ADD14C,0.381000*%
%ADD15C,0.250000*%
G04 APERTURE END LIST*
D10*
X-401318750Y-31750000D03*
X-394018750Y-31750000D03*
X-394018750Y-36250000D03*
X-401318750Y-36250000D03*
D11*
X-335081250Y-54737500D03*
D12*
X-336391250Y-56197500D02*
X-335081248Y-54737500D01*
D11*
X-330041250Y-53657500D03*
D12*
X-330081250Y-54237500D02*
X-330041250Y-53657500D01*
D11*
X-335081250Y-35687500D03*
D12*
X-336391250Y-37147500D02*
X-335081248Y-35687500D01*
D11*
X-330041250Y-34607500D03*
D12*
X-330081250Y-35187500D02*
X-330041250Y-34607500D01*
D11*
X-354131250Y-54737500D03*
D12*
X-355441250Y-56197500D02*
X-354131248Y-54737500D01*
D11*
X-349091250Y-53657500D03*
D12*
X-349131250Y-54237500D02*
X-349091250Y-53657500D01*
D11*
X-354131250Y-35687500D03*
D12*
X-355441250Y-37147500D02*
X-354131248Y-35687500D01*
D11*
X-349091250Y-34607500D03*
D12*
X-349131250Y-35187500D02*
X-349091250Y-34607500D01*
D13*
X-381762000Y-48768000D03*
X-384810000Y-39624000D03*
X-381762000Y-57912000D03*
X-381762000Y-53340000D03*
X-368808000Y-58166000D03*
X-366522000Y-60198000D03*
X-362458000Y-46228000D03*
X-388112000Y-42672000D03*
X-395478000Y-60960000D03*
D14*
X-382161999Y-48368001D02*
X-382161999Y-42272001D01*
X-381762000Y-48768000D02*
X-382161999Y-48368001D01*
X-382161999Y-42272001D02*
X-384810000Y-39624000D01*
X-381762000Y-48768000D02*
X-381762000Y-53340000D01*
X-381762000Y-53340000D02*
X-381762000Y-57912000D01*
X-381362001Y-57512001D02*
X-369461999Y-57512001D01*
X-381762000Y-57912000D02*
X-381362001Y-57512001D01*
X-369461999Y-57512001D02*
X-368808000Y-58166000D01*
X-366122001Y-59798001D02*
X-366122001Y-59544001D01*
X-366522000Y-60198000D02*
X-366122001Y-59798001D01*
X-366122001Y-59544001D02*
X-362458000Y-55880000D01*
X-362458000Y-55880000D02*
X-362458000Y-46228000D01*
D15*
X-354131250Y-54887500D02*
X-355441250Y-56197500D01*
X-354131250Y-38457500D02*
X-354131250Y-54887500D01*
X-355441250Y-37147500D02*
X-354131250Y-38457500D01*
X-335081250Y-38457500D02*
X-335081250Y-54737500D01*
X-336391250Y-37147500D02*
X-335081250Y-38457500D01*
X-388511999Y-43071999D02*
X-388511999Y-53993999D01*
X-388112000Y-42672000D02*
X-388511999Y-43071999D01*
X-388511999Y-53993999D02*
X-395478000Y-60960000D01*
M02*
