G04 #@! TF.GenerationSoftware,KiCad,Pcbnew,(5.1.5)-1*
G04 #@! TF.CreationDate,2021-04-16T13:39:06-04:00*
G04 #@! TF.ProjectId,intro-pcb,696e7472-6f2d-4706-9362-2e6b69636164,rev?*
G04 #@! TF.SameCoordinates,Original*
G04 #@! TF.FileFunction,Copper,L2,Bot*
G04 #@! TF.FilePolarity,Positive*
%FSLAX46Y46*%
G04 Gerber Fmt 4.6, Leading zero omitted, Abs format (unit mm)*
G04 Created by KiCad (PCBNEW (5.1.5)-1) date 2021-04-16 13:39:06*
%MOMM*%
%LPD*%
G04 APERTURE LIST*
%ADD10R,1.400000X1.200000*%
%ADD11O,1.700000X2.700000*%
%ADD12R,0.500000X2.250000*%
%ADD13R,0.550000X1.500000*%
%ADD14R,1.500000X0.550000*%
%ADD15R,1.800000X1.100000*%
%ADD16C,0.100000*%
%ADD17C,2.250000*%
%ADD18C,2.250000*%
%ADD19R,1.200000X0.900000*%
%ADD20C,0.800000*%
%ADD21C,0.381000*%
%ADD22C,0.250000*%
%ADD23C,0.254000*%
G04 APERTURE END LIST*
D10*
X-372618000Y-33606000D03*
X-374818000Y-33606000D03*
X-374818000Y-35306000D03*
X-372618000Y-35306000D03*
D11*
X-401318750Y-31750000D03*
X-394018750Y-31750000D03*
X-394018750Y-36250000D03*
X-401318750Y-36250000D03*
D12*
X-399268750Y-36250000D03*
X-398468750Y-36250000D03*
X-397668750Y-36250000D03*
X-396868750Y-36250000D03*
X-396068750Y-36250000D03*
D13*
X-377856250Y-55706250D03*
X-377056250Y-55706250D03*
X-376256250Y-55706250D03*
X-375456250Y-55706250D03*
X-374656250Y-55706250D03*
X-373856250Y-55706250D03*
X-373056250Y-55706250D03*
X-372256250Y-55706250D03*
X-371456250Y-55706250D03*
X-370656250Y-55706250D03*
X-369856250Y-55706250D03*
D14*
X-368156250Y-54006250D03*
X-368156250Y-53206250D03*
X-368156250Y-52406250D03*
X-368156250Y-51606250D03*
X-368156250Y-50806250D03*
X-368156250Y-50006250D03*
X-368156250Y-49206250D03*
X-368156250Y-48406250D03*
X-368156250Y-47606250D03*
X-368156250Y-46806250D03*
X-368156250Y-46006250D03*
D13*
X-369856250Y-44306250D03*
X-370656250Y-44306250D03*
X-371456250Y-44306250D03*
X-372256250Y-44306250D03*
X-373056250Y-44306250D03*
X-373856250Y-44306250D03*
X-374656250Y-44306250D03*
X-375456250Y-44306250D03*
X-376256250Y-44306250D03*
X-377056250Y-44306250D03*
X-377856250Y-44306250D03*
D14*
X-379556250Y-46006250D03*
X-379556250Y-46806250D03*
X-379556250Y-47606250D03*
X-379556250Y-48406250D03*
X-379556250Y-49206250D03*
X-379556250Y-50006250D03*
X-379556250Y-50806250D03*
X-379556250Y-51606250D03*
X-379556250Y-52406250D03*
X-379556250Y-53206250D03*
X-379556250Y-54006250D03*
D15*
X-397743750Y-65350000D03*
X-403943750Y-61650000D03*
X-397743750Y-61650000D03*
X-403943750Y-65350000D03*
G04 #@! TA.AperFunction,SMDPad,CuDef*
D16*
G36*
X-364009858Y-53518674D02*
G01*
X-363986197Y-53522184D01*
X-363962993Y-53527996D01*
X-363940471Y-53536054D01*
X-363918847Y-53546282D01*
X-363898330Y-53558579D01*
X-363879117Y-53572829D01*
X-363861393Y-53588893D01*
X-363845329Y-53606617D01*
X-363831079Y-53625830D01*
X-363818782Y-53646347D01*
X-363808554Y-53667971D01*
X-363800496Y-53690493D01*
X-363794684Y-53713697D01*
X-363791174Y-53737358D01*
X-363790000Y-53761250D01*
X-363790000Y-54248750D01*
X-363791174Y-54272642D01*
X-363794684Y-54296303D01*
X-363800496Y-54319507D01*
X-363808554Y-54342029D01*
X-363818782Y-54363653D01*
X-363831079Y-54384170D01*
X-363845329Y-54403383D01*
X-363861393Y-54421107D01*
X-363879117Y-54437171D01*
X-363898330Y-54451421D01*
X-363918847Y-54463718D01*
X-363940471Y-54473946D01*
X-363962993Y-54482004D01*
X-363986197Y-54487816D01*
X-364009858Y-54491326D01*
X-364033750Y-54492500D01*
X-364946250Y-54492500D01*
X-364970142Y-54491326D01*
X-364993803Y-54487816D01*
X-365017007Y-54482004D01*
X-365039529Y-54473946D01*
X-365061153Y-54463718D01*
X-365081670Y-54451421D01*
X-365100883Y-54437171D01*
X-365118607Y-54421107D01*
X-365134671Y-54403383D01*
X-365148921Y-54384170D01*
X-365161218Y-54363653D01*
X-365171446Y-54342029D01*
X-365179504Y-54319507D01*
X-365185316Y-54296303D01*
X-365188826Y-54272642D01*
X-365190000Y-54248750D01*
X-365190000Y-53761250D01*
X-365188826Y-53737358D01*
X-365185316Y-53713697D01*
X-365179504Y-53690493D01*
X-365171446Y-53667971D01*
X-365161218Y-53646347D01*
X-365148921Y-53625830D01*
X-365134671Y-53606617D01*
X-365118607Y-53588893D01*
X-365100883Y-53572829D01*
X-365081670Y-53558579D01*
X-365061153Y-53546282D01*
X-365039529Y-53536054D01*
X-365017007Y-53527996D01*
X-364993803Y-53522184D01*
X-364970142Y-53518674D01*
X-364946250Y-53517500D01*
X-364033750Y-53517500D01*
X-364009858Y-53518674D01*
G37*
G04 #@! TD.AperFunction*
G04 #@! TA.AperFunction,SMDPad,CuDef*
G36*
X-364009858Y-55393674D02*
G01*
X-363986197Y-55397184D01*
X-363962993Y-55402996D01*
X-363940471Y-55411054D01*
X-363918847Y-55421282D01*
X-363898330Y-55433579D01*
X-363879117Y-55447829D01*
X-363861393Y-55463893D01*
X-363845329Y-55481617D01*
X-363831079Y-55500830D01*
X-363818782Y-55521347D01*
X-363808554Y-55542971D01*
X-363800496Y-55565493D01*
X-363794684Y-55588697D01*
X-363791174Y-55612358D01*
X-363790000Y-55636250D01*
X-363790000Y-56123750D01*
X-363791174Y-56147642D01*
X-363794684Y-56171303D01*
X-363800496Y-56194507D01*
X-363808554Y-56217029D01*
X-363818782Y-56238653D01*
X-363831079Y-56259170D01*
X-363845329Y-56278383D01*
X-363861393Y-56296107D01*
X-363879117Y-56312171D01*
X-363898330Y-56326421D01*
X-363918847Y-56338718D01*
X-363940471Y-56348946D01*
X-363962993Y-56357004D01*
X-363986197Y-56362816D01*
X-364009858Y-56366326D01*
X-364033750Y-56367500D01*
X-364946250Y-56367500D01*
X-364970142Y-56366326D01*
X-364993803Y-56362816D01*
X-365017007Y-56357004D01*
X-365039529Y-56348946D01*
X-365061153Y-56338718D01*
X-365081670Y-56326421D01*
X-365100883Y-56312171D01*
X-365118607Y-56296107D01*
X-365134671Y-56278383D01*
X-365148921Y-56259170D01*
X-365161218Y-56238653D01*
X-365171446Y-56217029D01*
X-365179504Y-56194507D01*
X-365185316Y-56171303D01*
X-365188826Y-56147642D01*
X-365190000Y-56123750D01*
X-365190000Y-55636250D01*
X-365188826Y-55612358D01*
X-365185316Y-55588697D01*
X-365179504Y-55565493D01*
X-365171446Y-55542971D01*
X-365161218Y-55521347D01*
X-365148921Y-55500830D01*
X-365134671Y-55481617D01*
X-365118607Y-55463893D01*
X-365100883Y-55447829D01*
X-365081670Y-55433579D01*
X-365061153Y-55421282D01*
X-365039529Y-55411054D01*
X-365017007Y-55402996D01*
X-364993803Y-55397184D01*
X-364970142Y-55393674D01*
X-364946250Y-55392500D01*
X-364033750Y-55392500D01*
X-364009858Y-55393674D01*
G37*
G04 #@! TD.AperFunction*
G04 #@! TA.AperFunction,SMDPad,CuDef*
G36*
X-386107858Y-42107174D02*
G01*
X-386084197Y-42110684D01*
X-386060993Y-42116496D01*
X-386038471Y-42124554D01*
X-386016847Y-42134782D01*
X-385996330Y-42147079D01*
X-385977117Y-42161329D01*
X-385959393Y-42177393D01*
X-385943329Y-42195117D01*
X-385929079Y-42214330D01*
X-385916782Y-42234847D01*
X-385906554Y-42256471D01*
X-385898496Y-42278993D01*
X-385892684Y-42302197D01*
X-385889174Y-42325858D01*
X-385888000Y-42349750D01*
X-385888000Y-42837250D01*
X-385889174Y-42861142D01*
X-385892684Y-42884803D01*
X-385898496Y-42908007D01*
X-385906554Y-42930529D01*
X-385916782Y-42952153D01*
X-385929079Y-42972670D01*
X-385943329Y-42991883D01*
X-385959393Y-43009607D01*
X-385977117Y-43025671D01*
X-385996330Y-43039921D01*
X-386016847Y-43052218D01*
X-386038471Y-43062446D01*
X-386060993Y-43070504D01*
X-386084197Y-43076316D01*
X-386107858Y-43079826D01*
X-386131750Y-43081000D01*
X-387044250Y-43081000D01*
X-387068142Y-43079826D01*
X-387091803Y-43076316D01*
X-387115007Y-43070504D01*
X-387137529Y-43062446D01*
X-387159153Y-43052218D01*
X-387179670Y-43039921D01*
X-387198883Y-43025671D01*
X-387216607Y-43009607D01*
X-387232671Y-42991883D01*
X-387246921Y-42972670D01*
X-387259218Y-42952153D01*
X-387269446Y-42930529D01*
X-387277504Y-42908007D01*
X-387283316Y-42884803D01*
X-387286826Y-42861142D01*
X-387288000Y-42837250D01*
X-387288000Y-42349750D01*
X-387286826Y-42325858D01*
X-387283316Y-42302197D01*
X-387277504Y-42278993D01*
X-387269446Y-42256471D01*
X-387259218Y-42234847D01*
X-387246921Y-42214330D01*
X-387232671Y-42195117D01*
X-387216607Y-42177393D01*
X-387198883Y-42161329D01*
X-387179670Y-42147079D01*
X-387159153Y-42134782D01*
X-387137529Y-42124554D01*
X-387115007Y-42116496D01*
X-387091803Y-42110684D01*
X-387068142Y-42107174D01*
X-387044250Y-42106000D01*
X-386131750Y-42106000D01*
X-386107858Y-42107174D01*
G37*
G04 #@! TD.AperFunction*
G04 #@! TA.AperFunction,SMDPad,CuDef*
G36*
X-386107858Y-40232174D02*
G01*
X-386084197Y-40235684D01*
X-386060993Y-40241496D01*
X-386038471Y-40249554D01*
X-386016847Y-40259782D01*
X-385996330Y-40272079D01*
X-385977117Y-40286329D01*
X-385959393Y-40302393D01*
X-385943329Y-40320117D01*
X-385929079Y-40339330D01*
X-385916782Y-40359847D01*
X-385906554Y-40381471D01*
X-385898496Y-40403993D01*
X-385892684Y-40427197D01*
X-385889174Y-40450858D01*
X-385888000Y-40474750D01*
X-385888000Y-40962250D01*
X-385889174Y-40986142D01*
X-385892684Y-41009803D01*
X-385898496Y-41033007D01*
X-385906554Y-41055529D01*
X-385916782Y-41077153D01*
X-385929079Y-41097670D01*
X-385943329Y-41116883D01*
X-385959393Y-41134607D01*
X-385977117Y-41150671D01*
X-385996330Y-41164921D01*
X-386016847Y-41177218D01*
X-386038471Y-41187446D01*
X-386060993Y-41195504D01*
X-386084197Y-41201316D01*
X-386107858Y-41204826D01*
X-386131750Y-41206000D01*
X-387044250Y-41206000D01*
X-387068142Y-41204826D01*
X-387091803Y-41201316D01*
X-387115007Y-41195504D01*
X-387137529Y-41187446D01*
X-387159153Y-41177218D01*
X-387179670Y-41164921D01*
X-387198883Y-41150671D01*
X-387216607Y-41134607D01*
X-387232671Y-41116883D01*
X-387246921Y-41097670D01*
X-387259218Y-41077153D01*
X-387269446Y-41055529D01*
X-387277504Y-41033007D01*
X-387283316Y-41009803D01*
X-387286826Y-40986142D01*
X-387288000Y-40962250D01*
X-387288000Y-40474750D01*
X-387286826Y-40450858D01*
X-387283316Y-40427197D01*
X-387277504Y-40403993D01*
X-387269446Y-40381471D01*
X-387259218Y-40359847D01*
X-387246921Y-40339330D01*
X-387232671Y-40320117D01*
X-387216607Y-40302393D01*
X-387198883Y-40286329D01*
X-387179670Y-40272079D01*
X-387159153Y-40259782D01*
X-387137529Y-40249554D01*
X-387115007Y-40241496D01*
X-387091803Y-40235684D01*
X-387068142Y-40232174D01*
X-387044250Y-40231000D01*
X-386131750Y-40231000D01*
X-386107858Y-40232174D01*
G37*
G04 #@! TD.AperFunction*
G04 #@! TA.AperFunction,SMDPad,CuDef*
G36*
X-394489858Y-40486174D02*
G01*
X-394466197Y-40489684D01*
X-394442993Y-40495496D01*
X-394420471Y-40503554D01*
X-394398847Y-40513782D01*
X-394378330Y-40526079D01*
X-394359117Y-40540329D01*
X-394341393Y-40556393D01*
X-394325329Y-40574117D01*
X-394311079Y-40593330D01*
X-394298782Y-40613847D01*
X-394288554Y-40635471D01*
X-394280496Y-40657993D01*
X-394274684Y-40681197D01*
X-394271174Y-40704858D01*
X-394270000Y-40728750D01*
X-394270000Y-41216250D01*
X-394271174Y-41240142D01*
X-394274684Y-41263803D01*
X-394280496Y-41287007D01*
X-394288554Y-41309529D01*
X-394298782Y-41331153D01*
X-394311079Y-41351670D01*
X-394325329Y-41370883D01*
X-394341393Y-41388607D01*
X-394359117Y-41404671D01*
X-394378330Y-41418921D01*
X-394398847Y-41431218D01*
X-394420471Y-41441446D01*
X-394442993Y-41449504D01*
X-394466197Y-41455316D01*
X-394489858Y-41458826D01*
X-394513750Y-41460000D01*
X-395426250Y-41460000D01*
X-395450142Y-41458826D01*
X-395473803Y-41455316D01*
X-395497007Y-41449504D01*
X-395519529Y-41441446D01*
X-395541153Y-41431218D01*
X-395561670Y-41418921D01*
X-395580883Y-41404671D01*
X-395598607Y-41388607D01*
X-395614671Y-41370883D01*
X-395628921Y-41351670D01*
X-395641218Y-41331153D01*
X-395651446Y-41309529D01*
X-395659504Y-41287007D01*
X-395665316Y-41263803D01*
X-395668826Y-41240142D01*
X-395670000Y-41216250D01*
X-395670000Y-40728750D01*
X-395668826Y-40704858D01*
X-395665316Y-40681197D01*
X-395659504Y-40657993D01*
X-395651446Y-40635471D01*
X-395641218Y-40613847D01*
X-395628921Y-40593330D01*
X-395614671Y-40574117D01*
X-395598607Y-40556393D01*
X-395580883Y-40540329D01*
X-395561670Y-40526079D01*
X-395541153Y-40513782D01*
X-395519529Y-40503554D01*
X-395497007Y-40495496D01*
X-395473803Y-40489684D01*
X-395450142Y-40486174D01*
X-395426250Y-40485000D01*
X-394513750Y-40485000D01*
X-394489858Y-40486174D01*
G37*
G04 #@! TD.AperFunction*
G04 #@! TA.AperFunction,SMDPad,CuDef*
G36*
X-394489858Y-42361174D02*
G01*
X-394466197Y-42364684D01*
X-394442993Y-42370496D01*
X-394420471Y-42378554D01*
X-394398847Y-42388782D01*
X-394378330Y-42401079D01*
X-394359117Y-42415329D01*
X-394341393Y-42431393D01*
X-394325329Y-42449117D01*
X-394311079Y-42468330D01*
X-394298782Y-42488847D01*
X-394288554Y-42510471D01*
X-394280496Y-42532993D01*
X-394274684Y-42556197D01*
X-394271174Y-42579858D01*
X-394270000Y-42603750D01*
X-394270000Y-43091250D01*
X-394271174Y-43115142D01*
X-394274684Y-43138803D01*
X-394280496Y-43162007D01*
X-394288554Y-43184529D01*
X-394298782Y-43206153D01*
X-394311079Y-43226670D01*
X-394325329Y-43245883D01*
X-394341393Y-43263607D01*
X-394359117Y-43279671D01*
X-394378330Y-43293921D01*
X-394398847Y-43306218D01*
X-394420471Y-43316446D01*
X-394442993Y-43324504D01*
X-394466197Y-43330316D01*
X-394489858Y-43333826D01*
X-394513750Y-43335000D01*
X-395426250Y-43335000D01*
X-395450142Y-43333826D01*
X-395473803Y-43330316D01*
X-395497007Y-43324504D01*
X-395519529Y-43316446D01*
X-395541153Y-43306218D01*
X-395561670Y-43293921D01*
X-395580883Y-43279671D01*
X-395598607Y-43263607D01*
X-395614671Y-43245883D01*
X-395628921Y-43226670D01*
X-395641218Y-43206153D01*
X-395651446Y-43184529D01*
X-395659504Y-43162007D01*
X-395665316Y-43138803D01*
X-395668826Y-43115142D01*
X-395670000Y-43091250D01*
X-395670000Y-42603750D01*
X-395668826Y-42579858D01*
X-395665316Y-42556197D01*
X-395659504Y-42532993D01*
X-395651446Y-42510471D01*
X-395641218Y-42488847D01*
X-395628921Y-42468330D01*
X-395614671Y-42449117D01*
X-395598607Y-42431393D01*
X-395580883Y-42415329D01*
X-395561670Y-42401079D01*
X-395541153Y-42388782D01*
X-395519529Y-42378554D01*
X-395497007Y-42370496D01*
X-395473803Y-42364684D01*
X-395450142Y-42361174D01*
X-395426250Y-42360000D01*
X-394513750Y-42360000D01*
X-394489858Y-42361174D01*
G37*
G04 #@! TD.AperFunction*
G04 #@! TA.AperFunction,SMDPad,CuDef*
G36*
X-399569858Y-40486174D02*
G01*
X-399546197Y-40489684D01*
X-399522993Y-40495496D01*
X-399500471Y-40503554D01*
X-399478847Y-40513782D01*
X-399458330Y-40526079D01*
X-399439117Y-40540329D01*
X-399421393Y-40556393D01*
X-399405329Y-40574117D01*
X-399391079Y-40593330D01*
X-399378782Y-40613847D01*
X-399368554Y-40635471D01*
X-399360496Y-40657993D01*
X-399354684Y-40681197D01*
X-399351174Y-40704858D01*
X-399350000Y-40728750D01*
X-399350000Y-41216250D01*
X-399351174Y-41240142D01*
X-399354684Y-41263803D01*
X-399360496Y-41287007D01*
X-399368554Y-41309529D01*
X-399378782Y-41331153D01*
X-399391079Y-41351670D01*
X-399405329Y-41370883D01*
X-399421393Y-41388607D01*
X-399439117Y-41404671D01*
X-399458330Y-41418921D01*
X-399478847Y-41431218D01*
X-399500471Y-41441446D01*
X-399522993Y-41449504D01*
X-399546197Y-41455316D01*
X-399569858Y-41458826D01*
X-399593750Y-41460000D01*
X-400506250Y-41460000D01*
X-400530142Y-41458826D01*
X-400553803Y-41455316D01*
X-400577007Y-41449504D01*
X-400599529Y-41441446D01*
X-400621153Y-41431218D01*
X-400641670Y-41418921D01*
X-400660883Y-41404671D01*
X-400678607Y-41388607D01*
X-400694671Y-41370883D01*
X-400708921Y-41351670D01*
X-400721218Y-41331153D01*
X-400731446Y-41309529D01*
X-400739504Y-41287007D01*
X-400745316Y-41263803D01*
X-400748826Y-41240142D01*
X-400750000Y-41216250D01*
X-400750000Y-40728750D01*
X-400748826Y-40704858D01*
X-400745316Y-40681197D01*
X-400739504Y-40657993D01*
X-400731446Y-40635471D01*
X-400721218Y-40613847D01*
X-400708921Y-40593330D01*
X-400694671Y-40574117D01*
X-400678607Y-40556393D01*
X-400660883Y-40540329D01*
X-400641670Y-40526079D01*
X-400621153Y-40513782D01*
X-400599529Y-40503554D01*
X-400577007Y-40495496D01*
X-400553803Y-40489684D01*
X-400530142Y-40486174D01*
X-400506250Y-40485000D01*
X-399593750Y-40485000D01*
X-399569858Y-40486174D01*
G37*
G04 #@! TD.AperFunction*
G04 #@! TA.AperFunction,SMDPad,CuDef*
G36*
X-399569858Y-42361174D02*
G01*
X-399546197Y-42364684D01*
X-399522993Y-42370496D01*
X-399500471Y-42378554D01*
X-399478847Y-42388782D01*
X-399458330Y-42401079D01*
X-399439117Y-42415329D01*
X-399421393Y-42431393D01*
X-399405329Y-42449117D01*
X-399391079Y-42468330D01*
X-399378782Y-42488847D01*
X-399368554Y-42510471D01*
X-399360496Y-42532993D01*
X-399354684Y-42556197D01*
X-399351174Y-42579858D01*
X-399350000Y-42603750D01*
X-399350000Y-43091250D01*
X-399351174Y-43115142D01*
X-399354684Y-43138803D01*
X-399360496Y-43162007D01*
X-399368554Y-43184529D01*
X-399378782Y-43206153D01*
X-399391079Y-43226670D01*
X-399405329Y-43245883D01*
X-399421393Y-43263607D01*
X-399439117Y-43279671D01*
X-399458330Y-43293921D01*
X-399478847Y-43306218D01*
X-399500471Y-43316446D01*
X-399522993Y-43324504D01*
X-399546197Y-43330316D01*
X-399569858Y-43333826D01*
X-399593750Y-43335000D01*
X-400506250Y-43335000D01*
X-400530142Y-43333826D01*
X-400553803Y-43330316D01*
X-400577007Y-43324504D01*
X-400599529Y-43316446D01*
X-400621153Y-43306218D01*
X-400641670Y-43293921D01*
X-400660883Y-43279671D01*
X-400678607Y-43263607D01*
X-400694671Y-43245883D01*
X-400708921Y-43226670D01*
X-400721218Y-43206153D01*
X-400731446Y-43184529D01*
X-400739504Y-43162007D01*
X-400745316Y-43138803D01*
X-400748826Y-43115142D01*
X-400750000Y-43091250D01*
X-400750000Y-42603750D01*
X-400748826Y-42579858D01*
X-400745316Y-42556197D01*
X-400739504Y-42532993D01*
X-400731446Y-42510471D01*
X-400721218Y-42488847D01*
X-400708921Y-42468330D01*
X-400694671Y-42449117D01*
X-400678607Y-42431393D01*
X-400660883Y-42415329D01*
X-400641670Y-42401079D01*
X-400621153Y-42388782D01*
X-400599529Y-42378554D01*
X-400577007Y-42370496D01*
X-400553803Y-42364684D01*
X-400530142Y-42361174D01*
X-400506250Y-42360000D01*
X-399593750Y-42360000D01*
X-399569858Y-42361174D01*
G37*
G04 #@! TD.AperFunction*
D17*
X-335081250Y-54737500D03*
D18*
X-336391250Y-56197500D02*
X-335081248Y-54737500D01*
D17*
X-330041250Y-53657500D03*
D18*
X-330081250Y-54237500D02*
X-330041250Y-53657500D01*
D17*
X-335081250Y-35687500D03*
D18*
X-336391250Y-37147500D02*
X-335081248Y-35687500D01*
D17*
X-330041250Y-34607500D03*
D18*
X-330081250Y-35187500D02*
X-330041250Y-34607500D01*
D17*
X-354131250Y-54737500D03*
D18*
X-355441250Y-56197500D02*
X-354131248Y-54737500D01*
D17*
X-349091250Y-53657500D03*
D18*
X-349131250Y-54237500D02*
X-349091250Y-53657500D01*
D17*
X-354131250Y-35687500D03*
D18*
X-355441250Y-37147500D02*
X-354131248Y-35687500D01*
D17*
X-349091250Y-34607500D03*
D18*
X-349131250Y-35187500D02*
X-349091250Y-34607500D01*
G04 #@! TA.AperFunction,SMDPad,CuDef*
D16*
G36*
X-403210496Y-46366204D02*
G01*
X-403186227Y-46369804D01*
X-403162429Y-46375765D01*
X-403139329Y-46384030D01*
X-403117151Y-46394520D01*
X-403096107Y-46407133D01*
X-403076402Y-46421747D01*
X-403058223Y-46438223D01*
X-403041747Y-46456402D01*
X-403027133Y-46476107D01*
X-403014520Y-46497151D01*
X-403004030Y-46519329D01*
X-402995765Y-46542429D01*
X-402989804Y-46566227D01*
X-402986204Y-46590496D01*
X-402985000Y-46615000D01*
X-402985000Y-47365000D01*
X-402986204Y-47389504D01*
X-402989804Y-47413773D01*
X-402995765Y-47437571D01*
X-403004030Y-47460671D01*
X-403014520Y-47482849D01*
X-403027133Y-47503893D01*
X-403041747Y-47523598D01*
X-403058223Y-47541777D01*
X-403076402Y-47558253D01*
X-403096107Y-47572867D01*
X-403117151Y-47585480D01*
X-403139329Y-47595970D01*
X-403162429Y-47604235D01*
X-403186227Y-47610196D01*
X-403210496Y-47613796D01*
X-403235000Y-47615000D01*
X-404485000Y-47615000D01*
X-404509504Y-47613796D01*
X-404533773Y-47610196D01*
X-404557571Y-47604235D01*
X-404580671Y-47595970D01*
X-404602849Y-47585480D01*
X-404623893Y-47572867D01*
X-404643598Y-47558253D01*
X-404661777Y-47541777D01*
X-404678253Y-47523598D01*
X-404692867Y-47503893D01*
X-404705480Y-47482849D01*
X-404715970Y-47460671D01*
X-404724235Y-47437571D01*
X-404730196Y-47413773D01*
X-404733796Y-47389504D01*
X-404735000Y-47365000D01*
X-404735000Y-46615000D01*
X-404733796Y-46590496D01*
X-404730196Y-46566227D01*
X-404724235Y-46542429D01*
X-404715970Y-46519329D01*
X-404705480Y-46497151D01*
X-404692867Y-46476107D01*
X-404678253Y-46456402D01*
X-404661777Y-46438223D01*
X-404643598Y-46421747D01*
X-404623893Y-46407133D01*
X-404602849Y-46394520D01*
X-404580671Y-46384030D01*
X-404557571Y-46375765D01*
X-404533773Y-46369804D01*
X-404509504Y-46366204D01*
X-404485000Y-46365000D01*
X-403235000Y-46365000D01*
X-403210496Y-46366204D01*
G37*
G04 #@! TD.AperFunction*
G04 #@! TA.AperFunction,SMDPad,CuDef*
G36*
X-403210496Y-49166204D02*
G01*
X-403186227Y-49169804D01*
X-403162429Y-49175765D01*
X-403139329Y-49184030D01*
X-403117151Y-49194520D01*
X-403096107Y-49207133D01*
X-403076402Y-49221747D01*
X-403058223Y-49238223D01*
X-403041747Y-49256402D01*
X-403027133Y-49276107D01*
X-403014520Y-49297151D01*
X-403004030Y-49319329D01*
X-402995765Y-49342429D01*
X-402989804Y-49366227D01*
X-402986204Y-49390496D01*
X-402985000Y-49415000D01*
X-402985000Y-50165000D01*
X-402986204Y-50189504D01*
X-402989804Y-50213773D01*
X-402995765Y-50237571D01*
X-403004030Y-50260671D01*
X-403014520Y-50282849D01*
X-403027133Y-50303893D01*
X-403041747Y-50323598D01*
X-403058223Y-50341777D01*
X-403076402Y-50358253D01*
X-403096107Y-50372867D01*
X-403117151Y-50385480D01*
X-403139329Y-50395970D01*
X-403162429Y-50404235D01*
X-403186227Y-50410196D01*
X-403210496Y-50413796D01*
X-403235000Y-50415000D01*
X-404485000Y-50415000D01*
X-404509504Y-50413796D01*
X-404533773Y-50410196D01*
X-404557571Y-50404235D01*
X-404580671Y-50395970D01*
X-404602849Y-50385480D01*
X-404623893Y-50372867D01*
X-404643598Y-50358253D01*
X-404661777Y-50341777D01*
X-404678253Y-50323598D01*
X-404692867Y-50303893D01*
X-404705480Y-50282849D01*
X-404715970Y-50260671D01*
X-404724235Y-50237571D01*
X-404730196Y-50213773D01*
X-404733796Y-50189504D01*
X-404735000Y-50165000D01*
X-404735000Y-49415000D01*
X-404733796Y-49390496D01*
X-404730196Y-49366227D01*
X-404724235Y-49342429D01*
X-404715970Y-49319329D01*
X-404705480Y-49297151D01*
X-404692867Y-49276107D01*
X-404678253Y-49256402D01*
X-404661777Y-49238223D01*
X-404643598Y-49221747D01*
X-404623893Y-49207133D01*
X-404602849Y-49194520D01*
X-404580671Y-49184030D01*
X-404557571Y-49175765D01*
X-404533773Y-49169804D01*
X-404509504Y-49166204D01*
X-404485000Y-49165000D01*
X-403235000Y-49165000D01*
X-403210496Y-49166204D01*
G37*
G04 #@! TD.AperFunction*
D19*
X-323850000Y-57087500D03*
X-323850000Y-60387500D03*
X-323850000Y-37975000D03*
X-323850000Y-41275000D03*
X-342900000Y-57087500D03*
X-342900000Y-60387500D03*
X-342900000Y-37975000D03*
X-342900000Y-41275000D03*
G04 #@! TA.AperFunction,SMDPad,CuDef*
D16*
G36*
X-386288608Y-48513674D02*
G01*
X-386264947Y-48517184D01*
X-386241743Y-48522996D01*
X-386219221Y-48531054D01*
X-386197597Y-48541282D01*
X-386177080Y-48553579D01*
X-386157867Y-48567829D01*
X-386140143Y-48583893D01*
X-386124079Y-48601617D01*
X-386109829Y-48620830D01*
X-386097532Y-48641347D01*
X-386087304Y-48662971D01*
X-386079246Y-48685493D01*
X-386073434Y-48708697D01*
X-386069924Y-48732358D01*
X-386068750Y-48756250D01*
X-386068750Y-49668750D01*
X-386069924Y-49692642D01*
X-386073434Y-49716303D01*
X-386079246Y-49739507D01*
X-386087304Y-49762029D01*
X-386097532Y-49783653D01*
X-386109829Y-49804170D01*
X-386124079Y-49823383D01*
X-386140143Y-49841107D01*
X-386157867Y-49857171D01*
X-386177080Y-49871421D01*
X-386197597Y-49883718D01*
X-386219221Y-49893946D01*
X-386241743Y-49902004D01*
X-386264947Y-49907816D01*
X-386288608Y-49911326D01*
X-386312500Y-49912500D01*
X-386800000Y-49912500D01*
X-386823892Y-49911326D01*
X-386847553Y-49907816D01*
X-386870757Y-49902004D01*
X-386893279Y-49893946D01*
X-386914903Y-49883718D01*
X-386935420Y-49871421D01*
X-386954633Y-49857171D01*
X-386972357Y-49841107D01*
X-386988421Y-49823383D01*
X-387002671Y-49804170D01*
X-387014968Y-49783653D01*
X-387025196Y-49762029D01*
X-387033254Y-49739507D01*
X-387039066Y-49716303D01*
X-387042576Y-49692642D01*
X-387043750Y-49668750D01*
X-387043750Y-48756250D01*
X-387042576Y-48732358D01*
X-387039066Y-48708697D01*
X-387033254Y-48685493D01*
X-387025196Y-48662971D01*
X-387014968Y-48641347D01*
X-387002671Y-48620830D01*
X-386988421Y-48601617D01*
X-386972357Y-48583893D01*
X-386954633Y-48567829D01*
X-386935420Y-48553579D01*
X-386914903Y-48541282D01*
X-386893279Y-48531054D01*
X-386870757Y-48522996D01*
X-386847553Y-48517184D01*
X-386823892Y-48513674D01*
X-386800000Y-48512500D01*
X-386312500Y-48512500D01*
X-386288608Y-48513674D01*
G37*
G04 #@! TD.AperFunction*
G04 #@! TA.AperFunction,SMDPad,CuDef*
G36*
X-384413608Y-48513674D02*
G01*
X-384389947Y-48517184D01*
X-384366743Y-48522996D01*
X-384344221Y-48531054D01*
X-384322597Y-48541282D01*
X-384302080Y-48553579D01*
X-384282867Y-48567829D01*
X-384265143Y-48583893D01*
X-384249079Y-48601617D01*
X-384234829Y-48620830D01*
X-384222532Y-48641347D01*
X-384212304Y-48662971D01*
X-384204246Y-48685493D01*
X-384198434Y-48708697D01*
X-384194924Y-48732358D01*
X-384193750Y-48756250D01*
X-384193750Y-49668750D01*
X-384194924Y-49692642D01*
X-384198434Y-49716303D01*
X-384204246Y-49739507D01*
X-384212304Y-49762029D01*
X-384222532Y-49783653D01*
X-384234829Y-49804170D01*
X-384249079Y-49823383D01*
X-384265143Y-49841107D01*
X-384282867Y-49857171D01*
X-384302080Y-49871421D01*
X-384322597Y-49883718D01*
X-384344221Y-49893946D01*
X-384366743Y-49902004D01*
X-384389947Y-49907816D01*
X-384413608Y-49911326D01*
X-384437500Y-49912500D01*
X-384925000Y-49912500D01*
X-384948892Y-49911326D01*
X-384972553Y-49907816D01*
X-384995757Y-49902004D01*
X-385018279Y-49893946D01*
X-385039903Y-49883718D01*
X-385060420Y-49871421D01*
X-385079633Y-49857171D01*
X-385097357Y-49841107D01*
X-385113421Y-49823383D01*
X-385127671Y-49804170D01*
X-385139968Y-49783653D01*
X-385150196Y-49762029D01*
X-385158254Y-49739507D01*
X-385164066Y-49716303D01*
X-385167576Y-49692642D01*
X-385168750Y-49668750D01*
X-385168750Y-48756250D01*
X-385167576Y-48732358D01*
X-385164066Y-48708697D01*
X-385158254Y-48685493D01*
X-385150196Y-48662971D01*
X-385139968Y-48641347D01*
X-385127671Y-48620830D01*
X-385113421Y-48601617D01*
X-385097357Y-48583893D01*
X-385079633Y-48567829D01*
X-385060420Y-48553579D01*
X-385039903Y-48541282D01*
X-385018279Y-48531054D01*
X-384995757Y-48522996D01*
X-384972553Y-48517184D01*
X-384948892Y-48513674D01*
X-384925000Y-48512500D01*
X-384437500Y-48512500D01*
X-384413608Y-48513674D01*
G37*
G04 #@! TD.AperFunction*
G04 #@! TA.AperFunction,SMDPad,CuDef*
G36*
X-377725858Y-32944674D02*
G01*
X-377702197Y-32948184D01*
X-377678993Y-32953996D01*
X-377656471Y-32962054D01*
X-377634847Y-32972282D01*
X-377614330Y-32984579D01*
X-377595117Y-32998829D01*
X-377577393Y-33014893D01*
X-377561329Y-33032617D01*
X-377547079Y-33051830D01*
X-377534782Y-33072347D01*
X-377524554Y-33093971D01*
X-377516496Y-33116493D01*
X-377510684Y-33139697D01*
X-377507174Y-33163358D01*
X-377506000Y-33187250D01*
X-377506000Y-33674750D01*
X-377507174Y-33698642D01*
X-377510684Y-33722303D01*
X-377516496Y-33745507D01*
X-377524554Y-33768029D01*
X-377534782Y-33789653D01*
X-377547079Y-33810170D01*
X-377561329Y-33829383D01*
X-377577393Y-33847107D01*
X-377595117Y-33863171D01*
X-377614330Y-33877421D01*
X-377634847Y-33889718D01*
X-377656471Y-33899946D01*
X-377678993Y-33908004D01*
X-377702197Y-33913816D01*
X-377725858Y-33917326D01*
X-377749750Y-33918500D01*
X-378662250Y-33918500D01*
X-378686142Y-33917326D01*
X-378709803Y-33913816D01*
X-378733007Y-33908004D01*
X-378755529Y-33899946D01*
X-378777153Y-33889718D01*
X-378797670Y-33877421D01*
X-378816883Y-33863171D01*
X-378834607Y-33847107D01*
X-378850671Y-33829383D01*
X-378864921Y-33810170D01*
X-378877218Y-33789653D01*
X-378887446Y-33768029D01*
X-378895504Y-33745507D01*
X-378901316Y-33722303D01*
X-378904826Y-33698642D01*
X-378906000Y-33674750D01*
X-378906000Y-33187250D01*
X-378904826Y-33163358D01*
X-378901316Y-33139697D01*
X-378895504Y-33116493D01*
X-378887446Y-33093971D01*
X-378877218Y-33072347D01*
X-378864921Y-33051830D01*
X-378850671Y-33032617D01*
X-378834607Y-33014893D01*
X-378816883Y-32998829D01*
X-378797670Y-32984579D01*
X-378777153Y-32972282D01*
X-378755529Y-32962054D01*
X-378733007Y-32953996D01*
X-378709803Y-32948184D01*
X-378686142Y-32944674D01*
X-378662250Y-32943500D01*
X-377749750Y-32943500D01*
X-377725858Y-32944674D01*
G37*
G04 #@! TD.AperFunction*
G04 #@! TA.AperFunction,SMDPad,CuDef*
G36*
X-377725858Y-34819674D02*
G01*
X-377702197Y-34823184D01*
X-377678993Y-34828996D01*
X-377656471Y-34837054D01*
X-377634847Y-34847282D01*
X-377614330Y-34859579D01*
X-377595117Y-34873829D01*
X-377577393Y-34889893D01*
X-377561329Y-34907617D01*
X-377547079Y-34926830D01*
X-377534782Y-34947347D01*
X-377524554Y-34968971D01*
X-377516496Y-34991493D01*
X-377510684Y-35014697D01*
X-377507174Y-35038358D01*
X-377506000Y-35062250D01*
X-377506000Y-35549750D01*
X-377507174Y-35573642D01*
X-377510684Y-35597303D01*
X-377516496Y-35620507D01*
X-377524554Y-35643029D01*
X-377534782Y-35664653D01*
X-377547079Y-35685170D01*
X-377561329Y-35704383D01*
X-377577393Y-35722107D01*
X-377595117Y-35738171D01*
X-377614330Y-35752421D01*
X-377634847Y-35764718D01*
X-377656471Y-35774946D01*
X-377678993Y-35783004D01*
X-377702197Y-35788816D01*
X-377725858Y-35792326D01*
X-377749750Y-35793500D01*
X-378662250Y-35793500D01*
X-378686142Y-35792326D01*
X-378709803Y-35788816D01*
X-378733007Y-35783004D01*
X-378755529Y-35774946D01*
X-378777153Y-35764718D01*
X-378797670Y-35752421D01*
X-378816883Y-35738171D01*
X-378834607Y-35722107D01*
X-378850671Y-35704383D01*
X-378864921Y-35685170D01*
X-378877218Y-35664653D01*
X-378887446Y-35643029D01*
X-378895504Y-35620507D01*
X-378901316Y-35597303D01*
X-378904826Y-35573642D01*
X-378906000Y-35549750D01*
X-378906000Y-35062250D01*
X-378904826Y-35038358D01*
X-378901316Y-35014697D01*
X-378895504Y-34991493D01*
X-378887446Y-34968971D01*
X-378877218Y-34947347D01*
X-378864921Y-34926830D01*
X-378850671Y-34907617D01*
X-378834607Y-34889893D01*
X-378816883Y-34873829D01*
X-378797670Y-34859579D01*
X-378777153Y-34847282D01*
X-378755529Y-34837054D01*
X-378733007Y-34828996D01*
X-378709803Y-34823184D01*
X-378686142Y-34819674D01*
X-378662250Y-34818500D01*
X-377749750Y-34818500D01*
X-377725858Y-34819674D01*
G37*
G04 #@! TD.AperFunction*
G04 #@! TA.AperFunction,SMDPad,CuDef*
G36*
X-368581858Y-34819674D02*
G01*
X-368558197Y-34823184D01*
X-368534993Y-34828996D01*
X-368512471Y-34837054D01*
X-368490847Y-34847282D01*
X-368470330Y-34859579D01*
X-368451117Y-34873829D01*
X-368433393Y-34889893D01*
X-368417329Y-34907617D01*
X-368403079Y-34926830D01*
X-368390782Y-34947347D01*
X-368380554Y-34968971D01*
X-368372496Y-34991493D01*
X-368366684Y-35014697D01*
X-368363174Y-35038358D01*
X-368362000Y-35062250D01*
X-368362000Y-35549750D01*
X-368363174Y-35573642D01*
X-368366684Y-35597303D01*
X-368372496Y-35620507D01*
X-368380554Y-35643029D01*
X-368390782Y-35664653D01*
X-368403079Y-35685170D01*
X-368417329Y-35704383D01*
X-368433393Y-35722107D01*
X-368451117Y-35738171D01*
X-368470330Y-35752421D01*
X-368490847Y-35764718D01*
X-368512471Y-35774946D01*
X-368534993Y-35783004D01*
X-368558197Y-35788816D01*
X-368581858Y-35792326D01*
X-368605750Y-35793500D01*
X-369518250Y-35793500D01*
X-369542142Y-35792326D01*
X-369565803Y-35788816D01*
X-369589007Y-35783004D01*
X-369611529Y-35774946D01*
X-369633153Y-35764718D01*
X-369653670Y-35752421D01*
X-369672883Y-35738171D01*
X-369690607Y-35722107D01*
X-369706671Y-35704383D01*
X-369720921Y-35685170D01*
X-369733218Y-35664653D01*
X-369743446Y-35643029D01*
X-369751504Y-35620507D01*
X-369757316Y-35597303D01*
X-369760826Y-35573642D01*
X-369762000Y-35549750D01*
X-369762000Y-35062250D01*
X-369760826Y-35038358D01*
X-369757316Y-35014697D01*
X-369751504Y-34991493D01*
X-369743446Y-34968971D01*
X-369733218Y-34947347D01*
X-369720921Y-34926830D01*
X-369706671Y-34907617D01*
X-369690607Y-34889893D01*
X-369672883Y-34873829D01*
X-369653670Y-34859579D01*
X-369633153Y-34847282D01*
X-369611529Y-34837054D01*
X-369589007Y-34828996D01*
X-369565803Y-34823184D01*
X-369542142Y-34819674D01*
X-369518250Y-34818500D01*
X-368605750Y-34818500D01*
X-368581858Y-34819674D01*
G37*
G04 #@! TD.AperFunction*
G04 #@! TA.AperFunction,SMDPad,CuDef*
G36*
X-368581858Y-32944674D02*
G01*
X-368558197Y-32948184D01*
X-368534993Y-32953996D01*
X-368512471Y-32962054D01*
X-368490847Y-32972282D01*
X-368470330Y-32984579D01*
X-368451117Y-32998829D01*
X-368433393Y-33014893D01*
X-368417329Y-33032617D01*
X-368403079Y-33051830D01*
X-368390782Y-33072347D01*
X-368380554Y-33093971D01*
X-368372496Y-33116493D01*
X-368366684Y-33139697D01*
X-368363174Y-33163358D01*
X-368362000Y-33187250D01*
X-368362000Y-33674750D01*
X-368363174Y-33698642D01*
X-368366684Y-33722303D01*
X-368372496Y-33745507D01*
X-368380554Y-33768029D01*
X-368390782Y-33789653D01*
X-368403079Y-33810170D01*
X-368417329Y-33829383D01*
X-368433393Y-33847107D01*
X-368451117Y-33863171D01*
X-368470330Y-33877421D01*
X-368490847Y-33889718D01*
X-368512471Y-33899946D01*
X-368534993Y-33908004D01*
X-368558197Y-33913816D01*
X-368581858Y-33917326D01*
X-368605750Y-33918500D01*
X-369518250Y-33918500D01*
X-369542142Y-33917326D01*
X-369565803Y-33913816D01*
X-369589007Y-33908004D01*
X-369611529Y-33899946D01*
X-369633153Y-33889718D01*
X-369653670Y-33877421D01*
X-369672883Y-33863171D01*
X-369690607Y-33847107D01*
X-369706671Y-33829383D01*
X-369720921Y-33810170D01*
X-369733218Y-33789653D01*
X-369743446Y-33768029D01*
X-369751504Y-33745507D01*
X-369757316Y-33722303D01*
X-369760826Y-33698642D01*
X-369762000Y-33674750D01*
X-369762000Y-33187250D01*
X-369760826Y-33163358D01*
X-369757316Y-33139697D01*
X-369751504Y-33116493D01*
X-369743446Y-33093971D01*
X-369733218Y-33072347D01*
X-369720921Y-33051830D01*
X-369706671Y-33032617D01*
X-369690607Y-33014893D01*
X-369672883Y-32998829D01*
X-369653670Y-32984579D01*
X-369633153Y-32972282D01*
X-369611529Y-32962054D01*
X-369589007Y-32953996D01*
X-369565803Y-32948184D01*
X-369542142Y-32944674D01*
X-369518250Y-32943500D01*
X-368605750Y-32943500D01*
X-368581858Y-32944674D01*
G37*
G04 #@! TD.AperFunction*
G04 #@! TA.AperFunction,SMDPad,CuDef*
G36*
X-364009858Y-43612674D02*
G01*
X-363986197Y-43616184D01*
X-363962993Y-43621996D01*
X-363940471Y-43630054D01*
X-363918847Y-43640282D01*
X-363898330Y-43652579D01*
X-363879117Y-43666829D01*
X-363861393Y-43682893D01*
X-363845329Y-43700617D01*
X-363831079Y-43719830D01*
X-363818782Y-43740347D01*
X-363808554Y-43761971D01*
X-363800496Y-43784493D01*
X-363794684Y-43807697D01*
X-363791174Y-43831358D01*
X-363790000Y-43855250D01*
X-363790000Y-44342750D01*
X-363791174Y-44366642D01*
X-363794684Y-44390303D01*
X-363800496Y-44413507D01*
X-363808554Y-44436029D01*
X-363818782Y-44457653D01*
X-363831079Y-44478170D01*
X-363845329Y-44497383D01*
X-363861393Y-44515107D01*
X-363879117Y-44531171D01*
X-363898330Y-44545421D01*
X-363918847Y-44557718D01*
X-363940471Y-44567946D01*
X-363962993Y-44576004D01*
X-363986197Y-44581816D01*
X-364009858Y-44585326D01*
X-364033750Y-44586500D01*
X-364946250Y-44586500D01*
X-364970142Y-44585326D01*
X-364993803Y-44581816D01*
X-365017007Y-44576004D01*
X-365039529Y-44567946D01*
X-365061153Y-44557718D01*
X-365081670Y-44545421D01*
X-365100883Y-44531171D01*
X-365118607Y-44515107D01*
X-365134671Y-44497383D01*
X-365148921Y-44478170D01*
X-365161218Y-44457653D01*
X-365171446Y-44436029D01*
X-365179504Y-44413507D01*
X-365185316Y-44390303D01*
X-365188826Y-44366642D01*
X-365190000Y-44342750D01*
X-365190000Y-43855250D01*
X-365188826Y-43831358D01*
X-365185316Y-43807697D01*
X-365179504Y-43784493D01*
X-365171446Y-43761971D01*
X-365161218Y-43740347D01*
X-365148921Y-43719830D01*
X-365134671Y-43700617D01*
X-365118607Y-43682893D01*
X-365100883Y-43666829D01*
X-365081670Y-43652579D01*
X-365061153Y-43640282D01*
X-365039529Y-43630054D01*
X-365017007Y-43621996D01*
X-364993803Y-43616184D01*
X-364970142Y-43612674D01*
X-364946250Y-43611500D01*
X-364033750Y-43611500D01*
X-364009858Y-43612674D01*
G37*
G04 #@! TD.AperFunction*
G04 #@! TA.AperFunction,SMDPad,CuDef*
G36*
X-364009858Y-45487674D02*
G01*
X-363986197Y-45491184D01*
X-363962993Y-45496996D01*
X-363940471Y-45505054D01*
X-363918847Y-45515282D01*
X-363898330Y-45527579D01*
X-363879117Y-45541829D01*
X-363861393Y-45557893D01*
X-363845329Y-45575617D01*
X-363831079Y-45594830D01*
X-363818782Y-45615347D01*
X-363808554Y-45636971D01*
X-363800496Y-45659493D01*
X-363794684Y-45682697D01*
X-363791174Y-45706358D01*
X-363790000Y-45730250D01*
X-363790000Y-46217750D01*
X-363791174Y-46241642D01*
X-363794684Y-46265303D01*
X-363800496Y-46288507D01*
X-363808554Y-46311029D01*
X-363818782Y-46332653D01*
X-363831079Y-46353170D01*
X-363845329Y-46372383D01*
X-363861393Y-46390107D01*
X-363879117Y-46406171D01*
X-363898330Y-46420421D01*
X-363918847Y-46432718D01*
X-363940471Y-46442946D01*
X-363962993Y-46451004D01*
X-363986197Y-46456816D01*
X-364009858Y-46460326D01*
X-364033750Y-46461500D01*
X-364946250Y-46461500D01*
X-364970142Y-46460326D01*
X-364993803Y-46456816D01*
X-365017007Y-46451004D01*
X-365039529Y-46442946D01*
X-365061153Y-46432718D01*
X-365081670Y-46420421D01*
X-365100883Y-46406171D01*
X-365118607Y-46390107D01*
X-365134671Y-46372383D01*
X-365148921Y-46353170D01*
X-365161218Y-46332653D01*
X-365171446Y-46311029D01*
X-365179504Y-46288507D01*
X-365185316Y-46265303D01*
X-365188826Y-46241642D01*
X-365190000Y-46217750D01*
X-365190000Y-45730250D01*
X-365188826Y-45706358D01*
X-365185316Y-45682697D01*
X-365179504Y-45659493D01*
X-365171446Y-45636971D01*
X-365161218Y-45615347D01*
X-365148921Y-45594830D01*
X-365134671Y-45575617D01*
X-365118607Y-45557893D01*
X-365100883Y-45541829D01*
X-365081670Y-45527579D01*
X-365061153Y-45515282D01*
X-365039529Y-45505054D01*
X-365017007Y-45496996D01*
X-364993803Y-45491184D01*
X-364970142Y-45487674D01*
X-364946250Y-45486500D01*
X-364033750Y-45486500D01*
X-364009858Y-45487674D01*
G37*
G04 #@! TD.AperFunction*
G04 #@! TA.AperFunction,SMDPad,CuDef*
G36*
X-369907358Y-59626174D02*
G01*
X-369883697Y-59629684D01*
X-369860493Y-59635496D01*
X-369837971Y-59643554D01*
X-369816347Y-59653782D01*
X-369795830Y-59666079D01*
X-369776617Y-59680329D01*
X-369758893Y-59696393D01*
X-369742829Y-59714117D01*
X-369728579Y-59733330D01*
X-369716282Y-59753847D01*
X-369706054Y-59775471D01*
X-369697996Y-59797993D01*
X-369692184Y-59821197D01*
X-369688674Y-59844858D01*
X-369687500Y-59868750D01*
X-369687500Y-60781250D01*
X-369688674Y-60805142D01*
X-369692184Y-60828803D01*
X-369697996Y-60852007D01*
X-369706054Y-60874529D01*
X-369716282Y-60896153D01*
X-369728579Y-60916670D01*
X-369742829Y-60935883D01*
X-369758893Y-60953607D01*
X-369776617Y-60969671D01*
X-369795830Y-60983921D01*
X-369816347Y-60996218D01*
X-369837971Y-61006446D01*
X-369860493Y-61014504D01*
X-369883697Y-61020316D01*
X-369907358Y-61023826D01*
X-369931250Y-61025000D01*
X-370418750Y-61025000D01*
X-370442642Y-61023826D01*
X-370466303Y-61020316D01*
X-370489507Y-61014504D01*
X-370512029Y-61006446D01*
X-370533653Y-60996218D01*
X-370554170Y-60983921D01*
X-370573383Y-60969671D01*
X-370591107Y-60953607D01*
X-370607171Y-60935883D01*
X-370621421Y-60916670D01*
X-370633718Y-60896153D01*
X-370643946Y-60874529D01*
X-370652004Y-60852007D01*
X-370657816Y-60828803D01*
X-370661326Y-60805142D01*
X-370662500Y-60781250D01*
X-370662500Y-59868750D01*
X-370661326Y-59844858D01*
X-370657816Y-59821197D01*
X-370652004Y-59797993D01*
X-370643946Y-59775471D01*
X-370633718Y-59753847D01*
X-370621421Y-59733330D01*
X-370607171Y-59714117D01*
X-370591107Y-59696393D01*
X-370573383Y-59680329D01*
X-370554170Y-59666079D01*
X-370533653Y-59653782D01*
X-370512029Y-59643554D01*
X-370489507Y-59635496D01*
X-370466303Y-59629684D01*
X-370442642Y-59626174D01*
X-370418750Y-59625000D01*
X-369931250Y-59625000D01*
X-369907358Y-59626174D01*
G37*
G04 #@! TD.AperFunction*
G04 #@! TA.AperFunction,SMDPad,CuDef*
G36*
X-368032358Y-59626174D02*
G01*
X-368008697Y-59629684D01*
X-367985493Y-59635496D01*
X-367962971Y-59643554D01*
X-367941347Y-59653782D01*
X-367920830Y-59666079D01*
X-367901617Y-59680329D01*
X-367883893Y-59696393D01*
X-367867829Y-59714117D01*
X-367853579Y-59733330D01*
X-367841282Y-59753847D01*
X-367831054Y-59775471D01*
X-367822996Y-59797993D01*
X-367817184Y-59821197D01*
X-367813674Y-59844858D01*
X-367812500Y-59868750D01*
X-367812500Y-60781250D01*
X-367813674Y-60805142D01*
X-367817184Y-60828803D01*
X-367822996Y-60852007D01*
X-367831054Y-60874529D01*
X-367841282Y-60896153D01*
X-367853579Y-60916670D01*
X-367867829Y-60935883D01*
X-367883893Y-60953607D01*
X-367901617Y-60969671D01*
X-367920830Y-60983921D01*
X-367941347Y-60996218D01*
X-367962971Y-61006446D01*
X-367985493Y-61014504D01*
X-368008697Y-61020316D01*
X-368032358Y-61023826D01*
X-368056250Y-61025000D01*
X-368543750Y-61025000D01*
X-368567642Y-61023826D01*
X-368591303Y-61020316D01*
X-368614507Y-61014504D01*
X-368637029Y-61006446D01*
X-368658653Y-60996218D01*
X-368679170Y-60983921D01*
X-368698383Y-60969671D01*
X-368716107Y-60953607D01*
X-368732171Y-60935883D01*
X-368746421Y-60916670D01*
X-368758718Y-60896153D01*
X-368768946Y-60874529D01*
X-368777004Y-60852007D01*
X-368782816Y-60828803D01*
X-368786326Y-60805142D01*
X-368787500Y-60781250D01*
X-368787500Y-59868750D01*
X-368786326Y-59844858D01*
X-368782816Y-59821197D01*
X-368777004Y-59797993D01*
X-368768946Y-59775471D01*
X-368758718Y-59753847D01*
X-368746421Y-59733330D01*
X-368732171Y-59714117D01*
X-368716107Y-59696393D01*
X-368698383Y-59680329D01*
X-368679170Y-59666079D01*
X-368658653Y-59653782D01*
X-368637029Y-59643554D01*
X-368614507Y-59635496D01*
X-368591303Y-59629684D01*
X-368567642Y-59626174D01*
X-368543750Y-59625000D01*
X-368056250Y-59625000D01*
X-368032358Y-59626174D01*
G37*
G04 #@! TD.AperFunction*
G04 #@! TA.AperFunction,SMDPad,CuDef*
G36*
X-382551858Y-40232174D02*
G01*
X-382528197Y-40235684D01*
X-382504993Y-40241496D01*
X-382482471Y-40249554D01*
X-382460847Y-40259782D01*
X-382440330Y-40272079D01*
X-382421117Y-40286329D01*
X-382403393Y-40302393D01*
X-382387329Y-40320117D01*
X-382373079Y-40339330D01*
X-382360782Y-40359847D01*
X-382350554Y-40381471D01*
X-382342496Y-40403993D01*
X-382336684Y-40427197D01*
X-382333174Y-40450858D01*
X-382332000Y-40474750D01*
X-382332000Y-40962250D01*
X-382333174Y-40986142D01*
X-382336684Y-41009803D01*
X-382342496Y-41033007D01*
X-382350554Y-41055529D01*
X-382360782Y-41077153D01*
X-382373079Y-41097670D01*
X-382387329Y-41116883D01*
X-382403393Y-41134607D01*
X-382421117Y-41150671D01*
X-382440330Y-41164921D01*
X-382460847Y-41177218D01*
X-382482471Y-41187446D01*
X-382504993Y-41195504D01*
X-382528197Y-41201316D01*
X-382551858Y-41204826D01*
X-382575750Y-41206000D01*
X-383488250Y-41206000D01*
X-383512142Y-41204826D01*
X-383535803Y-41201316D01*
X-383559007Y-41195504D01*
X-383581529Y-41187446D01*
X-383603153Y-41177218D01*
X-383623670Y-41164921D01*
X-383642883Y-41150671D01*
X-383660607Y-41134607D01*
X-383676671Y-41116883D01*
X-383690921Y-41097670D01*
X-383703218Y-41077153D01*
X-383713446Y-41055529D01*
X-383721504Y-41033007D01*
X-383727316Y-41009803D01*
X-383730826Y-40986142D01*
X-383732000Y-40962250D01*
X-383732000Y-40474750D01*
X-383730826Y-40450858D01*
X-383727316Y-40427197D01*
X-383721504Y-40403993D01*
X-383713446Y-40381471D01*
X-383703218Y-40359847D01*
X-383690921Y-40339330D01*
X-383676671Y-40320117D01*
X-383660607Y-40302393D01*
X-383642883Y-40286329D01*
X-383623670Y-40272079D01*
X-383603153Y-40259782D01*
X-383581529Y-40249554D01*
X-383559007Y-40241496D01*
X-383535803Y-40235684D01*
X-383512142Y-40232174D01*
X-383488250Y-40231000D01*
X-382575750Y-40231000D01*
X-382551858Y-40232174D01*
G37*
G04 #@! TD.AperFunction*
G04 #@! TA.AperFunction,SMDPad,CuDef*
G36*
X-382551858Y-42107174D02*
G01*
X-382528197Y-42110684D01*
X-382504993Y-42116496D01*
X-382482471Y-42124554D01*
X-382460847Y-42134782D01*
X-382440330Y-42147079D01*
X-382421117Y-42161329D01*
X-382403393Y-42177393D01*
X-382387329Y-42195117D01*
X-382373079Y-42214330D01*
X-382360782Y-42234847D01*
X-382350554Y-42256471D01*
X-382342496Y-42278993D01*
X-382336684Y-42302197D01*
X-382333174Y-42325858D01*
X-382332000Y-42349750D01*
X-382332000Y-42837250D01*
X-382333174Y-42861142D01*
X-382336684Y-42884803D01*
X-382342496Y-42908007D01*
X-382350554Y-42930529D01*
X-382360782Y-42952153D01*
X-382373079Y-42972670D01*
X-382387329Y-42991883D01*
X-382403393Y-43009607D01*
X-382421117Y-43025671D01*
X-382440330Y-43039921D01*
X-382460847Y-43052218D01*
X-382482471Y-43062446D01*
X-382504993Y-43070504D01*
X-382528197Y-43076316D01*
X-382551858Y-43079826D01*
X-382575750Y-43081000D01*
X-383488250Y-43081000D01*
X-383512142Y-43079826D01*
X-383535803Y-43076316D01*
X-383559007Y-43070504D01*
X-383581529Y-43062446D01*
X-383603153Y-43052218D01*
X-383623670Y-43039921D01*
X-383642883Y-43025671D01*
X-383660607Y-43009607D01*
X-383676671Y-42991883D01*
X-383690921Y-42972670D01*
X-383703218Y-42952153D01*
X-383713446Y-42930529D01*
X-383721504Y-42908007D01*
X-383727316Y-42884803D01*
X-383730826Y-42861142D01*
X-383732000Y-42837250D01*
X-383732000Y-42349750D01*
X-383730826Y-42325858D01*
X-383727316Y-42302197D01*
X-383721504Y-42278993D01*
X-383713446Y-42256471D01*
X-383703218Y-42234847D01*
X-383690921Y-42214330D01*
X-383676671Y-42195117D01*
X-383660607Y-42177393D01*
X-383642883Y-42161329D01*
X-383623670Y-42147079D01*
X-383603153Y-42134782D01*
X-383581529Y-42124554D01*
X-383559007Y-42116496D01*
X-383535803Y-42110684D01*
X-383512142Y-42107174D01*
X-383488250Y-42106000D01*
X-382575750Y-42106000D01*
X-382551858Y-42107174D01*
G37*
G04 #@! TD.AperFunction*
G04 #@! TA.AperFunction,SMDPad,CuDef*
G36*
X-376763608Y-59626174D02*
G01*
X-376739947Y-59629684D01*
X-376716743Y-59635496D01*
X-376694221Y-59643554D01*
X-376672597Y-59653782D01*
X-376652080Y-59666079D01*
X-376632867Y-59680329D01*
X-376615143Y-59696393D01*
X-376599079Y-59714117D01*
X-376584829Y-59733330D01*
X-376572532Y-59753847D01*
X-376562304Y-59775471D01*
X-376554246Y-59797993D01*
X-376548434Y-59821197D01*
X-376544924Y-59844858D01*
X-376543750Y-59868750D01*
X-376543750Y-60781250D01*
X-376544924Y-60805142D01*
X-376548434Y-60828803D01*
X-376554246Y-60852007D01*
X-376562304Y-60874529D01*
X-376572532Y-60896153D01*
X-376584829Y-60916670D01*
X-376599079Y-60935883D01*
X-376615143Y-60953607D01*
X-376632867Y-60969671D01*
X-376652080Y-60983921D01*
X-376672597Y-60996218D01*
X-376694221Y-61006446D01*
X-376716743Y-61014504D01*
X-376739947Y-61020316D01*
X-376763608Y-61023826D01*
X-376787500Y-61025000D01*
X-377275000Y-61025000D01*
X-377298892Y-61023826D01*
X-377322553Y-61020316D01*
X-377345757Y-61014504D01*
X-377368279Y-61006446D01*
X-377389903Y-60996218D01*
X-377410420Y-60983921D01*
X-377429633Y-60969671D01*
X-377447357Y-60953607D01*
X-377463421Y-60935883D01*
X-377477671Y-60916670D01*
X-377489968Y-60896153D01*
X-377500196Y-60874529D01*
X-377508254Y-60852007D01*
X-377514066Y-60828803D01*
X-377517576Y-60805142D01*
X-377518750Y-60781250D01*
X-377518750Y-59868750D01*
X-377517576Y-59844858D01*
X-377514066Y-59821197D01*
X-377508254Y-59797993D01*
X-377500196Y-59775471D01*
X-377489968Y-59753847D01*
X-377477671Y-59733330D01*
X-377463421Y-59714117D01*
X-377447357Y-59696393D01*
X-377429633Y-59680329D01*
X-377410420Y-59666079D01*
X-377389903Y-59653782D01*
X-377368279Y-59643554D01*
X-377345757Y-59635496D01*
X-377322553Y-59629684D01*
X-377298892Y-59626174D01*
X-377275000Y-59625000D01*
X-376787500Y-59625000D01*
X-376763608Y-59626174D01*
G37*
G04 #@! TD.AperFunction*
G04 #@! TA.AperFunction,SMDPad,CuDef*
G36*
X-378638608Y-59626174D02*
G01*
X-378614947Y-59629684D01*
X-378591743Y-59635496D01*
X-378569221Y-59643554D01*
X-378547597Y-59653782D01*
X-378527080Y-59666079D01*
X-378507867Y-59680329D01*
X-378490143Y-59696393D01*
X-378474079Y-59714117D01*
X-378459829Y-59733330D01*
X-378447532Y-59753847D01*
X-378437304Y-59775471D01*
X-378429246Y-59797993D01*
X-378423434Y-59821197D01*
X-378419924Y-59844858D01*
X-378418750Y-59868750D01*
X-378418750Y-60781250D01*
X-378419924Y-60805142D01*
X-378423434Y-60828803D01*
X-378429246Y-60852007D01*
X-378437304Y-60874529D01*
X-378447532Y-60896153D01*
X-378459829Y-60916670D01*
X-378474079Y-60935883D01*
X-378490143Y-60953607D01*
X-378507867Y-60969671D01*
X-378527080Y-60983921D01*
X-378547597Y-60996218D01*
X-378569221Y-61006446D01*
X-378591743Y-61014504D01*
X-378614947Y-61020316D01*
X-378638608Y-61023826D01*
X-378662500Y-61025000D01*
X-379150000Y-61025000D01*
X-379173892Y-61023826D01*
X-379197553Y-61020316D01*
X-379220757Y-61014504D01*
X-379243279Y-61006446D01*
X-379264903Y-60996218D01*
X-379285420Y-60983921D01*
X-379304633Y-60969671D01*
X-379322357Y-60953607D01*
X-379338421Y-60935883D01*
X-379352671Y-60916670D01*
X-379364968Y-60896153D01*
X-379375196Y-60874529D01*
X-379383254Y-60852007D01*
X-379389066Y-60828803D01*
X-379392576Y-60805142D01*
X-379393750Y-60781250D01*
X-379393750Y-59868750D01*
X-379392576Y-59844858D01*
X-379389066Y-59821197D01*
X-379383254Y-59797993D01*
X-379375196Y-59775471D01*
X-379364968Y-59753847D01*
X-379352671Y-59733330D01*
X-379338421Y-59714117D01*
X-379322357Y-59696393D01*
X-379304633Y-59680329D01*
X-379285420Y-59666079D01*
X-379264903Y-59653782D01*
X-379243279Y-59643554D01*
X-379220757Y-59635496D01*
X-379197553Y-59629684D01*
X-379173892Y-59626174D01*
X-379150000Y-59625000D01*
X-378662500Y-59625000D01*
X-378638608Y-59626174D01*
G37*
G04 #@! TD.AperFunction*
D20*
X-381762000Y-48768000D03*
X-384810000Y-39624000D03*
X-381762000Y-57912000D03*
X-381762000Y-53340000D03*
X-368808000Y-58166000D03*
X-366522000Y-60198000D03*
X-362458000Y-46228000D03*
X-388112000Y-42672000D03*
X-395478000Y-60960000D03*
D21*
X-378206000Y-35306000D02*
X-379730000Y-35306000D01*
X-379730000Y-35306000D02*
X-380492000Y-34544000D01*
X-380492000Y-34544000D02*
X-380492000Y-31750000D01*
X-380492000Y-31750000D02*
X-379730000Y-30988000D01*
X-379730000Y-30988000D02*
X-373380000Y-30988000D01*
X-372618000Y-31750000D02*
X-372618000Y-33606000D01*
X-373380000Y-30988000D02*
X-372618000Y-31750000D01*
X-378206000Y-35793500D02*
X-375456250Y-38543250D01*
X-378206000Y-35306000D02*
X-378206000Y-35793500D01*
X-369237000Y-33606000D02*
X-369062000Y-33431000D01*
X-372618000Y-33606000D02*
X-369237000Y-33606000D01*
X-374515098Y-35306000D02*
X-374818000Y-35306000D01*
X-372815098Y-33606000D02*
X-374515098Y-35306000D01*
X-372618000Y-33606000D02*
X-372815098Y-33606000D01*
X-375456250Y-43175250D02*
X-375456250Y-44306250D01*
X-377056250Y-60300000D02*
X-377031250Y-60325000D01*
X-377056250Y-55706250D02*
X-377056250Y-60300000D01*
X-370660527Y-59839473D02*
X-370175000Y-60325000D01*
X-370660527Y-56322027D02*
X-370660527Y-59839473D01*
X-370656250Y-56317750D02*
X-370660527Y-56322027D01*
X-370656250Y-55706250D02*
X-370656250Y-56317750D01*
X-370175000Y-60325000D02*
X-370175000Y-62387000D01*
X-370175000Y-62387000D02*
X-369062000Y-63500000D01*
X-369062000Y-63500000D02*
X-367284000Y-63500000D01*
X-364490000Y-60706000D02*
X-364490000Y-55880000D01*
X-367284000Y-63500000D02*
X-364490000Y-60706000D01*
X-377031250Y-60325000D02*
X-384016250Y-67310000D01*
X-403943750Y-66281000D02*
X-403943750Y-65350000D01*
X-402914750Y-67310000D02*
X-403943750Y-66281000D01*
X-384016250Y-67310000D02*
X-402914750Y-67310000D01*
X-393192000Y-49530000D02*
X-391915750Y-50806250D01*
X-393192000Y-39331096D02*
X-393192000Y-49530000D01*
X-386556250Y-50768250D02*
X-386588000Y-50800000D01*
X-391915750Y-50806250D02*
X-386588000Y-50800000D01*
X-386556250Y-49212500D02*
X-386556250Y-50768250D01*
X-386588000Y-50800000D02*
X-379556250Y-50806250D01*
X-382332000Y-40718500D02*
X-381648500Y-41402000D01*
X-383032000Y-40718500D02*
X-382332000Y-40718500D01*
X-381648500Y-41402000D02*
X-376174000Y-41402000D01*
X-375456250Y-38543250D02*
X-375412000Y-42164000D01*
X-376174000Y-41402000D02*
X-375412000Y-42164000D01*
X-375412000Y-42164000D02*
X-375456250Y-43175250D01*
X-366397250Y-46006250D02*
X-364490000Y-44099000D01*
X-368156250Y-46006250D02*
X-366397250Y-46006250D01*
X-370656250Y-54575250D02*
X-370656250Y-55706250D01*
X-375456250Y-49775250D02*
X-370656250Y-54575250D01*
X-369287250Y-46006250D02*
X-369319500Y-45974000D01*
X-375456250Y-44306250D02*
X-375412000Y-45974000D01*
X-369319500Y-45974000D02*
X-375412000Y-45974000D01*
X-368156250Y-46006250D02*
X-369287250Y-46006250D01*
X-379556250Y-50806250D02*
X-378425250Y-50806250D01*
X-378425250Y-50806250D02*
X-377403000Y-49784000D01*
X-375412000Y-45974000D02*
X-375412000Y-49784000D01*
X-375412000Y-49784000D02*
X-375456250Y-49775250D01*
X-377056250Y-49904250D02*
X-376936000Y-49784000D01*
X-377056250Y-55706250D02*
X-377056250Y-49904250D01*
X-377403000Y-49784000D02*
X-376936000Y-49784000D01*
X-376936000Y-49784000D02*
X-375412000Y-49784000D01*
X-396068750Y-37756000D02*
X-396068750Y-36250000D01*
X-395490202Y-38334548D02*
X-396068750Y-37756000D01*
X-394188548Y-38334548D02*
X-395490202Y-38334548D01*
X-394188548Y-38334548D02*
X-393192000Y-39331096D01*
X-377856250Y-59275000D02*
X-378906250Y-60325000D01*
X-377856250Y-55706250D02*
X-377856250Y-59275000D01*
X-369856250Y-58768750D02*
X-368300000Y-60325000D01*
X-369856250Y-55706250D02*
X-369856250Y-58768750D01*
X-403860000Y-50415000D02*
X-399034000Y-55241000D01*
X-403860000Y-49790000D02*
X-403860000Y-50415000D01*
X-399034000Y-55241000D02*
X-385949000Y-55241000D01*
X-380865000Y-60325000D02*
X-378906250Y-60325000D01*
X-384907000Y-40718500D02*
X-383032000Y-42593500D01*
X-376256250Y-43377209D02*
X-376256250Y-43516250D01*
X-377222969Y-42410490D02*
X-376256250Y-43377209D01*
X-382148990Y-42410490D02*
X-377222969Y-42410490D01*
X-383032000Y-42593500D02*
X-382332000Y-42593500D01*
X-376256250Y-43516250D02*
X-376256250Y-44306250D01*
X-382332000Y-42593500D02*
X-382148990Y-42410490D01*
X-376256250Y-43378348D02*
X-376256250Y-43516250D01*
X-365322250Y-46806250D02*
X-364490000Y-45974000D01*
X-368156250Y-46806250D02*
X-365322250Y-46806250D01*
X-379556250Y-49206250D02*
X-381323750Y-49206250D01*
X-381323750Y-49206250D02*
X-381762000Y-48768000D01*
X-385209999Y-40023999D02*
X-385209999Y-40531999D01*
X-386588000Y-40718500D02*
X-385318000Y-40640000D01*
X-385209999Y-40531999D02*
X-385318000Y-40640000D01*
X-384810000Y-39624000D02*
X-385209999Y-40023999D01*
X-385318000Y-40640000D02*
X-384907000Y-40718500D01*
X-381762000Y-57912000D02*
X-381762000Y-59436000D01*
X-385949000Y-55241000D02*
X-381762000Y-59436000D01*
X-381762000Y-59436000D02*
X-380865000Y-60325000D01*
X-381628250Y-53206250D02*
X-381762000Y-53340000D01*
X-379556250Y-53206250D02*
X-381628250Y-53206250D01*
X-368808000Y-59817000D02*
X-368300000Y-60325000D01*
X-368808000Y-58166000D02*
X-368808000Y-59817000D01*
X-368300000Y-60325000D02*
X-366649000Y-60325000D01*
X-366649000Y-60325000D02*
X-366522000Y-60198000D01*
X-364236000Y-46228000D02*
X-364490000Y-45974000D01*
X-362458000Y-46228000D02*
X-364236000Y-46228000D01*
D22*
X-372618000Y-35306000D02*
X-372618000Y-37084000D01*
X-372618000Y-37084000D02*
X-373888000Y-38354000D01*
X-373856250Y-38385750D02*
X-373856250Y-44306250D01*
X-373888000Y-38354000D02*
X-373856250Y-38385750D01*
X-372618000Y-35306000D02*
X-369062000Y-35306000D01*
X-376452000Y-34290000D02*
X-376452000Y-36552000D01*
X-374656250Y-38347750D02*
X-374656250Y-44306250D01*
X-376452000Y-36552000D02*
X-374656250Y-38347750D01*
X-374818000Y-33606000D02*
X-375768000Y-33606000D01*
X-375768000Y-33606000D02*
X-376452000Y-34290000D01*
X-374993000Y-33431000D02*
X-374818000Y-33606000D01*
X-378206000Y-33431000D02*
X-374993000Y-33431000D01*
X-383887500Y-50006250D02*
X-379556250Y-50006250D01*
X-384681250Y-49212500D02*
X-383887500Y-50006250D01*
X-349131250Y-35187500D02*
X-344305500Y-35187500D01*
X-342900000Y-36593000D02*
X-342900000Y-37975000D01*
X-344305500Y-35187500D02*
X-342900000Y-36593000D01*
X-323850000Y-41975000D02*
X-323850000Y-41275000D01*
X-324293000Y-42418000D02*
X-323850000Y-41975000D01*
X-342050000Y-41275000D02*
X-340907000Y-42418000D01*
X-340907000Y-42418000D02*
X-324293000Y-42418000D01*
X-342900000Y-41275000D02*
X-342050000Y-41275000D01*
X-342900000Y-41975000D02*
X-342900000Y-41275000D01*
X-350131250Y-49206250D02*
X-342900000Y-41975000D01*
X-368156250Y-49206250D02*
X-350131250Y-49206250D01*
X-349131250Y-54237500D02*
X-343797500Y-54237500D01*
X-342900000Y-55135000D02*
X-342900000Y-57087500D01*
X-343797500Y-54237500D02*
X-342900000Y-55135000D01*
X-342900000Y-61087500D02*
X-341249500Y-62738000D01*
X-323850000Y-61087500D02*
X-323850000Y-60387500D01*
X-325500500Y-62738000D02*
X-323850000Y-61087500D01*
X-341249500Y-62738000D02*
X-325500500Y-62738000D01*
X-368156250Y-51606250D02*
X-362502250Y-51606250D01*
X-362502250Y-51606250D02*
X-359664000Y-54444500D01*
X-359664000Y-54444500D02*
X-359664000Y-60706000D01*
X-359664000Y-60706000D02*
X-357378000Y-62992000D01*
X-342900000Y-61087500D02*
X-342900000Y-60387500D01*
X-344804500Y-62992000D02*
X-342900000Y-61087500D01*
X-357378000Y-62992000D02*
X-344804500Y-62992000D01*
X-330081250Y-35187500D02*
X-324493500Y-35187500D01*
X-323850000Y-35831000D02*
X-323850000Y-37975000D01*
X-324493500Y-35187500D02*
X-323850000Y-35831000D01*
X-330081250Y-54237500D02*
X-324984500Y-54237500D01*
X-323850000Y-55372000D02*
X-323850000Y-57087500D01*
X-324984500Y-54237500D02*
X-323850000Y-55372000D01*
X-403860000Y-42216250D02*
X-403860000Y-46365000D01*
X-399268750Y-37625000D02*
X-403860000Y-42216250D01*
X-403860000Y-46365000D02*
X-403860000Y-46990000D01*
X-399268750Y-36250000D02*
X-399268750Y-37625000D01*
X-360832500Y-50806250D02*
X-355441250Y-56197500D01*
X-368156250Y-50806250D02*
X-360832500Y-50806250D01*
X-339812500Y-50006250D02*
X-335081250Y-54737500D01*
X-368156250Y-50006250D02*
X-339812500Y-50006250D01*
X-398468750Y-39391250D02*
X-398468750Y-36250000D01*
X-400050000Y-40972500D02*
X-398468750Y-39391250D01*
X-399350000Y-42847500D02*
X-398018000Y-44179500D01*
X-400050000Y-42847500D02*
X-399350000Y-42847500D01*
X-398018000Y-44179500D02*
X-398018000Y-48514000D01*
X-398018000Y-48514000D02*
X-397764000Y-48514000D01*
X-393871750Y-52406250D02*
X-379556250Y-52406250D01*
X-397764000Y-48514000D02*
X-393871750Y-52406250D01*
X-397668750Y-39211250D02*
X-397668750Y-36250000D01*
X-394970000Y-40972500D02*
X-395907500Y-40972500D01*
X-395907500Y-40972500D02*
X-397668750Y-39211250D01*
X-393655750Y-51606250D02*
X-379556250Y-51606250D01*
X-397018500Y-48243500D02*
X-393655750Y-51606250D01*
X-397018500Y-44196000D02*
X-397018500Y-48243500D01*
X-394970000Y-42847500D02*
X-395670000Y-42847500D01*
X-395670000Y-42847500D02*
X-397018500Y-44196000D01*
X-385888000Y-42593500D02*
X-384302000Y-44179500D01*
X-386588000Y-42593500D02*
X-385888000Y-42593500D01*
X-384302000Y-44179500D02*
X-380508500Y-44179500D01*
X-380508500Y-44179500D02*
X-379255000Y-42926000D01*
X-377056250Y-43306250D02*
X-377056250Y-44306250D01*
X-377436500Y-42926000D02*
X-377056250Y-43306250D01*
X-379255000Y-42926000D02*
X-377436500Y-42926000D01*
X-386588000Y-42593500D02*
X-388033500Y-42593500D01*
X-388033500Y-42593500D02*
X-388112000Y-42672000D01*
X-396168000Y-61650000D02*
X-397743750Y-61650000D01*
X-395478000Y-60960000D02*
X-396168000Y-61650000D01*
X-368155000Y-54005000D02*
X-368156250Y-54006250D01*
X-364490000Y-54005000D02*
X-368155000Y-54005000D01*
D23*
G36*
X-402782263Y-30958889D02*
G01*
X-402803750Y-31177050D01*
X-402803750Y-32322949D01*
X-402782263Y-32541110D01*
X-402697349Y-32821033D01*
X-402559456Y-33079013D01*
X-402373884Y-33305134D01*
X-402147764Y-33490706D01*
X-401889784Y-33628599D01*
X-401609861Y-33713513D01*
X-401318750Y-33742185D01*
X-401027640Y-33713513D01*
X-400747717Y-33628599D01*
X-400489737Y-33490706D01*
X-400263616Y-33305134D01*
X-400078044Y-33079014D01*
X-399940151Y-32821034D01*
X-399855237Y-32541111D01*
X-399833750Y-32322950D01*
X-399833750Y-31177050D01*
X-399855237Y-30958889D01*
X-399896610Y-30822500D01*
X-395440890Y-30822500D01*
X-395482263Y-30958889D01*
X-395503750Y-31177050D01*
X-395503750Y-32322949D01*
X-395482263Y-32541110D01*
X-395397349Y-32821033D01*
X-395259456Y-33079013D01*
X-395073884Y-33305134D01*
X-394847764Y-33490706D01*
X-394589784Y-33628599D01*
X-394309861Y-33713513D01*
X-394018750Y-33742185D01*
X-393727640Y-33713513D01*
X-393447717Y-33628599D01*
X-393189737Y-33490706D01*
X-392963616Y-33305134D01*
X-392778044Y-33079014D01*
X-392640151Y-32821034D01*
X-392555237Y-32541111D01*
X-392533750Y-32322950D01*
X-392533750Y-31177050D01*
X-392555237Y-30958889D01*
X-392596610Y-30822500D01*
X-361315000Y-30822500D01*
X-361315000Y-48446250D01*
X-366768178Y-48446250D01*
X-366768178Y-48131250D01*
X-366780438Y-48006768D01*
X-366780595Y-48006250D01*
X-366780438Y-48005732D01*
X-366768178Y-47881250D01*
X-366768178Y-47631750D01*
X-365362800Y-47631750D01*
X-365322250Y-47635744D01*
X-365281700Y-47631750D01*
X-365281697Y-47631750D01*
X-365160424Y-47619806D01*
X-365004816Y-47572603D01*
X-364861408Y-47495949D01*
X-364735709Y-47392791D01*
X-364709852Y-47361284D01*
X-364448140Y-47099572D01*
X-364033750Y-47099572D01*
X-363861715Y-47082628D01*
X-363765693Y-47053500D01*
X-363085503Y-47053500D01*
X-362948256Y-47145205D01*
X-362759898Y-47223226D01*
X-362559939Y-47263000D01*
X-362356061Y-47263000D01*
X-362156102Y-47223226D01*
X-361967744Y-47145205D01*
X-361798226Y-47031937D01*
X-361654063Y-46887774D01*
X-361540795Y-46718256D01*
X-361462774Y-46529898D01*
X-361423000Y-46329939D01*
X-361423000Y-46126061D01*
X-361462774Y-45926102D01*
X-361540795Y-45737744D01*
X-361654063Y-45568226D01*
X-361798226Y-45424063D01*
X-361967744Y-45310795D01*
X-362156102Y-45232774D01*
X-362356061Y-45193000D01*
X-362559939Y-45193000D01*
X-362759898Y-45232774D01*
X-362948256Y-45310795D01*
X-363085503Y-45402500D01*
X-363216108Y-45402500D01*
X-363219053Y-45392791D01*
X-363300542Y-45240336D01*
X-363410208Y-45106708D01*
X-363416564Y-45101492D01*
X-363338815Y-45037685D01*
X-363259463Y-44940994D01*
X-363200498Y-44830680D01*
X-363164188Y-44710982D01*
X-363151928Y-44586500D01*
X-363155000Y-44384750D01*
X-363313750Y-44226000D01*
X-364363000Y-44226000D01*
X-364363000Y-44246000D01*
X-364617000Y-44246000D01*
X-364617000Y-44226000D01*
X-365666250Y-44226000D01*
X-365825000Y-44384750D01*
X-365828072Y-44586500D01*
X-365815812Y-44710982D01*
X-365779502Y-44830680D01*
X-365720537Y-44940994D01*
X-365641185Y-45037685D01*
X-365563436Y-45101492D01*
X-365569792Y-45106708D01*
X-365679458Y-45240336D01*
X-365760947Y-45392791D01*
X-365811128Y-45558215D01*
X-365828072Y-45730250D01*
X-365828072Y-45980750D01*
X-366771250Y-45980750D01*
X-366771250Y-45879248D01*
X-366929998Y-45879248D01*
X-366771250Y-45720500D01*
X-366781073Y-45603619D01*
X-366817985Y-45484105D01*
X-366877504Y-45374089D01*
X-366957342Y-45277799D01*
X-367054432Y-45198934D01*
X-367165042Y-45140526D01*
X-367284921Y-45104820D01*
X-367409463Y-45093186D01*
X-367870500Y-45096250D01*
X-368029250Y-45255000D01*
X-368029250Y-45879250D01*
X-368009250Y-45879250D01*
X-368009250Y-45893178D01*
X-368906250Y-45893178D01*
X-369030732Y-45905438D01*
X-369150430Y-45941748D01*
X-369260744Y-46000713D01*
X-369357435Y-46080065D01*
X-369436787Y-46176756D01*
X-369449167Y-46199917D01*
X-369541250Y-46292000D01*
X-369531704Y-46405587D01*
X-369532062Y-46406768D01*
X-369544322Y-46531250D01*
X-369544322Y-47081250D01*
X-369532062Y-47205732D01*
X-369531905Y-47206250D01*
X-369532062Y-47206768D01*
X-369544322Y-47331250D01*
X-369544322Y-47881250D01*
X-369532062Y-48005732D01*
X-369531905Y-48006250D01*
X-369532062Y-48006768D01*
X-369544322Y-48131250D01*
X-369544322Y-48681250D01*
X-369532062Y-48805732D01*
X-369531905Y-48806250D01*
X-369532062Y-48806768D01*
X-369544322Y-48931250D01*
X-369544322Y-49481250D01*
X-369532062Y-49605732D01*
X-369531905Y-49606250D01*
X-369532062Y-49606768D01*
X-369544322Y-49731250D01*
X-369544322Y-50281250D01*
X-369532062Y-50405732D01*
X-369531905Y-50406250D01*
X-369532062Y-50406768D01*
X-369544322Y-50531250D01*
X-369544322Y-51081250D01*
X-369532062Y-51205732D01*
X-369531905Y-51206250D01*
X-369532062Y-51206768D01*
X-369544322Y-51331250D01*
X-369544322Y-51881250D01*
X-369532062Y-52005732D01*
X-369531905Y-52006250D01*
X-369532062Y-52006768D01*
X-369544322Y-52131250D01*
X-369544322Y-52681250D01*
X-369532062Y-52805732D01*
X-369531905Y-52806250D01*
X-369532062Y-52806768D01*
X-369544322Y-52931250D01*
X-369544322Y-53481250D01*
X-369532062Y-53605732D01*
X-369531905Y-53606250D01*
X-369532062Y-53606768D01*
X-369544322Y-53731250D01*
X-369544322Y-54281250D01*
X-369540288Y-54322212D01*
X-369581250Y-54318178D01*
X-370131250Y-54318178D01*
X-370255732Y-54330438D01*
X-370256913Y-54330796D01*
X-370370500Y-54321250D01*
X-370462583Y-54413333D01*
X-370485744Y-54425713D01*
X-370582435Y-54505065D01*
X-370656250Y-54595009D01*
X-370730065Y-54505065D01*
X-370826756Y-54425713D01*
X-370849917Y-54413333D01*
X-370942000Y-54321250D01*
X-371055587Y-54330796D01*
X-371056768Y-54330438D01*
X-371181250Y-54318178D01*
X-371731250Y-54318178D01*
X-371855732Y-54330438D01*
X-371856250Y-54330595D01*
X-371856768Y-54330438D01*
X-371981250Y-54318178D01*
X-372531250Y-54318178D01*
X-372655732Y-54330438D01*
X-372656250Y-54330595D01*
X-372656768Y-54330438D01*
X-372781250Y-54318178D01*
X-373331250Y-54318178D01*
X-373455732Y-54330438D01*
X-373456250Y-54330595D01*
X-373456768Y-54330438D01*
X-373581250Y-54318178D01*
X-374131250Y-54318178D01*
X-374255732Y-54330438D01*
X-374256250Y-54330595D01*
X-374256768Y-54330438D01*
X-374381250Y-54318178D01*
X-374931250Y-54318178D01*
X-375055732Y-54330438D01*
X-375056250Y-54330595D01*
X-375056768Y-54330438D01*
X-375181250Y-54318178D01*
X-375731250Y-54318178D01*
X-375855732Y-54330438D01*
X-375856250Y-54330595D01*
X-375856768Y-54330438D01*
X-375981250Y-54318178D01*
X-376531250Y-54318178D01*
X-376655732Y-54330438D01*
X-376656913Y-54330796D01*
X-376770500Y-54321250D01*
X-376862583Y-54413333D01*
X-376885744Y-54425713D01*
X-376982435Y-54505065D01*
X-377056250Y-54595009D01*
X-377130065Y-54505065D01*
X-377226756Y-54425713D01*
X-377249917Y-54413333D01*
X-377342000Y-54321250D01*
X-377455587Y-54330796D01*
X-377456768Y-54330438D01*
X-377581250Y-54318178D01*
X-378131250Y-54318178D01*
X-378172212Y-54322212D01*
X-378168178Y-54281250D01*
X-378168178Y-53731250D01*
X-378180438Y-53606768D01*
X-378180595Y-53606250D01*
X-378180438Y-53605732D01*
X-378168178Y-53481250D01*
X-378168178Y-52931250D01*
X-378180438Y-52806768D01*
X-378180595Y-52806250D01*
X-378180438Y-52805732D01*
X-378168178Y-52681250D01*
X-378168178Y-52131250D01*
X-378180438Y-52006768D01*
X-378180595Y-52006250D01*
X-378180438Y-52005732D01*
X-378168178Y-51881250D01*
X-378168178Y-51331250D01*
X-378180438Y-51206768D01*
X-378180796Y-51205587D01*
X-378171250Y-51092000D01*
X-378263333Y-50999917D01*
X-378275713Y-50976756D01*
X-378355065Y-50880065D01*
X-378445009Y-50806250D01*
X-378355065Y-50732435D01*
X-378275713Y-50635744D01*
X-378263333Y-50612583D01*
X-378171250Y-50520500D01*
X-378180796Y-50406913D01*
X-378180438Y-50405732D01*
X-378168178Y-50281250D01*
X-378168178Y-49731250D01*
X-378180438Y-49606768D01*
X-378180595Y-49606250D01*
X-378180438Y-49605732D01*
X-378168178Y-49481250D01*
X-378168178Y-48931250D01*
X-378180438Y-48806768D01*
X-378180595Y-48806250D01*
X-378180438Y-48805732D01*
X-378168178Y-48681250D01*
X-378168178Y-48131250D01*
X-378180438Y-48006768D01*
X-378180595Y-48006250D01*
X-378180438Y-48005732D01*
X-378168178Y-47881250D01*
X-378168178Y-47331250D01*
X-378180438Y-47206768D01*
X-378180595Y-47206250D01*
X-378180438Y-47205732D01*
X-378168178Y-47081250D01*
X-378168178Y-46531250D01*
X-378180438Y-46406768D01*
X-378180595Y-46406250D01*
X-378180438Y-46405732D01*
X-378168178Y-46281250D01*
X-378168178Y-45731250D01*
X-378172212Y-45690288D01*
X-378131250Y-45694322D01*
X-377581250Y-45694322D01*
X-377456768Y-45682062D01*
X-377456250Y-45681905D01*
X-377455732Y-45682062D01*
X-377331250Y-45694322D01*
X-376781250Y-45694322D01*
X-376656768Y-45682062D01*
X-376656250Y-45681905D01*
X-376655732Y-45682062D01*
X-376531250Y-45694322D01*
X-375981250Y-45694322D01*
X-375856768Y-45682062D01*
X-375855587Y-45681704D01*
X-375742000Y-45691250D01*
X-375649917Y-45599167D01*
X-375626756Y-45586787D01*
X-375530065Y-45507435D01*
X-375456250Y-45417491D01*
X-375382435Y-45507435D01*
X-375285744Y-45586787D01*
X-375262583Y-45599167D01*
X-375170500Y-45691250D01*
X-375056913Y-45681704D01*
X-375055732Y-45682062D01*
X-374931250Y-45694322D01*
X-374381250Y-45694322D01*
X-374256768Y-45682062D01*
X-374256250Y-45681905D01*
X-374255732Y-45682062D01*
X-374131250Y-45694322D01*
X-373581250Y-45694322D01*
X-373456768Y-45682062D01*
X-373456250Y-45681905D01*
X-373455732Y-45682062D01*
X-373331250Y-45694322D01*
X-372781250Y-45694322D01*
X-372656768Y-45682062D01*
X-372656250Y-45681905D01*
X-372655732Y-45682062D01*
X-372531250Y-45694322D01*
X-371981250Y-45694322D01*
X-371856768Y-45682062D01*
X-371856250Y-45681905D01*
X-371855732Y-45682062D01*
X-371731250Y-45694322D01*
X-371181250Y-45694322D01*
X-371056768Y-45682062D01*
X-371056250Y-45681905D01*
X-371055732Y-45682062D01*
X-370931250Y-45694322D01*
X-370381250Y-45694322D01*
X-370256768Y-45682062D01*
X-370256250Y-45681905D01*
X-370255732Y-45682062D01*
X-370131250Y-45694322D01*
X-369581250Y-45694322D01*
X-369538698Y-45690131D01*
X-369541250Y-45720500D01*
X-369382500Y-45879250D01*
X-368283250Y-45879250D01*
X-368283250Y-45255000D01*
X-368442000Y-45096250D01*
X-368903037Y-45093186D01*
X-368947222Y-45097314D01*
X-368943178Y-45056250D01*
X-368943178Y-43611500D01*
X-365828072Y-43611500D01*
X-365825000Y-43813250D01*
X-365666250Y-43972000D01*
X-364617000Y-43972000D01*
X-364617000Y-43135250D01*
X-364363000Y-43135250D01*
X-364363000Y-43972000D01*
X-363313750Y-43972000D01*
X-363155000Y-43813250D01*
X-363151928Y-43611500D01*
X-363164188Y-43487018D01*
X-363200498Y-43367320D01*
X-363259463Y-43257006D01*
X-363338815Y-43160315D01*
X-363435506Y-43080963D01*
X-363545820Y-43021998D01*
X-363665518Y-42985688D01*
X-363790000Y-42973428D01*
X-364204250Y-42976500D01*
X-364363000Y-43135250D01*
X-364617000Y-43135250D01*
X-364775750Y-42976500D01*
X-365190000Y-42973428D01*
X-365314482Y-42985688D01*
X-365434180Y-43021998D01*
X-365544494Y-43080963D01*
X-365641185Y-43160315D01*
X-365720537Y-43257006D01*
X-365779502Y-43367320D01*
X-365815812Y-43487018D01*
X-365828072Y-43611500D01*
X-368943178Y-43611500D01*
X-368943178Y-43556250D01*
X-368955438Y-43431768D01*
X-368991748Y-43312070D01*
X-369050713Y-43201756D01*
X-369130065Y-43105065D01*
X-369226756Y-43025713D01*
X-369337070Y-42966748D01*
X-369456768Y-42930438D01*
X-369581250Y-42918178D01*
X-370131250Y-42918178D01*
X-370255732Y-42930438D01*
X-370256250Y-42930595D01*
X-370256768Y-42930438D01*
X-370381250Y-42918178D01*
X-370931250Y-42918178D01*
X-371055732Y-42930438D01*
X-371056250Y-42930595D01*
X-371056768Y-42930438D01*
X-371181250Y-42918178D01*
X-371731250Y-42918178D01*
X-371855732Y-42930438D01*
X-371856250Y-42930595D01*
X-371856768Y-42930438D01*
X-371981250Y-42918178D01*
X-372531250Y-42918178D01*
X-372655732Y-42930438D01*
X-372656250Y-42930595D01*
X-372656768Y-42930438D01*
X-372781250Y-42918178D01*
X-373096250Y-42918178D01*
X-373096250Y-38637051D01*
X-372106997Y-37647799D01*
X-372077999Y-37624001D01*
X-371983026Y-37508276D01*
X-371912454Y-37376247D01*
X-371868997Y-37232986D01*
X-371858000Y-37121333D01*
X-371858000Y-37121324D01*
X-371854324Y-37084001D01*
X-371858000Y-37046678D01*
X-371858000Y-36538163D01*
X-371793518Y-36531812D01*
X-371673820Y-36495502D01*
X-371563506Y-36436537D01*
X-371466815Y-36357185D01*
X-371387463Y-36260494D01*
X-371328498Y-36150180D01*
X-371302962Y-36066000D01*
X-370229845Y-36066000D01*
X-370141792Y-36173292D01*
X-370008164Y-36282958D01*
X-369855709Y-36364447D01*
X-369690285Y-36414628D01*
X-369518250Y-36431572D01*
X-368605750Y-36431572D01*
X-368433715Y-36414628D01*
X-368268291Y-36364447D01*
X-368115836Y-36282958D01*
X-367982208Y-36173292D01*
X-367872542Y-36039664D01*
X-367791053Y-35887209D01*
X-367740872Y-35721785D01*
X-367723928Y-35549750D01*
X-367723928Y-35062250D01*
X-367740872Y-34890215D01*
X-367791053Y-34724791D01*
X-367872542Y-34572336D01*
X-367982208Y-34438708D01*
X-367988564Y-34433492D01*
X-367910815Y-34369685D01*
X-367831463Y-34272994D01*
X-367772498Y-34162680D01*
X-367736188Y-34042982D01*
X-367723928Y-33918500D01*
X-367727000Y-33716750D01*
X-367885750Y-33558000D01*
X-368935000Y-33558000D01*
X-368935000Y-33578000D01*
X-369189000Y-33578000D01*
X-369189000Y-33558000D01*
X-370238250Y-33558000D01*
X-370397000Y-33716750D01*
X-370400072Y-33918500D01*
X-370387812Y-34042982D01*
X-370351502Y-34162680D01*
X-370292537Y-34272994D01*
X-370213185Y-34369685D01*
X-370135436Y-34433492D01*
X-370141792Y-34438708D01*
X-370229845Y-34546000D01*
X-371302962Y-34546000D01*
X-371328498Y-34461820D01*
X-371331609Y-34456000D01*
X-371328498Y-34450180D01*
X-371292188Y-34330482D01*
X-371279928Y-34206000D01*
X-371283000Y-33891750D01*
X-371441750Y-33733000D01*
X-372491000Y-33733000D01*
X-372491000Y-33753000D01*
X-372745000Y-33753000D01*
X-372745000Y-33733000D01*
X-372765000Y-33733000D01*
X-372765000Y-33479000D01*
X-372745000Y-33479000D01*
X-372745000Y-32529750D01*
X-372491000Y-32529750D01*
X-372491000Y-33479000D01*
X-371441750Y-33479000D01*
X-371283000Y-33320250D01*
X-371279928Y-33006000D01*
X-371286083Y-32943500D01*
X-370400072Y-32943500D01*
X-370397000Y-33145250D01*
X-370238250Y-33304000D01*
X-369189000Y-33304000D01*
X-369189000Y-32467250D01*
X-368935000Y-32467250D01*
X-368935000Y-33304000D01*
X-367885750Y-33304000D01*
X-367727000Y-33145250D01*
X-367723928Y-32943500D01*
X-367736188Y-32819018D01*
X-367772498Y-32699320D01*
X-367831463Y-32589006D01*
X-367910815Y-32492315D01*
X-368007506Y-32412963D01*
X-368117820Y-32353998D01*
X-368237518Y-32317688D01*
X-368362000Y-32305428D01*
X-368776250Y-32308500D01*
X-368935000Y-32467250D01*
X-369189000Y-32467250D01*
X-369347750Y-32308500D01*
X-369762000Y-32305428D01*
X-369886482Y-32317688D01*
X-370006180Y-32353998D01*
X-370116494Y-32412963D01*
X-370213185Y-32492315D01*
X-370292537Y-32589006D01*
X-370351502Y-32699320D01*
X-370387812Y-32819018D01*
X-370400072Y-32943500D01*
X-371286083Y-32943500D01*
X-371292188Y-32881518D01*
X-371328498Y-32761820D01*
X-371387463Y-32651506D01*
X-371466815Y-32554815D01*
X-371563506Y-32475463D01*
X-371673820Y-32416498D01*
X-371793518Y-32380188D01*
X-371918000Y-32367928D01*
X-372332250Y-32371000D01*
X-372491000Y-32529750D01*
X-372745000Y-32529750D01*
X-372903750Y-32371000D01*
X-373318000Y-32367928D01*
X-373442482Y-32380188D01*
X-373562180Y-32416498D01*
X-373672494Y-32475463D01*
X-373718000Y-32512809D01*
X-373763506Y-32475463D01*
X-373873820Y-32416498D01*
X-373993518Y-32380188D01*
X-374118000Y-32367928D01*
X-375518000Y-32367928D01*
X-375642482Y-32380188D01*
X-375762180Y-32416498D01*
X-375872494Y-32475463D01*
X-375969185Y-32554815D01*
X-376048537Y-32651506D01*
X-376058957Y-32671000D01*
X-377038155Y-32671000D01*
X-377126208Y-32563708D01*
X-377259836Y-32454042D01*
X-377412291Y-32372553D01*
X-377577715Y-32322372D01*
X-377749750Y-32305428D01*
X-378662250Y-32305428D01*
X-378834285Y-32322372D01*
X-378999709Y-32372553D01*
X-379152164Y-32454042D01*
X-379285792Y-32563708D01*
X-379395458Y-32697336D01*
X-379476947Y-32849791D01*
X-379527128Y-33015215D01*
X-379544072Y-33187250D01*
X-379544072Y-33674750D01*
X-379527128Y-33846785D01*
X-379476947Y-34012209D01*
X-379395458Y-34164664D01*
X-379285792Y-34298292D01*
X-379279436Y-34303508D01*
X-379357185Y-34367315D01*
X-379436537Y-34464006D01*
X-379495502Y-34574320D01*
X-379531812Y-34694018D01*
X-379544072Y-34818500D01*
X-379541000Y-35020250D01*
X-379382250Y-35179000D01*
X-378333000Y-35179000D01*
X-378333000Y-35159000D01*
X-378079000Y-35159000D01*
X-378079000Y-35179000D01*
X-378059000Y-35179000D01*
X-378059000Y-35433000D01*
X-378079000Y-35433000D01*
X-378079000Y-36269750D01*
X-377920250Y-36428500D01*
X-377506000Y-36431572D01*
X-377381518Y-36419312D01*
X-377261820Y-36383002D01*
X-377211999Y-36356372D01*
X-377211999Y-36514668D01*
X-377215676Y-36552000D01*
X-377201002Y-36700985D01*
X-377157546Y-36844246D01*
X-377086974Y-36976276D01*
X-377017277Y-37061201D01*
X-376992000Y-37092001D01*
X-376963002Y-37115799D01*
X-375416250Y-38662552D01*
X-375416249Y-43146268D01*
X-375450865Y-43188447D01*
X-375489897Y-43059775D01*
X-375516885Y-43009285D01*
X-375566551Y-42916366D01*
X-375620012Y-42851224D01*
X-375669709Y-42790668D01*
X-375701210Y-42764816D01*
X-376610571Y-41855456D01*
X-376636428Y-41823949D01*
X-376762127Y-41720791D01*
X-376905535Y-41644137D01*
X-377061143Y-41596934D01*
X-377182416Y-41584990D01*
X-377182419Y-41584990D01*
X-377222969Y-41580996D01*
X-377263519Y-41584990D01*
X-381821566Y-41584990D01*
X-381801463Y-41560494D01*
X-381742498Y-41450180D01*
X-381706188Y-41330482D01*
X-381693928Y-41206000D01*
X-381697000Y-41004250D01*
X-381855750Y-40845500D01*
X-382905000Y-40845500D01*
X-382905000Y-40865500D01*
X-383159000Y-40865500D01*
X-383159000Y-40845500D01*
X-383179000Y-40845500D01*
X-383179000Y-40591500D01*
X-383159000Y-40591500D01*
X-383159000Y-39754750D01*
X-382905000Y-39754750D01*
X-382905000Y-40591500D01*
X-381855750Y-40591500D01*
X-381697000Y-40432750D01*
X-381693928Y-40231000D01*
X-381706188Y-40106518D01*
X-381742498Y-39986820D01*
X-381801463Y-39876506D01*
X-381880815Y-39779815D01*
X-381977506Y-39700463D01*
X-382087820Y-39641498D01*
X-382207518Y-39605188D01*
X-382332000Y-39592928D01*
X-382746250Y-39596000D01*
X-382905000Y-39754750D01*
X-383159000Y-39754750D01*
X-383317750Y-39596000D01*
X-383732000Y-39592928D01*
X-383775000Y-39597163D01*
X-383775000Y-39522061D01*
X-383814774Y-39322102D01*
X-383892795Y-39133744D01*
X-384006063Y-38964226D01*
X-384150226Y-38820063D01*
X-384319744Y-38706795D01*
X-384508102Y-38628774D01*
X-384708061Y-38589000D01*
X-384911939Y-38589000D01*
X-385111898Y-38628774D01*
X-385300256Y-38706795D01*
X-385469774Y-38820063D01*
X-385613937Y-38964226D01*
X-385727205Y-39133744D01*
X-385805226Y-39322102D01*
X-385838291Y-39488332D01*
X-385850735Y-39503496D01*
X-385899698Y-39563157D01*
X-385929558Y-39619020D01*
X-385959715Y-39609872D01*
X-386131750Y-39592928D01*
X-387044250Y-39592928D01*
X-387216285Y-39609872D01*
X-387381709Y-39660053D01*
X-387534164Y-39741542D01*
X-387667792Y-39851208D01*
X-387777458Y-39984836D01*
X-387858947Y-40137291D01*
X-387909128Y-40302715D01*
X-387926072Y-40474750D01*
X-387926072Y-40962250D01*
X-387909128Y-41134285D01*
X-387858947Y-41299709D01*
X-387777458Y-41452164D01*
X-387667792Y-41585792D01*
X-387582244Y-41656000D01*
X-387667792Y-41726208D01*
X-387673619Y-41733308D01*
X-387810102Y-41676774D01*
X-388010061Y-41637000D01*
X-388213939Y-41637000D01*
X-388413898Y-41676774D01*
X-388602256Y-41754795D01*
X-388771774Y-41868063D01*
X-388915937Y-42012226D01*
X-389029205Y-42181744D01*
X-389107226Y-42370102D01*
X-389147000Y-42570061D01*
X-389147000Y-42773939D01*
X-389107226Y-42973898D01*
X-389029205Y-43162256D01*
X-388915937Y-43331774D01*
X-388771774Y-43475937D01*
X-388602256Y-43589205D01*
X-388413898Y-43667226D01*
X-388213939Y-43707000D01*
X-388010061Y-43707000D01*
X-387810102Y-43667226D01*
X-387621744Y-43589205D01*
X-387560877Y-43548535D01*
X-387534164Y-43570458D01*
X-387381709Y-43651947D01*
X-387216285Y-43702128D01*
X-387044250Y-43719072D01*
X-386131750Y-43719072D01*
X-385959715Y-43702128D01*
X-385878738Y-43677564D01*
X-384865799Y-44690503D01*
X-384842001Y-44719501D01*
X-384726276Y-44814474D01*
X-384594247Y-44885046D01*
X-384450986Y-44928503D01*
X-384339333Y-44939500D01*
X-384339325Y-44939500D01*
X-384302000Y-44943176D01*
X-384264675Y-44939500D01*
X-380545822Y-44939500D01*
X-380508500Y-44943176D01*
X-380471178Y-44939500D01*
X-380471167Y-44939500D01*
X-380359514Y-44928503D01*
X-380216253Y-44885046D01*
X-380084224Y-44814474D01*
X-379968499Y-44719501D01*
X-379944696Y-44690497D01*
X-378940198Y-43686000D01*
X-378769322Y-43686000D01*
X-378769322Y-45056250D01*
X-378765288Y-45097212D01*
X-378806250Y-45093178D01*
X-380306250Y-45093178D01*
X-380430732Y-45105438D01*
X-380550430Y-45141748D01*
X-380660744Y-45200713D01*
X-380757435Y-45280065D01*
X-380836787Y-45376756D01*
X-380895752Y-45487070D01*
X-380932062Y-45606768D01*
X-380944322Y-45731250D01*
X-380944322Y-46281250D01*
X-380932062Y-46405732D01*
X-380931905Y-46406250D01*
X-380932062Y-46406768D01*
X-380944322Y-46531250D01*
X-380944322Y-47081250D01*
X-380932062Y-47205732D01*
X-380931905Y-47206250D01*
X-380932062Y-47206768D01*
X-380944322Y-47331250D01*
X-380944322Y-47881250D01*
X-380932062Y-48005732D01*
X-380931905Y-48006250D01*
X-380932062Y-48006768D01*
X-380944111Y-48129107D01*
X-380958063Y-48108226D01*
X-381102226Y-47964063D01*
X-381271744Y-47850795D01*
X-381460102Y-47772774D01*
X-381660061Y-47733000D01*
X-381863939Y-47733000D01*
X-382063898Y-47772774D01*
X-382252256Y-47850795D01*
X-382421774Y-47964063D01*
X-382565937Y-48108226D01*
X-382679205Y-48277744D01*
X-382757226Y-48466102D01*
X-382797000Y-48666061D01*
X-382797000Y-48869939D01*
X-382757226Y-49069898D01*
X-382684178Y-49246250D01*
X-383555678Y-49246250D01*
X-383555678Y-48756250D01*
X-383572622Y-48584215D01*
X-383622803Y-48418791D01*
X-383704292Y-48266336D01*
X-383813958Y-48132708D01*
X-383947586Y-48023042D01*
X-384100041Y-47941553D01*
X-384265465Y-47891372D01*
X-384437500Y-47874428D01*
X-384925000Y-47874428D01*
X-385097035Y-47891372D01*
X-385262459Y-47941553D01*
X-385414914Y-48023042D01*
X-385548542Y-48132708D01*
X-385553758Y-48139064D01*
X-385617565Y-48061315D01*
X-385714256Y-47981963D01*
X-385824570Y-47922998D01*
X-385944268Y-47886688D01*
X-386068750Y-47874428D01*
X-386270500Y-47877500D01*
X-386429250Y-48036250D01*
X-386429250Y-49085500D01*
X-386409250Y-49085500D01*
X-386409250Y-49339500D01*
X-386429250Y-49339500D01*
X-386429250Y-50388750D01*
X-386270500Y-50547500D01*
X-386068750Y-50550572D01*
X-385944268Y-50538312D01*
X-385824570Y-50502002D01*
X-385714256Y-50443037D01*
X-385617565Y-50363685D01*
X-385553758Y-50285936D01*
X-385548542Y-50292292D01*
X-385414914Y-50401958D01*
X-385262459Y-50483447D01*
X-385097035Y-50533628D01*
X-384925000Y-50550572D01*
X-384437500Y-50550572D01*
X-384423871Y-50549230D01*
X-384398503Y-50570049D01*
X-384311777Y-50641224D01*
X-384191642Y-50705438D01*
X-384179747Y-50711796D01*
X-384036486Y-50755253D01*
X-383924833Y-50766250D01*
X-383924823Y-50766250D01*
X-383887501Y-50769926D01*
X-383850178Y-50766250D01*
X-380716231Y-50766250D01*
X-380667491Y-50806250D01*
X-380716231Y-50846250D01*
X-393340948Y-50846250D01*
X-394274698Y-49912500D01*
X-387681822Y-49912500D01*
X-387669562Y-50036982D01*
X-387633252Y-50156680D01*
X-387574287Y-50266994D01*
X-387494935Y-50363685D01*
X-387398244Y-50443037D01*
X-387287930Y-50502002D01*
X-387168232Y-50538312D01*
X-387043750Y-50550572D01*
X-386842000Y-50547500D01*
X-386683250Y-50388750D01*
X-386683250Y-49339500D01*
X-387520000Y-49339500D01*
X-387678750Y-49498250D01*
X-387681822Y-49912500D01*
X-394274698Y-49912500D01*
X-395674698Y-48512500D01*
X-387681822Y-48512500D01*
X-387678750Y-48926750D01*
X-387520000Y-49085500D01*
X-386683250Y-49085500D01*
X-386683250Y-48036250D01*
X-386842000Y-47877500D01*
X-387043750Y-47874428D01*
X-387168232Y-47886688D01*
X-387287930Y-47922998D01*
X-387398244Y-47981963D01*
X-387494935Y-48061315D01*
X-387574287Y-48158006D01*
X-387633252Y-48268320D01*
X-387669562Y-48388018D01*
X-387681822Y-48512500D01*
X-395674698Y-48512500D01*
X-396258500Y-47928699D01*
X-396258500Y-44510801D01*
X-395679262Y-43931564D01*
X-395598285Y-43956128D01*
X-395426250Y-43973072D01*
X-394513750Y-43973072D01*
X-394341715Y-43956128D01*
X-394176291Y-43905947D01*
X-394023836Y-43824458D01*
X-393890208Y-43714792D01*
X-393780542Y-43581164D01*
X-393699053Y-43428709D01*
X-393648872Y-43263285D01*
X-393631928Y-43091250D01*
X-393631928Y-42603750D01*
X-393648872Y-42431715D01*
X-393699053Y-42266291D01*
X-393780542Y-42113836D01*
X-393890208Y-41980208D01*
X-393975756Y-41910000D01*
X-393890208Y-41839792D01*
X-393780542Y-41706164D01*
X-393699053Y-41553709D01*
X-393648872Y-41388285D01*
X-393631928Y-41216250D01*
X-393631928Y-40728750D01*
X-393648872Y-40556715D01*
X-393699053Y-40391291D01*
X-393780542Y-40238836D01*
X-393890208Y-40105208D01*
X-394023836Y-39995542D01*
X-394176291Y-39914053D01*
X-394341715Y-39863872D01*
X-394513750Y-39846928D01*
X-395426250Y-39846928D01*
X-395598285Y-39863872D01*
X-395763709Y-39914053D01*
X-395846756Y-39958442D01*
X-396908750Y-38896449D01*
X-396908750Y-38013072D01*
X-396618750Y-38013072D01*
X-396494268Y-38000812D01*
X-396469484Y-37993294D01*
X-396450111Y-37999404D01*
X-396350500Y-38010000D01*
X-396191750Y-37851250D01*
X-396191750Y-37846033D01*
X-396167565Y-37826185D01*
X-396088213Y-37729494D01*
X-396029248Y-37619180D01*
X-395992938Y-37499482D01*
X-395980678Y-37375000D01*
X-395980678Y-35125000D01*
X-395992938Y-35000518D01*
X-396029248Y-34880820D01*
X-396088213Y-34770506D01*
X-396167565Y-34673815D01*
X-396191750Y-34653967D01*
X-396191750Y-34648750D01*
X-395945750Y-34648750D01*
X-395945750Y-36123000D01*
X-395921750Y-36123000D01*
X-395921750Y-36377000D01*
X-395945750Y-36377000D01*
X-395945750Y-37851250D01*
X-395787000Y-38010000D01*
X-395687389Y-37999404D01*
X-395568098Y-37961779D01*
X-395458439Y-37901604D01*
X-395362627Y-37821193D01*
X-395284344Y-37723634D01*
X-395228627Y-37616578D01*
X-395073884Y-37805134D01*
X-394847764Y-37990706D01*
X-394589784Y-38128599D01*
X-394309861Y-38213513D01*
X-394018750Y-38242185D01*
X-393727640Y-38213513D01*
X-393447717Y-38128599D01*
X-393189737Y-37990706D01*
X-392963616Y-37805134D01*
X-392778044Y-37579014D01*
X-392640151Y-37321034D01*
X-392555237Y-37041111D01*
X-392533750Y-36822950D01*
X-392533750Y-35793500D01*
X-379544072Y-35793500D01*
X-379531812Y-35917982D01*
X-379495502Y-36037680D01*
X-379436537Y-36147994D01*
X-379357185Y-36244685D01*
X-379260494Y-36324037D01*
X-379150180Y-36383002D01*
X-379030482Y-36419312D01*
X-378906000Y-36431572D01*
X-378491750Y-36428500D01*
X-378333000Y-36269750D01*
X-378333000Y-35433000D01*
X-379382250Y-35433000D01*
X-379541000Y-35591750D01*
X-379544072Y-35793500D01*
X-392533750Y-35793500D01*
X-392533750Y-35677050D01*
X-392555237Y-35458889D01*
X-392640151Y-35178966D01*
X-392778044Y-34920986D01*
X-392963616Y-34694866D01*
X-393189736Y-34509294D01*
X-393447716Y-34371401D01*
X-393727639Y-34286487D01*
X-394018750Y-34257815D01*
X-394309860Y-34286487D01*
X-394589783Y-34371401D01*
X-394847763Y-34509294D01*
X-395073883Y-34694866D01*
X-395228627Y-34883421D01*
X-395284344Y-34776366D01*
X-395362627Y-34678807D01*
X-395458439Y-34598396D01*
X-395568098Y-34538221D01*
X-395687389Y-34500596D01*
X-395787000Y-34490000D01*
X-395945750Y-34648750D01*
X-396191750Y-34648750D01*
X-396350500Y-34490000D01*
X-396450111Y-34500596D01*
X-396469484Y-34506706D01*
X-396494268Y-34499188D01*
X-396618750Y-34486928D01*
X-397118750Y-34486928D01*
X-397243232Y-34499188D01*
X-397268750Y-34506929D01*
X-397294268Y-34499188D01*
X-397418750Y-34486928D01*
X-397918750Y-34486928D01*
X-398043232Y-34499188D01*
X-398068750Y-34506929D01*
X-398094268Y-34499188D01*
X-398218750Y-34486928D01*
X-398718750Y-34486928D01*
X-398843232Y-34499188D01*
X-398868750Y-34506929D01*
X-398894268Y-34499188D01*
X-399018750Y-34486928D01*
X-399518750Y-34486928D01*
X-399643232Y-34499188D01*
X-399762930Y-34535498D01*
X-399873244Y-34594463D01*
X-399969935Y-34673815D01*
X-400049287Y-34770506D01*
X-400108252Y-34880820D01*
X-400108996Y-34883271D01*
X-400263616Y-34694866D01*
X-400489736Y-34509294D01*
X-400747716Y-34371401D01*
X-401027639Y-34286487D01*
X-401318750Y-34257815D01*
X-401609860Y-34286487D01*
X-401889783Y-34371401D01*
X-402147763Y-34509294D01*
X-402373883Y-34694866D01*
X-402559456Y-34920986D01*
X-402697349Y-35178966D01*
X-402782263Y-35458889D01*
X-402803750Y-35677050D01*
X-402803750Y-36822949D01*
X-402782263Y-37041110D01*
X-402697349Y-37321033D01*
X-402559456Y-37579013D01*
X-402373884Y-37805134D01*
X-402147764Y-37990706D01*
X-401889784Y-38128599D01*
X-401609861Y-38213513D01*
X-401318750Y-38242185D01*
X-401027640Y-38213513D01*
X-400890448Y-38171896D01*
X-404370997Y-41652446D01*
X-404400001Y-41676249D01*
X-404449181Y-41736176D01*
X-404494974Y-41791974D01*
X-404536970Y-41870542D01*
X-404565546Y-41924004D01*
X-404609003Y-42067265D01*
X-404620000Y-42178918D01*
X-404620000Y-42178928D01*
X-404623676Y-42216250D01*
X-404620000Y-42253573D01*
X-404619999Y-45740224D01*
X-404658254Y-45743992D01*
X-404824850Y-45794528D01*
X-404978386Y-45876595D01*
X-405112962Y-45987038D01*
X-405223405Y-46121614D01*
X-405305472Y-46275150D01*
X-405356008Y-46441746D01*
X-405373072Y-46615000D01*
X-405373072Y-47365000D01*
X-405356008Y-47538254D01*
X-405305472Y-47704850D01*
X-405223405Y-47858386D01*
X-405112962Y-47992962D01*
X-404978386Y-48103405D01*
X-404824850Y-48185472D01*
X-404658254Y-48236008D01*
X-404485000Y-48253072D01*
X-403235000Y-48253072D01*
X-403061746Y-48236008D01*
X-402895150Y-48185472D01*
X-402741614Y-48103405D01*
X-402607038Y-47992962D01*
X-402496595Y-47858386D01*
X-402414528Y-47704850D01*
X-402363992Y-47538254D01*
X-402346928Y-47365000D01*
X-402346928Y-46615000D01*
X-402363992Y-46441746D01*
X-402414528Y-46275150D01*
X-402496595Y-46121614D01*
X-402607038Y-45987038D01*
X-402741614Y-45876595D01*
X-402895150Y-45794528D01*
X-403061746Y-45743992D01*
X-403100000Y-45740224D01*
X-403100000Y-42531051D01*
X-401388072Y-40819123D01*
X-401388072Y-41216250D01*
X-401371128Y-41388285D01*
X-401320947Y-41553709D01*
X-401239458Y-41706164D01*
X-401129792Y-41839792D01*
X-401044244Y-41910000D01*
X-401129792Y-41980208D01*
X-401239458Y-42113836D01*
X-401320947Y-42266291D01*
X-401371128Y-42431715D01*
X-401388072Y-42603750D01*
X-401388072Y-43091250D01*
X-401371128Y-43263285D01*
X-401320947Y-43428709D01*
X-401239458Y-43581164D01*
X-401129792Y-43714792D01*
X-400996164Y-43824458D01*
X-400843709Y-43905947D01*
X-400678285Y-43956128D01*
X-400506250Y-43973072D01*
X-399593750Y-43973072D01*
X-399421715Y-43956128D01*
X-399340738Y-43931564D01*
X-398778000Y-44494303D01*
X-398777999Y-48476657D01*
X-398781677Y-48514000D01*
X-398767003Y-48662986D01*
X-398723546Y-48806247D01*
X-398652974Y-48938276D01*
X-398558001Y-49054001D01*
X-398442276Y-49148974D01*
X-398310247Y-49219546D01*
X-398166986Y-49263003D01*
X-398081365Y-49271436D01*
X-394435549Y-52917253D01*
X-394411751Y-52946251D01*
X-394296026Y-53041224D01*
X-394163997Y-53111796D01*
X-394020736Y-53155253D01*
X-393909083Y-53166250D01*
X-393909075Y-53166250D01*
X-393871750Y-53169926D01*
X-393834425Y-53166250D01*
X-382782716Y-53166250D01*
X-382797000Y-53238061D01*
X-382797000Y-53441939D01*
X-382757226Y-53641898D01*
X-382679205Y-53830256D01*
X-382565937Y-53999774D01*
X-382421774Y-54143937D01*
X-382252256Y-54257205D01*
X-382063898Y-54335226D01*
X-381863939Y-54375000D01*
X-381660061Y-54375000D01*
X-381460102Y-54335226D01*
X-381271744Y-54257205D01*
X-381102226Y-54143937D01*
X-380990039Y-54031750D01*
X-380944322Y-54031750D01*
X-380944322Y-54281250D01*
X-380932062Y-54405732D01*
X-380895752Y-54525430D01*
X-380836787Y-54635744D01*
X-380757435Y-54732435D01*
X-380660744Y-54811787D01*
X-380550430Y-54870752D01*
X-380430732Y-54907062D01*
X-380306250Y-54919322D01*
X-378806250Y-54919322D01*
X-378765288Y-54915288D01*
X-378769322Y-54956250D01*
X-378769322Y-56456250D01*
X-378757062Y-56580732D01*
X-378720752Y-56700430D01*
X-378681750Y-56773397D01*
X-378681749Y-58933066D01*
X-378735611Y-58986928D01*
X-379150000Y-58986928D01*
X-379322035Y-59003872D01*
X-379487459Y-59054053D01*
X-379639914Y-59135542D01*
X-379773542Y-59245208D01*
X-379883208Y-59378836D01*
X-379947704Y-59499500D01*
X-380525231Y-59499500D01*
X-380936500Y-59091900D01*
X-380936500Y-58539503D01*
X-380844795Y-58402256D01*
X-380766774Y-58213898D01*
X-380727000Y-58013939D01*
X-380727000Y-57810061D01*
X-380766774Y-57610102D01*
X-380844795Y-57421744D01*
X-380958063Y-57252226D01*
X-381102226Y-57108063D01*
X-381271744Y-56994795D01*
X-381460102Y-56916774D01*
X-381660061Y-56877000D01*
X-381863939Y-56877000D01*
X-382063898Y-56916774D01*
X-382252256Y-56994795D01*
X-382421774Y-57108063D01*
X-382565937Y-57252226D01*
X-382649888Y-57377867D01*
X-385336351Y-54686272D01*
X-385362459Y-54654459D01*
X-385425567Y-54602668D01*
X-385487500Y-54551741D01*
X-385487851Y-54551553D01*
X-385488158Y-54551301D01*
X-385560027Y-54512886D01*
X-385630836Y-54474951D01*
X-385631211Y-54474837D01*
X-385631566Y-54474647D01*
X-385710135Y-54450813D01*
X-385786398Y-54427600D01*
X-385786787Y-54427561D01*
X-385787174Y-54427444D01*
X-385868686Y-54419416D01*
X-385948209Y-54411507D01*
X-385989151Y-54415500D01*
X-398692066Y-54415500D01*
X-402480080Y-50627488D01*
X-402414528Y-50504850D01*
X-402363992Y-50338254D01*
X-402346928Y-50165000D01*
X-402346928Y-49415000D01*
X-402363992Y-49241746D01*
X-402414528Y-49075150D01*
X-402496595Y-48921614D01*
X-402607038Y-48787038D01*
X-402741614Y-48676595D01*
X-402895150Y-48594528D01*
X-403061746Y-48543992D01*
X-403235000Y-48526928D01*
X-404485000Y-48526928D01*
X-404658254Y-48543992D01*
X-404824850Y-48594528D01*
X-404978386Y-48676595D01*
X-405112962Y-48787038D01*
X-405223405Y-48921614D01*
X-405305472Y-49075150D01*
X-405356008Y-49241746D01*
X-405373072Y-49415000D01*
X-405373072Y-50165000D01*
X-405356008Y-50338254D01*
X-405305472Y-50504850D01*
X-405223405Y-50658386D01*
X-405112962Y-50792962D01*
X-404978386Y-50903405D01*
X-404824850Y-50985472D01*
X-404658254Y-51036008D01*
X-404485000Y-51053072D01*
X-404389360Y-51053072D01*
X-399646389Y-55796045D01*
X-399620541Y-55827541D01*
X-399589045Y-55853389D01*
X-399589042Y-55853392D01*
X-399494843Y-55930699D01*
X-399380157Y-55992000D01*
X-399351434Y-56007353D01*
X-399195826Y-56054556D01*
X-399074553Y-56066500D01*
X-399074551Y-56066500D01*
X-399034000Y-56070494D01*
X-398993450Y-56066500D01*
X-386291394Y-56066500D01*
X-382374635Y-59990744D01*
X-382348540Y-60022541D01*
X-382315605Y-60049570D01*
X-381476220Y-60881470D01*
X-381451541Y-60911541D01*
X-381418605Y-60938571D01*
X-381417293Y-60939871D01*
X-381387277Y-60964281D01*
X-381325842Y-61014699D01*
X-381324201Y-61015576D01*
X-381322750Y-61016756D01*
X-381252422Y-61053943D01*
X-381182434Y-61091353D01*
X-381180649Y-61091894D01*
X-381178999Y-61092767D01*
X-381102999Y-61115449D01*
X-381026826Y-61138556D01*
X-381024961Y-61138740D01*
X-381023181Y-61139271D01*
X-380944324Y-61146681D01*
X-380905553Y-61150500D01*
X-380903690Y-61150500D01*
X-380861285Y-61154485D01*
X-380822601Y-61150500D01*
X-379947704Y-61150500D01*
X-379883208Y-61271164D01*
X-379773542Y-61404792D01*
X-379639914Y-61514458D01*
X-379487459Y-61595947D01*
X-379322035Y-61646128D01*
X-379150000Y-61663072D01*
X-378662500Y-61663072D01*
X-378490465Y-61646128D01*
X-378325041Y-61595947D01*
X-378172586Y-61514458D01*
X-378038958Y-61404792D01*
X-378033742Y-61398436D01*
X-377969935Y-61476185D01*
X-377873244Y-61555537D01*
X-377762930Y-61614502D01*
X-377643232Y-61650812D01*
X-377518750Y-61663072D01*
X-377317000Y-61660000D01*
X-377158250Y-61501250D01*
X-377158250Y-60452000D01*
X-376904250Y-60452000D01*
X-376904250Y-61501250D01*
X-376745500Y-61660000D01*
X-376543750Y-61663072D01*
X-376419268Y-61650812D01*
X-376299570Y-61614502D01*
X-376189256Y-61555537D01*
X-376092565Y-61476185D01*
X-376013213Y-61379494D01*
X-375954248Y-61269180D01*
X-375917938Y-61149482D01*
X-375905678Y-61025000D01*
X-371300572Y-61025000D01*
X-371288312Y-61149482D01*
X-371252002Y-61269180D01*
X-371193037Y-61379494D01*
X-371113685Y-61476185D01*
X-371016994Y-61555537D01*
X-370906680Y-61614502D01*
X-370786982Y-61650812D01*
X-370662500Y-61663072D01*
X-370460750Y-61660000D01*
X-370302000Y-61501250D01*
X-370302000Y-60452000D01*
X-371138750Y-60452000D01*
X-371297500Y-60610750D01*
X-371300572Y-61025000D01*
X-375905678Y-61025000D01*
X-375908750Y-60610750D01*
X-376067500Y-60452000D01*
X-376904250Y-60452000D01*
X-377158250Y-60452000D01*
X-377178250Y-60452000D01*
X-377178250Y-60198000D01*
X-377158250Y-60198000D01*
X-377158250Y-60178000D01*
X-376904250Y-60178000D01*
X-376904250Y-60198000D01*
X-376067500Y-60198000D01*
X-375908750Y-60039250D01*
X-375905678Y-59625000D01*
X-375917938Y-59500518D01*
X-375954248Y-59380820D01*
X-376013213Y-59270506D01*
X-376092565Y-59173815D01*
X-376189256Y-59094463D01*
X-376299570Y-59035498D01*
X-376419268Y-58999188D01*
X-376543750Y-58986928D01*
X-376745500Y-58990000D01*
X-376904248Y-59148748D01*
X-376904248Y-58990000D01*
X-377030750Y-58990000D01*
X-377030750Y-57091250D01*
X-376929248Y-57091250D01*
X-376929248Y-56951084D01*
X-376885744Y-56986787D01*
X-376862583Y-56999167D01*
X-376770500Y-57091250D01*
X-376656913Y-57081704D01*
X-376655732Y-57082062D01*
X-376531250Y-57094322D01*
X-375981250Y-57094322D01*
X-375856768Y-57082062D01*
X-375856250Y-57081905D01*
X-375855732Y-57082062D01*
X-375731250Y-57094322D01*
X-375181250Y-57094322D01*
X-375056768Y-57082062D01*
X-375056250Y-57081905D01*
X-375055732Y-57082062D01*
X-374931250Y-57094322D01*
X-374381250Y-57094322D01*
X-374256768Y-57082062D01*
X-374256250Y-57081905D01*
X-374255732Y-57082062D01*
X-374131250Y-57094322D01*
X-373581250Y-57094322D01*
X-373456768Y-57082062D01*
X-373456250Y-57081905D01*
X-373455732Y-57082062D01*
X-373331250Y-57094322D01*
X-372781250Y-57094322D01*
X-372656768Y-57082062D01*
X-372656250Y-57081905D01*
X-372655732Y-57082062D01*
X-372531250Y-57094322D01*
X-371981250Y-57094322D01*
X-371856768Y-57082062D01*
X-371856250Y-57081905D01*
X-371855732Y-57082062D01*
X-371731250Y-57094322D01*
X-371181250Y-57094322D01*
X-371056768Y-57082062D01*
X-371055587Y-57081704D01*
X-370942000Y-57091250D01*
X-370849917Y-56999167D01*
X-370826756Y-56986787D01*
X-370783252Y-56951084D01*
X-370783252Y-57091250D01*
X-370681750Y-57091250D01*
X-370681749Y-58728190D01*
X-370685744Y-58768750D01*
X-370669805Y-58930576D01*
X-370652666Y-58987078D01*
X-370662500Y-58986928D01*
X-370786982Y-58999188D01*
X-370906680Y-59035498D01*
X-371016994Y-59094463D01*
X-371113685Y-59173815D01*
X-371193037Y-59270506D01*
X-371252002Y-59380820D01*
X-371288312Y-59500518D01*
X-371300572Y-59625000D01*
X-371297500Y-60039250D01*
X-371138750Y-60198000D01*
X-370302000Y-60198000D01*
X-370302000Y-60178000D01*
X-370048000Y-60178000D01*
X-370048000Y-60198000D01*
X-370028000Y-60198000D01*
X-370028000Y-60452000D01*
X-370048000Y-60452000D01*
X-370048000Y-61501250D01*
X-369889250Y-61660000D01*
X-369687500Y-61663072D01*
X-369563018Y-61650812D01*
X-369443320Y-61614502D01*
X-369333006Y-61555537D01*
X-369236315Y-61476185D01*
X-369172508Y-61398436D01*
X-369167292Y-61404792D01*
X-369033664Y-61514458D01*
X-368881209Y-61595947D01*
X-368715785Y-61646128D01*
X-368543750Y-61663072D01*
X-368056250Y-61663072D01*
X-367884215Y-61646128D01*
X-367718791Y-61595947D01*
X-367566336Y-61514458D01*
X-367432708Y-61404792D01*
X-367323042Y-61271164D01*
X-367258546Y-61150500D01*
X-366927047Y-61150500D01*
X-366823898Y-61193226D01*
X-366623939Y-61233000D01*
X-366420061Y-61233000D01*
X-366220102Y-61193226D01*
X-366031744Y-61115205D01*
X-365862226Y-61001937D01*
X-365718063Y-60857774D01*
X-365604795Y-60688256D01*
X-365526774Y-60499898D01*
X-365487000Y-60299939D01*
X-365487000Y-60096061D01*
X-365526774Y-59896102D01*
X-365604795Y-59707744D01*
X-365718063Y-59538226D01*
X-365862226Y-59394063D01*
X-366031744Y-59280795D01*
X-366220102Y-59202774D01*
X-366420061Y-59163000D01*
X-366623939Y-59163000D01*
X-366823898Y-59202774D01*
X-367012256Y-59280795D01*
X-367181774Y-59394063D01*
X-367268531Y-59480820D01*
X-367323042Y-59378836D01*
X-367432708Y-59245208D01*
X-367566336Y-59135542D01*
X-367718791Y-59054053D01*
X-367884215Y-59003872D01*
X-367982500Y-58994192D01*
X-367982500Y-58793503D01*
X-367890795Y-58656256D01*
X-367812774Y-58467898D01*
X-367773000Y-58267939D01*
X-367773000Y-58064061D01*
X-367812774Y-57864102D01*
X-367890795Y-57675744D01*
X-368004063Y-57506226D01*
X-368148226Y-57362063D01*
X-368317744Y-57248795D01*
X-368506102Y-57170774D01*
X-368706061Y-57131000D01*
X-368909939Y-57131000D01*
X-369030750Y-57155031D01*
X-369030750Y-56773396D01*
X-368991748Y-56700430D01*
X-368955438Y-56580732D01*
X-368943178Y-56456250D01*
X-368943178Y-56367500D01*
X-365828072Y-56367500D01*
X-365815812Y-56491982D01*
X-365779502Y-56611680D01*
X-365720537Y-56721994D01*
X-365641185Y-56818685D01*
X-365544494Y-56898037D01*
X-365434180Y-56957002D01*
X-365314482Y-56993312D01*
X-365190000Y-57005572D01*
X-364775750Y-57002500D01*
X-364617000Y-56843750D01*
X-364617000Y-56007000D01*
X-364363000Y-56007000D01*
X-364363000Y-56843750D01*
X-364204250Y-57002500D01*
X-363790000Y-57005572D01*
X-363665518Y-56993312D01*
X-363545820Y-56957002D01*
X-363435506Y-56898037D01*
X-363338815Y-56818685D01*
X-363259463Y-56721994D01*
X-363200498Y-56611680D01*
X-363164188Y-56491982D01*
X-363151928Y-56367500D01*
X-363155000Y-56165750D01*
X-363313750Y-56007000D01*
X-364363000Y-56007000D01*
X-364617000Y-56007000D01*
X-365666250Y-56007000D01*
X-365825000Y-56165750D01*
X-365828072Y-56367500D01*
X-368943178Y-56367500D01*
X-368943178Y-54956250D01*
X-368947212Y-54915288D01*
X-368906250Y-54919322D01*
X-367406250Y-54919322D01*
X-367281768Y-54907062D01*
X-367162070Y-54870752D01*
X-367051756Y-54811787D01*
X-366994746Y-54765000D01*
X-365657845Y-54765000D01*
X-365569792Y-54872292D01*
X-365563436Y-54877508D01*
X-365641185Y-54941315D01*
X-365720537Y-55038006D01*
X-365779502Y-55148320D01*
X-365815812Y-55268018D01*
X-365828072Y-55392500D01*
X-365825000Y-55594250D01*
X-365666250Y-55753000D01*
X-364617000Y-55753000D01*
X-364617000Y-55733000D01*
X-364363000Y-55733000D01*
X-364363000Y-55753000D01*
X-363313750Y-55753000D01*
X-363155000Y-55594250D01*
X-363151928Y-55392500D01*
X-363164188Y-55268018D01*
X-363200498Y-55148320D01*
X-363259463Y-55038006D01*
X-363338815Y-54941315D01*
X-363416564Y-54877508D01*
X-363410208Y-54872292D01*
X-363300542Y-54738664D01*
X-363219053Y-54586209D01*
X-363168872Y-54420785D01*
X-363151928Y-54248750D01*
X-363151928Y-53761250D01*
X-363168872Y-53589215D01*
X-363219053Y-53423791D01*
X-363300542Y-53271336D01*
X-363410208Y-53137708D01*
X-363543836Y-53028042D01*
X-363696291Y-52946553D01*
X-363861715Y-52896372D01*
X-364033750Y-52879428D01*
X-364946250Y-52879428D01*
X-365118285Y-52896372D01*
X-365283709Y-52946553D01*
X-365436164Y-53028042D01*
X-365569792Y-53137708D01*
X-365657845Y-53245000D01*
X-366768178Y-53245000D01*
X-366768178Y-52931250D01*
X-366780438Y-52806768D01*
X-366780595Y-52806250D01*
X-366780438Y-52805732D01*
X-366768178Y-52681250D01*
X-366768178Y-52366250D01*
X-362817051Y-52366250D01*
X-361315000Y-53868302D01*
X-361315000Y-67602500D01*
X-405573971Y-67602500D01*
X-405939960Y-67566614D01*
X-406260962Y-67469698D01*
X-406557025Y-67312279D01*
X-406816873Y-67100351D01*
X-407030606Y-66841992D01*
X-407190088Y-66547036D01*
X-407289243Y-66226719D01*
X-407323582Y-65900000D01*
X-405481822Y-65900000D01*
X-405469562Y-66024482D01*
X-405433252Y-66144180D01*
X-405374287Y-66254494D01*
X-405294935Y-66351185D01*
X-405198244Y-66430537D01*
X-405087930Y-66489502D01*
X-404968232Y-66525812D01*
X-404843750Y-66538072D01*
X-404229500Y-66535000D01*
X-404070750Y-66376250D01*
X-404070750Y-65477000D01*
X-403816750Y-65477000D01*
X-403816750Y-66376250D01*
X-403658000Y-66535000D01*
X-403043750Y-66538072D01*
X-402919268Y-66525812D01*
X-402799570Y-66489502D01*
X-402689256Y-66430537D01*
X-402592565Y-66351185D01*
X-402513213Y-66254494D01*
X-402454248Y-66144180D01*
X-402417938Y-66024482D01*
X-402405678Y-65900000D01*
X-402408750Y-65635750D01*
X-402567500Y-65477000D01*
X-403816750Y-65477000D01*
X-404070750Y-65477000D01*
X-405320000Y-65477000D01*
X-405478750Y-65635750D01*
X-405481822Y-65900000D01*
X-407323582Y-65900000D01*
X-407327500Y-65862729D01*
X-407327500Y-64800000D01*
X-405481822Y-64800000D01*
X-405478750Y-65064250D01*
X-405320000Y-65223000D01*
X-404070750Y-65223000D01*
X-404070750Y-64323750D01*
X-403816750Y-64323750D01*
X-403816750Y-65223000D01*
X-402567500Y-65223000D01*
X-402408750Y-65064250D01*
X-402405678Y-64800000D01*
X-399281822Y-64800000D01*
X-399281822Y-65900000D01*
X-399269562Y-66024482D01*
X-399233252Y-66144180D01*
X-399174287Y-66254494D01*
X-399094935Y-66351185D01*
X-398998244Y-66430537D01*
X-398887930Y-66489502D01*
X-398768232Y-66525812D01*
X-398643750Y-66538072D01*
X-396843750Y-66538072D01*
X-396719268Y-66525812D01*
X-396599570Y-66489502D01*
X-396489256Y-66430537D01*
X-396392565Y-66351185D01*
X-396313213Y-66254494D01*
X-396254248Y-66144180D01*
X-396217938Y-66024482D01*
X-396205678Y-65900000D01*
X-396205678Y-64800000D01*
X-396217938Y-64675518D01*
X-396254248Y-64555820D01*
X-396313213Y-64445506D01*
X-396392565Y-64348815D01*
X-396489256Y-64269463D01*
X-396599570Y-64210498D01*
X-396719268Y-64174188D01*
X-396843750Y-64161928D01*
X-398643750Y-64161928D01*
X-398768232Y-64174188D01*
X-398887930Y-64210498D01*
X-398998244Y-64269463D01*
X-399094935Y-64348815D01*
X-399174287Y-64445506D01*
X-399233252Y-64555820D01*
X-399269562Y-64675518D01*
X-399281822Y-64800000D01*
X-402405678Y-64800000D01*
X-402417938Y-64675518D01*
X-402454248Y-64555820D01*
X-402513213Y-64445506D01*
X-402592565Y-64348815D01*
X-402689256Y-64269463D01*
X-402799570Y-64210498D01*
X-402919268Y-64174188D01*
X-403043750Y-64161928D01*
X-403658000Y-64165000D01*
X-403816750Y-64323750D01*
X-404070750Y-64323750D01*
X-404229500Y-64165000D01*
X-404843750Y-64161928D01*
X-404968232Y-64174188D01*
X-405087930Y-64210498D01*
X-405198244Y-64269463D01*
X-405294935Y-64348815D01*
X-405374287Y-64445506D01*
X-405433252Y-64555820D01*
X-405469562Y-64675518D01*
X-405481822Y-64800000D01*
X-407327500Y-64800000D01*
X-407327500Y-61100000D01*
X-405481822Y-61100000D01*
X-405481822Y-62200000D01*
X-405469562Y-62324482D01*
X-405433252Y-62444180D01*
X-405374287Y-62554494D01*
X-405294935Y-62651185D01*
X-405198244Y-62730537D01*
X-405087930Y-62789502D01*
X-404968232Y-62825812D01*
X-404843750Y-62838072D01*
X-403043750Y-62838072D01*
X-402919268Y-62825812D01*
X-402799570Y-62789502D01*
X-402689256Y-62730537D01*
X-402592565Y-62651185D01*
X-402513213Y-62554494D01*
X-402454248Y-62444180D01*
X-402417938Y-62324482D01*
X-402405678Y-62200000D01*
X-402405678Y-61100000D01*
X-399281822Y-61100000D01*
X-399281822Y-62200000D01*
X-399269562Y-62324482D01*
X-399233252Y-62444180D01*
X-399174287Y-62554494D01*
X-399094935Y-62651185D01*
X-398998244Y-62730537D01*
X-398887930Y-62789502D01*
X-398768232Y-62825812D01*
X-398643750Y-62838072D01*
X-396843750Y-62838072D01*
X-396719268Y-62825812D01*
X-396599570Y-62789502D01*
X-396489256Y-62730537D01*
X-396392565Y-62651185D01*
X-396313213Y-62554494D01*
X-396254248Y-62444180D01*
X-396243880Y-62410000D01*
X-396205322Y-62410000D01*
X-396168000Y-62413676D01*
X-396130678Y-62410000D01*
X-396130667Y-62410000D01*
X-396019014Y-62399003D01*
X-395875753Y-62355546D01*
X-395743724Y-62284974D01*
X-395627999Y-62190001D01*
X-395604197Y-62160998D01*
X-395438199Y-61995000D01*
X-395376061Y-61995000D01*
X-395176102Y-61955226D01*
X-394987744Y-61877205D01*
X-394818226Y-61763937D01*
X-394674063Y-61619774D01*
X-394560795Y-61450256D01*
X-394482774Y-61261898D01*
X-394443000Y-61061939D01*
X-394443000Y-60858061D01*
X-394482774Y-60658102D01*
X-394560795Y-60469744D01*
X-394674063Y-60300226D01*
X-394818226Y-60156063D01*
X-394987744Y-60042795D01*
X-395176102Y-59964774D01*
X-395376061Y-59925000D01*
X-395579939Y-59925000D01*
X-395779898Y-59964774D01*
X-395968256Y-60042795D01*
X-396137774Y-60156063D01*
X-396281937Y-60300226D01*
X-396395205Y-60469744D01*
X-396449892Y-60601768D01*
X-396489256Y-60569463D01*
X-396599570Y-60510498D01*
X-396719268Y-60474188D01*
X-396843750Y-60461928D01*
X-398643750Y-60461928D01*
X-398768232Y-60474188D01*
X-398887930Y-60510498D01*
X-398998244Y-60569463D01*
X-399094935Y-60648815D01*
X-399174287Y-60745506D01*
X-399233252Y-60855820D01*
X-399269562Y-60975518D01*
X-399281822Y-61100000D01*
X-402405678Y-61100000D01*
X-402417938Y-60975518D01*
X-402454248Y-60855820D01*
X-402513213Y-60745506D01*
X-402592565Y-60648815D01*
X-402689256Y-60569463D01*
X-402799570Y-60510498D01*
X-402919268Y-60474188D01*
X-403043750Y-60461928D01*
X-404843750Y-60461928D01*
X-404968232Y-60474188D01*
X-405087930Y-60510498D01*
X-405198244Y-60569463D01*
X-405294935Y-60648815D01*
X-405374287Y-60745506D01*
X-405433252Y-60855820D01*
X-405469562Y-60975518D01*
X-405481822Y-61100000D01*
X-407327500Y-61100000D01*
X-407327500Y-32576029D01*
X-407291614Y-32210040D01*
X-407194699Y-31889040D01*
X-407037279Y-31592975D01*
X-406825351Y-31333127D01*
X-406566990Y-31119392D01*
X-406272036Y-30959912D01*
X-405951718Y-30860756D01*
X-405587738Y-30822500D01*
X-402740890Y-30822500D01*
X-402782263Y-30958889D01*
G37*
X-402782263Y-30958889D02*
X-402803750Y-31177050D01*
X-402803750Y-32322949D01*
X-402782263Y-32541110D01*
X-402697349Y-32821033D01*
X-402559456Y-33079013D01*
X-402373884Y-33305134D01*
X-402147764Y-33490706D01*
X-401889784Y-33628599D01*
X-401609861Y-33713513D01*
X-401318750Y-33742185D01*
X-401027640Y-33713513D01*
X-400747717Y-33628599D01*
X-400489737Y-33490706D01*
X-400263616Y-33305134D01*
X-400078044Y-33079014D01*
X-399940151Y-32821034D01*
X-399855237Y-32541111D01*
X-399833750Y-32322950D01*
X-399833750Y-31177050D01*
X-399855237Y-30958889D01*
X-399896610Y-30822500D01*
X-395440890Y-30822500D01*
X-395482263Y-30958889D01*
X-395503750Y-31177050D01*
X-395503750Y-32322949D01*
X-395482263Y-32541110D01*
X-395397349Y-32821033D01*
X-395259456Y-33079013D01*
X-395073884Y-33305134D01*
X-394847764Y-33490706D01*
X-394589784Y-33628599D01*
X-394309861Y-33713513D01*
X-394018750Y-33742185D01*
X-393727640Y-33713513D01*
X-393447717Y-33628599D01*
X-393189737Y-33490706D01*
X-392963616Y-33305134D01*
X-392778044Y-33079014D01*
X-392640151Y-32821034D01*
X-392555237Y-32541111D01*
X-392533750Y-32322950D01*
X-392533750Y-31177050D01*
X-392555237Y-30958889D01*
X-392596610Y-30822500D01*
X-361315000Y-30822500D01*
X-361315000Y-48446250D01*
X-366768178Y-48446250D01*
X-366768178Y-48131250D01*
X-366780438Y-48006768D01*
X-366780595Y-48006250D01*
X-366780438Y-48005732D01*
X-366768178Y-47881250D01*
X-366768178Y-47631750D01*
X-365362800Y-47631750D01*
X-365322250Y-47635744D01*
X-365281700Y-47631750D01*
X-365281697Y-47631750D01*
X-365160424Y-47619806D01*
X-365004816Y-47572603D01*
X-364861408Y-47495949D01*
X-364735709Y-47392791D01*
X-364709852Y-47361284D01*
X-364448140Y-47099572D01*
X-364033750Y-47099572D01*
X-363861715Y-47082628D01*
X-363765693Y-47053500D01*
X-363085503Y-47053500D01*
X-362948256Y-47145205D01*
X-362759898Y-47223226D01*
X-362559939Y-47263000D01*
X-362356061Y-47263000D01*
X-362156102Y-47223226D01*
X-361967744Y-47145205D01*
X-361798226Y-47031937D01*
X-361654063Y-46887774D01*
X-361540795Y-46718256D01*
X-361462774Y-46529898D01*
X-361423000Y-46329939D01*
X-361423000Y-46126061D01*
X-361462774Y-45926102D01*
X-361540795Y-45737744D01*
X-361654063Y-45568226D01*
X-361798226Y-45424063D01*
X-361967744Y-45310795D01*
X-362156102Y-45232774D01*
X-362356061Y-45193000D01*
X-362559939Y-45193000D01*
X-362759898Y-45232774D01*
X-362948256Y-45310795D01*
X-363085503Y-45402500D01*
X-363216108Y-45402500D01*
X-363219053Y-45392791D01*
X-363300542Y-45240336D01*
X-363410208Y-45106708D01*
X-363416564Y-45101492D01*
X-363338815Y-45037685D01*
X-363259463Y-44940994D01*
X-363200498Y-44830680D01*
X-363164188Y-44710982D01*
X-363151928Y-44586500D01*
X-363155000Y-44384750D01*
X-363313750Y-44226000D01*
X-364363000Y-44226000D01*
X-364363000Y-44246000D01*
X-364617000Y-44246000D01*
X-364617000Y-44226000D01*
X-365666250Y-44226000D01*
X-365825000Y-44384750D01*
X-365828072Y-44586500D01*
X-365815812Y-44710982D01*
X-365779502Y-44830680D01*
X-365720537Y-44940994D01*
X-365641185Y-45037685D01*
X-365563436Y-45101492D01*
X-365569792Y-45106708D01*
X-365679458Y-45240336D01*
X-365760947Y-45392791D01*
X-365811128Y-45558215D01*
X-365828072Y-45730250D01*
X-365828072Y-45980750D01*
X-366771250Y-45980750D01*
X-366771250Y-45879248D01*
X-366929998Y-45879248D01*
X-366771250Y-45720500D01*
X-366781073Y-45603619D01*
X-366817985Y-45484105D01*
X-366877504Y-45374089D01*
X-366957342Y-45277799D01*
X-367054432Y-45198934D01*
X-367165042Y-45140526D01*
X-367284921Y-45104820D01*
X-367409463Y-45093186D01*
X-367870500Y-45096250D01*
X-368029250Y-45255000D01*
X-368029250Y-45879250D01*
X-368009250Y-45879250D01*
X-368009250Y-45893178D01*
X-368906250Y-45893178D01*
X-369030732Y-45905438D01*
X-369150430Y-45941748D01*
X-369260744Y-46000713D01*
X-369357435Y-46080065D01*
X-369436787Y-46176756D01*
X-369449167Y-46199917D01*
X-369541250Y-46292000D01*
X-369531704Y-46405587D01*
X-369532062Y-46406768D01*
X-369544322Y-46531250D01*
X-369544322Y-47081250D01*
X-369532062Y-47205732D01*
X-369531905Y-47206250D01*
X-369532062Y-47206768D01*
X-369544322Y-47331250D01*
X-369544322Y-47881250D01*
X-369532062Y-48005732D01*
X-369531905Y-48006250D01*
X-369532062Y-48006768D01*
X-369544322Y-48131250D01*
X-369544322Y-48681250D01*
X-369532062Y-48805732D01*
X-369531905Y-48806250D01*
X-369532062Y-48806768D01*
X-369544322Y-48931250D01*
X-369544322Y-49481250D01*
X-369532062Y-49605732D01*
X-369531905Y-49606250D01*
X-369532062Y-49606768D01*
X-369544322Y-49731250D01*
X-369544322Y-50281250D01*
X-369532062Y-50405732D01*
X-369531905Y-50406250D01*
X-369532062Y-50406768D01*
X-369544322Y-50531250D01*
X-369544322Y-51081250D01*
X-369532062Y-51205732D01*
X-369531905Y-51206250D01*
X-369532062Y-51206768D01*
X-369544322Y-51331250D01*
X-369544322Y-51881250D01*
X-369532062Y-52005732D01*
X-369531905Y-52006250D01*
X-369532062Y-52006768D01*
X-369544322Y-52131250D01*
X-369544322Y-52681250D01*
X-369532062Y-52805732D01*
X-369531905Y-52806250D01*
X-369532062Y-52806768D01*
X-369544322Y-52931250D01*
X-369544322Y-53481250D01*
X-369532062Y-53605732D01*
X-369531905Y-53606250D01*
X-369532062Y-53606768D01*
X-369544322Y-53731250D01*
X-369544322Y-54281250D01*
X-369540288Y-54322212D01*
X-369581250Y-54318178D01*
X-370131250Y-54318178D01*
X-370255732Y-54330438D01*
X-370256913Y-54330796D01*
X-370370500Y-54321250D01*
X-370462583Y-54413333D01*
X-370485744Y-54425713D01*
X-370582435Y-54505065D01*
X-370656250Y-54595009D01*
X-370730065Y-54505065D01*
X-370826756Y-54425713D01*
X-370849917Y-54413333D01*
X-370942000Y-54321250D01*
X-371055587Y-54330796D01*
X-371056768Y-54330438D01*
X-371181250Y-54318178D01*
X-371731250Y-54318178D01*
X-371855732Y-54330438D01*
X-371856250Y-54330595D01*
X-371856768Y-54330438D01*
X-371981250Y-54318178D01*
X-372531250Y-54318178D01*
X-372655732Y-54330438D01*
X-372656250Y-54330595D01*
X-372656768Y-54330438D01*
X-372781250Y-54318178D01*
X-373331250Y-54318178D01*
X-373455732Y-54330438D01*
X-373456250Y-54330595D01*
X-373456768Y-54330438D01*
X-373581250Y-54318178D01*
X-374131250Y-54318178D01*
X-374255732Y-54330438D01*
X-374256250Y-54330595D01*
X-374256768Y-54330438D01*
X-374381250Y-54318178D01*
X-374931250Y-54318178D01*
X-375055732Y-54330438D01*
X-375056250Y-54330595D01*
X-375056768Y-54330438D01*
X-375181250Y-54318178D01*
X-375731250Y-54318178D01*
X-375855732Y-54330438D01*
X-375856250Y-54330595D01*
X-375856768Y-54330438D01*
X-375981250Y-54318178D01*
X-376531250Y-54318178D01*
X-376655732Y-54330438D01*
X-376656913Y-54330796D01*
X-376770500Y-54321250D01*
X-376862583Y-54413333D01*
X-376885744Y-54425713D01*
X-376982435Y-54505065D01*
X-377056250Y-54595009D01*
X-377130065Y-54505065D01*
X-377226756Y-54425713D01*
X-377249917Y-54413333D01*
X-377342000Y-54321250D01*
X-377455587Y-54330796D01*
X-377456768Y-54330438D01*
X-377581250Y-54318178D01*
X-378131250Y-54318178D01*
X-378172212Y-54322212D01*
X-378168178Y-54281250D01*
X-378168178Y-53731250D01*
X-378180438Y-53606768D01*
X-378180595Y-53606250D01*
X-378180438Y-53605732D01*
X-378168178Y-53481250D01*
X-378168178Y-52931250D01*
X-378180438Y-52806768D01*
X-378180595Y-52806250D01*
X-378180438Y-52805732D01*
X-378168178Y-52681250D01*
X-378168178Y-52131250D01*
X-378180438Y-52006768D01*
X-378180595Y-52006250D01*
X-378180438Y-52005732D01*
X-378168178Y-51881250D01*
X-378168178Y-51331250D01*
X-378180438Y-51206768D01*
X-378180796Y-51205587D01*
X-378171250Y-51092000D01*
X-378263333Y-50999917D01*
X-378275713Y-50976756D01*
X-378355065Y-50880065D01*
X-378445009Y-50806250D01*
X-378355065Y-50732435D01*
X-378275713Y-50635744D01*
X-378263333Y-50612583D01*
X-378171250Y-50520500D01*
X-378180796Y-50406913D01*
X-378180438Y-50405732D01*
X-378168178Y-50281250D01*
X-378168178Y-49731250D01*
X-378180438Y-49606768D01*
X-378180595Y-49606250D01*
X-378180438Y-49605732D01*
X-378168178Y-49481250D01*
X-378168178Y-48931250D01*
X-378180438Y-48806768D01*
X-378180595Y-48806250D01*
X-378180438Y-48805732D01*
X-378168178Y-48681250D01*
X-378168178Y-48131250D01*
X-378180438Y-48006768D01*
X-378180595Y-48006250D01*
X-378180438Y-48005732D01*
X-378168178Y-47881250D01*
X-378168178Y-47331250D01*
X-378180438Y-47206768D01*
X-378180595Y-47206250D01*
X-378180438Y-47205732D01*
X-378168178Y-47081250D01*
X-378168178Y-46531250D01*
X-378180438Y-46406768D01*
X-378180595Y-46406250D01*
X-378180438Y-46405732D01*
X-378168178Y-46281250D01*
X-378168178Y-45731250D01*
X-378172212Y-45690288D01*
X-378131250Y-45694322D01*
X-377581250Y-45694322D01*
X-377456768Y-45682062D01*
X-377456250Y-45681905D01*
X-377455732Y-45682062D01*
X-377331250Y-45694322D01*
X-376781250Y-45694322D01*
X-376656768Y-45682062D01*
X-376656250Y-45681905D01*
X-376655732Y-45682062D01*
X-376531250Y-45694322D01*
X-375981250Y-45694322D01*
X-375856768Y-45682062D01*
X-375855587Y-45681704D01*
X-375742000Y-45691250D01*
X-375649917Y-45599167D01*
X-375626756Y-45586787D01*
X-375530065Y-45507435D01*
X-375456250Y-45417491D01*
X-375382435Y-45507435D01*
X-375285744Y-45586787D01*
X-375262583Y-45599167D01*
X-375170500Y-45691250D01*
X-375056913Y-45681704D01*
X-375055732Y-45682062D01*
X-374931250Y-45694322D01*
X-374381250Y-45694322D01*
X-374256768Y-45682062D01*
X-374256250Y-45681905D01*
X-374255732Y-45682062D01*
X-374131250Y-45694322D01*
X-373581250Y-45694322D01*
X-373456768Y-45682062D01*
X-373456250Y-45681905D01*
X-373455732Y-45682062D01*
X-373331250Y-45694322D01*
X-372781250Y-45694322D01*
X-372656768Y-45682062D01*
X-372656250Y-45681905D01*
X-372655732Y-45682062D01*
X-372531250Y-45694322D01*
X-371981250Y-45694322D01*
X-371856768Y-45682062D01*
X-371856250Y-45681905D01*
X-371855732Y-45682062D01*
X-371731250Y-45694322D01*
X-371181250Y-45694322D01*
X-371056768Y-45682062D01*
X-371056250Y-45681905D01*
X-371055732Y-45682062D01*
X-370931250Y-45694322D01*
X-370381250Y-45694322D01*
X-370256768Y-45682062D01*
X-370256250Y-45681905D01*
X-370255732Y-45682062D01*
X-370131250Y-45694322D01*
X-369581250Y-45694322D01*
X-369538698Y-45690131D01*
X-369541250Y-45720500D01*
X-369382500Y-45879250D01*
X-368283250Y-45879250D01*
X-368283250Y-45255000D01*
X-368442000Y-45096250D01*
X-368903037Y-45093186D01*
X-368947222Y-45097314D01*
X-368943178Y-45056250D01*
X-368943178Y-43611500D01*
X-365828072Y-43611500D01*
X-365825000Y-43813250D01*
X-365666250Y-43972000D01*
X-364617000Y-43972000D01*
X-364617000Y-43135250D01*
X-364363000Y-43135250D01*
X-364363000Y-43972000D01*
X-363313750Y-43972000D01*
X-363155000Y-43813250D01*
X-363151928Y-43611500D01*
X-363164188Y-43487018D01*
X-363200498Y-43367320D01*
X-363259463Y-43257006D01*
X-363338815Y-43160315D01*
X-363435506Y-43080963D01*
X-363545820Y-43021998D01*
X-363665518Y-42985688D01*
X-363790000Y-42973428D01*
X-364204250Y-42976500D01*
X-364363000Y-43135250D01*
X-364617000Y-43135250D01*
X-364775750Y-42976500D01*
X-365190000Y-42973428D01*
X-365314482Y-42985688D01*
X-365434180Y-43021998D01*
X-365544494Y-43080963D01*
X-365641185Y-43160315D01*
X-365720537Y-43257006D01*
X-365779502Y-43367320D01*
X-365815812Y-43487018D01*
X-365828072Y-43611500D01*
X-368943178Y-43611500D01*
X-368943178Y-43556250D01*
X-368955438Y-43431768D01*
X-368991748Y-43312070D01*
X-369050713Y-43201756D01*
X-369130065Y-43105065D01*
X-369226756Y-43025713D01*
X-369337070Y-42966748D01*
X-369456768Y-42930438D01*
X-369581250Y-42918178D01*
X-370131250Y-42918178D01*
X-370255732Y-42930438D01*
X-370256250Y-42930595D01*
X-370256768Y-42930438D01*
X-370381250Y-42918178D01*
X-370931250Y-42918178D01*
X-371055732Y-42930438D01*
X-371056250Y-42930595D01*
X-371056768Y-42930438D01*
X-371181250Y-42918178D01*
X-371731250Y-42918178D01*
X-371855732Y-42930438D01*
X-371856250Y-42930595D01*
X-371856768Y-42930438D01*
X-371981250Y-42918178D01*
X-372531250Y-42918178D01*
X-372655732Y-42930438D01*
X-372656250Y-42930595D01*
X-372656768Y-42930438D01*
X-372781250Y-42918178D01*
X-373096250Y-42918178D01*
X-373096250Y-38637051D01*
X-372106997Y-37647799D01*
X-372077999Y-37624001D01*
X-371983026Y-37508276D01*
X-371912454Y-37376247D01*
X-371868997Y-37232986D01*
X-371858000Y-37121333D01*
X-371858000Y-37121324D01*
X-371854324Y-37084001D01*
X-371858000Y-37046678D01*
X-371858000Y-36538163D01*
X-371793518Y-36531812D01*
X-371673820Y-36495502D01*
X-371563506Y-36436537D01*
X-371466815Y-36357185D01*
X-371387463Y-36260494D01*
X-371328498Y-36150180D01*
X-371302962Y-36066000D01*
X-370229845Y-36066000D01*
X-370141792Y-36173292D01*
X-370008164Y-36282958D01*
X-369855709Y-36364447D01*
X-369690285Y-36414628D01*
X-369518250Y-36431572D01*
X-368605750Y-36431572D01*
X-368433715Y-36414628D01*
X-368268291Y-36364447D01*
X-368115836Y-36282958D01*
X-367982208Y-36173292D01*
X-367872542Y-36039664D01*
X-367791053Y-35887209D01*
X-367740872Y-35721785D01*
X-367723928Y-35549750D01*
X-367723928Y-35062250D01*
X-367740872Y-34890215D01*
X-367791053Y-34724791D01*
X-367872542Y-34572336D01*
X-367982208Y-34438708D01*
X-367988564Y-34433492D01*
X-367910815Y-34369685D01*
X-367831463Y-34272994D01*
X-367772498Y-34162680D01*
X-367736188Y-34042982D01*
X-367723928Y-33918500D01*
X-367727000Y-33716750D01*
X-367885750Y-33558000D01*
X-368935000Y-33558000D01*
X-368935000Y-33578000D01*
X-369189000Y-33578000D01*
X-369189000Y-33558000D01*
X-370238250Y-33558000D01*
X-370397000Y-33716750D01*
X-370400072Y-33918500D01*
X-370387812Y-34042982D01*
X-370351502Y-34162680D01*
X-370292537Y-34272994D01*
X-370213185Y-34369685D01*
X-370135436Y-34433492D01*
X-370141792Y-34438708D01*
X-370229845Y-34546000D01*
X-371302962Y-34546000D01*
X-371328498Y-34461820D01*
X-371331609Y-34456000D01*
X-371328498Y-34450180D01*
X-371292188Y-34330482D01*
X-371279928Y-34206000D01*
X-371283000Y-33891750D01*
X-371441750Y-33733000D01*
X-372491000Y-33733000D01*
X-372491000Y-33753000D01*
X-372745000Y-33753000D01*
X-372745000Y-33733000D01*
X-372765000Y-33733000D01*
X-372765000Y-33479000D01*
X-372745000Y-33479000D01*
X-372745000Y-32529750D01*
X-372491000Y-32529750D01*
X-372491000Y-33479000D01*
X-371441750Y-33479000D01*
X-371283000Y-33320250D01*
X-371279928Y-33006000D01*
X-371286083Y-32943500D01*
X-370400072Y-32943500D01*
X-370397000Y-33145250D01*
X-370238250Y-33304000D01*
X-369189000Y-33304000D01*
X-369189000Y-32467250D01*
X-368935000Y-32467250D01*
X-368935000Y-33304000D01*
X-367885750Y-33304000D01*
X-367727000Y-33145250D01*
X-367723928Y-32943500D01*
X-367736188Y-32819018D01*
X-367772498Y-32699320D01*
X-367831463Y-32589006D01*
X-367910815Y-32492315D01*
X-368007506Y-32412963D01*
X-368117820Y-32353998D01*
X-368237518Y-32317688D01*
X-368362000Y-32305428D01*
X-368776250Y-32308500D01*
X-368935000Y-32467250D01*
X-369189000Y-32467250D01*
X-369347750Y-32308500D01*
X-369762000Y-32305428D01*
X-369886482Y-32317688D01*
X-370006180Y-32353998D01*
X-370116494Y-32412963D01*
X-370213185Y-32492315D01*
X-370292537Y-32589006D01*
X-370351502Y-32699320D01*
X-370387812Y-32819018D01*
X-370400072Y-32943500D01*
X-371286083Y-32943500D01*
X-371292188Y-32881518D01*
X-371328498Y-32761820D01*
X-371387463Y-32651506D01*
X-371466815Y-32554815D01*
X-371563506Y-32475463D01*
X-371673820Y-32416498D01*
X-371793518Y-32380188D01*
X-371918000Y-32367928D01*
X-372332250Y-32371000D01*
X-372491000Y-32529750D01*
X-372745000Y-32529750D01*
X-372903750Y-32371000D01*
X-373318000Y-32367928D01*
X-373442482Y-32380188D01*
X-373562180Y-32416498D01*
X-373672494Y-32475463D01*
X-373718000Y-32512809D01*
X-373763506Y-32475463D01*
X-373873820Y-32416498D01*
X-373993518Y-32380188D01*
X-374118000Y-32367928D01*
X-375518000Y-32367928D01*
X-375642482Y-32380188D01*
X-375762180Y-32416498D01*
X-375872494Y-32475463D01*
X-375969185Y-32554815D01*
X-376048537Y-32651506D01*
X-376058957Y-32671000D01*
X-377038155Y-32671000D01*
X-377126208Y-32563708D01*
X-377259836Y-32454042D01*
X-377412291Y-32372553D01*
X-377577715Y-32322372D01*
X-377749750Y-32305428D01*
X-378662250Y-32305428D01*
X-378834285Y-32322372D01*
X-378999709Y-32372553D01*
X-379152164Y-32454042D01*
X-379285792Y-32563708D01*
X-379395458Y-32697336D01*
X-379476947Y-32849791D01*
X-379527128Y-33015215D01*
X-379544072Y-33187250D01*
X-379544072Y-33674750D01*
X-379527128Y-33846785D01*
X-379476947Y-34012209D01*
X-379395458Y-34164664D01*
X-379285792Y-34298292D01*
X-379279436Y-34303508D01*
X-379357185Y-34367315D01*
X-379436537Y-34464006D01*
X-379495502Y-34574320D01*
X-379531812Y-34694018D01*
X-379544072Y-34818500D01*
X-379541000Y-35020250D01*
X-379382250Y-35179000D01*
X-378333000Y-35179000D01*
X-378333000Y-35159000D01*
X-378079000Y-35159000D01*
X-378079000Y-35179000D01*
X-378059000Y-35179000D01*
X-378059000Y-35433000D01*
X-378079000Y-35433000D01*
X-378079000Y-36269750D01*
X-377920250Y-36428500D01*
X-377506000Y-36431572D01*
X-377381518Y-36419312D01*
X-377261820Y-36383002D01*
X-377211999Y-36356372D01*
X-377211999Y-36514668D01*
X-377215676Y-36552000D01*
X-377201002Y-36700985D01*
X-377157546Y-36844246D01*
X-377086974Y-36976276D01*
X-377017277Y-37061201D01*
X-376992000Y-37092001D01*
X-376963002Y-37115799D01*
X-375416250Y-38662552D01*
X-375416249Y-43146268D01*
X-375450865Y-43188447D01*
X-375489897Y-43059775D01*
X-375516885Y-43009285D01*
X-375566551Y-42916366D01*
X-375620012Y-42851224D01*
X-375669709Y-42790668D01*
X-375701210Y-42764816D01*
X-376610571Y-41855456D01*
X-376636428Y-41823949D01*
X-376762127Y-41720791D01*
X-376905535Y-41644137D01*
X-377061143Y-41596934D01*
X-377182416Y-41584990D01*
X-377182419Y-41584990D01*
X-377222969Y-41580996D01*
X-377263519Y-41584990D01*
X-381821566Y-41584990D01*
X-381801463Y-41560494D01*
X-381742498Y-41450180D01*
X-381706188Y-41330482D01*
X-381693928Y-41206000D01*
X-381697000Y-41004250D01*
X-381855750Y-40845500D01*
X-382905000Y-40845500D01*
X-382905000Y-40865500D01*
X-383159000Y-40865500D01*
X-383159000Y-40845500D01*
X-383179000Y-40845500D01*
X-383179000Y-40591500D01*
X-383159000Y-40591500D01*
X-383159000Y-39754750D01*
X-382905000Y-39754750D01*
X-382905000Y-40591500D01*
X-381855750Y-40591500D01*
X-381697000Y-40432750D01*
X-381693928Y-40231000D01*
X-381706188Y-40106518D01*
X-381742498Y-39986820D01*
X-381801463Y-39876506D01*
X-381880815Y-39779815D01*
X-381977506Y-39700463D01*
X-382087820Y-39641498D01*
X-382207518Y-39605188D01*
X-382332000Y-39592928D01*
X-382746250Y-39596000D01*
X-382905000Y-39754750D01*
X-383159000Y-39754750D01*
X-383317750Y-39596000D01*
X-383732000Y-39592928D01*
X-383775000Y-39597163D01*
X-383775000Y-39522061D01*
X-383814774Y-39322102D01*
X-383892795Y-39133744D01*
X-384006063Y-38964226D01*
X-384150226Y-38820063D01*
X-384319744Y-38706795D01*
X-384508102Y-38628774D01*
X-384708061Y-38589000D01*
X-384911939Y-38589000D01*
X-385111898Y-38628774D01*
X-385300256Y-38706795D01*
X-385469774Y-38820063D01*
X-385613937Y-38964226D01*
X-385727205Y-39133744D01*
X-385805226Y-39322102D01*
X-385838291Y-39488332D01*
X-385850735Y-39503496D01*
X-385899698Y-39563157D01*
X-385929558Y-39619020D01*
X-385959715Y-39609872D01*
X-386131750Y-39592928D01*
X-387044250Y-39592928D01*
X-387216285Y-39609872D01*
X-387381709Y-39660053D01*
X-387534164Y-39741542D01*
X-387667792Y-39851208D01*
X-387777458Y-39984836D01*
X-387858947Y-40137291D01*
X-387909128Y-40302715D01*
X-387926072Y-40474750D01*
X-387926072Y-40962250D01*
X-387909128Y-41134285D01*
X-387858947Y-41299709D01*
X-387777458Y-41452164D01*
X-387667792Y-41585792D01*
X-387582244Y-41656000D01*
X-387667792Y-41726208D01*
X-387673619Y-41733308D01*
X-387810102Y-41676774D01*
X-388010061Y-41637000D01*
X-388213939Y-41637000D01*
X-388413898Y-41676774D01*
X-388602256Y-41754795D01*
X-388771774Y-41868063D01*
X-388915937Y-42012226D01*
X-389029205Y-42181744D01*
X-389107226Y-42370102D01*
X-389147000Y-42570061D01*
X-389147000Y-42773939D01*
X-389107226Y-42973898D01*
X-389029205Y-43162256D01*
X-388915937Y-43331774D01*
X-388771774Y-43475937D01*
X-388602256Y-43589205D01*
X-388413898Y-43667226D01*
X-388213939Y-43707000D01*
X-388010061Y-43707000D01*
X-387810102Y-43667226D01*
X-387621744Y-43589205D01*
X-387560877Y-43548535D01*
X-387534164Y-43570458D01*
X-387381709Y-43651947D01*
X-387216285Y-43702128D01*
X-387044250Y-43719072D01*
X-386131750Y-43719072D01*
X-385959715Y-43702128D01*
X-385878738Y-43677564D01*
X-384865799Y-44690503D01*
X-384842001Y-44719501D01*
X-384726276Y-44814474D01*
X-384594247Y-44885046D01*
X-384450986Y-44928503D01*
X-384339333Y-44939500D01*
X-384339325Y-44939500D01*
X-384302000Y-44943176D01*
X-384264675Y-44939500D01*
X-380545822Y-44939500D01*
X-380508500Y-44943176D01*
X-380471178Y-44939500D01*
X-380471167Y-44939500D01*
X-380359514Y-44928503D01*
X-380216253Y-44885046D01*
X-380084224Y-44814474D01*
X-379968499Y-44719501D01*
X-379944696Y-44690497D01*
X-378940198Y-43686000D01*
X-378769322Y-43686000D01*
X-378769322Y-45056250D01*
X-378765288Y-45097212D01*
X-378806250Y-45093178D01*
X-380306250Y-45093178D01*
X-380430732Y-45105438D01*
X-380550430Y-45141748D01*
X-380660744Y-45200713D01*
X-380757435Y-45280065D01*
X-380836787Y-45376756D01*
X-380895752Y-45487070D01*
X-380932062Y-45606768D01*
X-380944322Y-45731250D01*
X-380944322Y-46281250D01*
X-380932062Y-46405732D01*
X-380931905Y-46406250D01*
X-380932062Y-46406768D01*
X-380944322Y-46531250D01*
X-380944322Y-47081250D01*
X-380932062Y-47205732D01*
X-380931905Y-47206250D01*
X-380932062Y-47206768D01*
X-380944322Y-47331250D01*
X-380944322Y-47881250D01*
X-380932062Y-48005732D01*
X-380931905Y-48006250D01*
X-380932062Y-48006768D01*
X-380944111Y-48129107D01*
X-380958063Y-48108226D01*
X-381102226Y-47964063D01*
X-381271744Y-47850795D01*
X-381460102Y-47772774D01*
X-381660061Y-47733000D01*
X-381863939Y-47733000D01*
X-382063898Y-47772774D01*
X-382252256Y-47850795D01*
X-382421774Y-47964063D01*
X-382565937Y-48108226D01*
X-382679205Y-48277744D01*
X-382757226Y-48466102D01*
X-382797000Y-48666061D01*
X-382797000Y-48869939D01*
X-382757226Y-49069898D01*
X-382684178Y-49246250D01*
X-383555678Y-49246250D01*
X-383555678Y-48756250D01*
X-383572622Y-48584215D01*
X-383622803Y-48418791D01*
X-383704292Y-48266336D01*
X-383813958Y-48132708D01*
X-383947586Y-48023042D01*
X-384100041Y-47941553D01*
X-384265465Y-47891372D01*
X-384437500Y-47874428D01*
X-384925000Y-47874428D01*
X-385097035Y-47891372D01*
X-385262459Y-47941553D01*
X-385414914Y-48023042D01*
X-385548542Y-48132708D01*
X-385553758Y-48139064D01*
X-385617565Y-48061315D01*
X-385714256Y-47981963D01*
X-385824570Y-47922998D01*
X-385944268Y-47886688D01*
X-386068750Y-47874428D01*
X-386270500Y-47877500D01*
X-386429250Y-48036250D01*
X-386429250Y-49085500D01*
X-386409250Y-49085500D01*
X-386409250Y-49339500D01*
X-386429250Y-49339500D01*
X-386429250Y-50388750D01*
X-386270500Y-50547500D01*
X-386068750Y-50550572D01*
X-385944268Y-50538312D01*
X-385824570Y-50502002D01*
X-385714256Y-50443037D01*
X-385617565Y-50363685D01*
X-385553758Y-50285936D01*
X-385548542Y-50292292D01*
X-385414914Y-50401958D01*
X-385262459Y-50483447D01*
X-385097035Y-50533628D01*
X-384925000Y-50550572D01*
X-384437500Y-50550572D01*
X-384423871Y-50549230D01*
X-384398503Y-50570049D01*
X-384311777Y-50641224D01*
X-384191642Y-50705438D01*
X-384179747Y-50711796D01*
X-384036486Y-50755253D01*
X-383924833Y-50766250D01*
X-383924823Y-50766250D01*
X-383887501Y-50769926D01*
X-383850178Y-50766250D01*
X-380716231Y-50766250D01*
X-380667491Y-50806250D01*
X-380716231Y-50846250D01*
X-393340948Y-50846250D01*
X-394274698Y-49912500D01*
X-387681822Y-49912500D01*
X-387669562Y-50036982D01*
X-387633252Y-50156680D01*
X-387574287Y-50266994D01*
X-387494935Y-50363685D01*
X-387398244Y-50443037D01*
X-387287930Y-50502002D01*
X-387168232Y-50538312D01*
X-387043750Y-50550572D01*
X-386842000Y-50547500D01*
X-386683250Y-50388750D01*
X-386683250Y-49339500D01*
X-387520000Y-49339500D01*
X-387678750Y-49498250D01*
X-387681822Y-49912500D01*
X-394274698Y-49912500D01*
X-395674698Y-48512500D01*
X-387681822Y-48512500D01*
X-387678750Y-48926750D01*
X-387520000Y-49085500D01*
X-386683250Y-49085500D01*
X-386683250Y-48036250D01*
X-386842000Y-47877500D01*
X-387043750Y-47874428D01*
X-387168232Y-47886688D01*
X-387287930Y-47922998D01*
X-387398244Y-47981963D01*
X-387494935Y-48061315D01*
X-387574287Y-48158006D01*
X-387633252Y-48268320D01*
X-387669562Y-48388018D01*
X-387681822Y-48512500D01*
X-395674698Y-48512500D01*
X-396258500Y-47928699D01*
X-396258500Y-44510801D01*
X-395679262Y-43931564D01*
X-395598285Y-43956128D01*
X-395426250Y-43973072D01*
X-394513750Y-43973072D01*
X-394341715Y-43956128D01*
X-394176291Y-43905947D01*
X-394023836Y-43824458D01*
X-393890208Y-43714792D01*
X-393780542Y-43581164D01*
X-393699053Y-43428709D01*
X-393648872Y-43263285D01*
X-393631928Y-43091250D01*
X-393631928Y-42603750D01*
X-393648872Y-42431715D01*
X-393699053Y-42266291D01*
X-393780542Y-42113836D01*
X-393890208Y-41980208D01*
X-393975756Y-41910000D01*
X-393890208Y-41839792D01*
X-393780542Y-41706164D01*
X-393699053Y-41553709D01*
X-393648872Y-41388285D01*
X-393631928Y-41216250D01*
X-393631928Y-40728750D01*
X-393648872Y-40556715D01*
X-393699053Y-40391291D01*
X-393780542Y-40238836D01*
X-393890208Y-40105208D01*
X-394023836Y-39995542D01*
X-394176291Y-39914053D01*
X-394341715Y-39863872D01*
X-394513750Y-39846928D01*
X-395426250Y-39846928D01*
X-395598285Y-39863872D01*
X-395763709Y-39914053D01*
X-395846756Y-39958442D01*
X-396908750Y-38896449D01*
X-396908750Y-38013072D01*
X-396618750Y-38013072D01*
X-396494268Y-38000812D01*
X-396469484Y-37993294D01*
X-396450111Y-37999404D01*
X-396350500Y-38010000D01*
X-396191750Y-37851250D01*
X-396191750Y-37846033D01*
X-396167565Y-37826185D01*
X-396088213Y-37729494D01*
X-396029248Y-37619180D01*
X-395992938Y-37499482D01*
X-395980678Y-37375000D01*
X-395980678Y-35125000D01*
X-395992938Y-35000518D01*
X-396029248Y-34880820D01*
X-396088213Y-34770506D01*
X-396167565Y-34673815D01*
X-396191750Y-34653967D01*
X-396191750Y-34648750D01*
X-395945750Y-34648750D01*
X-395945750Y-36123000D01*
X-395921750Y-36123000D01*
X-395921750Y-36377000D01*
X-395945750Y-36377000D01*
X-395945750Y-37851250D01*
X-395787000Y-38010000D01*
X-395687389Y-37999404D01*
X-395568098Y-37961779D01*
X-395458439Y-37901604D01*
X-395362627Y-37821193D01*
X-395284344Y-37723634D01*
X-395228627Y-37616578D01*
X-395073884Y-37805134D01*
X-394847764Y-37990706D01*
X-394589784Y-38128599D01*
X-394309861Y-38213513D01*
X-394018750Y-38242185D01*
X-393727640Y-38213513D01*
X-393447717Y-38128599D01*
X-393189737Y-37990706D01*
X-392963616Y-37805134D01*
X-392778044Y-37579014D01*
X-392640151Y-37321034D01*
X-392555237Y-37041111D01*
X-392533750Y-36822950D01*
X-392533750Y-35793500D01*
X-379544072Y-35793500D01*
X-379531812Y-35917982D01*
X-379495502Y-36037680D01*
X-379436537Y-36147994D01*
X-379357185Y-36244685D01*
X-379260494Y-36324037D01*
X-379150180Y-36383002D01*
X-379030482Y-36419312D01*
X-378906000Y-36431572D01*
X-378491750Y-36428500D01*
X-378333000Y-36269750D01*
X-378333000Y-35433000D01*
X-379382250Y-35433000D01*
X-379541000Y-35591750D01*
X-379544072Y-35793500D01*
X-392533750Y-35793500D01*
X-392533750Y-35677050D01*
X-392555237Y-35458889D01*
X-392640151Y-35178966D01*
X-392778044Y-34920986D01*
X-392963616Y-34694866D01*
X-393189736Y-34509294D01*
X-393447716Y-34371401D01*
X-393727639Y-34286487D01*
X-394018750Y-34257815D01*
X-394309860Y-34286487D01*
X-394589783Y-34371401D01*
X-394847763Y-34509294D01*
X-395073883Y-34694866D01*
X-395228627Y-34883421D01*
X-395284344Y-34776366D01*
X-395362627Y-34678807D01*
X-395458439Y-34598396D01*
X-395568098Y-34538221D01*
X-395687389Y-34500596D01*
X-395787000Y-34490000D01*
X-395945750Y-34648750D01*
X-396191750Y-34648750D01*
X-396350500Y-34490000D01*
X-396450111Y-34500596D01*
X-396469484Y-34506706D01*
X-396494268Y-34499188D01*
X-396618750Y-34486928D01*
X-397118750Y-34486928D01*
X-397243232Y-34499188D01*
X-397268750Y-34506929D01*
X-397294268Y-34499188D01*
X-397418750Y-34486928D01*
X-397918750Y-34486928D01*
X-398043232Y-34499188D01*
X-398068750Y-34506929D01*
X-398094268Y-34499188D01*
X-398218750Y-34486928D01*
X-398718750Y-34486928D01*
X-398843232Y-34499188D01*
X-398868750Y-34506929D01*
X-398894268Y-34499188D01*
X-399018750Y-34486928D01*
X-399518750Y-34486928D01*
X-399643232Y-34499188D01*
X-399762930Y-34535498D01*
X-399873244Y-34594463D01*
X-399969935Y-34673815D01*
X-400049287Y-34770506D01*
X-400108252Y-34880820D01*
X-400108996Y-34883271D01*
X-400263616Y-34694866D01*
X-400489736Y-34509294D01*
X-400747716Y-34371401D01*
X-401027639Y-34286487D01*
X-401318750Y-34257815D01*
X-401609860Y-34286487D01*
X-401889783Y-34371401D01*
X-402147763Y-34509294D01*
X-402373883Y-34694866D01*
X-402559456Y-34920986D01*
X-402697349Y-35178966D01*
X-402782263Y-35458889D01*
X-402803750Y-35677050D01*
X-402803750Y-36822949D01*
X-402782263Y-37041110D01*
X-402697349Y-37321033D01*
X-402559456Y-37579013D01*
X-402373884Y-37805134D01*
X-402147764Y-37990706D01*
X-401889784Y-38128599D01*
X-401609861Y-38213513D01*
X-401318750Y-38242185D01*
X-401027640Y-38213513D01*
X-400890448Y-38171896D01*
X-404370997Y-41652446D01*
X-404400001Y-41676249D01*
X-404449181Y-41736176D01*
X-404494974Y-41791974D01*
X-404536970Y-41870542D01*
X-404565546Y-41924004D01*
X-404609003Y-42067265D01*
X-404620000Y-42178918D01*
X-404620000Y-42178928D01*
X-404623676Y-42216250D01*
X-404620000Y-42253573D01*
X-404619999Y-45740224D01*
X-404658254Y-45743992D01*
X-404824850Y-45794528D01*
X-404978386Y-45876595D01*
X-405112962Y-45987038D01*
X-405223405Y-46121614D01*
X-405305472Y-46275150D01*
X-405356008Y-46441746D01*
X-405373072Y-46615000D01*
X-405373072Y-47365000D01*
X-405356008Y-47538254D01*
X-405305472Y-47704850D01*
X-405223405Y-47858386D01*
X-405112962Y-47992962D01*
X-404978386Y-48103405D01*
X-404824850Y-48185472D01*
X-404658254Y-48236008D01*
X-404485000Y-48253072D01*
X-403235000Y-48253072D01*
X-403061746Y-48236008D01*
X-402895150Y-48185472D01*
X-402741614Y-48103405D01*
X-402607038Y-47992962D01*
X-402496595Y-47858386D01*
X-402414528Y-47704850D01*
X-402363992Y-47538254D01*
X-402346928Y-47365000D01*
X-402346928Y-46615000D01*
X-402363992Y-46441746D01*
X-402414528Y-46275150D01*
X-402496595Y-46121614D01*
X-402607038Y-45987038D01*
X-402741614Y-45876595D01*
X-402895150Y-45794528D01*
X-403061746Y-45743992D01*
X-403100000Y-45740224D01*
X-403100000Y-42531051D01*
X-401388072Y-40819123D01*
X-401388072Y-41216250D01*
X-401371128Y-41388285D01*
X-401320947Y-41553709D01*
X-401239458Y-41706164D01*
X-401129792Y-41839792D01*
X-401044244Y-41910000D01*
X-401129792Y-41980208D01*
X-401239458Y-42113836D01*
X-401320947Y-42266291D01*
X-401371128Y-42431715D01*
X-401388072Y-42603750D01*
X-401388072Y-43091250D01*
X-401371128Y-43263285D01*
X-401320947Y-43428709D01*
X-401239458Y-43581164D01*
X-401129792Y-43714792D01*
X-400996164Y-43824458D01*
X-400843709Y-43905947D01*
X-400678285Y-43956128D01*
X-400506250Y-43973072D01*
X-399593750Y-43973072D01*
X-399421715Y-43956128D01*
X-399340738Y-43931564D01*
X-398778000Y-44494303D01*
X-398777999Y-48476657D01*
X-398781677Y-48514000D01*
X-398767003Y-48662986D01*
X-398723546Y-48806247D01*
X-398652974Y-48938276D01*
X-398558001Y-49054001D01*
X-398442276Y-49148974D01*
X-398310247Y-49219546D01*
X-398166986Y-49263003D01*
X-398081365Y-49271436D01*
X-394435549Y-52917253D01*
X-394411751Y-52946251D01*
X-394296026Y-53041224D01*
X-394163997Y-53111796D01*
X-394020736Y-53155253D01*
X-393909083Y-53166250D01*
X-393909075Y-53166250D01*
X-393871750Y-53169926D01*
X-393834425Y-53166250D01*
X-382782716Y-53166250D01*
X-382797000Y-53238061D01*
X-382797000Y-53441939D01*
X-382757226Y-53641898D01*
X-382679205Y-53830256D01*
X-382565937Y-53999774D01*
X-382421774Y-54143937D01*
X-382252256Y-54257205D01*
X-382063898Y-54335226D01*
X-381863939Y-54375000D01*
X-381660061Y-54375000D01*
X-381460102Y-54335226D01*
X-381271744Y-54257205D01*
X-381102226Y-54143937D01*
X-380990039Y-54031750D01*
X-380944322Y-54031750D01*
X-380944322Y-54281250D01*
X-380932062Y-54405732D01*
X-380895752Y-54525430D01*
X-380836787Y-54635744D01*
X-380757435Y-54732435D01*
X-380660744Y-54811787D01*
X-380550430Y-54870752D01*
X-380430732Y-54907062D01*
X-380306250Y-54919322D01*
X-378806250Y-54919322D01*
X-378765288Y-54915288D01*
X-378769322Y-54956250D01*
X-378769322Y-56456250D01*
X-378757062Y-56580732D01*
X-378720752Y-56700430D01*
X-378681750Y-56773397D01*
X-378681749Y-58933066D01*
X-378735611Y-58986928D01*
X-379150000Y-58986928D01*
X-379322035Y-59003872D01*
X-379487459Y-59054053D01*
X-379639914Y-59135542D01*
X-379773542Y-59245208D01*
X-379883208Y-59378836D01*
X-379947704Y-59499500D01*
X-380525231Y-59499500D01*
X-380936500Y-59091900D01*
X-380936500Y-58539503D01*
X-380844795Y-58402256D01*
X-380766774Y-58213898D01*
X-380727000Y-58013939D01*
X-380727000Y-57810061D01*
X-380766774Y-57610102D01*
X-380844795Y-57421744D01*
X-380958063Y-57252226D01*
X-381102226Y-57108063D01*
X-381271744Y-56994795D01*
X-381460102Y-56916774D01*
X-381660061Y-56877000D01*
X-381863939Y-56877000D01*
X-382063898Y-56916774D01*
X-382252256Y-56994795D01*
X-382421774Y-57108063D01*
X-382565937Y-57252226D01*
X-382649888Y-57377867D01*
X-385336351Y-54686272D01*
X-385362459Y-54654459D01*
X-385425567Y-54602668D01*
X-385487500Y-54551741D01*
X-385487851Y-54551553D01*
X-385488158Y-54551301D01*
X-385560027Y-54512886D01*
X-385630836Y-54474951D01*
X-385631211Y-54474837D01*
X-385631566Y-54474647D01*
X-385710135Y-54450813D01*
X-385786398Y-54427600D01*
X-385786787Y-54427561D01*
X-385787174Y-54427444D01*
X-385868686Y-54419416D01*
X-385948209Y-54411507D01*
X-385989151Y-54415500D01*
X-398692066Y-54415500D01*
X-402480080Y-50627488D01*
X-402414528Y-50504850D01*
X-402363992Y-50338254D01*
X-402346928Y-50165000D01*
X-402346928Y-49415000D01*
X-402363992Y-49241746D01*
X-402414528Y-49075150D01*
X-402496595Y-48921614D01*
X-402607038Y-48787038D01*
X-402741614Y-48676595D01*
X-402895150Y-48594528D01*
X-403061746Y-48543992D01*
X-403235000Y-48526928D01*
X-404485000Y-48526928D01*
X-404658254Y-48543992D01*
X-404824850Y-48594528D01*
X-404978386Y-48676595D01*
X-405112962Y-48787038D01*
X-405223405Y-48921614D01*
X-405305472Y-49075150D01*
X-405356008Y-49241746D01*
X-405373072Y-49415000D01*
X-405373072Y-50165000D01*
X-405356008Y-50338254D01*
X-405305472Y-50504850D01*
X-405223405Y-50658386D01*
X-405112962Y-50792962D01*
X-404978386Y-50903405D01*
X-404824850Y-50985472D01*
X-404658254Y-51036008D01*
X-404485000Y-51053072D01*
X-404389360Y-51053072D01*
X-399646389Y-55796045D01*
X-399620541Y-55827541D01*
X-399589045Y-55853389D01*
X-399589042Y-55853392D01*
X-399494843Y-55930699D01*
X-399380157Y-55992000D01*
X-399351434Y-56007353D01*
X-399195826Y-56054556D01*
X-399074553Y-56066500D01*
X-399074551Y-56066500D01*
X-399034000Y-56070494D01*
X-398993450Y-56066500D01*
X-386291394Y-56066500D01*
X-382374635Y-59990744D01*
X-382348540Y-60022541D01*
X-382315605Y-60049570D01*
X-381476220Y-60881470D01*
X-381451541Y-60911541D01*
X-381418605Y-60938571D01*
X-381417293Y-60939871D01*
X-381387277Y-60964281D01*
X-381325842Y-61014699D01*
X-381324201Y-61015576D01*
X-381322750Y-61016756D01*
X-381252422Y-61053943D01*
X-381182434Y-61091353D01*
X-381180649Y-61091894D01*
X-381178999Y-61092767D01*
X-381102999Y-61115449D01*
X-381026826Y-61138556D01*
X-381024961Y-61138740D01*
X-381023181Y-61139271D01*
X-380944324Y-61146681D01*
X-380905553Y-61150500D01*
X-380903690Y-61150500D01*
X-380861285Y-61154485D01*
X-380822601Y-61150500D01*
X-379947704Y-61150500D01*
X-379883208Y-61271164D01*
X-379773542Y-61404792D01*
X-379639914Y-61514458D01*
X-379487459Y-61595947D01*
X-379322035Y-61646128D01*
X-379150000Y-61663072D01*
X-378662500Y-61663072D01*
X-378490465Y-61646128D01*
X-378325041Y-61595947D01*
X-378172586Y-61514458D01*
X-378038958Y-61404792D01*
X-378033742Y-61398436D01*
X-377969935Y-61476185D01*
X-377873244Y-61555537D01*
X-377762930Y-61614502D01*
X-377643232Y-61650812D01*
X-377518750Y-61663072D01*
X-377317000Y-61660000D01*
X-377158250Y-61501250D01*
X-377158250Y-60452000D01*
X-376904250Y-60452000D01*
X-376904250Y-61501250D01*
X-376745500Y-61660000D01*
X-376543750Y-61663072D01*
X-376419268Y-61650812D01*
X-376299570Y-61614502D01*
X-376189256Y-61555537D01*
X-376092565Y-61476185D01*
X-376013213Y-61379494D01*
X-375954248Y-61269180D01*
X-375917938Y-61149482D01*
X-375905678Y-61025000D01*
X-371300572Y-61025000D01*
X-371288312Y-61149482D01*
X-371252002Y-61269180D01*
X-371193037Y-61379494D01*
X-371113685Y-61476185D01*
X-371016994Y-61555537D01*
X-370906680Y-61614502D01*
X-370786982Y-61650812D01*
X-370662500Y-61663072D01*
X-370460750Y-61660000D01*
X-370302000Y-61501250D01*
X-370302000Y-60452000D01*
X-371138750Y-60452000D01*
X-371297500Y-60610750D01*
X-371300572Y-61025000D01*
X-375905678Y-61025000D01*
X-375908750Y-60610750D01*
X-376067500Y-60452000D01*
X-376904250Y-60452000D01*
X-377158250Y-60452000D01*
X-377178250Y-60452000D01*
X-377178250Y-60198000D01*
X-377158250Y-60198000D01*
X-377158250Y-60178000D01*
X-376904250Y-60178000D01*
X-376904250Y-60198000D01*
X-376067500Y-60198000D01*
X-375908750Y-60039250D01*
X-375905678Y-59625000D01*
X-375917938Y-59500518D01*
X-375954248Y-59380820D01*
X-376013213Y-59270506D01*
X-376092565Y-59173815D01*
X-376189256Y-59094463D01*
X-376299570Y-59035498D01*
X-376419268Y-58999188D01*
X-376543750Y-58986928D01*
X-376745500Y-58990000D01*
X-376904248Y-59148748D01*
X-376904248Y-58990000D01*
X-377030750Y-58990000D01*
X-377030750Y-57091250D01*
X-376929248Y-57091250D01*
X-376929248Y-56951084D01*
X-376885744Y-56986787D01*
X-376862583Y-56999167D01*
X-376770500Y-57091250D01*
X-376656913Y-57081704D01*
X-376655732Y-57082062D01*
X-376531250Y-57094322D01*
X-375981250Y-57094322D01*
X-375856768Y-57082062D01*
X-375856250Y-57081905D01*
X-375855732Y-57082062D01*
X-375731250Y-57094322D01*
X-375181250Y-57094322D01*
X-375056768Y-57082062D01*
X-375056250Y-57081905D01*
X-375055732Y-57082062D01*
X-374931250Y-57094322D01*
X-374381250Y-57094322D01*
X-374256768Y-57082062D01*
X-374256250Y-57081905D01*
X-374255732Y-57082062D01*
X-374131250Y-57094322D01*
X-373581250Y-57094322D01*
X-373456768Y-57082062D01*
X-373456250Y-57081905D01*
X-373455732Y-57082062D01*
X-373331250Y-57094322D01*
X-372781250Y-57094322D01*
X-372656768Y-57082062D01*
X-372656250Y-57081905D01*
X-372655732Y-57082062D01*
X-372531250Y-57094322D01*
X-371981250Y-57094322D01*
X-371856768Y-57082062D01*
X-371856250Y-57081905D01*
X-371855732Y-57082062D01*
X-371731250Y-57094322D01*
X-371181250Y-57094322D01*
X-371056768Y-57082062D01*
X-371055587Y-57081704D01*
X-370942000Y-57091250D01*
X-370849917Y-56999167D01*
X-370826756Y-56986787D01*
X-370783252Y-56951084D01*
X-370783252Y-57091250D01*
X-370681750Y-57091250D01*
X-370681749Y-58728190D01*
X-370685744Y-58768750D01*
X-370669805Y-58930576D01*
X-370652666Y-58987078D01*
X-370662500Y-58986928D01*
X-370786982Y-58999188D01*
X-370906680Y-59035498D01*
X-371016994Y-59094463D01*
X-371113685Y-59173815D01*
X-371193037Y-59270506D01*
X-371252002Y-59380820D01*
X-371288312Y-59500518D01*
X-371300572Y-59625000D01*
X-371297500Y-60039250D01*
X-371138750Y-60198000D01*
X-370302000Y-60198000D01*
X-370302000Y-60178000D01*
X-370048000Y-60178000D01*
X-370048000Y-60198000D01*
X-370028000Y-60198000D01*
X-370028000Y-60452000D01*
X-370048000Y-60452000D01*
X-370048000Y-61501250D01*
X-369889250Y-61660000D01*
X-369687500Y-61663072D01*
X-369563018Y-61650812D01*
X-369443320Y-61614502D01*
X-369333006Y-61555537D01*
X-369236315Y-61476185D01*
X-369172508Y-61398436D01*
X-369167292Y-61404792D01*
X-369033664Y-61514458D01*
X-368881209Y-61595947D01*
X-368715785Y-61646128D01*
X-368543750Y-61663072D01*
X-368056250Y-61663072D01*
X-367884215Y-61646128D01*
X-367718791Y-61595947D01*
X-367566336Y-61514458D01*
X-367432708Y-61404792D01*
X-367323042Y-61271164D01*
X-367258546Y-61150500D01*
X-366927047Y-61150500D01*
X-366823898Y-61193226D01*
X-366623939Y-61233000D01*
X-366420061Y-61233000D01*
X-366220102Y-61193226D01*
X-366031744Y-61115205D01*
X-365862226Y-61001937D01*
X-365718063Y-60857774D01*
X-365604795Y-60688256D01*
X-365526774Y-60499898D01*
X-365487000Y-60299939D01*
X-365487000Y-60096061D01*
X-365526774Y-59896102D01*
X-365604795Y-59707744D01*
X-365718063Y-59538226D01*
X-365862226Y-59394063D01*
X-366031744Y-59280795D01*
X-366220102Y-59202774D01*
X-366420061Y-59163000D01*
X-366623939Y-59163000D01*
X-366823898Y-59202774D01*
X-367012256Y-59280795D01*
X-367181774Y-59394063D01*
X-367268531Y-59480820D01*
X-367323042Y-59378836D01*
X-367432708Y-59245208D01*
X-367566336Y-59135542D01*
X-367718791Y-59054053D01*
X-367884215Y-59003872D01*
X-367982500Y-58994192D01*
X-367982500Y-58793503D01*
X-367890795Y-58656256D01*
X-367812774Y-58467898D01*
X-367773000Y-58267939D01*
X-367773000Y-58064061D01*
X-367812774Y-57864102D01*
X-367890795Y-57675744D01*
X-368004063Y-57506226D01*
X-368148226Y-57362063D01*
X-368317744Y-57248795D01*
X-368506102Y-57170774D01*
X-368706061Y-57131000D01*
X-368909939Y-57131000D01*
X-369030750Y-57155031D01*
X-369030750Y-56773396D01*
X-368991748Y-56700430D01*
X-368955438Y-56580732D01*
X-368943178Y-56456250D01*
X-368943178Y-56367500D01*
X-365828072Y-56367500D01*
X-365815812Y-56491982D01*
X-365779502Y-56611680D01*
X-365720537Y-56721994D01*
X-365641185Y-56818685D01*
X-365544494Y-56898037D01*
X-365434180Y-56957002D01*
X-365314482Y-56993312D01*
X-365190000Y-57005572D01*
X-364775750Y-57002500D01*
X-364617000Y-56843750D01*
X-364617000Y-56007000D01*
X-364363000Y-56007000D01*
X-364363000Y-56843750D01*
X-364204250Y-57002500D01*
X-363790000Y-57005572D01*
X-363665518Y-56993312D01*
X-363545820Y-56957002D01*
X-363435506Y-56898037D01*
X-363338815Y-56818685D01*
X-363259463Y-56721994D01*
X-363200498Y-56611680D01*
X-363164188Y-56491982D01*
X-363151928Y-56367500D01*
X-363155000Y-56165750D01*
X-363313750Y-56007000D01*
X-364363000Y-56007000D01*
X-364617000Y-56007000D01*
X-365666250Y-56007000D01*
X-365825000Y-56165750D01*
X-365828072Y-56367500D01*
X-368943178Y-56367500D01*
X-368943178Y-54956250D01*
X-368947212Y-54915288D01*
X-368906250Y-54919322D01*
X-367406250Y-54919322D01*
X-367281768Y-54907062D01*
X-367162070Y-54870752D01*
X-367051756Y-54811787D01*
X-366994746Y-54765000D01*
X-365657845Y-54765000D01*
X-365569792Y-54872292D01*
X-365563436Y-54877508D01*
X-365641185Y-54941315D01*
X-365720537Y-55038006D01*
X-365779502Y-55148320D01*
X-365815812Y-55268018D01*
X-365828072Y-55392500D01*
X-365825000Y-55594250D01*
X-365666250Y-55753000D01*
X-364617000Y-55753000D01*
X-364617000Y-55733000D01*
X-364363000Y-55733000D01*
X-364363000Y-55753000D01*
X-363313750Y-55753000D01*
X-363155000Y-55594250D01*
X-363151928Y-55392500D01*
X-363164188Y-55268018D01*
X-363200498Y-55148320D01*
X-363259463Y-55038006D01*
X-363338815Y-54941315D01*
X-363416564Y-54877508D01*
X-363410208Y-54872292D01*
X-363300542Y-54738664D01*
X-363219053Y-54586209D01*
X-363168872Y-54420785D01*
X-363151928Y-54248750D01*
X-363151928Y-53761250D01*
X-363168872Y-53589215D01*
X-363219053Y-53423791D01*
X-363300542Y-53271336D01*
X-363410208Y-53137708D01*
X-363543836Y-53028042D01*
X-363696291Y-52946553D01*
X-363861715Y-52896372D01*
X-364033750Y-52879428D01*
X-364946250Y-52879428D01*
X-365118285Y-52896372D01*
X-365283709Y-52946553D01*
X-365436164Y-53028042D01*
X-365569792Y-53137708D01*
X-365657845Y-53245000D01*
X-366768178Y-53245000D01*
X-366768178Y-52931250D01*
X-366780438Y-52806768D01*
X-366780595Y-52806250D01*
X-366780438Y-52805732D01*
X-366768178Y-52681250D01*
X-366768178Y-52366250D01*
X-362817051Y-52366250D01*
X-361315000Y-53868302D01*
X-361315000Y-67602500D01*
X-405573971Y-67602500D01*
X-405939960Y-67566614D01*
X-406260962Y-67469698D01*
X-406557025Y-67312279D01*
X-406816873Y-67100351D01*
X-407030606Y-66841992D01*
X-407190088Y-66547036D01*
X-407289243Y-66226719D01*
X-407323582Y-65900000D01*
X-405481822Y-65900000D01*
X-405469562Y-66024482D01*
X-405433252Y-66144180D01*
X-405374287Y-66254494D01*
X-405294935Y-66351185D01*
X-405198244Y-66430537D01*
X-405087930Y-66489502D01*
X-404968232Y-66525812D01*
X-404843750Y-66538072D01*
X-404229500Y-66535000D01*
X-404070750Y-66376250D01*
X-404070750Y-65477000D01*
X-403816750Y-65477000D01*
X-403816750Y-66376250D01*
X-403658000Y-66535000D01*
X-403043750Y-66538072D01*
X-402919268Y-66525812D01*
X-402799570Y-66489502D01*
X-402689256Y-66430537D01*
X-402592565Y-66351185D01*
X-402513213Y-66254494D01*
X-402454248Y-66144180D01*
X-402417938Y-66024482D01*
X-402405678Y-65900000D01*
X-402408750Y-65635750D01*
X-402567500Y-65477000D01*
X-403816750Y-65477000D01*
X-404070750Y-65477000D01*
X-405320000Y-65477000D01*
X-405478750Y-65635750D01*
X-405481822Y-65900000D01*
X-407323582Y-65900000D01*
X-407327500Y-65862729D01*
X-407327500Y-64800000D01*
X-405481822Y-64800000D01*
X-405478750Y-65064250D01*
X-405320000Y-65223000D01*
X-404070750Y-65223000D01*
X-404070750Y-64323750D01*
X-403816750Y-64323750D01*
X-403816750Y-65223000D01*
X-402567500Y-65223000D01*
X-402408750Y-65064250D01*
X-402405678Y-64800000D01*
X-399281822Y-64800000D01*
X-399281822Y-65900000D01*
X-399269562Y-66024482D01*
X-399233252Y-66144180D01*
X-399174287Y-66254494D01*
X-399094935Y-66351185D01*
X-398998244Y-66430537D01*
X-398887930Y-66489502D01*
X-398768232Y-66525812D01*
X-398643750Y-66538072D01*
X-396843750Y-66538072D01*
X-396719268Y-66525812D01*
X-396599570Y-66489502D01*
X-396489256Y-66430537D01*
X-396392565Y-66351185D01*
X-396313213Y-66254494D01*
X-396254248Y-66144180D01*
X-396217938Y-66024482D01*
X-396205678Y-65900000D01*
X-396205678Y-64800000D01*
X-396217938Y-64675518D01*
X-396254248Y-64555820D01*
X-396313213Y-64445506D01*
X-396392565Y-64348815D01*
X-396489256Y-64269463D01*
X-396599570Y-64210498D01*
X-396719268Y-64174188D01*
X-396843750Y-64161928D01*
X-398643750Y-64161928D01*
X-398768232Y-64174188D01*
X-398887930Y-64210498D01*
X-398998244Y-64269463D01*
X-399094935Y-64348815D01*
X-399174287Y-64445506D01*
X-399233252Y-64555820D01*
X-399269562Y-64675518D01*
X-399281822Y-64800000D01*
X-402405678Y-64800000D01*
X-402417938Y-64675518D01*
X-402454248Y-64555820D01*
X-402513213Y-64445506D01*
X-402592565Y-64348815D01*
X-402689256Y-64269463D01*
X-402799570Y-64210498D01*
X-402919268Y-64174188D01*
X-403043750Y-64161928D01*
X-403658000Y-64165000D01*
X-403816750Y-64323750D01*
X-404070750Y-64323750D01*
X-404229500Y-64165000D01*
X-404843750Y-64161928D01*
X-404968232Y-64174188D01*
X-405087930Y-64210498D01*
X-405198244Y-64269463D01*
X-405294935Y-64348815D01*
X-405374287Y-64445506D01*
X-405433252Y-64555820D01*
X-405469562Y-64675518D01*
X-405481822Y-64800000D01*
X-407327500Y-64800000D01*
X-407327500Y-61100000D01*
X-405481822Y-61100000D01*
X-405481822Y-62200000D01*
X-405469562Y-62324482D01*
X-405433252Y-62444180D01*
X-405374287Y-62554494D01*
X-405294935Y-62651185D01*
X-405198244Y-62730537D01*
X-405087930Y-62789502D01*
X-404968232Y-62825812D01*
X-404843750Y-62838072D01*
X-403043750Y-62838072D01*
X-402919268Y-62825812D01*
X-402799570Y-62789502D01*
X-402689256Y-62730537D01*
X-402592565Y-62651185D01*
X-402513213Y-62554494D01*
X-402454248Y-62444180D01*
X-402417938Y-62324482D01*
X-402405678Y-62200000D01*
X-402405678Y-61100000D01*
X-399281822Y-61100000D01*
X-399281822Y-62200000D01*
X-399269562Y-62324482D01*
X-399233252Y-62444180D01*
X-399174287Y-62554494D01*
X-399094935Y-62651185D01*
X-398998244Y-62730537D01*
X-398887930Y-62789502D01*
X-398768232Y-62825812D01*
X-398643750Y-62838072D01*
X-396843750Y-62838072D01*
X-396719268Y-62825812D01*
X-396599570Y-62789502D01*
X-396489256Y-62730537D01*
X-396392565Y-62651185D01*
X-396313213Y-62554494D01*
X-396254248Y-62444180D01*
X-396243880Y-62410000D01*
X-396205322Y-62410000D01*
X-396168000Y-62413676D01*
X-396130678Y-62410000D01*
X-396130667Y-62410000D01*
X-396019014Y-62399003D01*
X-395875753Y-62355546D01*
X-395743724Y-62284974D01*
X-395627999Y-62190001D01*
X-395604197Y-62160998D01*
X-395438199Y-61995000D01*
X-395376061Y-61995000D01*
X-395176102Y-61955226D01*
X-394987744Y-61877205D01*
X-394818226Y-61763937D01*
X-394674063Y-61619774D01*
X-394560795Y-61450256D01*
X-394482774Y-61261898D01*
X-394443000Y-61061939D01*
X-394443000Y-60858061D01*
X-394482774Y-60658102D01*
X-394560795Y-60469744D01*
X-394674063Y-60300226D01*
X-394818226Y-60156063D01*
X-394987744Y-60042795D01*
X-395176102Y-59964774D01*
X-395376061Y-59925000D01*
X-395579939Y-59925000D01*
X-395779898Y-59964774D01*
X-395968256Y-60042795D01*
X-396137774Y-60156063D01*
X-396281937Y-60300226D01*
X-396395205Y-60469744D01*
X-396449892Y-60601768D01*
X-396489256Y-60569463D01*
X-396599570Y-60510498D01*
X-396719268Y-60474188D01*
X-396843750Y-60461928D01*
X-398643750Y-60461928D01*
X-398768232Y-60474188D01*
X-398887930Y-60510498D01*
X-398998244Y-60569463D01*
X-399094935Y-60648815D01*
X-399174287Y-60745506D01*
X-399233252Y-60855820D01*
X-399269562Y-60975518D01*
X-399281822Y-61100000D01*
X-402405678Y-61100000D01*
X-402417938Y-60975518D01*
X-402454248Y-60855820D01*
X-402513213Y-60745506D01*
X-402592565Y-60648815D01*
X-402689256Y-60569463D01*
X-402799570Y-60510498D01*
X-402919268Y-60474188D01*
X-403043750Y-60461928D01*
X-404843750Y-60461928D01*
X-404968232Y-60474188D01*
X-405087930Y-60510498D01*
X-405198244Y-60569463D01*
X-405294935Y-60648815D01*
X-405374287Y-60745506D01*
X-405433252Y-60855820D01*
X-405469562Y-60975518D01*
X-405481822Y-61100000D01*
X-407327500Y-61100000D01*
X-407327500Y-32576029D01*
X-407291614Y-32210040D01*
X-407194699Y-31889040D01*
X-407037279Y-31592975D01*
X-406825351Y-31333127D01*
X-406566990Y-31119392D01*
X-406272036Y-30959912D01*
X-405951718Y-30860756D01*
X-405587738Y-30822500D01*
X-402740890Y-30822500D01*
X-402782263Y-30958889D01*
G36*
X-374691000Y-35179000D02*
G01*
X-374671000Y-35179000D01*
X-374671000Y-35433000D01*
X-374691000Y-35433000D01*
X-374691000Y-36382250D01*
X-374532250Y-36541000D01*
X-374118000Y-36544072D01*
X-373993518Y-36531812D01*
X-373873820Y-36495502D01*
X-373763506Y-36436537D01*
X-373718000Y-36399191D01*
X-373672494Y-36436537D01*
X-373562180Y-36495502D01*
X-373442482Y-36531812D01*
X-373377999Y-36538163D01*
X-373377999Y-36769197D01*
X-374269000Y-37660198D01*
X-375386105Y-36543094D01*
X-375103750Y-36541000D01*
X-374945000Y-36382250D01*
X-374945000Y-35433000D01*
X-374965000Y-35433000D01*
X-374965000Y-35179000D01*
X-374945000Y-35179000D01*
X-374945000Y-35159000D01*
X-374691000Y-35159000D01*
X-374691000Y-35179000D01*
G37*
X-374691000Y-35179000D02*
X-374671000Y-35179000D01*
X-374671000Y-35433000D01*
X-374691000Y-35433000D01*
X-374691000Y-36382250D01*
X-374532250Y-36541000D01*
X-374118000Y-36544072D01*
X-373993518Y-36531812D01*
X-373873820Y-36495502D01*
X-373763506Y-36436537D01*
X-373718000Y-36399191D01*
X-373672494Y-36436537D01*
X-373562180Y-36495502D01*
X-373442482Y-36531812D01*
X-373377999Y-36538163D01*
X-373377999Y-36769197D01*
X-374269000Y-37660198D01*
X-375386105Y-36543094D01*
X-375103750Y-36541000D01*
X-374945000Y-36382250D01*
X-374945000Y-35433000D01*
X-374965000Y-35433000D01*
X-374965000Y-35179000D01*
X-374945000Y-35179000D01*
X-374945000Y-35159000D01*
X-374691000Y-35159000D01*
X-374691000Y-35179000D01*
M02*
